<?xml version="1.0" standalone="no"?>
<!DOCTYPE svg PUBLIC "-//W3C//DTD SVG 1.1//EN" "http://www.w3.org/Graphics/SVG/1.1/DTD/svg11.dtd" >
<svg xmlns="http://www.w3.org/2000/svg">
<metadata>
This is a custom SVG webfont generated by Font Squirrel.
Copyright   : Copyright c SIL International httpwwwsilorg 19952009 All rights reserved
Designer    : Development by SILs NRSI team
Foundry URL : httpwwwsilorg
</metadata>
<defs>
<font id="webfontJEXBBlW4" horiz-adv-x="1050" >
<font-face units-per-em="2048" ascent="1638" descent="-410" />
<missing-glyph horiz-adv-x="641" />
<glyph unicode=" "  horiz-adv-x="641" />
<glyph unicode="&#x09;" horiz-adv-x="641" />
<glyph unicode="&#xa0;" horiz-adv-x="641" />
<glyph unicode="!" horiz-adv-x="937" d="M248 121q0 -27 10 -53q8 -23 31 -45q14 -14 43 -29q25 -12 55 -12q29 0 55 10q23 8 45 31q14 14 29 43q12 25 12 55.5t-12 54.5q-16 33 -29 45q-16 16 -45 31q-20 10 -55 10t-55 -10q-25 -12 -43 -31q-23 -23 -31 -45q-10 -26 -10 -55zM248 1186q0 -55 12 -133 q12 -77 31 -179q20 -113 37 -227q23 -152 34 -289h46q18 188 34 289q6 33 18.5 111l18.5 116.5t13.5 70.5t10.5 53.5t9 54.5q12 78 12 133q0 39 -6 76q-6 33 -22 63q-14 25 -43 41t-68 16t-68 -16q-28 -15 -43 -43q-14 -25 -20 -63q-6 -37 -6 -74z" />
<glyph unicode="&#x22;" horiz-adv-x="1175" d="M182 1286q0 -12 6 -49q4 -31 19 -84l26 -102q6 -27 12.5 -53.5t14.5 -55.5q6 -25 12.5 -49.5l12.5 -46.5q8 -29 18 -70l8 -26h49q2 10 7 26q10 41 18 70l27 96l28 109q8 29 13.5 54t11.5 48q18 78 20 84q6 37 7 49q0 33 -13 60q-12 29 -32.5 49t-49 32.5t-61.5 12.5 t-60 -13q-29 -12 -49 -32.5t-32 -48.5q-13 -27 -13 -60zM684 1286q0 -12 6 -49q6 -31 19 -84l26 -102q6 -27 12.5 -53.5t14.5 -55.5l26 -96l19 -70l6 -26h49q2 10 6 26q4 12 9.5 30.5l11.5 39.5l12 47.5l12 48.5l29 109q6 20 14.5 56t10.5 46q16 74 18 84q2 8 4 20.5l3 18.5 t1 10q0 33 -12 60q-12 29 -32.5 49t-49.5 32q-27 12 -61 13q-31 0 -59.5 -12.5t-49 -33t-33.5 -48.5q-12 -27 -12 -60z" />
<glyph unicode="#" horiz-adv-x="1062" d="M41 412h139l-88 -443h144l92 443h290l-90 -443h148l88 443h258v143h-229l57 293h172v145h-143l92 447h-148l-88 -447h-293l90 447h-145l-90 -447h-256v-145h225l-55 -293h-170v-143zM358 555l58 293h291l-60 -293h-289z" />
<glyph unicode="$" horiz-adv-x="1083" d="M84 1028q0 -78 27 -133q28 -58 79 -111q47 -47 132 -104l178 -117v-516q-72 6 -127 27q-63 23 -103 59q-43 39 -73 103q-31 61 -43 147h-45v-336q16 -8 90 -31q53 -16 98 -24q74 -12 102 -17q70 -8 101 -8v-110h90v123q113 10 190.5 46.5t126.5 92t70 121.5q23 72 22 135 q0 86 -28 153q-27 63 -80 119q-49 53 -129 107l-172 114v459q57 -12 104 -39q57 -33 92 -69q43 -47 72 -100.5t47 -127.5h43v299q-16 10 -67 33q-47 23 -86 35q-35 12 -99 26q-47 10 -106 15v49h-90v-49q-86 -8 -164 -37q-72 -25 -131 -76q-57 -47 -88 -112 q-33 -70 -33 -146zM305 1153q0 39 19 72q18 35 45 55q33 27 63 37q34 12 68 12v-403l-40 27.5t-34 23.5q-31 20 -64 53q-29 29 -43 57.5t-14 65.5zM590 47v451q41 -31 78 -64q37 -35 55 -59q23 -31 31 -64q10 -37 10 -69q0 -76 -41 -123q-43 -49 -133 -72z" />
<glyph unicode="%" horiz-adv-x="1798" d="M90 872.5q0 -75.5 14 -127.5q14 -53 50 -90q33 -37 90 -55q55 -18 141 -18q72 0 133 24q66 27 115 64q53 41 96 96q45 59 74 115q29 59 45 125q16 70 16 127q0 23 -4 63q-4 33 -12 57q33 -12 61 -16q37 -4 54 -4q43 0 92 16q43 14 106 43l-780 -1323h197l868 1477h-193 q-55 -68 -133 -103q-77 -34 -166 -36q-45 0 -69 8q-37 12 -51 20l-46 27l-43 27q-16 8 -57 20q-27 8 -76 8q-72 0 -133 -20q-68 -23 -123 -58q-57 -37 -106 -88q-45 -47 -84 -112q-31 -53 -55 -127q-21 -64 -21 -139.5zM303 799q0 76 16 133q20 76 46 125q31 63 65 110 q39 53 78 88q43 39 80 60q39 20 74 20q27 0 51 -14q18 -10 39 -41q16 -27 26 -70q10 -47 10 -100q0 -43 -14 -88q-16 -49 -39 -96q-29 -57 -57 -97q-35 -47 -70 -81.5t-75.5 -57t-77.5 -22.5q-71 0 -111 37q-41 37 -41 94zM934 274q0 -71 12 -129q12 -53 47 -96 q35 -41 86 -61q53 -20 135 -21q78 0 146 25q72 27 123 65q49 39 96 99q45 59 72 116q33 72 45 125q14 59 14 121q0 41 -10 98q-8 51 -41 93q-33 43 -80 67q-51 27 -137 27q-63 0 -131 -23q-61 -20 -121 -63q-63 -45 -105 -92q-46 -52 -79 -111q-35 -61 -54 -121 q-18 -62 -18 -119zM1147 184q0 70 18.5 133.5t46.5 124.5q25 53 66 111q37 51 76 88q45 41 76 59q35 20 65.5 20.5t54.5 -11.5q27 -12 43.5 -39t26.5 -70q10 -47 10 -104q0 -47 -14 -97q-12 -45 -41 -100q-27 -51 -59 -94q-35 -43 -72 -78q-33 -31 -76 -53q-39 -20 -72 -21 q-72 0 -108 35q-41 37 -41 96z" />
<glyph unicode="&#x26;" horiz-adv-x="1832" d="M127 317q0 -70 29 -137q29 -66 82 -110q55 -47 131 -74q74 -27 176 -27q74 0 145 17q66 14 127 41q68 29 111 55q55 35 90 61q35 -35 72 -65q35 -29 77 -55q31 -18 90 -39q43 -14 103 -15q78 0 133 31q59 33 98 78q41 47 68 94l45 86l-43 23q-25 -43 -64 -82 q-33 -33 -86 -33q-25 0 -59 10q-29 8 -63 31q-14 8 -72 53q-12 8 -25.5 20.5l-31 29t-29.5 26.5q59 72 119 158q31 43 84 133q18 31 53 86q23 37 47 57q29 25 51 35q25 10 72 14v41h-434v-41q53 -8 84 -37q31 -28 30 -80q0 -27 -14 -73q-10 -35 -34.5 -80t-51.5 -80 q-20 -27 -61 -76l-91 107l-84 106q-45 59 -77 111l-74 119l123 55q59 29 114 74q57 47 89 98q35 57 34 131q0 51 -22.5 96t-61.5 78q-41 35 -98 53.5t-131 18.5q-84 0 -156 -27q-78 -29 -127 -76q-53 -51 -84 -116q-31 -68 -30 -152q0 -57 8 -98q2 -10 20 -84q4 -20 21 -62 l12 -30q-18 -8 -52 -24.5l-46 -22.5q-35 -16 -101 -58q-33 -20 -90 -69q-47 -39 -75 -84q-35 -53 -52 -101q-18 -56 -18 -119zM403 485q0 51 15 86q15 37 43 68q29 31 59 51q35 23 70 37q20 -43 65 -125q23 -41 76 -119q86 -131 225 -276q-2 -2 -11 -7t-17 -12 q-18 -14 -54 -30q-20 -10 -69 -27q-37 -12 -74 -12q-59 0 -119 31q-63 33 -106 81q-46 52 -74 117q-29 67 -29 137zM721 1202q0 18 8 55q6 25 23 50q12 18 43 36q23 14 61 15q35 0 66 -19q29 -16 51 -53q18 -27 31 -74q12 -43 12 -86v2q0 -53 -23 -94q-18 -35 -53 -65 q-29 -27 -66 -43l-59 -27q-14 29 -24 53l-31 78q-12 35 -27 88q-12 45 -12 84z" />
<glyph unicode="'" horiz-adv-x="483" d="M88 1286q0 -12 6 -49q4 -31 19 -84l26 -102q6 -27 12.5 -53.5t14.5 -55.5l27 -96q8 -29 18 -70l6 -26h49q2 10 6 26q4 12 9.5 30.5l11.5 39.5l12 47.5l12 48.5l29 109q6 20 14.5 56t10.5 46q16 74 18 84q2 8 4 20.5l3 18.5t1 10q0 33 -12 60q-12 29 -32.5 49t-49.5 32.5 t-61.5 12.5t-59.5 -13q-29 -12 -49 -32.5t-33 -48.5q-12 -27 -12 -60z" />
<glyph unicode="(" horiz-adv-x="708" d="M78 512q0 -117 24 -221q25 -102 68 -193q47 -96 96 -159q63 -82 117 -129q66 -59 123 -97q51 -35 119 -63l26 49q-84 61 -139 137q-57 78 -94 184.5t-56 231.5q-16 115 -16 283q0 164 21 278q23 125 61 215q39 92 96 164q53 68 127 129l-20 45q-111 -53 -209 -131 t-176 -186.5t-123 -241.5t-45 -295z" />
<glyph unicode=")" horiz-adv-x="708" d="M51 -301l25 -47q70 29 129 69q66 43 125 100.5t114 127.5q51 66 95 157q43 94 63 189q23 106 23 217q0 164 -50 303q-51 143 -126 246q-82 111 -177 184q-100 78 -198 123l-23 -47q74 -57 131 -131q55 -70 97 -168q39 -92 57 -217q20 -137 20 -283q0 -154 -18 -278 q-18 -126 -55 -228t-95 -180q-57 -80 -137 -137z" />
<glyph unicode="*" horiz-adv-x="1034" d="M160 1130q0 -20 6 -34q6 -16 18 -29q12 -10 27 -20q31 -18 61 -25q8 -2 30 -7t34 -7q14 -2 70 -17q41 -10 77 -33q-47 -27 -80 -34q-59 -14 -67 -17q-12 -2 -33.5 -7l-30.5 -7q-31 -6 -61 -25q-14 -8 -26.5 -20t-18.5 -29q-4 -10 -4 -35q0 -18 12 -36q14 -25 28.5 -33 t33.5 -13q10 -2 32 3q15 3 31 12q31 18 53 41l43 49q14 16 49 51q27 27 70 51q0 -45 -10 -86q-10 -43 -21 -67q-8 -20 -20 -62q-10 -35 -10 -65q0 -18 6 -33q10 -25 14 -31q10 -12 29 -22q16 -8 39 -8q25 0 41 8q18 10 28 22q10 14 15 31q4 20 4 33q0 31 -11 65 q-12 41 -20 62q-10 25 -20 67q-8 33 -9 86q43 -25 70 -51q18 -18 47 -51l43 -47q23 -23 53 -41q16 -10 31 -12q23 -4 35 -2q16 2 33 12q14 8 26.5 30.5t12.5 40.5q0 23 -5 33q-6 16 -18 29q-12 10 -27 20q-31 18 -61 25q-41 8 -64 12q-14 2 -69 17q-31 8 -78 34q47 27 78 35 q55 14 69 17q12 2 33 7l29 7q31 6 61 25q16 8 27 20q12 12 18.5 28.5t6.5 35t-12.5 39t-29 30.5t-32.5 12q-10 2 -35 -2q-14 -2 -31 -12q-31 -18 -53 -41l-43 -49q-14 -16 -49 -51q-27 -27 -70 -51q0 45 10 86q10 43 21 67q18 47 22 60q8 27 9 65q0 23 -4 35q-2 8 -17 31 q-6 10 -26 22q-14 8 -39 8t-41 -8q-23 -10 -29 -22q-8 -16 -14 -31q-6 -18 -6 -35q0 -31 10 -65q12 -41 20 -62q10 -25 21 -67q10 -41 10 -84q-43 25 -70 51q-35 35 -49 51l-43 47q-27 27 -51 41q-16 10 -33 12q-23 4 -33 2q-18 -4 -32.5 -12t-26.5 -31q-14 -25 -14 -39z " />
<glyph unicode="+" horiz-adv-x="1206" d="M78 424h424v-424h180v424h424v190h-424v422h-180v-422h-424v-190z" />
<glyph unicode="," horiz-adv-x="708" d="M168 119q0 -35 10 -56q10 -23 29 -43q14 -16 37 -26q25 -10 37 -10q10 0 26 4q4 0 11.5 4t11.5 4q6 2 10 3t10 3q12 4 21 4q12 0 18 -12q8 -16 8 -27q0 -25 -12 -55q-8 -20 -37 -57q-23 -29 -53 -54q-33 -27 -72 -41l23 -53q115 47 176 135t61 201q0 39 -12 78 q-12 41 -32.5 69.5t-53.5 49.5q-31 18 -72 18q-72 0 -110 -39q-35 -34 -35 -100z" />
<glyph unicode="-" horiz-adv-x="708" d="M80 377h528v174h-528v-174z" />
<glyph unicode="." horiz-adv-x="708" d="M170 125q0 -31 12 -57q12 -29 31 -48q20 -20 47 -32.5t57.5 -12.5t57 12.5t47 33t33 47t12.5 57.5t-12.5 57.5t-32.5 44.5q-25 20 -47 31q-27 12 -57.5 12t-57.5 -12q-23 -10 -47 -31q-16 -14 -31 -45q-12 -26 -12 -57z" />
<glyph unicode="/" horiz-adv-x="651" d="M18 -35h132l452 1419h-135z" />
<glyph unicode="0" d="M31 668q0 -184 39 -310q41 -135 102 -213q65 -83 147 -122q80 -39 173 -39q86 0 172 41q84 41 147 125q70 92 107 215q39 129 38 317q0 180 -41 315q-39 125 -106 217q-59 80 -145 123q-82 41 -156 41q-94 0 -178 -39q-86 -41 -152 -122q-66 -84 -106 -222 q-41 -139 -41 -327zM313 686q0 184 15 293q14 104 43 188q25 68 59 101q33 31 70 30.5t67 -32.5q33 -37 54 -107q23 -80 34 -196q12 -123 13 -301q0 -182 -11 -279q-12 -121 -32 -193q-20 -70 -54 -110q-31 -37 -71 -37q-35 0 -70 35q-37 37 -59 108q-27 82 -41 199 q-17 131 -17 301z" />
<glyph unicode="1" d="M211 1143q41 18 78 26q35 6 53 2q20 -6 33 -20q12 -16 18 -33q8 -25 8 -41q0 -8 1 -22.5t1 -20.5v-839q0 -39 -6 -66q-6 -29 -22 -45q-18 -18 -53 -27q-47 -12 -99 -14v-43h623v43q-53 2 -98 10q-31 4 -54 21q-16 10 -22 32q-6 20 -6 52v1200q0 12 -4 16q-2 2 -13 -4 l-438 -184v-43z" />
<glyph unicode="2" d="M76 0h813l78 324l-33 12q-27 -53 -39 -70q-20 -27 -37 -41q-18 -16 -39 -18q-29 -4 -55 -4h-430l201 209q96 102 174 204q82 106 125 201q47 100 47 195q0 80 -21 143q-20 66 -65 117q-47 53 -115 80q-74 29 -170 28q-84 0 -160 -32q-70 -31 -125 -86q-49 -49 -90 -132 q-35 -70 -57 -159l43 -8q45 104 104 149q68 51 158 51q49 0 96 -20q43 -18 72 -53q27 -33 43 -78t16 -94q0 -68 -12 -130q-12 -59 -39 -122q-29 -66 -70 -131q-37 -57 -100 -142q-31 -39 -137 -164l-176 -196v-33z" />
<glyph unicode="3" d="M86 131q0 -27 14 -49q16 -27 50 -47q37 -23 92 -35q68 -14 145 -14q150 0 260 41q106 39 172 108q70 74 96 160q29 96 29 197q0 86 -24 143q-23 55 -64 98q-33 35 -82 64q-14 8 -80 41q88 43 131 112q45 74 45 152q0 59 -22 115q-20 49 -66 88q-47 39 -102 59 q-59 20 -135 20q-66 0 -133 -24q-72 -27 -127 -70q-61 -49 -107 -114q-46 -68 -74 -154l39 -10q43 94 107 141q65 49 153 49q43 0 84 -18.5t70 -46.5q33 -33 49.5 -68t16.5 -82t-15 -84q-14 -39 -51 -76q-35 -35 -92 -63q-55 -27 -139 -43l2 -39q10 2 24 2h21q84 0 151 -31 q66 -31 117 -84t78 -123q27 -68 26 -147q0 -53 -16 -98q-14 -43 -45 -76q-27 -31 -72 -49q-39 -16 -92 -17q-33 0 -59 13q-18 8 -55 32q-18 12 -51 41t-52 41q-37 25 -55 33q-27 12 -60 12q-46 0 -73 -24q-29 -25 -29 -76z" />
<glyph unicode="4" d="M49 295h514v-295h250v295h164v194h-164v883h-125l-639 -880v-197zM145 489l418 586v-586h-418z" />
<glyph unicode="5" d="M63 137q0 -35 15 -61q18 -31 51 -51q41 -25 96 -35q61 -12 150 -13q117 0 221 35q102 35 176 99q76 66 119 155.5t43 200.5q0 102 -26.5 176t-76.5 133q-43 51 -112 94q-59 37 -139 64q-61 20 -158 35q-92 14 -164 16l68 164h497q27 0 39 22l74 222l-35 12l-12 -19 q-2 -2 -5 -8t-5 -8q-8 -8 -15 -10q-12 -4 -20 -4h-525l-225 -594q-6 -12 -2 -19q2 -6 17 -6q131 0 247 -24q113 -25 201 -74q86 -49 135 -123t49 -178q0 -55 -22 -111q-20 -51 -55 -88q-33 -35 -74 -57q-39 -20 -82 -21q-29 0 -57 13q-27 12 -54 35q-4 4 -22.5 18t-28.5 25 q-6 8 -53 43q-29 23 -59.5 35t-67.5 12q-47 0 -76 -29q-27 -27 -27 -76z" />
<glyph unicode="6" d="M76 586q0 -152 43 -267q41 -111 112 -190q63 -72 152 -113q84 -39 168 -39q90 0 162 35q78 37 135 101q63 70 94 151q35 92 35 193q0 119 -33 196q-35 82 -86 133.5t-121 73.5q-72 23 -137 23q-59 0 -108 -13q-47 -12 -95 -43q25 109 76 205q49 94 110.5 155.5 t151.5 106.5q76 37 195 62l-6 45q-119 0 -238 -33q-102 -29 -205 -88q-96 -55 -170 -133q-74 -76 -127 -168q-52 -89 -80 -191q-28 -104 -28 -202zM344 530q0 127 37 189q35 59 125 59q96 0 151 -110q53 -106 54 -314q0 -71 -6 -129q-6 -53 -27 -98q-18 -41 -45 -61.5 t-72 -20.5q-57 0 -98 45q-39 43 -68 115q-27 68 -39 155q-12 86 -12 170z" />
<glyph unicode="7" d="M45 999l45 -4q22 40 43 68q25 33 47.5 47t65.5 25q35 8 100 8h373l-377 -1143h178l416 1290v66h-791z" />
<glyph unicode="8" d="M76 305q0 -90 35 -147q39 -66 96 -103q63 -41 141 -59q80 -18 166 -19q111 0 197 29q78 27 133 78q55 53 78 111q25 63 24 133q0 8 -1 26.5t-1 28.5q0 31 -8 57q-10 33 -27 64q-20 37 -51 74q-33 39 -84 84t-125 100q82 43 123 72q55 39 86 75q33 39 49 84q14 41 15 94 q0 57 -23 113q-23 53 -70 94q-45 39 -122.5 61.5t-178 22.5t-180.5 -24q-76 -23 -133 -68q-55 -43 -84 -108q-29 -68 -29 -146q0 -41 13 -88q12 -46 43 -92q33 -49 78 -94q46 -46 116 -92q-70 -33 -121 -68q-52 -37 -86 -80q-31 -39 -51 -96q-18 -52 -18 -117zM322 319 q0 76 20 144q23 76 82 143q78 -53 145 -114q53 -47 82 -93q27 -41 37 -86t10 -88q0 -35 -10 -71q-8 -29 -33 -58q-25 -27 -51 -41q-29 -14 -72 -14q-55 0 -92 22q-43 27 -65 64q-29 47 -39 88q-14 57 -14 104zM344 1135q0 88 45 133t121 45q47 0 82 -19q29 -16 53 -51 q22 -31 31 -74q10 -47 10 -86q0 -74 -22 -147q-18 -63 -82 -123q-71 46 -117 86t-74 80q-29 41 -37 76q-10 45 -10 80z" />
<glyph unicode="9" d="M59 905q0 -115 35 -196q35 -80 90 -134q55 -52 123 -73q72 -23 135 -23q70 0 113 17q51 18 102 55l-47 -143q-20 -61 -49 -119q-27 -53 -65 -99q-41 -47 -88 -77q-55 -35 -121 -61.5t-166 -45.5l14 -53q133 12 250 53t207 98.5t164 137.5q76 82 118 166q45 86 70 184 q25 96 25 196q0 147 -37 259q-37 109 -103 184q-66 74 -149 110q-86 37 -184 37q-100 0 -183 -35q-78 -33 -137 -98q-53 -59 -86 -149q-31 -87 -31 -191zM338 991q0 78 10 146q8 57 29 100q16 37 45 57q25 18 57 19q39 0 70 -19q27 -16 51 -55q27 -41 39 -80q10 -33 23 -98 q12 -70 14 -109q4 -74 4 -110q0 -8 -1 -27.5t-1 -32.5q0 -23 -4 -63q-4 -37 -8 -53q-8 -29 -11 -31q-23 -23 -55 -39q-29 -14 -72 -14q-92 0 -141 104t-49 305z" />
<glyph unicode=":" horiz-adv-x="708" d="M170 125q0 -31 12 -57q12 -29 31 -48q20 -20 47 -32.5t57.5 -12.5t57 12.5t47 33t33 47t12.5 57.5t-12.5 57.5t-32.5 44.5q-25 20 -47 31q-27 12 -57.5 12t-57.5 -12q-23 -10 -47 -31q-16 -14 -31 -45q-12 -26 -12 -57zM170 879q0 -31 12 -58q12 -29 31 -47 q20 -20 47 -32.5t57.5 -12.5t57 12.5t47 33t33 47t12.5 57t-12 57.5q-14 31 -33 47q-25 20 -47.5 30.5t-57.5 10.5q-31 0 -57 -12q-29 -12 -47 -31q-16 -16 -31 -45q-12 -24 -12 -57z" />
<glyph unicode=";" horiz-adv-x="708" d="M170 119q0 -31 12 -56q14 -29 29 -43q18 -18 37 -26q25 -10 37 -10q10 0 26 4q4 2 12.5 5t10.5 3l20 8q12 4 19 4q12 0 18 -14q8 -20 8 -27q0 -25 -12 -55q-8 -20 -37 -57q-23 -29 -53 -54q-33 -27 -72 -41l23 -53q115 47 176 135t61 201q0 39 -12 78q-12 41 -32.5 69.5 t-53.5 49.5q-35 20 -72 20q-72 0 -108 -39q-37 -41 -37 -102zM170 879q0 -31 12 -58q12 -29 31 -47q20 -20 47 -32.5t57.5 -12.5t57 12.5t47 33t33 47t12.5 57t-12 57.5q-14 31 -33 47q-25 20 -47.5 30.5t-57.5 10.5q-31 0 -57 -12q-29 -12 -47 -31q-16 -16 -31 -45 q-12 -24 -12 -57z" />
<glyph unicode="&#x3c;" horiz-adv-x="1646" d="M209 551l1229 -471v127l-1098 407l1098 408v127l-1229 -471v-127z" />
<glyph unicode="=" horiz-adv-x="1175" d="M78 231h1028v179h-1028v-179zM78 627h1028v178h-1028v-178z" />
<glyph unicode="&#x3e;" horiz-adv-x="1646" d="M209 80l1229 471v127l-1229 471v-127l1098 -408l-1098 -407v-127z" />
<glyph unicode="?" horiz-adv-x="1064" d="M129 1130q0 -27 10 -57q8 -29 27 -45q18 -18 47 -31q23 -10 63 -10q20 0 46 10q22 9 36 25q10 10 23 39q8 18 8 45q0 25 -10 55q-8 25 -21 49l-22 45q-10 25 -10 37q0 18 12 33q14 16 29 25q25 12 39 16q20 6 38 6q88 0 137.5 -69.5t49.5 -192.5q0 -53 -6 -96 q-6 -45 -14.5 -74t-22.5 -61q-8 -18 -29 -56q-31 -55 -35 -63l-26 -53q-12 -25 -19 -50q-8 -33 -10 -51q-6 -55 -6 -63q0 -10 -1 -38t-1 -44h45q0 59 16 108q15 46 43 80q27 33 64 60q55 41 71 51q63 43 76 51q37 28 68 61l37 46q16 23 32 51q14 27 25 63q8 31 8 78 q0 84 -35 147q-37 66 -90 103q-66 45 -133 61q-74 18 -156 19q-109 0 -182.5 -27t-124.5 -72q-47 -41 -73 -100q-23 -52 -23 -111zM322 141.5q0 -30.5 14 -67.5q10 -27 37 -54q29 -29 53 -38q31 -12 67.5 -12.5t67.5 12.5q27 10 55 38q27 27 37 54q12 31 12.5 67.5 t-12.5 67.5q-10 27 -37 53q-25 25 -55 37q-37 14 -67.5 14t-67.5 -14q-27 -10 -53.5 -36.5t-36.5 -53.5q-14 -37 -14 -67.5z" />
<glyph unicode="@" horiz-adv-x="1978" d="M96 451q0 -141 33 -261q33 -121 92 -223q55 -94 144 -180q80 -78 186 -135q104 -57 219 -84q121 -29 244 -29q166 0 307 45q147 47 260 127q121 86 209 201t143 260h-63q-49 -137 -127 -233q-82 -104 -193 -181q-100 -70 -243 -116q-132 -43 -283 -43q-104 0 -217 26 q-100 25 -195 74q-104 55 -168 117q-74 71 -129 159q-47 78 -82 197q-31 106 -30.5 231t28.5 252q27 115 86 232q55 108 136 196q84 94 184 156q100 63 227 100q117 35 266 35q145 0 268.5 -49t209.5 -135t133 -205q46 -117 49 -252q0 -117 -23 -201q-25 -96 -63 -165 q-39 -72 -90 -129q-39 -45 -101 -91q-47 -35 -94 -55q-43 -18 -73 -18q-18 0 -39 8q-14 6 -26.5 18.5t-18.5 26.5q-4 10 -5 31q0 18 5 55l14 68q4 14 13 49t14 49l40 139l60 193l78 260l-252 -8l-39 -119q0 4 -3 16t-5 23q-8 37 -19 53q-14 27 -43 45q-31 20 -73 20 q-55 0 -125 -32q-53 -25 -123 -88q-63 -57 -115 -129q-49 -70 -92 -162q-39 -84 -63.5 -176t-24.5 -181q0 -37 10 -84t29 -75q20 -33 53 -53.5t78 -20.5q61 0 114 29q47 25 95 75q49 53 82 105l75 119q-12 -37 -18 -76q-8 -45 -8 -64q0 -55 16 -88q16 -35 47 -57 q33 -25 66 -33q45 -10 82 -10q94 0 174 27q76 25 151 77q68 47 125 117q49 61 94 150q37 72 60 172q20 88 20 188q0 154 -49 283t-143 223q-98 98 -236 149q-143 53 -325 54q-147 0 -287 -35q-129 -33 -246 -100q-115 -68 -198 -154q-84 -88 -148 -201q-57 -104 -90 -235 q-31 -126 -31 -264zM774 285q0 29 6 71.5t19 92.5q14 57 30 106q33 100 37 109q29 70 45 100q18 35 52 84q23 33 53 57q27 20 55 21q23 0 35 -12.5t22 -34.5q6 -14 10.5 -47t4.5 -48q0 -68 -15 -131q-12 -49 -43 -133q-25 -66 -59 -125q-34 -58 -68 -104q-27 -37 -69 -72 q-33 -27 -62 -26q-14 0 -22 8q-10 10 -17 22q-6 14 -10 31q-4 21 -4 31z" />
<glyph unicode="A" horiz-adv-x="1536" d="M16 0h469v39q-70 4 -112.5 18.5t-59.5 40.5q-15 22 -14 55v13q2 35 29 96l59 139h500l90 -217q12 -33 20 -67q6 -29 -8 -45q-12 -14 -51 -25q-33 -8 -104 -8v-39h679v39q-27 0 -53 10t-49 33q-27 27 -49 63q-29 45 -53 105l-523 1190h-20l-533 -1188q-29 -63 -51 -100 q-25 -40 -49 -62q-29 -25 -53 -33q-47 -16 -64 -18v-39zM424 477l217 488l209 -488h-426z" />
<glyph unicode="B" horiz-adv-x="1419" d="M43 0h776q98 0 195 25q94 25 167.5 73.5t119 118.5t45.5 168q0 66 -23 127q-20 53 -72 102q-49 47 -125 80q-70 31 -182 54q102 27 178 63q68 33 101 76q37 47 45 90q10 55 10 102q0 52 -25 111t-79 108q-57 51 -140 80q-86 31 -205 31h-786v-39q68 0 102 -8 q43 -10 62 -29q23 -23 29 -55q6 -37 6 -90v-967q0 -53 -6 -90q-6 -33 -29 -55q-18 -18 -62 -29q-35 -8 -102 -8v-39zM569 201v493l68 -2q88 -4 145 -22q66 -23 107 -60q49 -45 67 -96q23 -61 23 -139q0 -84 -27 -137q-25 -49 -71 -91q-45 -39 -95 -53q-55 -16 -102 -16 q-29 0 -51 6q-18 6 -34.5 18.5t-23 37t-6.5 61.5zM569 776v555l68 -2q84 -4 139 -24q57 -23 90 -58q34 -37 49 -86q14 -45 15 -108q0 -59 -19 -109q-20 -53 -53 -86q-37 -37 -90 -57q-49 -18 -131 -23z" />
<glyph unicode="C" horiz-adv-x="1536" d="M84 705q0 -94 18 -183q18 -92 58 -172q39 -82 100 -151q57 -66 148 -121q86 -52 196 -80q115 -29 252 -29q109 0 188 19q84 18 144 49q66 33 112 74q66 57 97 90v123q-82 -86 -117 -117q-55 -49 -111 -80q-51 -29 -116.5 -45t-141.5 -16q-123 0 -209 49q-84 47 -141 137 q-55 86 -79.5 202.5t-24.5 250.5q0 131 28 251q27 113 88 203q63 92 148 139q90 49 207 50q77 0 147 -25q72 -25 133 -74q55 -45 104.5 -122.5t69.5 -172.5h41v488h-39q-2 -8 -7 -21.5t-7 -17.5q-6 -20 -18 -35q-10 -12 -27 -22q-14 -8 -37 -9q-14 0 -53 17l-94 35 q-66 23 -125 34q-76 16 -152 17q-111 0 -215 -29q-102 -29 -188 -80q-88 -53 -156 -121q-72 -72 -119 -151.5t-75 -171.5q-27 -86 -27 -182z" />
<glyph unicode="D" horiz-adv-x="1523" d="M29 0h704q166 0 297 53q133 53 221 148q92 98 138 225q47 131 47 279q0 143 -47 274q-45 123 -138 223q-88 94 -221 152q-129 55 -297 55h-704v-39q68 0 102 -8q43 -10 62 -29q20 -20 26 -55q8 -49 8 -90v-967q0 -41 -8 -90q-6 -35 -26 -55q-18 -18 -62 -29 q-35 -8 -102 -8v-39zM555 221v1110h82q78 0 147 -26q61 -23 111 -70q47 -43 78 -107q37 -74 51 -129q20 -78 29 -145q8 -66 8 -149q0 -51 -8 -154q-6 -74 -25 -145q-18 -74 -45 -132q-29 -63 -70 -104q-47 -47 -98 -70q-55 -25 -127 -24q-35 0 -67 8q-23 6 -39 22 q-14 14 -21 46q-6 28 -6 69z" />
<glyph unicode="E" horiz-adv-x="1398" d="M43 0h1219l61 446h-37q-35 -106 -86 -184q-47 -72 -113 -112q-63 -39 -151 -56q-92 -16 -199 -16q-43 0 -88 8q-31 6 -51 23q-16 12 -23 43q-6 29 -6 69v455h45q76 0 121 -27q51 -31 76 -71q31 -51 45 -105q15 -58 25 -123h39v737h-39q-8 -68 -25 -131q-16 -68 -43 -104 q-33 -45 -78 -70q-49 -27 -121 -26h-45v575h176q102 0 173 -14q74 -14 126 -53q49 -35 86 -105q35 -68 54 -166h39v416h-1180v-39q68 0 102 -8q43 -10 62 -29q23 -23 29 -55q6 -37 6 -90v-967q0 -53 -6 -90q-6 -33 -29 -55q-18 -18 -62 -29q-35 -8 -102 -8v-39z" />
<glyph unicode="F" horiz-adv-x="1292" d="M43 0h727v39q-74 0 -108 8q-37 8 -60 31q-20 20 -27 57q-6 34 -6 86v449h56q78 0 129 -23q55 -25 92 -67.5t55.5 -104t24.5 -135.5h37v713h-35q-10 -78 -29 -125q-25 -63 -55 -97q-37 -39 -90 -61q-49 -20 -129 -20h-56v581h187q94 0 176 -16q74 -14 131 -53 q51 -35 84 -98.5t41 -157.5h43v403h-1188v-39q68 0 102 -8q43 -10 62 -29q23 -23 29 -55q6 -37 6 -90v-967q0 -53 -6 -90q-6 -33 -29 -55q-18 -18 -62 -29q-35 -8 -102 -8v-39z" />
<glyph unicode="G" horiz-adv-x="1656" d="M80 705q0 -98 20 -183q23 -92 64 -172q45 -86 104 -151q61 -68 150 -121q86 -53 192 -80q111 -29 238 -29q180 0 332 31q145 31 282 90v281q0 53 6.5 90t22.5 55q16 20 49 29q31 8 88 8v39h-674v-39q59 0 90 -8q37 -10 56 -29q16 -16 26 -55q8 -33 9 -90v-273 q-63 -31 -105 -37q-61 -10 -127 -10q-98 0 -160 23q-72 27 -118 67q-53 47 -84 103q-33 59 -52 133q-20 82 -28 155.5t-8 172.5q0 132 24 251q25 125 78 209q55 90 143 141.5t222 51.5q74 0 153 -29q78 -29 148 -82q74 -57 122 -129q55 -80 78 -170h41v494h-39 q-15 -43 -37 -74q-23 -31 -53 -31q-27 0 -51 6q-12 2 -51 21q-14 6 -30.5 12t-33.5 13q-23 8 -80 24q-43 12 -100 19q-78 8 -131 8q-119 0 -227 -29q-104 -28 -191 -80q-90 -55 -153 -121q-68 -72 -113 -151q-41 -72 -68 -172q-24 -88 -24 -182z" />
<glyph unicode="H" horiz-adv-x="1654" d="M41 0h725v39q-68 0 -102 8q-43 10 -62 29q-23 23 -29 55q-6 37 -6 90v457h523v-457q0 -53 -7 -90q-6 -33 -28 -55q-18 -18 -62 -29q-35 -8 -102 -8v-39h725v39q-68 0 -103 8q-43 10 -61 29q-23 23 -29 55q-6 37 -6 90v967q0 53 6 90q6 33 29 55q18 18 61 29q35 8 103 8 v39h-725v-39q68 0 102 -8q43 -10 62 -29q23 -23 28 -55q6 -37 7 -90v-420h-523v420q0 53 6 90q6 33 29 55q18 18 62 29q35 8 102 8v39h-725v-39q68 0 102 -8q43 -10 62 -29q23 -23 28 -55q6 -37 7 -90v-967q0 -53 -7 -90q-6 -33 -28 -55q-18 -18 -62 -29q-35 -8 -102 -8v-39 z" />
<glyph unicode="I" horiz-adv-x="808" d="M43 0h725v39q-68 0 -102 8q-43 10 -62 29q-23 23 -29 55q-6 37 -6 90v967q0 53 6 90q6 33 29 55q18 18 62 29q35 8 102 8v39h-725v-39q68 0 102 -8q43 -10 62 -29q23 -23 29 -55q6 -37 6 -90v-967q0 -53 -6 -90q-6 -33 -29 -55q-18 -18 -62 -29q-35 -8 -102 -8v-39z" />
<glyph unicode="J" horiz-adv-x="1064" d="M23 274q0 -57 28 -114q27 -53 82 -99q51 -43 127 -67q74 -25 162 -25q92 0 166 23q80 25 137 76q59 53 94 137q35 86 35 205v778q0 53 6 90q6 33 29 55q18 18 61 29q35 8 103 8v39h-740v-39q70 0 105 -8q45 -10 65 -29q25 -20 33 -55q10 -41 10 -90v-778q0 -117 -10 -195 q-10 -76 -27 -109q-16 -35 -45 -45q-27 -10 -59 -10q-29 0 -43 4q-18 6 -41 17q-18 9 -31 24q-12 14 -12 35q0 18 10 31l12.5 17l12.5 18q8 12 24 41q10 18 11 47q0 31 -12.5 57.5t-32.5 46.5q-14 14 -47 31q-25 12 -52 12q-33 0 -63.5 -12t-51 -32.5t-32.5 -49.5 q-14 -33 -14 -64z" />
<glyph unicode="K" horiz-adv-x="1652" d="M43 0h698v39q-57 0 -88 8q-35 10 -51 29q-23 25 -27 55q-6 37 -6 90v406l52 43l383 -486q25 -33 32 -55q8 -25 2 -47q-4 -16 -34 -31q-25 -12 -74 -12v-39h735v39q-14 0 -55 8q-23 4 -64 27q-35 18 -69 51q-45 41 -78 84l-527 661l517 412q59 47 110 69.5t92 22.5v35 h-547v-35q57 0 96.5 -12t55.5 -39t2 -59q-16 -35 -70 -80l-559 -453v457q0 53 6 90q6 33 25 55q16 18 49 29q27 8 84 8v39h-690v-39q68 0 102 -8q43 -10 62 -29q23 -23 29 -55q6 -37 6 -90v-967q0 -53 -6 -90q-6 -33 -29 -55q-18 -18 -62 -29q-35 -8 -102 -8v-39z" />
<glyph unicode="L" horiz-adv-x="1398" d="M41 0h1247l53 494h-41q-16 -61 -51 -152q-25 -61 -57 -113q-27 -41 -70 -75q-29 -23 -86 -45q-49 -18 -106.5 -24.5t-132.5 -6.5q-80 0 -125 6q-53 8 -70 18q-23 16 -29 43t-6 76v967q0 57 8.5 90t34.5 55q23 18 66 29q39 8 106 8v39h-741v-39q68 0 102 -8q43 -10 62 -29 q23 -23 28 -55q6 -37 7 -90v-967q0 -53 -7 -90q-6 -33 -28 -55q-18 -18 -62 -29q-35 -8 -102 -8v-39z" />
<glyph unicode="M" horiz-adv-x="2000" d="M43 0h481v39q-102 0 -153.5 43t-51.5 139v1057l549 -1278h25l541 1286v-1065q0 -53 -7 -90q-6 -33 -28 -55q-18 -18 -62 -29q-35 -8 -102 -8v-39h727v39q-70 0 -104 8q-39 10 -60 29q-23 23 -29 55q-8 49 -8 90v967q0 41 8 90q6 33 29 55q20 18 60 29q35 8 104 8v39h-565 l-381 -928l-395 928h-578v-39q68 0 102 -8q43 -10 62 -29q23 -23 29 -55q6 -37 6 -90v-967q0 -96 -49.5 -139t-149.5 -43v-39z" />
<glyph unicode="N" horiz-adv-x="1540" d="M35 0h500v39q-104 0 -160 43t-56 139v920l951 -1172h37v1219q0 94 45 139q43 43 143 43v39h-469v-39q104 0 153.5 -43t49.5 -139v-651l-694 872h-500v-37q35 0 59 -6q29 -6 47 -20q23 -14 45 -39q14 -14 56 -68v-1018q0 -98 -54 -139q-55 -43 -153 -43v-39z" />
<glyph unicode="O" horiz-adv-x="1648" d="M76 704.5q0 -104.5 26 -196.5q27 -94 76 -176q45 -76 119 -150q68 -68 152 -114q86 -47 178 -72q102 -27 196.5 -27t196.5 27q96 25 180 72q82 47 152 114q74 74 118 150q49 82 76 176q27 92 27 196.5t-27 196.5q-27 94 -76 176q-45 76 -118 150q-70 68 -152 114 q-84 47 -180 72q-102 27 -196.5 27t-196.5 -27q-92 -25 -178 -72q-84 -47 -152 -114q-74 -74 -119 -150q-49 -82 -76 -176q-26 -92 -26 -196.5zM451 704.5q0 49.5 8 151.5q6 88 22 150q20 82 45 139q29 66 70 112q43 49 96 76q57 29 131 29t131 -29q53 -27 97 -76 q41 -45 69 -114q27 -59 45 -137q18 -74 25 -150q8 -102 8 -151.5t-8 -151.5q-6 -76 -25 -150q-18 -78 -45 -137q-29 -70 -69 -114q-43 -49 -97 -76q-57 -29 -130.5 -29t-131.5 29q-53 27 -96 76q-41 45 -70 114q-27 59 -45 137q-16 61 -22 150q-8 102 -8 151.5z" />
<glyph unicode="P" horiz-adv-x="1292" d="M49 0h715v39q-68 0 -100 8q-41 10 -60 27q-23 18 -29 53q-6 33 -6 84v428h95q152 0 260 31q111 33 176 82q72 55 100 122q31 72 31 152q0 84 -35 158q-33 70 -100.5 121t-157.5 77q-92 27 -215 27h-674v-39q70 0 103 -8q39 -10 57 -29q20 -20 27 -55q6 -37 6 -90v-967 q0 -53 -6 -90q-6 -35 -27 -55q-18 -18 -57 -29q-33 -8 -103 -8v-39zM569 717v614h47q74 0 132 -26q53 -25 83 -68q29 -39 41 -98q12 -55 13 -113q0 -61 -12.5 -116.5t-43 -98.5t-81.5 -68q-57 -27 -132 -26h-47z" />
<glyph unicode="Q" horiz-adv-x="1648" d="M76 705q0 -131 37 -248q37 -115 110 -211q74 -95 178 -160q109 -68 240 -94q37 -90 104 -168q63 -72 138 -117q84 -49 161 -69q90 -23 175 -23q53 0 102 6q41 6 90 17q10 2 32.5 7l31.5 7l24 6v61l-86 -8q-94 0 -158 21q-72 23 -114 57q-49 39 -78 88q-35 57 -53 113 q119 14 227 82q102 63 176 161q80 104 119 220q41 117 41 252q0 150 -53.5 286.5t-149.5 233.5q-100 98 -237 157q-135 57 -310 58q-104 0 -211 -27q-96 -25 -182 -72q-80 -45 -147 -114q-72 -74 -113 -150q-45 -82 -70 -176q-24 -95 -24 -196zM451 704.5q0 73.5 6 151.5 q4 51 24 150q16 76 43 139q31 70 68 112q43 49 98 76q61 29 133 29q76 0 138 -29q57 -27 100 -76q41 -45 69 -114q25 -55 41 -137q14 -66 21 -150q6 -78 6 -151.5t-6 -151.5q-6 -68 -22.5 -149.5t-41.5 -137.5q-29 -70 -69 -114q-43 -49 -101 -76q-61 -29 -134.5 -29 t-135.5 29q-59 29 -98 76t-68 114q-29 66 -43 137q-16 82 -22 150q-6 78 -6 151.5z" />
<glyph unicode="R" horiz-adv-x="1531" d="M39 0h715v39q-68 0 -101 8q-37 10 -57 27q-23 18 -29 53q-8 45 -8 84v430h96l451 -641h444v39q-8 0 -32 4q-14 2 -35 12q-25 12 -37 23q-16 12 -33 37l-395 553q80 18 141.5 53t97.5 82q37 46 56 104q18 59 18 119q0 84 -35 158q-35 72 -98 121q-68 51 -160 77.5 t-213 26.5h-786v-39q70 0 102 -8q39 -10 58 -29q20 -20 26 -55q6 -37 6 -90v-967q0 -53 -6 -90q-6 -35 -26 -55q-18 -18 -58 -29q-33 -8 -102 -8v-39zM559 719v612h139q82 0 146 -26q57 -25 88 -68q33 -47 45 -98q12 -55 12 -113q0 -51 -14 -115q-12 -51 -45 -98 q-31 -43 -82 -68q-57 -27 -129 -26h-160z" />
<glyph unicode="S" horiz-adv-x="1183" d="M111 -31h36q25 41 46 60q27 23 61 22q37 0 68 -12l30.5 -13.5t36.5 -15.5q43 -18 88 -28q52 -12 129 -13q106 0 195 31q90 31 155 88q74 63 107 135q37 80 37 176q0 92 -33 158q-34 68 -86 123q-39 41 -123 94q-63 41 -139 80l-141 72q-74 37 -123 71.5t-86 81.5 q-33 41 -33 101q0 45 18 77q16 29 52 58q31 25 71 37q47 14 82 14q70 0 135.5 -26.5t122.5 -77.5q61 -55 98 -123q37 -70 54 -168h43l-11 469h-34q-6 -31 -21 -66q-12 -29 -41 -28q-31 0 -61 14l-76 33q-37 16 -94 32q-49 14 -121 15q-104 0 -178 -29q-80 -31 -139.5 -84 t-92 -125t-32.5 -162q0 -88 32.5 -159.5t83.5 -122.5q53 -53 121 -96q37 -23 137 -76l138 -72q78 -39 120 -72q55 -41 84 -86q33 -49 33 -108q0 -43 -22 -84q-20 -37 -56 -66q-31 -27 -80 -43q-45 -16 -90 -16q-72 0 -127 20q-61 23 -108 56q-43 29 -88 82q-40 46 -68 98 q-33 61 -47 102q-14 43 -22 103h-41v-531z" />
<glyph unicode="T" horiz-adv-x="1417" d="M76 1028h41q12 59 39 133q23 61 57 96q37 37 90 55.5t125 18.5h117v-1110q0 -57 -8 -90q-8 -35 -29 -55q-18 -18 -62 -29q-35 -8 -104 -8v-39h733v39q-70 0 -104 8q-43 10 -62 29q-20 20 -28 55q-8 33 -9 90v1110h117q76 0 127 -18.5t88 -55.5q41 -41 62 -96 q23 -61 37 -133h40v381h-1267v-381z" />
<glyph unicode="U" horiz-adv-x="1536" d="M51 1370q68 0 101 -8q41 -10 59 -28.5t24.5 -55.5t6.5 -90v-739q0 -240 129 -361q127 -119 391 -119q119 0 217 25q100 25 170 86q74 63 113 166q41 106 41 266v676q0 47 14 90q10 31 39 55q20 18 61 29q33 8 84 8v39h-487v-39q55 0 88 -8q43 -10 63 -29q29 -25 39 -55 q12 -37 13 -90v-637q0 -123 -23 -217q-23 -90 -66 -150q-41 -53 -112 -84q-70 -29 -156 -28q-92 0 -145 26q-57 29 -90 76q-31 43 -43 119q-12 72 -13 158v737q0 57 8.5 90t30.5 55q18 18 62 29q35 8 104 8v39h-723v-39z" />
<glyph unicode="V" horiz-adv-x="1536" d="M16 1370q31 0 56 -6q23 -6 45 -28.5t43 -63.5q33 -66 53 -113l516 -1190h35l532 1188q47 102 97 148q53 51 123 65v39h-461v-39q182 0 182 -114q0 -45 -29 -109l-321 -725l-344 803q-14 33 -21 63q-6 29 8 45q16 20 51 28.5t111 8.5v39h-676v-39z" />
<glyph unicode="W" horiz-adv-x="2129" d="M18 1370q27 0 48 -6q25 -6 40 -27q23 -27 41 -63q20 -39 50 -115l477 -1190h43l383 905l346 -905h43l453 1188l36 96q16 43 35 68q18 27 39 37q20 12 59 12v39h-366v-39q51 0 90 -14q29 -10 43 -41q7 -15 7 -37q0 -14 -3 -33q-4 -33 -29 -98l-249 -666l-285 744 q-14 43 -19 71q-4 31 11 45q16 16 47 23q35 6 90 6v39h-684v-39q39 0 70 -6q33 -6 55 -27q27 -23 49 -63q25 -41 51 -115l68 -178l-221 -535l-299 736q-20 49 -26.5 86t3.5 59.5t41 32.5t76 10v39h-613v-39z" />
<glyph unicode="X" horiz-adv-x="1536" d="M14 0h541v39q-166 0 -180 70q-2 7 -2 15q0 71 116 210l191 229q6 -10 16.5 -24.5l22.5 -32.5l51 -76q12 -20 26.5 -39.5t28.5 -40.5l49 -74l20.5 -30.5t14.5 -22.5l15 -20q43 -63 42 -101q0 -14 -5 -24q-20 -39 -127 -39v-39h690v39q-16 0 -41 4q-20 4 -41 18 q-18 14 -43 41q-29 33 -51 68l-33 47q-14 18 -94 135l-144 209l-178 266l322 387q39 47 73.5 82t57.5 47q31 16 57 23q20 4 72 4v39h-518v-39q57 0 92 -14q39 -16 53 -45q8 -16 8 -36q0 -17 -6 -38q-12 -43 -57 -100l-199 -244l-209 315q-31 49 -39 74q-10 33 2 51 q14 20 45 28.5t92 8.5v39h-700v-39q16 0 41 -4q16 -2 39 -18q18 -14 43 -41q29 -33 51 -68l33 -47l90 -131l133 -193l162 -237l-311 -379q-61 -74 -80 -92q-41 -41 -72 -62q-33 -23 -74 -39q-33 -14 -86 -20v-39z" />
<glyph unicode="Y" horiz-adv-x="1536" d="M18 1370q23 0 60 -8q25 -6 53.5 -30.5t52.5 -63.5q35 -53 66 -111l354 -643v-293q0 -53 -12 -90q-10 -31 -41 -55q-25 -18 -72 -29q-39 -8 -108 -8v-39h790v39q-70 0 -108 8q-45 10 -70 29q-29 23 -39 55q-12 37 -12 90v348l303 514l86 140q35 51 68 88q31 33 59 45 q35 14 65 14v39h-430v-39q53 0 95 -10q37 -10 53 -35q7 -11 7 -29q0 -15 -5 -39q-10 -45 -49 -108l-291 -490l-307 568q-23 43 -29 67q-6 29 4 45q12 18 45 25q31 6 88 6v39h-676v-39z" />
<glyph unicode="Z" horiz-adv-x="1419" d="M35 0h1292l55 512h-41q-23 -115 -77 -209q-49 -84 -123 -133q-78 -51 -164 -72q-88 -20 -203 -20h-303l827 1331h-1114l-37 -412h37q22 101 68 166q49 70 96 103q49 35 109 51q51 14 94 14h311z" />
<glyph unicode="[" horiz-adv-x="708" d="M150 -317v-11h471v62h-166q-25 0 -43.5 18.5t-18.5 40.5v1440q0 23 18.5 41t43.5 18h166v64h-471v-1673z" />
<glyph unicode="\" horiz-adv-x="651" d="M18 1384l449 -1419h135l-452 1419h-132z" />
<glyph unicode="]" horiz-adv-x="708" d="M86 -266v-62h471v11v1673h-471v-64h166q25 0 43 -18.5t18 -40.5v-1440q0 -23 -18.5 -41t-42.5 -18h-166z" />
<glyph unicode="^" horiz-adv-x="839" d="M121 848l100 -2l191 373l209 -373l104 2l-285 653h-39z" />
<glyph unicode="_" horiz-adv-x="1024" d="M0 -164v-137h1024v137h-1024z" />
<glyph unicode="`" horiz-adv-x="727" d="M0 1403q0 -23 6 -45q6 -18 27 -33l356 -221h107l-308 377q-12 16 -32 24q-18 8 -45 8q-25 0 -43.5 -8t-35 -24.5t-24.5 -34.5t-8 -43z" />
<glyph unicode="a" horiz-adv-x="1064" d="M96 174q0 -45 15 -76q16 -35 43 -59q29 -25 63 -37q43 -14 82 -14q45 0 86 14q29 10 82 39q37 20 76 49q51 39 65 51q4 -31 15 -55q14 -33 32 -51q23 -23 56 -35q39 -14 82 -14q45 0 84 16q37 15 67 37q27 18 51 47q20 23 35 45l-29 29q-20 -27 -40 -37q-18 -8 -33 -2 q-14 8 -21 24q-8 25 -8 41v510q0 61 -18 117q-18 53 -58 96q-39 41 -106 68q-66 25 -162 24q-57 0 -104 -8q-35 -6 -101 -26q-53 -16 -92 -39t-73.5 -57.5t-51.5 -69.5q-18 -40 -18 -86q0 -31 14 -53q12 -20 39 -44q14 -12 51 -24q31 -10 51 -10q29 0 52 8q29 10 45 24.5 t30 38.5q10 18 11 52q0 25 -11 45q-6 12 -22 32q-2 4 -11.5 13.5t-13.5 15.5q-10 16 -10 35q0 20 12 35q8 10 33 22q18 9 43 13q16 2 45 2q72 0 102 -39q33 -43 33 -107v-160q-152 -70 -231 -112q-98 -53 -158 -105q-63 -53 -92 -106q-31 -56 -31 -117zM381 274q0 29 14 66 q12 31 33 57q14 18 47 52q18 18 51 43q20 16 47 30q8 6 18.5 11.5t16.5 9.5v-322l-12 -10l-29 -21q-20 -12 -37 -20q-25 -10 -41 -10q-47 0 -77.5 30.5t-30.5 83.5z" />
<glyph unicode="b" horiz-adv-x="1187" d="M45 1372q10 -2 27.5 -5t21.5 -3q20 -2 37 -16q14 -12 21 -31q8 -29 8 -57v-1291h37l165 107q14 -14 39 -33q29 -23 56 -35q35 -18 73 -28q35 -10 91 -11q115 0 204 47q84 43 150 125q61 77 92 178q31 102 31 207q0 114 -31 203q-29 82 -84 148q-53 61 -119 92 q-72 33 -139 32q-41 0 -82 -10q-35 -8 -70 -24q-29 -12 -63 -41q-31 -25 -59 -54v537h-406v-37zM451 246v534l34 35q25 25 39 35q20 14 47 24q23 8 56 9q55 0 85.5 -35t49.5 -88q16 -47 22 -121q6 -68 7 -133q0 -127 -9 -203q-10 -92 -28 -143q-23 -61 -56 -86 q-39 -29 -90 -29q-72 0 -114.5 51.5t-42.5 149.5z" />
<glyph unicode="c" horiz-adv-x="944" d="M82 485q0 -129 37 -227q35 -94 94 -160q63 -70 135 -98q78 -31 154 -31q84 0 143 23q61 25 113 61q49 37 82 82q41 57 59 90l-35 27q-47 -51 -94 -84q-43 -31 -102 -31q-51 0 -93 15q-43 15 -79 55q-37 41 -68 106q-33 72 -53 172q-9 43 -13 93q-2 25 -1.5 50t1.5 50 q2 33 15 94q8 39 26 80q14 31 39 55q20 20 54 21q31 0 49 -13q16 -10 26 -34q10 -23 13 -47q2 -12 5 -26.5t5 -29.5l12 -55q6 -25 23 -49q16 -23 43 -35q29 -12 69 -12q31 0 49.5 8t40.5 27q18 14 27 38q10 27 10 56q0 35 -20 82q-18 41 -60 80q-37 35 -100 59 q-61 25 -143 24q-86 0 -160 -26q-66 -25 -119 -68q-57 -47 -88 -98q-37 -59 -55 -111q-20 -57 -31 -114q-10 -62 -10 -99z" />
<glyph unicode="d" horiz-adv-x="1183" d="M82 483q0 -129 29 -217q31 -94 82 -161.5t116 -100.5q70 -35 140 -35q51 0 83 8q35 8 68 29q35 23 62 47q43 43 65 72v-156l430 82v37q-68 0 -102 27q-37 29 -37 102v1192h-432v-39q76 0 108.5 -28.5t32.5 -88.5v-374q-51 61 -109 92q-55 31 -126 30q-68 0 -130 -22 q-51 -18 -104 -61q-47 -39 -80 -89q-31 -47 -53 -108q-25 -68 -33 -119q-10 -68 -10 -119zM387 512q0 12 1 40t1 42q0 45 6 88q4 29 17 82q10 41 26 70q16 27 43 47q25 18 60 18q31 0 63 -16q31 -15 55 -37q12 -10 41 -49q16 -23 27 -45v-514q-4 -6 -12 -19.5t-13 -19.5 q-14 -23 -38 -47q-27 -27 -50 -39q-29 -16 -61 -17q-82 0 -125 103q-41 96 -41 313z" />
<glyph unicode="e" horiz-adv-x="944" d="M82 485q0 -115 29 -213q29 -96 79 -163q49 -63 129 -103q78 -37 175 -37q92 0 157 31q74 35 115 76q51 51 78 96q27 47 51 94l-35 23q-25 -37 -39 -56q-25 -31 -49 -53q-27 -25 -59 -39q-31 -14 -74 -14q-72 0 -123 39q-52 40 -86 98q-27 47 -49 127q-18 68 -19 131h533 q0 82 -23 172q-22 86 -67.5 153.5t-116.5 110.5q-70 43 -168 43q-80 0 -153 -32q-80 -35 -142 -97q-59 -59 -102 -161q-41 -99 -41 -226zM358 590q0 8 1 30.5t1 34.5q0 37 7 74q6 31 16 76q10 39 25 65q16 29 41 48q23 16 59.5 16t54.5 -16q20 -18 37 -48q10 -20 23 -65 q10 -39 12 -74q4 -53 4 -76v-65h-281z" />
<glyph unicode="f" horiz-adv-x="708" d="M68 0h573v39q-47 0 -66 4q-29 6 -43 20q-16 16 -22 48q-8 41 -8 79v680h143v101h-143v166v43v43q0 8 -1 21t-1 20v32q0 49 20 68q22 18 49 18q18 0 37 -14q16 -12 17 -29q0 -20 -7 -39q-8 -25 -8 -38q0 -8 8 -29q6 -16 23 -29q18 -14 39 -22q23 -8 57 -8q27 0 49 8 q20 8 41 24q14 12 29 37q12 23 12 47q0 41 -22 70q-23 31 -58 47q-27 12 -79 25q-39 8 -86 8q-111 0 -191 -29q-78 -27 -127 -78q-47 -47 -70 -116q-23 -72 -22 -142v-104h-143v-101h143v-680q0 -43 -8 -84q-6 -29 -24.5 -45t-43.5 -18q-37 -4 -67 -4v-39z" />
<glyph unicode="g" horiz-adv-x="1064" d="M72 -268q0 -39 32 -78q29 -35 89 -60q61 -27 139 -40q74 -14 180 -15q143 0 236 27q96 29 155 69q61 43 88 101q29 61 29 119q0 53 -16 102q-16 47 -60 82q-47 37 -117 53q-77 18 -196 19l-185 -2q-8 0 -15 -1q-65 0 -97.5 21t-32.5 66q0 25 8 41q10 20 22.5 32.5 t33.5 22.5q16 8 41 8q41 0 63.5 -2t60.5 -2q72 0 144 24q74 27 127 70q63 51 92 109q35 66 35 139q0 68 -29 121q-25 47 -70 88h189v115h-328q-33 14 -37 14q-2 0 -20.5 6t-28.5 8q-18 4 -55 8q-41 4 -60 4q-82 0 -155 -24q-78 -27 -133 -70q-61 -49 -95 -110 q-35 -66 -34 -144q0 -72 28 -133q25 -51 70 -96q43 -43 86 -66q47 -25 82 -34q-49 -18 -82 -39q-40 -25 -74 -56q-31 -27 -53 -73q-20 -41 -20 -93q0 -31 10 -61q8 -23 31 -49q25 -29 40 -41q12 -8 52 -31q-43 -10 -68 -20q-33 -12 -53 -31q-25 -23 -35 -41q-14 -28 -14 -57 zM248 -240q0 20 12 39q14 23 35 33q31 16 61 21q29 5 63 4h27q74 -4 107 -4h74h24q6 0 21.5 -1.5t23.5 -1.5q25 0 51.5 -6t51.5 -16q27 -10 39 -27q14 -16 14 -45q0 -43 -31 -71q-31 -27 -78 -43q-51 -16 -102 -23q-55 -6 -106 -6q-82 0 -138 12q-59 12 -90 33 q-35 23 -45 45q-14 32 -14 57zM367 629q0 61 6 116q6 53 22 101q15 43 43 67q29 25 70 25q47 0 76 -29q28 -28 43 -73.5t18 -98.5q4 -70 4 -102q0 -41 -8 -111q-6 -51 -22.5 -90t-43 -59.5t-65.5 -20.5q-45 0 -76 27q-27 25 -43 65q-18 47 -20 89q-4 65 -4 94z" />
<glyph unicode="h" horiz-adv-x="1183" d="M72 0h493v39q-25 2 -49 14q-20 10 -30.5 26.5t-14.5 45.5q-4 37 -4 65v539l14.5 22.5t16.5 24.5q20 27 37 41q23 20 45 31q25 12 53 12q51 0 72 -37q23 -39 22 -98v-535q0 -29 -4 -65q-2 -20 -14 -45q-8 -16 -29 -27q-23 -12 -49 -14v-39h491v39q-29 2 -55 14 q-25 10 -33 27q-10 18 -12 45q-4 37 -4 65v474q0 74 -17 139q-16 63 -49 106q-35 45 -84 68q-53 25 -120 24q-45 0 -89 -16q-37 -14 -75 -37q-35 -20 -66 -51q-6 -6 -17.5 -16.5t-19.5 -18.5t-14 -16v563h-395v-37q29 -4 53 -12q20 -6 33 -25q12 -16 14 -47q4 -41 4 -78 v-1020q0 -35 -4 -71q-2 -27 -14 -45q-10 -16 -31 -23q-37 -10 -55 -12v-39z" />
<glyph unicode="i" horiz-adv-x="591" d="M45 0h524v39q-37 0 -63 10q-25 8 -37 29q-10 16 -14 45q-4 37 -4 67v781h-406v-37q45 -8 61 -12q23 -6 35 -25q12 -16 15 -45q4 -41 4 -80v-582q0 -49 -2 -67q-4 -29 -15 -45q-12 -18 -34 -29q-25 -10 -64 -10v-39zM145 1331q0 -33 13 -63q10 -27 35 -51q23 -23 49 -35 q29 -12 63 -13q33 0 64 13q27 10 51 34.5t35 51.5q12 31 12 63q0 37 -12.5 63.5t-34.5 49.5q-25 25 -51 35q-31 12 -64 12q-35 0 -63 -12q-27 -12 -49.5 -35t-35 -49.5t-12.5 -63.5z" />
<glyph unicode="j" horiz-adv-x="694" d="M-123 -281q0 -31 18.5 -65.5t53.5 -56.5q39 -27 92 -41q59 -16 129 -17q72 0 133 21q65 22 111 67q51 51 75 113q27 66 27 164v1067h-405v-37q45 -8 61 -12q23 -6 35 -25q12 -16 14 -45q4 -41 4 -80v-997q0 -37 -4 -74q-4 -31 -12 -45q-10 -18 -21 -23q-12 -6 -32 -6 q-35 0 -53.5 18.5t-18.5 69.5q0 29 -2 43q-3 22 -12 37q-12 18 -27 27q-20 10 -49 10q-33 0 -51.5 -8t-36.5 -27q-14 -14 -21 -35q-8 -29 -8 -43zM211 1331q0 -33 12 -63q10 -27 35 -51q23 -23 49 -35q29 -12 64 -12.5t63.5 12t50.5 35.5q25 25 35 51q12 31 12 63 q0 37 -12 63.5t-34.5 49t-51 35t-63.5 12.5t-64 -12q-27 -12 -49 -35t-34.5 -49.5t-12.5 -63.5z" />
<glyph unicode="k" horiz-adv-x="1183" d="M70 0h503v39q-35 2 -61 14q-23 10 -31 27q-12 25 -14 39t-2 51v213l65 63l201 -292q23 -33 29 -54q6 -23 2 -34q-6 -14 -21 -21q-16 -6 -39 -6v-39h502v39q-31 4 -45 8q-16 6 -33 19q-10 8 -26 28q-8 10 -29 39l-348 508l211 205q37 37 80 59q49 27 106 27v39h-436v-39 q51 -4 74 -17q29 -16 37 -38.5t-9 -59.5q-16 -35 -59 -78l-262 -258v928h-395v-37q34 -6 55 -12t31 -25q12 -25 14 -47q4 -41 4 -78v-1040q0 -41 -2 -55q-4 -25 -12 -39.5t-33 -24.5q-23 -10 -57 -12v-39z" />
<glyph unicode="l" horiz-adv-x="591" d="M45 0h524v39q-37 0 -63 10q-25 8 -37 29q-10 16 -14 45q-4 37 -4 67v1219h-406v-37q45 -8 61 -12q23 -6 35 -25q12 -16 15 -47q4 -41 4 -78v-1020q0 -49 -2 -67q-4 -29 -15 -45q-12 -18 -34 -29q-25 -10 -64 -10v-39z" />
<glyph unicode="m" horiz-adv-x="1773" d="M78 0h500v39q-29 2 -56 14q-18 8 -30 27q-10 16 -15 45q-4 37 -4 65v541q39 57 86 98q43 37 100 37q45 0 70 -41q25 -39 25 -100v-535q0 -35 -4 -71q-2 -27 -17 -43q-12 -16 -33 -25q-23 -10 -51 -12v-39h504v39q-37 4 -57.5 12t-32.5 27q-12 16 -14 43q-4 37 -5 69v543 q15 25 37 49q23 25 43 41q25 18 50 31q20 10 55 10q51 0 71 -39q23 -41 23 -100v-535q0 -39 -6 -65q-6 -31 -17 -45q-12 -18 -28 -27q-23 -12 -45 -14v-39h491v39q-29 2 -55 14q-25 10 -33 27q-10 18 -12 45q-4 37 -4 65v474q0 82 -15 139q-16 63 -49 106q-35 45 -84 68 q-52 25 -123 24q-92 0 -172 -49q-82 -51 -145 -129q-18 43 -35 70q-23 37 -49 57q-33 25 -72 37q-51 14 -96 14q-41 0 -86 -10q-37 -8 -74 -28q-39 -20 -69 -50q-35 -31 -72 -71v129h-395v-37q29 -4 53 -12q20 -6 33 -25q12 -16 14 -45q4 -41 4 -80v-582q0 -35 -4 -71 q-2 -27 -14 -45q-10 -16 -31 -23q-37 -10 -55 -12v-39z" />
<glyph unicode="n" horiz-adv-x="1183" d="M72 0h493v39q-25 2 -49 14q-20 10 -30.5 26.5t-14.5 45.5q-4 37 -4 65v539l14.5 22.5t16.5 24.5q20 27 37 41q23 20 45 31q25 12 53 12q51 0 72 -37q23 -39 22 -98v-535q0 -29 -4 -65q-2 -20 -14 -45q-8 -16 -29 -27q-23 -12 -49 -14v-39h491v39q-29 2 -55 14 q-25 10 -33 27q-10 18 -12 45q-4 37 -4 65v474q0 74 -17 139q-16 63 -49 106q-35 45 -84 68q-53 25 -120 24q-45 0 -89 -16q-37 -14 -75 -37q-35 -20 -66 -51q-6 -6 -17.5 -16.5t-19.5 -18.5t-14 -16v125h-395v-37q29 -4 53 -12q20 -6 33 -25q12 -16 14 -45q4 -41 4 -80 v-582q0 -35 -4 -71q-2 -27 -14 -45q-10 -16 -31 -23q-37 -10 -55 -12v-39z" />
<glyph unicode="o" horiz-adv-x="1064" d="M76 485q0 -102 30 -194q33 -96 89 -164q61 -74 143 -115q86 -43 194 -43q106 0 192.5 43t145.5 115q55 68 88 164q31 92 31 194.5t-31 194.5q-33 96 -88 164q-59 72 -145 114.5t-193 42.5q-109 0 -194 -43q-82 -41 -143 -114q-55 -68 -89 -164q-30 -93 -30 -195zM381 485 q0 129 8 203q10 92 27 139q18 49 47 76q29 25 69 25t68 -25q33 -29 49.5 -76t26.5 -139q8 -74 8 -203q0 -131 -8 -204q-10 -90 -26.5 -137.5t-49.5 -75.5q-28 -25 -68 -25q-41 0 -69 25q-29 27 -47 75q-16 47 -27 138q-8 73 -8 204z" />
<glyph unicode="p" horiz-adv-x="1185" d="M41 -418v-39h553v39q-46 0 -74 6q-31 6 -45 24.5t-20 47.5q-6 31 -6 74v364q53 -63 116.5 -96t149.5 -33q92 0 163.5 43t120.5 115q45 66 72 164q25 92 25 194q0 111 -29 209q-27 90 -80 164q-49 68 -117 105q-72 39 -147 38q-86 0 -153.5 -38.5t-120.5 -118.5v127h-408 v-37q45 -8 61 -12q23 -6 35 -25q14 -20 17 -45q4 -41 4 -80v-1038q0 -31 -4 -68q-4 -31 -14.5 -47t-35 -26.5t-63.5 -10.5zM449 203v524q16 33 32 57q18 29 41 47q14 12 47 29q25 12 56 12q55 0 85.5 -36.5t49.5 -92.5q14 -47 22 -125q6 -68 6 -133q0 -109 -10 -196 q-8 -68 -30 -125q-18 -47 -45 -67.5t-58 -20.5q-35 0 -63 12q-37 16 -51.5 28.5t-43.5 41.5q-1 2 -38 45z" />
<glyph unicode="q" horiz-adv-x="1183" d="M82 485q0 -131 29 -233q25 -88 79 -160q45 -59 117 -92q68 -31 144 -31q39 0 79 11q39 10 70 26q39 20 64 41q31 25 61 55v-368q0 -55 -4 -74q-6 -29 -21 -45q-14 -18 -45 -25q-37 -8 -75 -8v-39h561v39q-41 0 -64 8q-29 10 -39 27q-16 25 -18 45q-4 37 -4 72v1267h-37 l-162 -112q-18 20 -41 41q-23 18 -57 37q-29 14 -74 24t-90 10q-70 0 -129 -20q-68 -25 -113 -55q-59 -43 -96 -84q-39 -45 -72 -107q-33 -63 -47 -121q-16 -70 -16 -129zM385 465q0 96 10 192q8 84 31 146q20 59 59 94q35 33 90 33q70 0 111 -66q39 -63 39 -200v-469 q-20 -25 -35 -37q-29 -25 -43 -35q-20 -14 -47 -24.5t-51 -10.5q-53 0 -84 35q-35 39 -51 88q-16 47 -23 123q-6 68 -6 131z" />
<glyph unicode="r" horiz-adv-x="944" d="M78 0h524v39q-47 0 -74 10q-25 8 -36 29q-10 16 -15 45q-2 18 -2 67v273q0 29 2 51q2 18 10 70q6 35 19 75q14 45 29 70q23 37 40 51q25 18 56 19q16 0 33 -13l32 -28q25 -20 41 -29q25 -12 60 -12q31 0 49 10q22 12 37 31q8 10 22 47q8 23 8 55q0 57 -32 101 q-31 41 -95 40q-55 0 -100 -22q-41 -20 -82 -61q-37 -37 -67 -80l-62 -86v219h-397v-37q35 -6 57 -12q20 -6 33 -25q8 -14 12 -45q4 -41 4 -80v-582q0 -31 -4 -67q-4 -29 -14 -45q-14 -20 -33 -29q-25 -10 -55 -10v-39z" />
<glyph unicode="s" horiz-adv-x="827" d="M86 702q0 -74 33 -131q33 -55 82 -102q55 -51 106 -84l109 -74q39 -27 82 -69q33 -33 32 -74q0 -59 -32 -90q-31 -29 -80 -29q-41 0 -90 23q-35 16 -84 61q-37 35 -68 88q-29 51 -41 103h-37l17 -349h35q12 25 20 35q12 14 35 15q18 0 41 -9q12 -4 25.5 -9l29.5 -11 l66 -19q31 -8 69 -8q68 0 127 25q53 23 101 69q39 39 65 107q25 61 25 133q0 68 -33 121q-31 51 -86 102q-47 43 -109 86q-23 14 -52.5 35l-57.5 41q-57 43 -84 70q-35 35 -35 71q0 43 27 68q29 25 75 25q55 0 97 -27q49 -31 77 -66q27 -31 56 -81q12 -23 39 -80h34l-16 331 h-35l-12 -18t-12 -16l-19 -13q-6 -4 -24 -4q-16 0 -33 8q-12 6 -41 19q-25 10 -51.5 18t-71.5 8q-66 0 -119 -20q-59 -23 -96 -59q-43 -43 -63 -95q-23 -57 -23 -125z" />
<glyph unicode="t" horiz-adv-x="706" d="M41 868h125v-647q0 -61 18 -106q20 -49 54 -80t79 -49q41 -16 99 -17q53 0 98 17q41 14 78 45q27 20 55 61q18 27 39 74l-31 24l-20 -32.5t-29 -32.5q-16 -16 -34.5 -26.5t-43.5 -10.5q-72 0 -71 121v659h229v103h-229v356h-35q-43 -76 -76 -121q-37 -49 -86 -106 q-37 -43 -100 -99q-45 -41 -119 -96v-37z" />
<glyph unicode="u" horiz-adv-x="1183" d="M66 932q31 -2 57 -14q23 -10 31 -27q12 -25 14 -45q2 -18 2 -66v-473q0 -76 16 -141q16 -63 50 -107q35 -45 83 -67q47 -23 121 -23q51 0 88 14.5t76 39.5q31 18 64 49q31 29 53 53v-125h395v39q-14 2 -53 12q-18 6 -33 23q-10 14 -14 47q-4 41 -4 78v772h-398v-39 q39 -6 56 -14q20 -8 32 -27q10 -16 15 -45q4 -37 4 -66v-534l-14.5 -22.5t-16.5 -24.5q-25 -33 -37 -43q-29 -25 -45 -33q-25 -12 -53 -12q-49 0 -71.5 38.5t-22.5 96.5v725h-395v-39z" />
<glyph unicode="v" horiz-adv-x="1064" d="M18 934q29 -2 56 -23q18 -14 41 -47q20 -33 30 -55q6 -16 13.5 -30.5t11.5 -24.5l342 -785h49l328 774l31 72q18 39 32 59q18 25 41 41q20 14 54 19v37h-318v-37q47 -4 70 -14q23 -12 32 -37q6 -18 0 -62q-6 -33 -24 -84l-156 -385l-188 432q-8 18 -17 52q-6 25 3 49 q6 18 28 35q20 14 60 14v37h-519v-37z" />
<glyph unicode="w" horiz-adv-x="1536" d="M16 934q35 -10 58 -29q20 -18 41 -45q16 -23 30 -53q4 -8 21 -53l289 -785h55l258 713l266 -713h62l272 774l29 80q10 27 28 58q15 25 37 37q23 14 54 16v37h-287v-37q43 -4 63 -14q25 -14 31 -33t0 -47q-10 -43 -16 -62l-133 -377l-142 383q-16 43 -24 76q-6 25 2 43 q6 16 30 23q18 4 70 8v37h-514v-37q37 -4 57 -19q23 -16 39 -38q12 -16 23 -50q6 -18 18 -51l-137 -375l-156 420q-6 14 -16 51q-6 18 2 33q8 16 24.5 20.5t59.5 8.5v37h-494v-37z" />
<glyph unicode="x" horiz-adv-x="1064" d="M49 0h379v39q-33 0 -49 4q-27 6 -39 23q-12 14 -8 45q2 29 37 82l94 139l102 -189q19 -34 19 -56q0 -15 -9 -24q-23 -23 -88 -24v-39h543v39q-35 0 -57 14q-29 18 -47 39q-20 25 -41 58q-12 20 -37 65l-205 379l111 162q18 29 59 78q33 39 55 57q27 20 58 33q25 10 65 10 v37h-344v-39q70 -6 82 -43q3 -8 3 -18q0 -35 -36 -85l-88 -127l-90 168q-22 42 -22 64q0 9 4 16q12 23 88 27v37h-539v-37q29 -2 55 -16q25 -12 48 -35q16 -16 41 -56l43 -73l192 -357l-119 -172q-14 -20 -53 -71q-33 -39 -57 -60q-33 -27 -68 -41t-82 -14v-39z" />
<glyph unicode="y" horiz-adv-x="1064" d="M16 934q33 -10 56 -27q20 -16 43 -45q12 -16 32 -53l25 -53l346 -797l-51 -129q-22 -58 -43 -98q-23 -39 -41 -60q-23 -23 -49 -22q-20 0 -27 14q-6 15 -6 37q0 6 -1 22.5t-1 24.5q0 25 -10 49q-9 22 -31 37q-20 14 -65 14q-29 0 -54 -12q-29 -14 -43 -29 q-18 -18 -28 -45q-8 -23 -9 -53q0 -41 15 -69q16 -33 43 -54q33 -25 61 -35q37 -12 78 -12q63 0 104 27q47 31 78 69q37 47 60 101l49 119l344 888q23 55 29 72q18 39 32 59q23 29 41 44q18 12 54 16v37h-326v-37q88 -2 108 -51q8 -17 8 -41q0 -41 -24 -105l-154 -403 l-194 450q-14 31 -21 60q-6 28 0 49q4 16 29 31q18 10 62 10v37h-519v-37z" />
<glyph unicode="z" horiz-adv-x="944" d="M20 0h848l31 332h-31q-25 -92 -63 -142q-40 -52 -92 -79q-53 -29 -119 -37q-59 -8 -148 -8h-65l530 880v25h-817v-281h33q14 47 39 107q18 41 47 67.5t72 34.5q47 10 108 10h162l-535 -886v-23z" />
<glyph unicode="{" horiz-adv-x="980" d="M125 461q57 -10 102 -25q46 -15 80 -43q41 -33 55 -65q18 -41 19 -95v-303q0 -68 25 -116q23 -45 63 -80q43 -35 92 -53q57 -20 105 -31q49 -10 106 -15q35 -2 96 -2v58q-115 12 -178 69.5t-63 165.5v275q0 68 -14.5 108.5t-41 73.5t-59.5 51q-37 20 -78 33 q-49 14 -84 22q-68 14 -90 21q45 10 90 18q35 8 84 23q41 12 78 33q35 18 59.5 49t40.5 76q14 41 15 106v275q0 53 16 96q16 41 47 69q29 27 76 45.5t102 24.5v57q-27 0 -96 -4q-51 -2 -106 -12q-43 -8 -105 -29q-49 -18 -92 -53q-39 -33 -63.5 -82t-24.5 -115v-305 q0 -53 -19 -94q-14 -33 -55 -65q-39 -31 -80 -45q-51 -16 -102 -23v-94z" />
<glyph unicode="|" horiz-adv-x="468" d="M166 -457h137v1897h-137v-1897z" />
<glyph unicode="}" horiz-adv-x="980" d="M139 -309v-58q59 0 94 2.5t109 14.5q53 8 106.5 30.5t90.5 53.5q45 37 65 80q25 49 25 116v303q0 53 18 95q16 35 53 65q34 28 80 43q45 14 103 25v94q-51 6 -103 23q-41 14 -80 45q-37 31 -53 65q-18 41 -18 94v305q0 66 -25 115q-23 45 -65.5 82t-89.5 53 q-59 20 -107 29q-55 8 -109 12q-70 4 -94 4v-57q121 -16 180 -70q61 -55 62 -165v-275q0 -66 14 -106q16 -45 41 -76q23 -29 62 -49q39 -23 75 -33q53 -16 84 -23l91 -18q-37 -10 -91 -21q-31 -6 -84 -22q-37 -10 -75 -33q-37 -20 -62 -51q-27 -33 -41 -74t-14 -108v-275 q0 -111 -62 -166q-59 -53 -180 -69z" />
<glyph unicode="~" horiz-adv-x="1167" d="M18 403h60q6 51 22 80q20 37 41 57.5t56 34.5q31 12 61 13q41 0 84 -15q84 -29 100 -34l111 -45l111 -45q8 -4 108 -33q49 -14 96 -15q66 0 117 27q53 29 88 72q35 45 57 106q20 59 21 131h-59q-6 -43 -19 -73q-10 -29 -37 -60q-23 -27 -55 -41q-37 -16 -74 -16t-80 14 l-100 35q-6 2 -111 47l-114.5 47.5t-110.5 34.5q-51 14 -98 14q-61 0 -111 -24q-51 -27 -86 -66q-31 -35 -55 -106q-19 -56 -23 -140z" />
<glyph unicode="&#xa1;" horiz-adv-x="708" d="M182 -285q0 -37 13 -67q10 -25 38.5 -53.5t53.5 -38.5q31 -12 67.5 -12.5t67.5 12.5q25 10 53 38q27 27 37 54q14 37 14 67q0 47 -10 125q-6 41 -27 144l-36 151l-35 148q-20 94 -27 135q-10 68 -10 108h-53q0 -57 -11 -108q-2 -8 -11 -57.5t-15 -77.5l-35 -148 q-2 -10 -16.5 -66.5t-20.5 -84.5q-10 -49 -26 -144q-11 -59 -11 -125zM184 844q0 -35 13 -66q10 -27 36 -53q25 -25 56 -37q35 -14 65.5 -14t67.5 14q27 10 53.5 37t36.5 53q12 31 12 66t-12 65.5t-37 55.5q-27 27 -53 36q-31 12 -68 13q-35 0 -65.5 -12.5t-55 -37t-37 -55 t-12.5 -65.5z" />
<glyph unicode="&#xa2;" horiz-adv-x="1083" d="M133 485q0 -68 14 -143q12 -63 37 -119q25 -53 58 -96q37 -47 71 -74l-170 -442h97l151 395q80 -37 162 -37q84 0 143 23q61 25 113 61q49 37 82 82q41 57 59 90l-35 27l-47 -47q-12 -12 -47 -37q-14 -10 -47 -23q-23 -8 -55 -8q-35 0 -66 6q-27 6 -57 23q-27 14 -53 45 q-31 35 -47 68l163 434q12 -37 43 -61.5t91 -24.5q31 0 49 8t41 27q18 14 26 38q10 27 11 56q0 23 -11 57q-8 31 -28 59q-23 35 -50 56q-29 23 -71 43l164 430h-97l-155 -406q-37 6 -76 6q-86 0 -160 -26q-66 -25 -119 -68q-57 -47 -88 -98q-37 -59 -55 -111 q-20 -57 -31 -114q-10 -62 -10 -99zM414 578q-4 49 0 100q2 33 14 94q8 39 27 80q14 31 39 55q20 20 53 21q35 0 51 -14.5t27 -41.5l-179 -469q-8 25 -10 39.5t-10 42.5q-9 44 -12 93z" />
<glyph unicode="&#xa3;" horiz-adv-x="1062" d="M39 145q0 -41 14 -71q12 -27 41 -56q25 -25 59.5 -37t69.5 -12q68 0 125.5 35t89.5 88q15 -15 43 -37q27 -20 64 -41q43 -23 73 -32q41 -12 82 -13q78 0 134 27q59 29 102 80q41 51 63 123q23 74 23 159h-43q-6 -31 -28.5 -53t-53.5 -35q-33 -12 -66 -18q-37 -6 -73 -6 q-45 0 -103 4q-16 2 -42.5 5t-30.5 3q-8 0 -45 8l-15 4q20 59 37 140q14 72 14 165v39q0 27 -2 41h215v158h-227q-10 82 -20 131l-11.5 64.5l-9.5 52.5q-14 86 -16 102q-8 66 -8 92q0 55 24 88q25 35 62 35q41 0 65 -24q23 -23 21 -74v-14q0 -4 -1 -13.5t-1 -15.5t-1 -18.5 t-1 -16.5q0 -43 12 -74q10 -27 31 -47q18 -18 45 -24q33 -8 55 -8q27 0 53.5 10t42.5 26q20 20 29 43q10 27 10 58q0 49 -27 98q-25 47 -67 84q-45 39 -98.5 59.5t-114.5 20.5q-102 0 -178 -39t-127 -102q-47 -59 -78 -150q-27 -80 -27 -174q0 -29 4 -86q2 -25 11 -84h-191 v-158h225q15 -55 31 -104l29 -92q20 -72 22 -80q8 -33 8 -68q-1 0 -4 2q-5 2 -10 2l-39 11q-16 4 -55 4q-41 0 -82 -13q-35 -10 -68 -36q-27 -20 -47 -60q-18 -33 -18 -76zM121 139q0 18 8 33q9 15 25 25q20 12 32 16q18 6 37 6q18 0 37 -6q6 -2 17.5 -5t17.5 -5 q10 -4 31 -17q8 -4 14 -9t10 -7q-6 -14 -22 -43q-12 -22 -31 -37q-25 -20 -39 -27q-18 -8 -47 -8q-41 0 -65.5 24.5t-24.5 59.5z" />
<glyph unicode="&#xa4;" horiz-adv-x="1275" d="M94 401l74 -73l211 211q57 -49 127 -74q61 -23 145 -23q72 0 140 25q76 27 124 72l211 -211l74 73l-211 211q46 55 68 123q23 72 22 142q0 74 -24 145q-25 70 -68 125l213 213l-74 74l-217 -217q-49 43 -121 69q-61 23 -137 23q-68 0 -141 -23q-72 -23 -127 -67l-215 215 l-74 -74l215 -215q-27 -31 -43 -60q-12 -23 -28 -67q-8 -23 -17 -72q-6 -37 -6 -72q0 -68 23 -139q22 -68 67 -123zM332 874.5q0 67.5 24 124.5q23 53 70 101q43 43 100 67q59 25 125 25q61 0 121 -25q53 -23 100 -69q41 -41 66 -100.5t25 -120.5q0 -65 -25 -123 q-25 -59 -66 -101q-47 -47 -100 -69q-59 -25 -121 -25q-66 0 -125 25q-57 25 -100 67q-49 49 -70 99q-24 57 -24 124.5z" />
<glyph unicode="&#xa5;" horiz-adv-x="1083" d="M10 301h383v-80q0 -59 -12 -96q-12 -39 -37 -55q-29 -18 -70 -25q-43 -6 -108 -6v-39h737v39q-65 0 -104 6t-61.5 28.5t-31 55.5t-8.5 92v80h375v98h-375v101l15 43h360v98h-334l152 442q41 117 49 138q25 57 39 77q20 31 39 41q22 12 55 25v45h-305v-45q51 0 75.5 -12.5 t24.5 -55.5q0 -27 -8 -59q-8 -37 -26 -86l-177 -510l-213 586q-4 10 -14 47q-6 20 -6 35q0 33 22 45q20 12 78 12v43h-514v-43q20 -4 33 -8q20 -8 35 -25q20 -25 41 -61q25 -47 47 -113l184 -518h-340v-98h367l16 -45v-99h-383v-98z" />
<glyph unicode="&#xa6;" horiz-adv-x="468" d="M182 -406h105v820h-105v-820zM182 688h105v819h-105v-819z" />
<glyph unicode="&#xa7;" horiz-adv-x="1062" d="M96 481.5q0 -65.5 27 -119t70 -102.5q37 -43 98 -90q37 -29 115 -82l114 -78q55 -37 98 -73q37 -31 70 -76q27 -35 27 -78q0 -41 -15 -70q-18 -37 -38 -55q-25 -20 -60 -33q-37 -12 -78 -12q-68 0 -100 22q-31 20 -31 54q0 10 4 30.5t9 30.5q8 20 10 31q4 20 4 29 q0 47 -35 77q-34 31 -86 31q-23 0 -47 -10q-22 -9 -37 -25q-14 -14 -24.5 -38.5t-10.5 -47.5q0 -63 27 -110q25 -43 74 -80q45 -33 106 -51q55 -16 131 -17q82 0 156 23q63 18 121 63q51 39 79.5 96.5t28.5 122.5q0 55 -14 97q-16 45 -37 77q-18 29 -51 66l-56 61 q39 25 82 62q47 41 72 72q33 43 51 88q18 46 19 104q0 74 -27 129q-33 68 -68 111q-45 55 -98 96q-74 57 -112 84l-113 78q-45 31 -98 75q-33 29 -68 78q-27 39 -27 82t15 72q16 31 41 53q31 27 57 37q33 12 66 12q29 0 51 -8q25 -9 43 -24q12 -10 28 -35q10 -16 11 -41 q0 -16 -8 -49q-6 -25 -7 -50q0 -27 8.5 -43t24.5 -32q12 -12 37 -23q18 -8 43 -8q29 0 47.5 8t38.5 25q16 12 27 39q10 25 10 47q0 57 -31 106q-33 51 -80 84q-51 35 -110 53q-61 18 -127 19q-70 0 -142 -23q-70 -23 -122 -65q-55 -45 -84 -101q-33 -61 -33 -133 q0 -55 14 -92q15 -40 37 -74q29 -45 47 -63l55 -57q-37 -29 -75 -64q-37 -35 -70 -80q-31 -43 -53 -98q-21 -49 -21 -114.5zM276 604q0 61 25 105q23 39 74 84l190 -138q76 -53 129 -102q47 -45 74 -90q25 -43 25 -98q0 -57 -29 -99q-31 -43 -72 -78l-198 148 q-74 53 -129 102q-41 35 -68 82q-21 35 -21 84z" />
<glyph unicode="&#xa8;" horiz-adv-x="671" d="M0 1309q0 -27 10 -54q8 -23 31 -45q18 -18 43 -30q20 -10 55 -11q33 0 54 11q29 14 45 30.5t30 44.5q10 20 11 54q0 35 -11 55q-12 25 -30 43q-16 16 -45 31q-20 10 -54 10q-35 0 -55 -10q-25 -12 -43 -31q-23 -23 -31 -43q-10 -26 -10 -55zM393 1309q0 -33 10 -54 q14 -29 31 -45q18 -18 43 -30q20 -10 55 -11q33 0 54 11q29 14 45 30.5t31 44.5q10 20 10 54q0 35 -10 55q-12 25 -31 43q-16 16 -45 31q-20 10 -54 10q-35 0 -55 -10q-25 -12 -43 -30.5t-31 -43.5q-10 -20 -10 -55z" />
<glyph unicode="&#xa9;" horiz-adv-x="1587" d="M61 705q0 -104 27 -197q29 -102 74 -176q51 -86 114.5 -149.5t149.5 -114.5q74 -45 176 -74q92 -27 196.5 -27t196.5 27q102 29 176 74q86 51 149.5 114.5t115.5 149.5q45 74 73 176q27 92 27 196.5t-27 196.5q-29 102 -73 176q-51 86 -115 149.5t-150 114.5 q-74 45 -176 74q-92 27 -196.5 27t-196.5 -27q-102 -29 -176 -74q-86 -51 -149.5 -114.5t-114.5 -149.5q-45 -74 -74 -176q-27 -92 -27 -196zM154 705q0 86 22 172q20 80 66 153q47 78 100 131t131 101q74 45 154 65q86 23 172 23t172 -23q80 -20 153 -65 q78 -47 131.5 -100.5t100.5 -131.5q45 -74 65 -153q23 -86 23 -172.5t-23 -172.5q-20 -80 -65 -153q-47 -78 -100.5 -131t-131.5 -101q-74 -45 -153 -65q-86 -23 -172 -23q-135 0 -252 50q-119 49 -205 139q-90 94 -137 205q-51 121 -51 252zM352 705q0 -76 27 -162 q23 -76 78 -140q49 -57 135 -96q84 -37 194 -37q117 0 197 39q84 41 137 97v69q-27 -29 -69 -67q-23 -20 -64 -46q-25 -14 -63 -22q-41 -8 -70 -8q-72 0 -125 28q-49 27 -82 78q-31 51 -47 119q-14 63 -14 148q0 70 14 151q12 72 43 127q29 53 82 86t119 33q49 0 90 -15 q43 -15 80 -43q35 -27 61.5 -71.5t34.5 -98.5h39v277h-37q-10 -29 -20 -41q-12 -14 -31 -14q-8 0 -33 10q-22 9 -55 18q-66 18 -78 21q-39 8 -90 8q-101 0 -184 -37q-84 -37 -144 -100q-57 -59 -92 -144q-33 -77 -33 -167z" />
<glyph unicode="&#xaa;" horiz-adv-x="790" d="M82 940q0 -51 41 -82q40 -31 104 -31q35 0 62 9q41 12 59 22l55 31q33 20 48 31q4 -18 10 -33q10 -20 22 -31q14 -10 39 -20q23 -8 59.5 -8.5t61.5 8.5q23 8 49 22q18 10 37 28.5t25 26.5l-21 19q-14 -14 -31 -23q-8 -4 -22 0q-10 4 -16 13q-4 6 -5 26v305q0 37 -12 70 q-12 35 -43 59q-29 23 -76 39q-43 14 -116 15q-68 0 -113 -11q-53 -12 -102 -34q-45 -20 -74 -53t-29 -74q0 -18 10 -31q14 -16 29 -25q25 -12 37 -16q18 -6 36.5 -6t37.5 6q25 8 32 14q12 10 21 23q8 14 8 31q0 14 -8 26q-4 6 -16.5 18.5t-16.5 18.5q-8 12 -8 20q0 12 8 21 q12 12 25 14l30 6q12 2 33 2q47 0 74 -22q25 -20 25 -64v-96l-166 -67q-55 -25 -115 -64q-43 -29 -65.5 -63.5t-22.5 -69.5zM92 659h623v66h-623v-66zM287 999q0 31 20.5 57.5t46.5 47.5q18 14 56 35q8 4 15 8t10 6t7 4t9 4v-192l-9 -6q-12 -8 -20 -12.5t-29 -12.5 q-16 -6 -28 -6q-34 0 -56 18t-22 49z" />
<glyph unicode="&#xab;" horiz-adv-x="708" d="M78 500q0 -74 24 -131q25 -61 64 -105q43 -49 90 -82q51 -35 100 -55l27 29q-45 39 -76 82q-33 45 -49 84q-18 43 -25 90q-8 61 -8 96q0 94 37 174t121 145l-25 29q-66 -27 -112 -59q-51 -37 -88 -82q-39 -49 -60 -101q-20 -53 -20 -114zM360 500q0 -74 25 -131 q25 -61 64 -105q43 -49 90 -81.5t102 -55.5l27 29q-51 43 -78 82q-29 39 -47 84q-20 49 -27 90q-6 47 -6 96q0 100 37 174q41 80 121 145l-25 29q-66 -27 -113 -59q-57 -39 -90 -82q-39 -49 -59 -101q-21 -53 -21 -114z" />
<glyph unicode="&#xac;" horiz-adv-x="1294" d="M94 737h983v-350h123v473h-1106v-123z" />
<glyph unicode="&#xad;" horiz-adv-x="727" d="M41 385h647v207h-647v-207z" />
<glyph unicode="&#xae;" horiz-adv-x="1587" d="M61 705q0 -104 27 -197q29 -102 74 -176q51 -86 114.5 -149.5t149.5 -114.5q74 -45 176 -74q92 -27 196.5 -27t196.5 27q102 29 176 74q86 51 149.5 114.5t115.5 149.5q45 74 73 176q27 92 27 196.5t-27 196.5q-29 102 -73 176q-51 86 -115 149.5t-150 114.5 q-74 45 -176 74q-92 27 -196.5 27t-196.5 -27q-102 -29 -176 -74q-86 -51 -149.5 -114.5t-114.5 -149.5q-45 -74 -74 -176q-27 -92 -27 -196zM154 705q0 86 22 172q20 80 66 153q47 78 100 131t131 101q74 45 154 65q86 23 172 23t172 -23q80 -20 153 -65 q78 -47 131.5 -100.5t100.5 -131.5q45 -74 65 -153q23 -86 23 -172.5t-23 -172.5q-20 -80 -65 -153q-47 -78 -100.5 -131t-131.5 -101q-74 -45 -153 -65q-86 -23 -172 -23q-135 0 -252 50q-119 49 -205 139q-90 94 -137 205q-51 121 -51 252zM385 291h442v37q-33 0 -57 6 q-27 6 -39 16q-20 16 -24 31q-6 18 -7 49v246h50l213 -385h251v37q-29 6 -51 26q-29 25 -41 47l-159 289q88 25 137 82q49 59 49 131q0 53 -21 94q-20 43 -59 72q-43 33 -100 47q-66 16 -142 17h-424v-35q39 -2 66 -27q25 -22 25 -80v-555q0 -35 -7 -57q-6 -20 -20 -31 q-16 -12 -33 -14q-22 -3 -49 -6v-37zM700 729v358h52q49 0 86 -16q35 -16 53 -41q20 -29 27 -59q6 -34 6 -68q0 -57 -22.5 -96t-57.5 -57q-41 -23 -74 -25q-35 -2 -70 4z" />
<glyph unicode="&#xaf;" horiz-adv-x="671" d="M0 1169h672v185h-672v-185z" />
<glyph unicode="&#xb0;" horiz-adv-x="653" d="M102 1249q0 -53 17 -88q18 -41 49 -71q27 -27 72 -48q39 -18 88 -18t88 18q45 20 71.5 47t47.5 72q18 39 18 88t-18 88q-20 45 -48 72q-31 31 -71 49q-35 16 -88.5 16.5t-87.5 -16.5q-41 -18 -72 -49t-49 -72q-17 -35 -17 -88zM184 1249q0 35 11 56q14 29 30 45 q20 20 47 32q23 10 56 11q37 0 57 -11q25 -12 45 -32q16 -16 31 -45q10 -20 10 -55.5t-10 -55.5q-16 -33 -31 -47q-16 -16 -45 -31q-20 -10 -57 -10q-33 0 -56 10q-29 12 -47 31q-14 14 -30 47q-11 20 -11 55z" />
<glyph unicode="&#xb1;" horiz-adv-x="2048" d="M410 0h1228v127h-1228v-127zM410 733h551v-368h126v368h551v127h-551v369h-126v-369h-551v-127z" />
<glyph unicode="&#xb2;" horiz-adv-x="710" d="M27 575h598l57 244h-39q-18 -33 -27 -43q-14 -18 -24 -24.5t-39 -10.5q-14 -2 -59 -2h-224l121 105q76 68 119 119q55 63 90 129q35 63 35 133q0 41 -23 82q-23 43 -59 69q-37 29 -88 47q-43 16 -106.5 16.5t-112.5 -18.5q-51 -18 -90 -49q-37 -29 -68 -76 q-25 -39 -45 -92l43 -16q25 41 66 72q35 27 96 26q80 0 121 -43q41 -45 41 -104q0 -37 -7 -70q-6 -31 -22 -68q-14 -31 -45 -75q-29 -41 -70 -88l-100 -109l-139 -137v-17z" />
<glyph unicode="&#xb3;" horiz-adv-x="710" d="M29 655q0 -31 22 -49q16 -14 58 -28q37 -14 77 -17q57 -4 80 -4q96 0 166 23q80 25 131 65q59 47 88 100q31 57 31 127q0 49 -14.5 80t-40.5 62q-25 27 -58 45q-45 25 -67 33q25 10 51.5 30.5t40.5 36.5q20 25 29 45q10 27 10 53q0 43 -21 76q-23 35 -53 58 q-33 25 -78 36q-43 12 -92 13q-57 0 -110 -19q-57 -20 -93 -47q-43 -33 -71.5 -67.5t-48.5 -77.5l36 -8q25 29 35 39q12 12 37 28q23 14 41 21q23 6 55 6q31 0 62 -10q29 -10 49 -27q23 -18 35 -41q12 -22 12 -49q0 -37 -14 -60q-16 -27 -41 -45t-62 -30q-41 -14 -82 -25 v-35q53 -8 107 -30q51 -20 90 -52q43 -33 63 -73q23 -45 23 -93q0 -23 -10 -47q-10 -23 -27 -36q-23 -18 -43 -27q-27 -10 -53 -10q-45 0 -84 16q-25 10 -66 35q-6 4 -26.5 16.5l-30.5 18.5q-29 16 -59 16q-41 0 -64 -22q-20 -21 -20 -50z" />
<glyph unicode="&#xb4;" horiz-adv-x="727" d="M233 1104h107l356 221q20 14 27 33q6 23 6 45q0 25 -8 43t-24.5 34.5t-35 24.5t-43.5 8q-27 0 -45 -8q-20 -8 -32 -24z" />
<glyph unicode="&#xb5;" horiz-adv-x="1224" d="M82 -334q0 -68 33 -94q35 -29 82 -29q53 0 88 35q33 33 32 100q0 27 -4 60q0 8 -12 47q-2 6 -7 22.5t-7 22.5l-13 49q-10 49 -12 66q-4 49 -4 86q27 -25 72 -43q43 -18 96 -19q51 0 90 17q37 16 78 43q33 23 68 53q31 29 53 53q4 -20 24 -61q14 -27 43 -54q25 -20 62 -36 q35 -14 80 -15q80 0 131 33t82 80q29 41 41 100q12 55 12 97h-43q-3 -18 -6 -43q-2 -18 -15 -52q-10 -25 -22 -41q-14 -16 -37 -16q-20 0 -29 4q-12 6 -22 23q-8 12 -15 47q-4 20 -4 80v690h-290v-731q-2 -4 -13.5 -20.5l-17.5 -24.5q-31 -35 -37 -41q-16 -14 -45 -29 q-25 -12 -53 -12q-51 0 -72 32q-23 35 -23 101v725h-290v-869q0 -74 -11 -127q-14 -72 -26 -120q-8 -31 -13.5 -57.5t-11.5 -49.5q-12 -49 -12 -82z" />
<glyph unicode="&#xb6;" horiz-adv-x="1116" d="M29 1020q0 -82 20 -141q23 -63 57 -105q39 -45 82 -69q57 -31 105 -46q61 -16 115 -22q84 -8 120 -10v-1088h76v1813h193v-1813h77v1813h138v57h-514q-63 0 -113 -8q-63 -10 -109 -27q-55 -18 -96 -47q-49 -33 -80 -72q-35 -45 -53 -102q-18 -59 -18 -133z" />
<glyph unicode="&#xb7;" horiz-adv-x="638" d="M84 696q0 -49 18.5 -92t49.5 -74q33 -33 75.5 -51t91.5 -18t92.5 18.5t75.5 50.5q31 31 49.5 74t18.5 92t-18.5 92t-49.5 74q-33 33 -75.5 51.5t-92.5 18.5q-49 0 -92 -18.5t-75 -51.5q-31 -31 -49.5 -74t-18.5 -92z" />
<glyph unicode="&#xb8;" horiz-adv-x="512" d="M0 -432q68 -20 106 -29q43 -8 95 -8q49 0 104 12q53 12 100.5 39t71.5 60q29 39 29 82q0 41 -21 67q-23 29 -51 43q-39 18 -69 25q-37 6 -74 6h-49l59 135h-90l-100 -219l36 -25q10 4 31 8q10 2 35 3q28 0 49 -13q23 -12 23 -49q0 -10 -4 -31q-2 -12 -17 -26 q-14 -12 -28 -19q-25 -8 -46 -8q-29 0 -63 8q-49 10 -78 23z" />
<glyph unicode="&#xb9;" horiz-adv-x="710" d="M78 1296l12 -32q43 16 70 16q29 0 47 -6q20 -6 29 -21q12 -20 14 -30l6 -31v-25v-448q0 -35 -8 -53q-8 -20 -26.5 -32.5t-49.5 -19.5q-20 -4 -74 -4v-35h535v35q-55 0 -76 4q-31 6 -49.5 18.5t-24.5 33.5q-8 29 -8 53v721h-35z" />
<glyph unicode="&#xba;" horiz-adv-x="790" d="M66 1126.5q0 -59.5 22.5 -117t63.5 -98.5q47 -47 104 -69q61 -25 139 -25t140 25q57 23 104 69q41 41 63.5 98.5t22.5 117t-22.5 116.5t-63.5 98q-47 47 -104 70q-61 25 -139.5 25t-139.5 -25q-57 -23 -104 -70q-41 -41 -63.5 -98t-22.5 -116.5zM76 659h639v66h-639v-66z M287 1126q0 14 1 44t1 47q0 41 10 86q8 39 33 65q20 25 63 25q41 0 64 -27q25 -27 33 -66q12 -53 12 -86v-88q0 -12 -1 -41.5t-1 -46.5q0 -41 -10 -86q-8 -35 -33 -63q-23 -27 -64 -27q-43 0 -63 25q-25 27 -33 65q-10 45 -10 86q0 16 -1 46t-1 42z" />
<glyph unicode="&#xbb;" horiz-adv-x="708" d="M53 156l29 -29q49 20 100 55q47 33 90 82q39 43 64 105q25 57 24 131q0 61 -20 114q-20 51 -59 101q-37 45 -88 82q-47 33 -113 59l-27 -29q84 -66 121 -145q39 -84 39 -174q0 -35 -8 -96q-6 -47 -25 -90q-16 -39 -49 -84q-27 -39 -78 -82zM338 156l27 -29 q55 23 102 55.5t90 81.5q39 43 64 105q25 57 24 131q0 57 -22 114q-20 51 -60 101q-37 45 -88 82q-47 33 -113 59l-24 -29q86 -68 123 -145q37 -80 37 -174q0 -49 -6 -96q-6 -41 -27 -90q-16 -39 -49 -84q-27 -39 -78 -82z" />
<glyph unicode="&#xbc;" horiz-adv-x="1699" d="M66 1296l12 -32q43 16 69 16q29 0 48 -6q20 -6 28 -21q12 -20 15 -30l6 -31v-25v-448q0 -35 -8 -53q-8 -20 -27 -32.5t-47 -19.5q-20 -4 -76 -4v-35h535v35q-55 0 -76 4q-31 6 -49.5 18.5t-24.5 33.5q-8 29 -8 53v721h-35zM342 -31h141l981 1471h-141zM969 190h368v-190 h205v190h92v129h-92v545h-90l-483 -545v-129zM1061 319l276 316v-316h-276z" />
<glyph unicode="&#xbd;" horiz-adv-x="1699" d="M41 1296l12 -32q43 16 70 16q29 0 47 -6q20 -6 29 -21q12 -20 14 -30q4 -20 4 -31q0 -6 1 -14.5t1 -10.5v-448q0 -35 -8 -53q-8 -20 -26.5 -32.5t-49.5 -19.5q-20 -4 -74 -4v-35h514v35q-55 0 -73 4q-25 6 -41.5 18.5t-18.5 33.5q-4 29 -4 53v721h-35zM297 -31h141 l981 1471h-141zM1004 0h598l57 244h-39q-18 -33 -27 -43q-12 -16 -26 -25q-10 -6 -37 -10q-14 -2 -60 -2h-223l121 104q63 57 119 119q49 55 90 129q35 63 35 133q0 41 -23 82q-20 37 -59 70q-31 27 -88 47q-43 16 -106.5 16t-112.5 -18q-51 -18 -90 -49q-40 -31 -68 -74 q-23 -37 -45 -94l43 -17q25 41 65 72q35 27 97 27q82 0 121 -43q41 -45 40 -105q0 -35 -6 -69q-6 -31 -22 -68q-12 -25 -45 -74q-29 -41 -70 -88l-100 -110l-139 -138v-16z" />
<glyph unicode="&#xbe;" horiz-adv-x="1699" d="M66 655q0 -31 22 -49q16 -14 57 -28q37 -14 78 -17q57 -4 80 -4q96 0 166 23q80 25 131 65q59 47 88 100q31 57 31 127q0 49 -14.5 80t-40.5 62q-25 27 -58 45q-45 25 -67 33q25 10 51 30.5t41 36.5q20 25 28 45q10 27 11 53q0 43 -21 76q-23 35 -53 58q-33 25 -78 36 q-43 12 -92 13q-57 0 -111 -19q-57 -20 -92 -47q-43 -33 -71.5 -67.5t-49.5 -77.5l37 -8q25 29 35 39q12 12 37 28q23 14 43 20.5t53 6.5q31 0 62 -10q29 -10 49 -27q23 -18 35 -41q12 -22 12 -49q0 -37 -14 -60q-16 -27 -41 -45t-62 -30q-41 -14 -82 -25v-35q53 -8 107 -30 q55 -23 92 -52q40 -31 61 -73q23 -45 23 -93q0 -23 -10 -47q-10 -23 -27 -36q-23 -18 -43 -27q-27 -10 -53 -10q-45 0 -84 16q-25 10 -66 35l-57 35q-29 16 -59 16q-41 0 -64 -22q-20 -21 -20 -50zM362 -31h142l981 1471h-142zM969 190h368v-190h205v190h92v129h-92v545h-90 l-483 -545v-129zM1061 319l276 316v-316h-276z" />
<glyph unicode="&#xbf;" horiz-adv-x="1064" d="M119 -127q0 -84 35 -147q37 -66 90 -103q66 -45 133 -61q74 -18 155 -19q109 0 182.5 27t125.5 72q47 41 73 100q23 51 23 111q0 61 -37 102t-111 41q-20 0 -45 -10q-22 -9 -36 -25q-10 -10 -23 -39q-8 -18 -8 -45q0 -25 10 -55q8 -25 21 -49l22 -45q10 -25 10 -37 q0 -18 -12 -33q-14 -16 -29 -25q-25 -12 -39 -16q-20 -6 -38 -6q-88 0 -137.5 69.5t-49.5 192.5q0 53 6 96q6 45 14.5 74t22.5 61q8 18 29 56q23 41 49 92q18 37 31 74q10 33 14 80q4 57 4 116h-45q0 -59 -16 -108q-15 -46 -43 -80q-27 -33 -64 -60q-55 -41 -71 -51 q-63 -43 -76 -51q-37 -28 -68 -61l-37 -45q-16 -23 -32 -52q-14 -27 -25 -63q-8 -31 -8 -78zM399 842q0 -35 12.5 -66t37 -55.5t55.5 -36.5q37 -14 67.5 -14t67.5 14q27 10 53 37q25 25 37 55q14 35 14 65.5t-14 67.5q-10 27 -37 54q-29 29 -53 38q-31 12 -67.5 12.5 t-67.5 -12.5q-27 -10 -55 -38q-27 -27 -37 -54q-13 -30 -13 -67z" />
<glyph unicode="&#xc0;" horiz-adv-x="1536" d="M16 0h469v39q-70 4 -112.5 18.5t-59.5 40.5q-18 27 -14 68q2 35 29 96l59 139h500l90 -217q12 -33 20 -67q6 -29 -8 -45q-12 -14 -51 -25q-33 -8 -104 -8v-39h679v39q-27 0 -53 10t-49 33q-27 27 -49 63q-29 45 -53 105l-523 1190h-20l-533 -1188q-29 -63 -51 -100 q-25 -40 -49 -62q-29 -25 -53 -33q-47 -16 -64 -18v-39zM403 1833q0 -23 7 -45q6 -18 26 -33l357 -221h106l-307 377q-12 14 -35 24q-18 8 -43 8.5t-43 -8t-34.5 -25t-25 -34.5t-8.5 -43zM424 477l217 488l209 -488h-426z" />
<glyph unicode="&#xc1;" horiz-adv-x="1536" d="M16 0h469v39q-70 4 -112.5 18.5t-59.5 40.5q-18 27 -14 68q2 35 29 96l59 139h500l90 -217q12 -33 20 -67q6 -29 -8 -45q-12 -14 -51 -25q-33 -8 -104 -8v-39h679v39q-27 0 -53 10t-49 33q-27 27 -49 63q-29 45 -53 105l-523 1190h-20l-533 -1188q-29 -63 -51 -100 q-25 -40 -49 -62q-29 -25 -53 -33q-47 -16 -64 -18v-39zM424 477l217 488l209 -488h-426zM678 1534h106l357 221q20 14 26 33q6 23 7 45q0 25 -8.5 43t-25 34.5t-35 25t-42.5 8.5q-27 0 -45 -9q-20 -8 -33 -24z" />
<glyph unicode="&#xc2;" horiz-adv-x="1536" d="M16 0h469v39q-70 4 -112.5 18.5t-59.5 40.5q-18 27 -14 68q2 35 29 96l59 139h500l90 -217q12 -33 20 -67q6 -29 -8 -45q-12 -14 -51 -25q-33 -8 -104 -8v-39h679v39q-27 0 -53 10t-49 33q-27 27 -49 63q-29 45 -53 105l-523 1190h-20l-533 -1188q-29 -63 -51 -100 q-25 -40 -49 -62q-29 -25 -53 -33q-47 -16 -64 -18v-39zM424 477l217 488l209 -488h-426zM453 1534h88l247 207l248 -207h88l-223 391h-225z" />
<glyph unicode="&#xc3;" horiz-adv-x="1536" d="M16 0h469v39q-70 4 -112.5 18.5t-59.5 40.5q-18 27 -14 68q2 35 29 96l59 139h500l90 -217q12 -33 20 -67q6 -29 -8 -45q-12 -14 -51 -25q-33 -8 -104 -8v-39h679v39q-27 0 -53 10t-49 33q-27 27 -49 63q-29 45 -53 105l-523 1190h-20l-533 -1188q-29 -63 -51 -100 q-25 -40 -49 -62q-29 -25 -53 -33q-47 -16 -64 -18v-39zM424 477l217 488l209 -488h-426zM461 1548h78q20 63 41 82q27 23 63 23q33 0 59 -15q2 -2 25 -13t35 -19q33 -20 61 -33q31 -14 72 -14q47 0 88 22.5t72 60.5q29 39 51 95q14 39 27 121h-78q-16 -59 -41 -82 q-27 -23 -64 -23q-33 0 -59 14q-2 2 -24.5 13.5t-35.5 19.5q-33 20 -61 33q-31 14 -72 14q-47 0 -88 -22.5t-71 -61.5q-29 -37 -52 -96q-20 -51 -26 -119z" />
<glyph unicode="&#xc4;" horiz-adv-x="1536" d="M16 0h469v39q-70 4 -112.5 18.5t-59.5 40.5q-18 27 -14 68q2 35 29 96l59 139h500l90 -217q12 -33 20 -67q6 -29 -8 -45q-12 -14 -51 -25q-33 -8 -104 -8v-39h679v39q-27 0 -53 10t-49 33q-27 27 -49 63q-29 45 -53 105l-523 1190h-20l-533 -1188q-29 -63 -51 -100 q-25 -40 -49 -62q-29 -25 -53 -33q-47 -16 -64 -18v-39zM424 477l217 488l209 -488h-426zM451 1698q0 -29 10 -56q8 -20 30.5 -42.5t43.5 -30.5q27 -10 55 -10t55 10q20 8 43 30q18 18 31 43q10 20 10 55.5t-10 55.5q-12 25 -30.5 43.5t-43.5 30.5q-20 10 -55 10t-55 -10 q-25 -12 -43 -31q-23 -23 -31 -43q-10 -26 -10 -55zM844 1698q0 -29 10 -56q8 -20 30.5 -42.5t43.5 -30.5q27 -10 55.5 -10t54.5 10q20 8 43 30q14 14 29 43q12 25 12 56t-12 55q-14 29 -29 43q-18 18 -43 31q-20 10 -55 10t-55 -10q-25 -12 -43 -31q-23 -23 -31 -43 q-10 -26 -10 -55z" />
<glyph unicode="&#xc5;" horiz-adv-x="1536" d="M16 0h469v39q-70 4 -112.5 18.5t-59.5 40.5q-18 27 -14 68q2 35 29 96l59 139h500l90 -217q12 -33 20 -67q6 -29 -8 -45q-12 -14 -51 -25q-33 -8 -104 -8v-39h679v39q-27 0 -53 10t-49 33q-27 27 -49 63q-29 45 -53 105l-523 1190h-20l-533 -1188q-29 -63 -51 -100 q-25 -40 -49 -62q-29 -25 -53 -33q-47 -16 -64 -18v-39zM424 477l217 488l209 -488h-426zM557 1753q0 -51 16 -86q18 -41 47 -69.5t70 -47.5q35 -16 86 -16q49 0 84 16q45 20 72 47q29 29 47 70q16 35 16 86q0 49 -16 84q-20 45 -47 71.5t-72 47.5q-35 16 -84 16 q-51 0 -86 -16q-41 -18 -69 -47q-27 -27 -48 -72q-16 -35 -16 -84zM653 1753q0 23 11 47q6 14 26 39q12 16 39 27q25 10 47.5 10t46.5 -10q20 -10 39 -26.5t27 -39.5q10 -25 10 -47t-10 -47q-10 -27 -27 -39q-25 -20 -39 -27q-25 -10 -47 -10t-47 10q-20 10 -38.5 26.5 t-26.5 39.5q-11 24 -11 47z" />
<glyph unicode="&#xc6;" horiz-adv-x="2131" d="M-18 0h456v39q-59 0 -98 16.5t-57 40.5q-18 23 -14.5 57.5t22.5 65.5l244 389l456 -2v-385q0 -61 -10 -102q-8 -35 -37 -53q-29 -20 -76 -23q-66 -4 -131 -4v-39h1237l64 446h-37q-39 -115 -84 -184q-49 -74 -105 -112q-63 -43 -126 -58q-76 -16 -158 -16q-53 0 -107 4 q-37 2 -59 18q-20 14 -27 43q-6 27 -6 80v455h31q74 0 119 -26.5t71 -71.5q25 -41 41 -105q15 -58 25 -123h39v737h-39q-6 -53 -23 -131q-12 -59 -41 -104q-29 -47 -73 -70q-49 -27 -119 -26h-31v575h131q102 0 172 -14q74 -14 127 -53q49 -35 86 -105q35 -68 53 -166h39 v416h-1278v-39q68 0 115 -10q43 -9 62 -31q20 -23 10 -61q-8 -31 -45 -92l-615 -973q-4 -8 -49 -72q-23 -33 -45 -49q-33 -25 -51 -31q-29 -10 -59 -12v-39zM582 684l409 641v-641h-409z" />
<glyph unicode="&#xc7;" horiz-adv-x="1536" d="M84 705q0 -80 16 -168q16 -90 47 -160q37 -86 84 -146q51 -66 123 -118q70 -51 166 -90q86 -35 209 -48l-100 -217l37 -24q10 4 30 8q10 2 35 2q28 0 49 -12q23 -12 23 -49q0 -8 -4 -29q-2 -12 -15 -29q-8 -10 -30 -18q-25 -8 -45 -8q-31 0 -64 8q-55 14 -78 22l-49 -84 q72 -23 105 -28q43 -8 96 -9q49 0 104.5 12.5t98.5 37.5q49 29 73 61q29 39 29 82q0 41 -20 68q-23 29 -52 43q-39 20 -69 24q-37 6 -74 6h-49l57 127q96 -4 174 6.5t146 36.5q66 27 131 74q61 43 129 115v123q-82 -86 -117 -117q-55 -49 -111 -80q-51 -29 -116.5 -45 t-141.5 -16q-123 0 -209 49q-84 47 -141 137q-55 86 -79.5 202.5t-24.5 250.5q0 131 28 251q27 113 88 203q63 92 148 139q90 49 207 50q77 0 147 -25q72 -25 133 -74q55 -45 104.5 -122.5t69.5 -172.5h41v488h-39q-2 -8 -7 -21.5t-7 -17.5q-6 -20 -18 -35q-10 -12 -27 -22 q-14 -8 -37 -9q-14 0 -53 17l-94 35q-66 23 -125 34q-76 16 -152 17q-111 0 -215 -29q-102 -29 -188 -80q-88 -53 -156 -121q-72 -72 -119 -151.5t-75 -171.5q-27 -86 -27 -182z" />
<glyph unicode="&#xc8;" horiz-adv-x="1398" d="M43 0h1219l61 446h-37q-35 -106 -86 -184q-47 -72 -113 -112q-63 -39 -151 -56q-92 -16 -199 -16q-43 0 -88 8q-31 6 -51 23q-16 12 -23 43q-6 29 -6 69v455h45q76 0 121 -27q51 -31 76 -71q31 -51 45 -105q15 -58 25 -123h39v737h-39q-8 -68 -25 -131q-16 -68 -43 -104 q-33 -45 -78 -70q-49 -27 -121 -26h-45v575h176q102 0 173 -14q74 -14 126 -53q49 -35 86 -105q35 -68 54 -166h39v416h-1180v-39q68 0 102 -8q43 -10 62 -29q23 -23 29 -55q6 -37 6 -90v-967q0 -53 -6 -90q-6 -33 -29 -55q-18 -18 -62 -29q-35 -8 -102 -8v-39zM369 1833 q0 -16 8 -45q6 -20 24 -33l357 -221h106l-307 377q-12 16 -33 24q-18 8 -45 9q-25 0 -43 -8.5t-34.5 -25t-24.5 -34.5t-8 -43z" />
<glyph unicode="&#xc9;" horiz-adv-x="1398" d="M43 0h1219l61 446h-37q-35 -106 -86 -184q-47 -72 -113 -112q-63 -39 -151 -56q-92 -16 -199 -16q-43 0 -88 8q-31 6 -51 23q-16 12 -23 43q-6 29 -6 69v455h45q76 0 121 -27q51 -31 76 -71q31 -51 45 -105q15 -58 25 -123h39v737h-39q-8 -68 -25 -131q-16 -68 -43 -104 q-33 -45 -78 -70q-49 -27 -121 -26h-45v575h176q102 0 173 -14q74 -14 126 -53q49 -35 86 -105q35 -68 54 -166h39v416h-1180v-39q68 0 102 -8q43 -10 62 -29q23 -23 29 -55q6 -37 6 -90v-967q0 -53 -6 -90q-6 -33 -29 -55q-18 -18 -62 -29q-35 -8 -102 -8v-39zM596 1534 h106l357 221q20 14 26 33q6 23 7 45q0 25 -8.5 43t-25 34.5t-34.5 25t-43 8.5t-43 -9q-23 -10 -35 -24z" />
<glyph unicode="&#xca;" horiz-adv-x="1398" d="M43 0h1219l61 446h-37q-35 -106 -86 -184q-47 -72 -113 -112q-63 -39 -151 -56q-92 -16 -199 -16q-43 0 -88 8q-31 6 -51 23q-16 12 -23 43q-6 29 -6 69v455h45q76 0 121 -27q51 -31 76 -71q31 -51 45 -105q15 -58 25 -123h39v737h-39q-8 -68 -25 -131q-16 -68 -43 -104 q-33 -45 -78 -70q-49 -27 -121 -26h-45v575h176q102 0 173 -14q74 -14 126 -53q49 -35 86 -105q35 -68 54 -166h39v416h-1180v-39q68 0 102 -8q43 -10 62 -29q23 -23 29 -55q6 -37 6 -90v-967q0 -53 -6 -90q-6 -33 -29 -55q-18 -18 -62 -29q-35 -8 -102 -8v-39zM389 1534h88 l248 207l248 -207h88l-223 391h-226z" />
<glyph unicode="&#xcb;" horiz-adv-x="1398" d="M43 0h1219l61 446h-37q-35 -106 -86 -184q-47 -72 -113 -112q-63 -39 -151 -56q-92 -16 -199 -16q-43 0 -88 8q-31 6 -51 23q-16 12 -23 43q-6 29 -6 69v455h45q76 0 121 -27q51 -31 76 -71q31 -51 45 -105q15 -58 25 -123h39v737h-39q-8 -68 -25 -131q-16 -68 -43 -104 q-33 -45 -78 -70q-49 -27 -121 -26h-45v575h176q102 0 173 -14q74 -14 126 -53q49 -35 86 -105q35 -68 54 -166h39v416h-1180v-39q68 0 102 -8q43 -10 62 -29q23 -23 29 -55q6 -37 6 -90v-967q0 -53 -6 -90q-6 -33 -29 -55q-18 -18 -62 -29q-35 -8 -102 -8v-39zM369 1698 q0 -29 10 -56q8 -20 30.5 -42.5t43.5 -30.5q27 -10 55.5 -10t54.5 10q20 8 43 30q18 18 31 43q10 20 10 55.5t-10 55.5q-12 25 -30.5 43.5t-43.5 30.5q-20 10 -55 10t-55 -10q-25 -12 -43 -31q-23 -23 -31 -43q-10 -26 -10 -55zM762 1698q0 -29 10 -56q8 -20 30.5 -42.5 t43.5 -30.5q27 -10 55.5 -10t54.5 10q20 8 43 30q14 14 29 43q12 25 12 56t-12 55q-14 29 -29 43q-18 18 -43 31q-20 10 -55 10t-55 -10q-25 -12 -43 -31q-23 -23 -31 -43q-10 -26 -10 -55z" />
<glyph unicode="&#xcc;" horiz-adv-x="808" d="M20 1833q0 -23 7 -45q6 -18 26 -33l357 -221h106l-307 377q-12 16 -33 24q-18 8 -45 9q-25 0 -43 -8.5t-34.5 -25t-25 -34.5t-8.5 -43zM43 0h725v39q-68 0 -102 8q-43 10 -62 29q-23 23 -29 55q-6 37 -6 90v967q0 53 6 90q6 33 29 55q18 18 62 29q35 8 102 8v39h-725v-39 q68 0 102 -8q43 -10 62 -29q23 -23 29 -55q6 -37 6 -90v-967q0 -53 -6 -90q-6 -33 -29 -55q-18 -18 -62 -29q-35 -8 -102 -8v-39z" />
<glyph unicode="&#xcd;" horiz-adv-x="808" d="M43 0h725v39q-68 0 -102 8q-43 10 -62 29q-23 23 -29 55q-6 37 -6 90v967q0 53 6 90q6 33 29 55q18 18 62 29q35 8 102 8v39h-725v-39q68 0 102 -8q43 -10 62 -29q23 -23 29 -55q6 -37 6 -90v-967q0 -53 -6 -90q-6 -33 -29 -55q-18 -18 -62 -29q-35 -8 -102 -8v-39z M295 1534h106l357 221q20 14 26 33q6 23 7 45q0 25 -8.5 43t-25 34.5t-34.5 25t-43 8.5q-27 0 -45 -9q-20 -8 -33 -24z" />
<glyph unicode="&#xce;" horiz-adv-x="808" d="M43 0h725v39q-68 0 -102 8q-43 10 -62 29q-23 23 -29 55q-6 37 -6 90v967q0 53 6 90q6 33 29 55q18 18 62 29q35 8 102 8v39h-725v-39q68 0 102 -8q43 -10 62 -29q23 -23 29 -55q6 -37 6 -90v-967q0 -53 -6 -90q-6 -33 -29 -55q-18 -18 -62 -29q-35 -8 -102 -8v-39z M80 1534h88l248 207l248 -207h88l-224 391h-225z" />
<glyph unicode="&#xcf;" horiz-adv-x="808" d="M43 0h725v39q-68 0 -102 8q-43 10 -62 29q-23 23 -29 55q-6 37 -6 90v967q0 53 6 90q6 33 29 55q18 18 62 29q35 8 102 8v39h-725v-39q68 0 102 -8q43 -10 62 -29q23 -23 29 -55q6 -37 6 -90v-967q0 -53 -6 -90q-6 -33 -29 -55q-18 -18 -62 -29q-35 -8 -102 -8v-39z M80 1698q0 -29 10 -56q8 -20 30.5 -42.5t43.5 -30.5q27 -10 55.5 -10t54.5 10q20 8 43 30q14 14 29 43q12 25 12 56t-12 55q-14 29 -29 43q-18 18 -43 31q-20 10 -55 10t-55 -10q-25 -12 -43 -31q-23 -23 -31 -43q-10 -26 -10 -55zM473 1698q0 -35 10 -56q12 -25 31 -43 q23 -23 43 -30q27 -10 55 -10q27 0 54 10q23 8 45 30q18 18 30 43q10 20 10.5 55.5t-10.5 55.5q-12 25 -30 43q-16 16 -45 31q-20 10 -54 10q-35 0 -55 -10q-25 -12 -43 -30.5t-31 -43.5q-10 -20 -10 -55z" />
<glyph unicode="&#xd0;" horiz-adv-x="1536" d="M29 674h225v-453q0 -53 -6 -90q-6 -33 -29 -55q-18 -18 -61 -29q-35 -8 -103 -8v-39h705q166 0 297 53q133 53 221 148q92 98 137 225q47 131 47 279q0 143 -47 274q-45 123 -137 223q-88 94 -221 152q-129 55 -297 55h-705v-39q68 0 103 -8q43 -10 61 -29q23 -23 29 -55 q6 -37 6 -90v-371h-225v-143zM582 221v453h321v143h-321v514h82q78 0 147 -26q61 -23 111 -70q45 -43 77 -107q37 -74 52 -129q20 -78 28 -145q8 -66 8 -149q0 -51 -8 -154q-6 -74 -24 -145q-18 -74 -45 -131.5t-70 -104.5q-43 -45 -96 -70q-55 -25 -129 -24q-35 0 -68 8 q-23 6 -39 22q-14 14 -20 46q-6 28 -6 69z" />
<glyph unicode="&#xd1;" horiz-adv-x="1540" d="M35 0h500v39q-104 0 -160 43t-56 139v920l951 -1172h37v1219q0 94 45 139q43 43 143 43v39h-469v-39q104 0 153.5 -43t49.5 -139v-651l-694 872h-500v-37q35 0 59 -6q29 -6 47 -20q23 -14 45 -39q14 -14 56 -68v-1018q0 -98 -54 -139q-55 -43 -153 -43v-39zM444 1548h78 q20 63 41 82q27 23 64 23q33 0 59 -15q2 -2 24.5 -13t34.5 -19q33 -20 62 -33q31 -14 72 -14q47 0 88 22.5t71 60.5q31 41 49 95q20 59 29 121h-78q-16 -59 -41 -82q-27 -23 -63 -23q-33 0 -60 14q-2 2 -24.5 13.5t-34.5 19.5q-33 20 -61 33q-31 14 -72 14q-47 0 -88 -22.5 t-72 -61.5q-29 -37 -51 -96q-15 -39 -27 -119z" />
<glyph unicode="&#xd2;" horiz-adv-x="1648" d="M76 704.5q0 -104.5 26 -196.5q27 -94 76 -176q45 -76 119 -150q68 -68 152 -114q86 -47 178 -72q102 -27 196.5 -27t196.5 27q96 25 180 72q82 47 152 114q74 74 118 150q49 82 76 176q27 92 27 196.5t-27 196.5q-27 94 -76 176q-45 76 -118 150q-70 68 -152 114 q-84 47 -180 72q-102 27 -196.5 27t-196.5 -27q-92 -25 -178 -72q-84 -47 -152 -114q-74 -74 -119 -150q-49 -82 -76 -176q-26 -92 -26 -196.5zM451 704.5q0 49.5 8 151.5q6 88 22 150q20 82 45 139q29 66 70 112q43 49 96 76q57 29 131 29t131 -29q53 -27 97 -76 q41 -45 69 -114q27 -59 45 -137q18 -74 25 -150q8 -102 8 -151.5t-8 -151.5q-6 -76 -25 -150q-18 -78 -45 -137q-29 -70 -69 -114q-43 -49 -97 -76q-57 -29 -130.5 -29t-131.5 29q-53 27 -96 76q-41 45 -70 114q-27 59 -45 137q-16 61 -22 150q-8 102 -8 151.5zM451 1833 q0 -16 8 -45q6 -20 24 -33l357 -221h106l-307 377q-12 16 -33 24q-18 8 -45 9q-25 0 -43 -8.5t-34.5 -25t-24.5 -34.5t-8 -43z" />
<glyph unicode="&#xd3;" horiz-adv-x="1648" d="M76 704.5q0 -104.5 26 -196.5q27 -94 76 -176q45 -76 119 -150q68 -68 152 -114q86 -47 178 -72q102 -27 196.5 -27t196.5 27q96 25 180 72q82 47 152 114q74 74 118 150q49 82 76 176q27 92 27 196.5t-27 196.5q-27 94 -76 176q-45 76 -118 150q-70 68 -152 114 q-84 47 -180 72q-102 27 -196.5 27t-196.5 -27q-92 -25 -178 -72q-84 -47 -152 -114q-74 -74 -119 -150q-49 -82 -76 -176q-26 -92 -26 -196.5zM451 704.5q0 49.5 8 151.5q6 88 22 150q20 82 45 139q29 66 70 112q43 49 96 76q57 29 131 29t131 -29q53 -27 97 -76 q41 -45 69 -114q27 -59 45 -137q18 -74 25 -150q8 -102 8 -151.5t-8 -151.5q-6 -76 -25 -150q-18 -78 -45 -137q-29 -70 -69 -114q-43 -49 -97 -76q-57 -29 -130.5 -29t-131.5 29q-53 27 -96 76q-41 45 -70 114q-27 59 -45 137q-16 61 -22 150q-8 102 -8 151.5zM745 1534 h107l356 221q20 14 27 33q6 23 6 45q0 25 -8 43t-24.5 34.5t-35 25t-43.5 8.5q-27 0 -45 -9q-20 -8 -32 -24z" />
<glyph unicode="&#xd4;" horiz-adv-x="1648" d="M76 704.5q0 -104.5 26 -196.5q27 -94 76 -176q45 -76 119 -150q68 -68 152 -114q86 -47 178 -72q102 -27 196.5 -27t196.5 27q96 25 180 72q82 47 152 114q74 74 118 150q49 82 76 176q27 92 27 196.5t-27 196.5q-27 94 -76 176q-45 76 -118 150q-70 68 -152 114 q-84 47 -180 72q-102 27 -196.5 27t-196.5 -27q-92 -25 -178 -72q-84 -47 -152 -114q-74 -74 -119 -150q-49 -82 -76 -176q-26 -92 -26 -196.5zM451 704.5q0 49.5 8 151.5q6 88 22 150q20 82 45 139q29 66 70 112q43 49 96 76q57 29 131 29t131 -29q53 -27 97 -76 q41 -45 69 -114q27 -59 45 -137q18 -74 25 -150q8 -102 8 -151.5t-8 -151.5q-6 -76 -25 -150q-18 -78 -45 -137q-29 -70 -69 -114q-43 -49 -97 -76q-57 -29 -130.5 -29t-131.5 29q-53 27 -96 76q-41 45 -70 114q-27 59 -45 137q-16 61 -22 150q-8 102 -8 151.5zM465 1534h88 l248 207l248 -207h88l-224 391h-225z" />
<glyph unicode="&#xd5;" horiz-adv-x="1648" d="M76 704.5q0 -104.5 26 -196.5q27 -94 76 -176q45 -76 119 -150q68 -68 152 -114q86 -47 178 -72q102 -27 196.5 -27t196.5 27q96 25 180 72q82 47 152 114q74 74 118 150q49 82 76 176q27 92 27 196.5t-27 196.5q-27 94 -76 176q-45 76 -118 150q-70 68 -152 114 q-84 47 -180 72q-102 27 -196.5 27t-196.5 -27q-92 -25 -178 -72q-84 -47 -152 -114q-74 -74 -119 -150q-49 -82 -76 -176q-26 -92 -26 -196.5zM451 704.5q0 49.5 8 151.5q6 88 22 150q20 82 45 139q29 66 70 112q43 49 96 76q57 29 131 29t131 -29q53 -27 97 -76 q41 -45 69 -114q27 -59 45 -137q18 -74 25 -150q8 -102 8 -151.5t-8 -151.5q-6 -76 -25 -150q-18 -78 -45 -137q-29 -70 -69 -114q-43 -49 -97 -76q-57 -29 -130.5 -29t-131.5 29q-53 27 -96 76q-41 45 -70 114q-27 59 -45 137q-16 61 -22 150q-8 102 -8 151.5zM504 1548h78 q20 63 41 82q27 23 63 23q33 0 59 -15q2 -2 25 -13t35 -19q33 -20 61 -33q31 -14 72 -14q47 0 88 22.5t72 60.5q29 39 51 95q14 39 27 121h-78q-16 -59 -41 -82q-27 -23 -64 -23q-33 0 -59 14q-2 2 -24.5 13.5t-35.5 19.5q-33 20 -61 33q-31 14 -72 14q-47 0 -88 -22.5 t-71 -61.5q-29 -37 -52 -96q-20 -51 -26 -119z" />
<glyph unicode="&#xd6;" horiz-adv-x="1648" d="M76 704.5q0 -104.5 26 -196.5q27 -94 76 -176q45 -76 119 -150q68 -68 152 -114q86 -47 178 -72q102 -27 196.5 -27t196.5 27q96 25 180 72q82 47 152 114q74 74 118 150q49 82 76 176q27 92 27 196.5t-27 196.5q-27 94 -76 176q-45 76 -118 150q-70 68 -152 114 q-84 47 -180 72q-102 27 -196.5 27t-196.5 -27q-92 -25 -178 -72q-84 -47 -152 -114q-74 -74 -119 -150q-49 -82 -76 -176q-26 -92 -26 -196.5zM451 704.5q0 49.5 8 151.5q6 88 22 150q20 82 45 139q29 66 70 112q43 49 96 76q57 29 131 29t131 -29q53 -27 97 -76 q41 -45 69 -114q27 -59 45 -137q18 -74 25 -150q8 -102 8 -151.5t-8 -151.5q-6 -76 -25 -150q-18 -78 -45 -137q-29 -70 -69 -114q-43 -49 -97 -76q-57 -29 -130.5 -29t-131.5 29q-53 27 -96 76q-41 45 -70 114q-27 59 -45 137q-16 61 -22 150q-8 102 -8 151.5zM502 1698 q0 -29 10 -56q8 -20 30.5 -42.5t43.5 -30.5q27 -10 55.5 -10t54.5 10q20 8 43 30q14 14 29 43q12 25 12 56t-12 55q-14 29 -29 43q-18 18 -43 31q-20 10 -55 10t-55 -10q-25 -12 -43 -31q-23 -23 -31 -43q-10 -26 -10 -55zM895 1698q0 -29 10 -56q8 -20 30.5 -42.5 t43.5 -30.5q27 -10 55 -10q27 0 53 10q23 8 46 30q18 18 30 43q10 20 10.5 55.5t-10.5 55.5q-12 25 -30 43q-16 16 -46 31q-20 10 -53 10q-35 0 -55 -10q-25 -12 -43 -31q-23 -23 -31 -43q-10 -26 -10 -55z" />
<glyph unicode="&#xd7;" horiz-adv-x="2048" d="M471 141l80 -80l473 476l473 -476l80 80l-471 473l471 473l-80 80l-473 -475l-473 475l-80 -80l471 -473z" />
<glyph unicode="&#xd8;" horiz-adv-x="1656" d="M80 705q0 -74 16.5 -152t44.5 -141q35 -78 72 -127q43 -59 96 -109l-170 -196l82 -74l172 200q94 -66 203 -102q104 -35 231 -35q94 0 197 27q96 25 180 72q82 47 152 114q70 70 117 150q53 88 77 176q27 92 27 197q0 156 -57 284q-58 132 -160 234l166 192l-82 74 l-168 -195q-92 66 -209 107q-111 39 -240 39q-94 0 -196 -27q-92 -25 -178 -72q-84 -47 -152 -114q-74 -74 -119 -150q-49 -82 -76 -176q-26 -92 -26 -196zM455 704.5q0 49.5 8 151.5q6 88 22 150q20 82 45 139q29 66 70 112q43 49 96 76q57 29 131 29q58 0 105 -19 q53 -20 84 -47q43 -37 67 -73q29 -45 50 -95l-644 -743q-20 72 -26 160q-8 110 -8 159.5zM530 264l641 740q16 -61 23 -150q8 -102 8 -149q0 -49 -8 -152q-6 -76 -25 -150q-18 -78 -45 -137q-29 -70 -69 -114q-43 -49 -97 -76q-57 -29 -131 -29q-51 0 -100 16q-39 12 -82 46 q-39 29 -65 67q-30 41 -50 88z" />
<glyph unicode="&#xd9;" horiz-adv-x="1536" d="M51 1370q68 0 101 -8q41 -10 59 -28.5t24.5 -55.5t6.5 -90v-739q0 -240 129 -361q127 -119 391 -119q119 0 217 25q100 25 170 86q74 63 113 166q41 106 41 266v676q0 47 14 90q10 31 39 55q20 18 61 29q33 8 84 8v39h-487v-39q55 0 88 -8q43 -10 63 -29q29 -25 39 -55 q12 -37 13 -90v-637q0 -123 -23 -217q-23 -90 -66 -150q-41 -53 -112 -84q-70 -29 -156 -28q-92 0 -145 26q-57 29 -90 76q-31 43 -43 119q-12 72 -13 158v737q0 57 8.5 90t30.5 55q18 18 62 29q35 8 104 8v39h-723v-39zM471 1833q0 -23 6 -45q6 -18 27 -33l356 -221h107 l-308 377q-12 16 -32 24q-18 8 -45 9q-25 0 -43.5 -8.5t-35 -25t-24.5 -34.5t-8 -43z" />
<glyph unicode="&#xda;" horiz-adv-x="1536" d="M51 1370q68 0 101 -8q41 -10 59 -28.5t24.5 -55.5t6.5 -90v-739q0 -240 129 -361q127 -119 391 -119q119 0 217 25q100 25 170 86q74 63 113 166q41 106 41 266v676q0 47 14 90q10 31 39 55q20 18 61 29q33 8 84 8v39h-487v-39q55 0 88 -8q43 -10 63 -29q29 -25 39 -55 q12 -37 13 -90v-637q0 -123 -23 -217q-23 -90 -66 -150q-41 -53 -112 -84q-70 -29 -156 -28q-92 0 -145 26q-57 29 -90 76q-31 43 -43 119q-12 72 -13 158v737q0 57 8.5 90t30.5 55q18 18 62 29q35 8 104 8v39h-723v-39zM623 1534h106l356 221q18 12 25 33q8 29 8 45 q0 25 -8 43t-24.5 34.5t-35 25t-42.5 8.5q-27 0 -45 -9q-20 -8 -33 -24z" />
<glyph unicode="&#xdb;" horiz-adv-x="1536" d="M51 1370q68 0 101 -8q41 -10 59 -28.5t24.5 -55.5t6.5 -90v-739q0 -240 129 -361q127 -119 391 -119q119 0 217 25q100 25 170 86q74 63 113 166q41 106 41 266v676q0 47 14 90q10 31 39 55q20 18 61 29q33 8 84 8v39h-487v-39q55 0 88 -8q43 -10 63 -29q29 -25 39 -55 q12 -37 13 -90v-637q0 -123 -23 -217q-23 -90 -66 -150q-41 -53 -112 -84q-70 -29 -156 -28q-92 0 -145 26q-57 29 -90 76q-31 43 -43 119q-12 72 -13 158v737q0 57 8.5 90t30.5 55q18 18 62 29q35 8 104 8v39h-723v-39zM492 1534h88l247 207l248 -207h88l-223 391h-225z " />
<glyph unicode="&#xdc;" horiz-adv-x="1536" d="M51 1370q68 0 101 -8q41 -10 59 -28.5t24.5 -55.5t6.5 -90v-739q0 -240 129 -361q127 -119 391 -119q119 0 217 25q100 25 170 86q74 63 113 166q41 106 41 266v676q0 47 14 90q10 31 39 55q20 18 61 29q33 8 84 8v39h-487v-39q55 0 88 -8q43 -10 63 -29q29 -25 39 -55 q12 -37 13 -90v-637q0 -123 -23 -217q-23 -90 -66 -150q-41 -53 -112 -84q-70 -29 -156 -28q-92 0 -145 26q-57 29 -90 76q-31 43 -43 119q-12 72 -13 158v737q0 57 8.5 90t30.5 55q18 18 62 29q35 8 104 8v39h-723v-39zM483 1698q0 -35 11 -56q12 -25 30 -43q23 -23 45 -30 q27 -10 54 -10q29 0 55 10q20 8 43 30q18 18 31 43q10 20 10 55.5t-10 55.5q-12 25 -31 43.5t-43 30.5q-20 10 -55 10q-33 0 -54 -10q-29 -14 -45 -31q-18 -18 -30 -43q-11 -20 -11 -55zM877 1698q0 -29 10 -56q8 -20 30.5 -42.5t43.5 -30.5q27 -10 55 -10t55 10q20 8 43 30 q18 18 31 43q10 20 10 55.5t-10 55.5q-12 25 -30.5 43.5t-43.5 30.5q-20 10 -55 10t-55 -10q-25 -12 -43 -31q-23 -23 -31 -43q-10 -26 -10 -55z" />
<glyph unicode="&#xdd;" horiz-adv-x="1536" d="M18 1370q23 0 60 -8q25 -6 53.5 -30.5t52.5 -63.5q35 -53 66 -111l354 -643v-293q0 -53 -12 -90q-10 -31 -41 -55q-25 -18 -72 -29q-39 -8 -108 -8v-39h790v39q-70 0 -108 8q-45 10 -70 29q-29 23 -39 55q-12 37 -12 90v348l303 514l86 140q35 51 68 88q31 33 59 45 q35 14 65 14v39h-430v-39q53 0 95 -10q37 -10 53 -35q12 -20 2 -68q-10 -45 -49 -108l-291 -490l-307 568q-23 43 -29 67q-6 29 4 45q12 18 45 25q31 6 88 6v39h-676v-39zM692 1540h107l356 221q20 14 27 33q6 20 6 45t-8 43q-9 22 -25 37q-12 14 -35 23q-18 8 -43 8 q-27 0 -45 -8q-20 -8 -33 -25z" />
<glyph unicode="&#xde;" horiz-adv-x="1298" d="M39 0h725v39q-68 0 -102 8q-43 10 -62 29q-23 23 -29 55q-6 37 -6 90v98h97q154 0 260 25q100 23 176 78q70 51 100 123q31 74 31 168q0 96 -37 170q-37 72 -107 121q-68 47 -167 71q-90 23 -218 23h-135v90q0 53 6 90q6 33 29 55q18 18 62 29q35 8 102 8v39h-725v-39 q68 0 102 -8q43 -10 62 -29q23 -23 28 -55q6 -37 7 -90v-967q0 -53 -7 -90q-6 -33 -28 -55q-18 -18 -62 -29q-35 -8 -102 -8v-39zM565 401v615h49q82 0 134 -25q49 -23 81 -69q31 -43 43 -97q10 -47 11 -112q0 -83 -13 -142q-12 -57 -45 -96q-31 -37 -82 -55 q-52 -18 -129 -19h-49z" />
<glyph unicode="&#xdf;" horiz-adv-x="1222" d="M41 0h420v1153q0 104 41 162q40 55 116 55q47 0 78 -18q35 -20 52 -52q20 -39 28 -79q8 -43 8 -109q0 -76 -6 -121q-6 -47 -22 -76q-15 -28 -43 -36q-31 -10 -68 -11v-65q41 0 68 -8q35 -10 55 -31q23 -23 37 -53.5t20 -85.5l4 -23q2 -18 7 -57q3 -34 6 -74q4 -53 4 -72 q0 -45 -4 -102q-2 -39 -6 -76q-3 -34 -7 -61q-4 -37 -4 -54q0 -20 -8 -49q-6 -20 -35 -20q-18 0 -37 14q-16 12 -16 35q0 14 2 20.5t6 14.5q0 2 2 7t4 7q2 4 2 15q0 18 -10 38q-8 16 -24 33q-14 14 -35 25q-16 8 -39 8q-29 0 -47 -12q-20 -14 -31 -29q-14 -20 -16 -41 q-4 -29 -4 -43q0 -39 18 -70q16 -27 47 -51q25 -18 64 -28q41 -10 75 -11q82 0 154 33t127 94q49 55 86 146q33 80 33 184q0 98 -25 174q-25 77 -67 129q-43 51 -101 82q-49 27 -127 37q68 12 117 37q45 23 78 61q31 37 43 82q14 53 14 98q0 74 -34.5 133.5t-98.5 100.5 q-55 37 -145 59q-80 20 -183 21q-86 0 -165 -19q-78 -18 -140 -61q-59 -41 -98 -119q-37 -74 -37 -184v-858q0 -84 -33 -117q-37 -37 -100 -43v-39z" />
<glyph unicode="&#xe0;" horiz-adv-x="1064" d="M96 174q0 -45 15 -76q16 -35 43 -59q29 -25 63 -37q43 -14 82 -14q45 0 86 14q29 10 82 39q37 20 76 49q51 39 65 51q4 -31 15 -55q14 -33 32 -51q23 -23 56 -35q39 -14 82 -14q45 0 84 16q37 15 67 37q27 18 51 47q20 23 35 45l-29 29q-20 -27 -40 -37q-18 -8 -33 -2 q-14 8 -21 24q-8 25 -8 41v510q0 61 -18 117q-18 53 -58 96q-39 41 -106 68q-66 25 -162 24q-57 0 -104 -8q-35 -6 -101 -26q-53 -16 -92 -39t-73.5 -57.5t-51.5 -69.5q-18 -40 -18 -86q0 -31 14 -53q12 -20 39 -44q14 -12 51 -24q31 -10 51 -10q29 0 52 8q29 10 45 24.5 t30 38.5q10 18 11 52q0 25 -11 45q-6 12 -22 32q-2 4 -11.5 13.5t-13.5 15.5q-10 16 -10 35q0 20 12 35q8 10 33 22q18 9 43 13q16 2 45 2q72 0 102 -39q33 -43 33 -107v-160q-152 -70 -231 -112q-98 -53 -158 -105q-63 -53 -92 -106q-31 -56 -31 -117zM190 1403 q0 -23 7 -45q6 -18 26 -33l357 -221h106l-307 377q-12 14 -35 24q-18 8 -43 8t-43 -8t-34.5 -24.5t-25 -34.5t-8.5 -43zM381 274q0 29 14 66q12 31 33 57q14 18 47 52q18 18 51 43q20 16 47 30q8 6 18.5 11.5t16.5 9.5v-322l-12 -10l-29 -21q-20 -12 -37 -20 q-25 -10 -41 -10q-47 0 -77.5 30.5t-30.5 83.5z" />
<glyph unicode="&#xe1;" horiz-adv-x="1064" d="M96 174q0 -45 15 -76q16 -35 43 -59q29 -25 63 -37q43 -14 82 -14q45 0 86 14q29 10 82 39q37 20 76 49q51 39 65 51q4 -31 15 -55q14 -33 32 -51q23 -23 56 -35q39 -14 82 -14q45 0 84 16q37 15 67 37q27 18 51 47q20 23 35 45l-29 29q-20 -27 -40 -37q-18 -8 -33 -2 q-14 8 -21 24q-8 25 -8 41v510q0 61 -18 117q-18 53 -58 96q-39 41 -106 68q-66 25 -162 24q-57 0 -104 -8q-35 -6 -101 -26q-53 -16 -92 -39t-73.5 -57.5t-51.5 -69.5q-18 -40 -18 -86q0 -31 14 -53q12 -20 39 -44q14 -12 51 -24q31 -10 51 -10q29 0 52 8q29 10 45 24.5 t30 38.5q10 18 11 52q0 25 -11 45q-6 12 -22 32q-2 4 -11.5 13.5t-13.5 15.5q-10 16 -10 35q0 20 12 35q8 10 33 22q18 9 43 13q16 2 45 2q72 0 102 -39q33 -43 33 -107v-160q-152 -70 -231 -112q-98 -53 -158 -105q-63 -53 -92 -106q-31 -56 -31 -117zM381 274q0 29 14 66 q12 31 33 57q14 18 47 52q18 18 51 43q20 16 47 30q8 6 18.5 11.5t16.5 9.5v-322l-12 -10l-29 -21q-20 -12 -37 -20q-25 -10 -41 -10q-47 0 -77.5 30.5t-30.5 83.5zM444 1104h107l356 221q20 14 27 33q6 23 6 45q0 25 -8 43t-24.5 34.5t-35 24.5t-43.5 8q-27 0 -45 -8 q-20 -8 -32 -24z" />
<glyph unicode="&#xe2;" horiz-adv-x="1064" d="M96 174q0 -45 15 -76q16 -35 43 -59q29 -25 63 -37q43 -14 82 -14q45 0 86 14q29 10 82 39q37 20 76 49q51 39 65 51q4 -31 15 -55q14 -33 32 -51q23 -23 56 -35q39 -14 82 -14q45 0 84 16q37 15 67 37q27 18 51 47q20 23 35 45l-29 29q-20 -27 -40 -37q-18 -8 -33 -2 q-14 8 -21 24q-8 25 -8 41v510q0 61 -18 117q-18 53 -58 96q-39 41 -106 68q-66 25 -162 24q-57 0 -104 -8q-35 -6 -101 -26q-53 -16 -92 -39t-73.5 -57.5t-51.5 -69.5q-18 -40 -18 -86q0 -31 14 -53q12 -20 39 -44q14 -12 51 -24q31 -10 51 -10q29 0 52 8q29 10 45 24.5 t30 38.5q10 18 11 52q0 25 -11 45q-6 12 -22 32q-2 4 -11.5 13.5t-13.5 15.5q-10 16 -10 35q0 20 12 35q8 10 33 22q18 9 43 13q16 2 45 2q72 0 102 -39q33 -43 33 -107v-160q-152 -70 -231 -112q-98 -53 -158 -105q-63 -53 -92 -106q-31 -56 -31 -117zM209 1104h88l248 207 l248 -207h88l-224 391h-225zM381 274q0 29 14 66q12 31 33 57q14 18 47 52q18 18 51 43q20 16 47 30q8 6 18.5 11.5t16.5 9.5v-322l-12 -10l-29 -21q-20 -12 -37 -20q-25 -10 -41 -10q-47 0 -77.5 30.5t-30.5 83.5z" />
<glyph unicode="&#xe3;" horiz-adv-x="1064" d="M96 174q0 -45 15 -76q16 -35 43 -59q29 -25 63 -37q43 -14 82 -14q45 0 86 14q29 10 82 39q37 20 76 49q51 39 65 51q4 -31 15 -55q14 -33 32 -51q23 -23 56 -35q39 -14 82 -14q45 0 84 16q37 15 67 37q27 18 51 47q20 23 35 45l-29 29q-20 -27 -40 -37q-18 -8 -33 -2 q-14 8 -21 24q-8 25 -8 41v510q0 61 -18 117q-18 53 -58 96q-39 41 -106 68q-66 25 -162 24q-57 0 -104 -8q-35 -6 -101 -26q-53 -16 -92 -39t-73.5 -57.5t-51.5 -69.5q-18 -40 -18 -86q0 -31 14 -53q12 -20 39 -44q14 -12 51 -24q31 -10 51 -10q29 0 52 8q29 10 45 24.5 t30 38.5q10 18 11 52q0 25 -11 45q-6 12 -22 32q-2 4 -11.5 13.5t-13.5 15.5q-10 16 -10 35q0 20 12 35q8 10 33 22q18 9 43 13q16 2 45 2q72 0 102 -39q33 -43 33 -107v-160q-152 -70 -231 -112q-98 -53 -158 -105q-63 -53 -92 -106q-31 -56 -31 -117zM207 1159h78 q20 63 41 82q27 23 63 23q33 0 60 -15q2 -2 24.5 -13t34.5 -19q33 -20 61 -33q31 -14 72 -15q47 0 88 22.5t72 61.5q29 39 51 95q14 39 27 120h-78q-16 -59 -41 -82q-27 -23 -64 -22q-33 0 -59 14q-2 2 -24.5 13.5t-34.5 19.5q-33 20 -62 33q-31 14 -72 14q-47 0 -88 -22.5 t-71 -61.5q-29 -39 -52 -94q-20 -51 -26 -121zM381 274q0 29 14 66q12 31 33 57q14 18 47 52q18 18 51 43q20 16 47 30q8 6 18.5 11.5t16.5 9.5v-322l-12 -10l-29 -21q-20 -12 -37 -20q-25 -10 -41 -10q-47 0 -77.5 30.5t-30.5 83.5z" />
<glyph unicode="&#xe4;" horiz-adv-x="1064" d="M96 174q0 -45 15 -76q16 -35 43 -59q29 -25 63 -37q43 -14 82 -14q45 0 86 14q29 10 82 39q37 20 76 49q51 39 65 51q4 -31 15 -55q14 -33 32 -51q23 -23 56 -35q39 -14 82 -14q45 0 84 16q37 15 67 37q27 18 51 47q20 23 35 45l-29 29q-20 -27 -40 -37q-18 -8 -33 -2 q-14 8 -21 24q-8 25 -8 41v510q0 61 -18 117q-18 53 -58 96q-39 41 -106 68q-66 25 -162 24q-57 0 -104 -8q-35 -6 -101 -26q-53 -16 -92 -39t-73.5 -57.5t-51.5 -69.5q-18 -40 -18 -86q0 -31 14 -53q12 -20 39 -44q14 -12 51 -24q31 -10 51 -10q29 0 52 8q29 10 45 24.5 t30 38.5q10 18 11 52q0 25 -11 45q-6 12 -22 32q-2 4 -11.5 13.5t-13.5 15.5q-10 16 -10 35q0 20 12 35q8 10 33 22q18 9 43 13q16 2 45 2q72 0 102 -39q33 -43 33 -107v-160q-152 -70 -231 -112q-98 -53 -158 -105q-63 -53 -92 -106q-31 -56 -31 -117zM207 1309 q0 -27 10 -54q8 -23 31 -45q18 -18 43 -30q20 -10 55 -10.5t55 10.5q25 12 43 30q12 12 29 45q12 25 12 54q0 31 -12 55q-14 29 -29 43q-18 18 -43 31q-20 10 -55 10t-55 -10q-25 -12 -43 -31q-23 -23 -31 -43q-10 -26 -10 -55zM381 274q0 29 14 66q12 31 33 57q14 18 47 52 q18 18 51 43q20 16 47 30q8 6 18.5 11.5t16.5 9.5v-322l-12 -10l-29 -21q-20 -12 -37 -20q-25 -10 -41 -10q-47 0 -77.5 30.5t-30.5 83.5zM600 1309q0 -33 10 -54q14 -29 31 -45q18 -18 43 -30q20 -10 55 -11q33 0 54 11q29 14 45 30.5t30 44.5q10 20 11 54q0 35 -11 55 q-12 25 -30 43q-16 16 -45 31q-20 10 -54 10q-35 0 -55 -10q-25 -12 -43 -30.5t-31 -43.5q-10 -20 -10 -55z" />
<glyph unicode="&#xe5;" horiz-adv-x="1064" d="M96 174q0 -45 15 -76q16 -35 43 -59q29 -25 63 -37q43 -14 82 -14q45 0 86 14q29 10 82 39q37 20 76 49q51 39 65 51q4 -31 15 -55q14 -33 32 -51q23 -23 56 -35q39 -14 82 -14q45 0 84 16q37 15 67 37q27 18 51 47q20 23 35 45l-29 29q-20 -27 -40 -37q-18 -8 -33 -2 q-14 8 -21 24q-8 25 -8 41v510q0 61 -18 117q-18 53 -58 96q-39 41 -106 68q-66 25 -162 24q-57 0 -104 -8q-35 -6 -101 -26q-53 -16 -92 -39t-73.5 -57.5t-51.5 -69.5q-18 -40 -18 -86q0 -31 14 -53q12 -20 39 -44q14 -12 51 -24q31 -10 51 -10q29 0 52 8q29 10 45 24.5 t30 38.5q10 18 11 52q0 25 -11 45q-6 12 -22 32q-2 4 -11.5 13.5t-13.5 15.5q-10 16 -10 35q0 20 12 35q8 10 33 22q18 9 43 13q16 2 45 2q72 0 102 -39q33 -43 33 -107v-160q-152 -70 -231 -112q-98 -53 -158 -105q-63 -53 -92 -106q-31 -56 -31 -117zM324 1323 q0 -46 18 -86q20 -45 45 -70q27 -27 72 -47q35 -16 84 -16q51 0 86 16q41 18 69.5 47t46.5 70q16 35 16.5 86t-16.5 86q-18 41 -46.5 69.5t-69.5 47.5q-35 16 -86 16q-49 0 -84 -16q-45 -20 -72 -47q-25 -25 -45 -70q-18 -40 -18 -86zM381 274q0 29 14 66q12 31 33 57 q14 18 47 52q18 18 51 43q20 16 47 30q8 6 18.5 11.5t16.5 9.5v-322l-12 -10l-29 -21q-20 -12 -37 -20q-25 -10 -41 -10q-47 0 -77.5 30.5t-30.5 83.5zM420 1323q0 23 10 47q8 23 26.5 39t39.5 27q25 10 47 10t47 -10q27 -10 39 -27q20 -25 26 -39q10 -25 10.5 -47.5 t-10.5 -46.5q-6 -14 -26 -39q-12 -16 -39 -27q-25 -10 -47.5 -10t-46.5 10q-20 10 -39 26.5t-27 39.5q-10 24 -10 47z" />
<glyph unicode="&#xe6;" horiz-adv-x="1474" d="M94 174q0 -45 14.5 -80t43.5 -63q33 -33 63 -45q39 -16 82 -17q45 0 94 17q55 18 109 45q90 45 106 55q59 37 82 55q53 -94 131 -133t193 -39q94 0 157 31q70 33 113 76q57 57 80 96q27 47 51 94l-35 23q-25 -37 -39 -56q-25 -31 -49 -53q-27 -25 -59 -39 q-31 -14 -74 -14q-72 0 -123 39q-52 40 -86 98q-33 57 -49 127q-18 82 -18 131h532q0 82 -22 172q-22 86 -68 153.5t-117 110.5q-72 43 -168 43q-18 0 -63 -8q-37 -6 -67.5 -20.5t-63.5 -36.5q-20 -14 -58 -51q-12 18 -38.5 40.5t-57.5 37.5q-53 25 -72 28q-45 10 -86 10 q-70 0 -151 -20q-84 -20 -135 -53q-59 -37 -96 -90q-37 -51 -37 -123q0 -31 14 -53q12 -20 39 -44q14 -12 51 -24q31 -10 51 -10q29 0 51 8q29 10 45.5 24.5t30.5 38.5q10 18 11 52q0 25 -11 45q-6 12 -22 32q-2 4 -11.5 13.5t-13.5 15.5q-10 16 -10 35q0 20 12 35 q8 10 33 22q18 9 43 13q16 2 45 2q33 0 59 -11q25 -10 41.5 -28.5t24.5 -44.5q6 -18 10 -62q0 -18 3 -50t3 -42v-47v-17v-2q-102 -45 -229 -112q-96 -51 -162 -105q-68 -55 -96 -106q-31 -56 -31 -119zM367 274q0 47 28.5 92.5t69.5 80t78 57.5q10 6 30.5 19.5t28.5 17.5 q-6 -84 10.5 -174.5t49.5 -167.5q-6 -4 -16.5 -8.5l-20.5 -8.5q-8 -2 -24.5 -10t-25.5 -10q-33 -12 -49 -17q-33 -8 -39 -8q-25 0 -45 13q-18 10 -39 30q-16 16 -26 42.5t-10 51.5zM877 590q0 8 1 30.5t1 34.5q0 37 6 74q8 55 14 76q8 33 27 65q16 29 41 48q23 16 59.5 16 t54.5 -16q20 -18 37 -48q10 -20 23 -65q10 -39 12 -74q4 -53 4 -76v-65h-280z" />
<glyph unicode="&#xe7;" horiz-adv-x="944" d="M82 485q0 -113 29 -204q27 -86 78 -154t112 -102q66 -37 133 -50l-98 -215l37 -24q10 4 30 8q10 2 35 2q28 0 49 -12q23 -12 23 -49q0 -8 -4 -29q-2 -12 -14 -29q-8 -10 -31 -18q-25 -8 -45 -8q-31 0 -64 8q-55 14 -78 22l-49 -84q51 -16 106.5 -26t94.5 -10 q49 0 104.5 12t98.5 37q49 27 73 61q29 39 29 82q0 41 -20 68q-23 29 -52 43q-39 18 -69 24q-37 6 -74 6h-49l55 125q80 4 135 27q63 27 107 61q41 33 78 80q27 33 57 88l-35 27q-47 -51 -94 -84q-43 -31 -102 -31q-51 0 -93 15q-43 15 -79 55q-37 41 -68 106 q-33 72 -53 172q-9 43 -13 93q-4 49 0 100q2 33 15 94q8 39 26 80q14 31 39 55q20 20 54 21q31 0 49 -13q16 -10 26 -34q10 -23 13 -47q2 -12 5 -26.5t5 -29.5l12 -55q6 -25 23 -49q16 -23 43 -35q29 -12 69 -12q31 0 49.5 8t40.5 27q18 14 27 38q10 27 10 56q0 35 -20 82 q-18 41 -60 80q-37 35 -100 59q-61 25 -143 24q-86 0 -160 -26q-66 -25 -119 -68q-57 -47 -88 -98q-37 -59 -55 -111q-20 -57 -31 -114q-10 -62 -10 -99z" />
<glyph unicode="&#xe8;" horiz-adv-x="944" d="M82 485q0 -115 29 -213q29 -96 79 -163q49 -63 129 -103q78 -37 175 -37q92 0 157 31q74 35 115 76q51 51 78 96q27 47 51 94l-35 23q-25 -37 -39 -56q-25 -31 -49 -53q-27 -25 -59 -39q-31 -14 -74 -14q-72 0 -123 39q-52 40 -86 98q-27 47 -49 127q-18 68 -19 131h533 q0 82 -23 172q-22 86 -67.5 153.5t-116.5 110.5q-70 43 -168 43q-80 0 -153 -32q-80 -35 -142 -97q-59 -59 -102 -161q-41 -99 -41 -226zM96 1403q0 -23 6 -45q6 -18 27 -33l356 -221h107l-307 377q-12 16 -33 24q-18 8 -45 8q-25 0 -43 -8q-22 -9 -37 -24q-12 -14 -23 -35 q-8 -18 -8 -43zM358 590q0 8 1 30.5t1 34.5q0 37 7 74q6 31 16 76q10 39 25 65q16 29 41 48q23 16 59.5 16t54.5 -16q20 -18 37 -48q10 -20 23 -65q10 -39 12 -74q4 -53 4 -76v-65h-281z" />
<glyph unicode="&#xe9;" horiz-adv-x="944" d="M82 485q0 -115 29 -213q29 -96 79 -163q49 -63 129 -103q78 -37 175 -37q92 0 157 31q74 35 115 76q51 51 78 96q27 47 51 94l-35 23q-25 -37 -39 -56q-25 -31 -49 -53q-27 -25 -59 -39q-31 -14 -74 -14q-72 0 -123 39q-52 40 -86 98q-27 47 -49 127q-18 68 -19 131h533 q0 82 -23 172q-22 86 -67.5 153.5t-116.5 110.5q-70 43 -168 43q-80 0 -153 -32q-80 -35 -142 -97q-59 -59 -102 -161q-41 -99 -41 -226zM358 590q0 8 1 30.5t1 34.5q0 37 7 74q6 31 16 76q10 39 25 65q16 29 41 48q23 16 59.5 16t54.5 -16q20 -18 37 -48q10 -20 23 -65 q10 -39 12 -74q4 -53 4 -76v-65h-281zM391 1104h107l356 221q20 14 27 33q6 23 6 45q0 25 -8.5 43t-24.5 34.5t-34.5 24.5t-43.5 8q-27 0 -45 -8q-20 -8 -33 -24z" />
<glyph unicode="&#xea;" horiz-adv-x="944" d="M82 485q0 -115 29 -213q29 -96 79 -163q49 -63 129 -103q78 -37 175 -37q92 0 157 31q74 35 115 76q51 51 78 96q27 47 51 94l-35 23q-25 -37 -39 -56q-25 -31 -49 -53q-27 -25 -59 -39q-31 -14 -74 -14q-72 0 -123 39q-52 40 -86 98q-27 47 -49 127q-18 68 -19 131h533 q0 82 -23 172q-22 86 -67.5 153.5t-116.5 110.5q-70 43 -168 43q-80 0 -153 -32q-80 -35 -142 -97q-59 -59 -102 -161q-41 -99 -41 -226zM168 1104h88l248 207l248 -207h88l-224 391h-225zM358 590q0 8 1 30.5t1 34.5q0 37 7 74q6 31 16 76q10 39 25 65q16 29 41 48 q23 16 59.5 16t54.5 -16q20 -18 37 -48q10 -20 23 -65q10 -39 12 -74q4 -53 4 -76v-65h-281z" />
<glyph unicode="&#xeb;" horiz-adv-x="944" d="M82 485q0 -115 29 -213q29 -96 79 -163q49 -63 129 -103q78 -37 175 -37q92 0 157 31q74 35 115 76q51 51 78 96q27 47 51 94l-35 23q-25 -37 -39 -56q-25 -31 -49 -53q-27 -25 -59 -39q-31 -14 -74 -14q-72 0 -123 39q-52 40 -86 98q-27 47 -49 127q-18 68 -19 131h533 q0 82 -23 172q-22 86 -67.5 153.5t-116.5 110.5q-70 43 -168 43q-80 0 -153 -32q-80 -35 -142 -97q-59 -59 -102 -161q-41 -99 -41 -226zM164 1309q0 -27 10 -54q8 -23 31 -45q18 -18 43 -30q20 -10 55 -10.5t55 10.5q25 12 43 30q12 12 29 45q12 25 12 54q0 31 -12 55 q-14 29 -29 43q-18 18 -43 31q-20 10 -55 10t-55 -10q-25 -12 -43 -31q-23 -23 -31 -43q-10 -26 -10 -55zM358 590q0 8 1 30.5t1 34.5q0 37 7 74q6 31 16 76q10 39 25 65q16 29 41 48q23 16 59.5 16t54.5 -16q20 -18 37 -48q10 -20 23 -65q10 -39 12 -74q4 -53 4 -76v-65 h-281zM557 1309q0 -27 10 -54q8 -23 31 -45q18 -18 43 -30q20 -10 55 -11q33 0 54 11q29 14 45 30.5t30 44.5q10 20 11 54q0 35 -11 55q-12 25 -30 43q-16 16 -45 31q-20 10 -54 10q-35 0 -55 -10q-25 -12 -43 -31q-23 -23 -31 -43q-10 -26 -10 -55z" />
<glyph unicode="&#xec;" horiz-adv-x="591" d="M-72 1403q0 -16 9 -45q6 -20 24 -33l356 -221h107l-307 377q-12 16 -33 24q-18 8 -45 8q-25 0 -43 -8q-22 -9 -37 -24q-12 -14 -22 -35q-9 -18 -9 -43zM45 0h524v39q-37 0 -63 10q-25 8 -37 29q-10 16 -14 45q-4 37 -4 67v781h-406v-37q45 -8 61 -12q23 -6 35 -25 q12 -16 15 -45q4 -41 4 -80v-582q0 -49 -2 -67q-4 -29 -15 -45q-12 -18 -34 -29q-25 -10 -64 -10v-39z" />
<glyph unicode="&#xed;" horiz-adv-x="591" d="M45 0h524v39q-37 0 -63 10q-25 8 -37 29q-10 16 -14 45q-4 37 -4 67v781h-406v-37q45 -8 61 -12q23 -6 35 -25q12 -16 15 -45q4 -41 4 -80v-582q0 -49 -2 -67q-4 -29 -15 -45q-12 -18 -34 -29q-25 -10 -64 -10v-39zM115 1104h106l357 221q18 12 24 33q8 29 8 45 q0 25 -8 43t-24.5 34.5t-35 24.5t-42.5 8q-27 0 -45 -8q-20 -8 -33 -24z" />
<glyph unicode="&#xee;" horiz-adv-x="591" d="M-41 1104h88l248 207l248 -207h88l-223 391h-226zM35 0h524v39q-37 0 -63 10q-25 8 -37 29q-10 16 -15 45q-4 37 -4 67v781h-405v-37q45 -8 61 -12q23 -6 35 -25q14 -20 16 -45q2 -20 3 -80v-582q0 -49 -3 -67q-4 -29 -14 -45q-12 -18 -35 -29q-25 -10 -63 -10v-39z" />
<glyph unicode="&#xef;" horiz-adv-x="591" d="M-39 1309q0 -33 10 -54q14 -29 31 -45q18 -18 43 -30q20 -10 55 -11q33 0 54 11q29 14 45 30.5t30 44.5q10 20 11 54q0 35 -11 55q-12 25 -30 43q-16 16 -45 31q-20 10 -54 10q-35 0 -55 -10q-25 -12 -43 -30.5t-31 -43.5q-10 -20 -10 -55zM37 0h524v39q-37 0 -63 10 q-25 8 -37 29q-10 16 -15 45q-4 37 -4 67v781h-405v-37q45 -8 61 -12q23 -6 35 -25q14 -20 17 -45q2 -20 2 -80v-582q0 -49 -2 -67q-4 -29 -15 -45q-12 -18 -35 -29q-25 -10 -63 -10v-39zM354 1309q0 -33 11 -54q14 -29 30.5 -45t44.5 -30q20 -10 54 -11q35 0 55 11 q25 12 43 30q16 16 31 45q10 20 10 54q0 35 -10 55q-12 25 -31 43t-43 31q-20 10 -55 10q-33 0 -54 -10q-29 -14 -45 -31q-18 -18 -30 -43q-11 -20 -11 -55z" />
<glyph unicode="&#xf0;" horiz-adv-x="1064" d="M76 469q0 -104 30 -193q33 -92 89 -157q61 -70 143 -109q88 -41 194 -41q104 0 193 41q86 41 145 115q57 74 88 176q31 104 31 229t-26 226q-29 111 -76 194q-45 84 -115 162q-59 68 -143 135l211 117l-45 80l-250 -137q-55 37 -133 75q-76 39 -138 60l-22 -35 q55 -37 102 -78q53 -47 84 -82l-243 -135l45 -80l258 144q51 -70 77 -121q31 -61 50 -117l-25 8q-6 2 -18.5 5t-18.5 5q-12 4 -36.5 8.5t-34.5 4.5q-104 0 -187 -41q-78 -39 -131 -109q-47 -61 -74 -160q-24 -92 -24 -190zM381 471q0 133 4 186q6 86 21 134q16 53 47 81 q29 27 80 27t79 -27q27 -23 43 -81q18 -59 21 -134q4 -106 4 -186q0 -82 -4 -188q-2 -74 -21 -133q-16 -55 -43 -80q-29 -27 -80 -27t-79 27q-33 29 -47 80q-14 47 -21 133q-4 53 -4 188z" />
<glyph unicode="&#xf1;" horiz-adv-x="1183" d="M72 0h493v39q-25 2 -49 14q-20 10 -30.5 26.5t-14.5 45.5q-4 37 -4 65v539l14.5 22.5t16.5 24.5q20 27 37 41q23 20 45 31q25 12 53 12q51 0 72 -37q23 -39 22 -98v-535q0 -29 -4 -65q-2 -20 -14 -45q-8 -16 -29 -27q-23 -12 -49 -14v-39h491v39q-29 2 -55 14 q-25 10 -33 27q-10 18 -12 45q-4 37 -4 65v474q0 74 -17 139q-16 63 -49 106q-35 45 -84 68q-53 25 -120 24q-45 0 -89 -16q-37 -14 -75 -37q-35 -20 -66 -51q-6 -6 -17.5 -16.5t-19.5 -18.5t-14 -16v125h-395v-37q29 -4 53 -12q20 -6 33 -25q12 -16 14 -45q4 -41 4 -80 v-582q0 -35 -4 -71q-2 -27 -14 -45q-10 -16 -31 -23q-37 -10 -55 -12v-39zM258 1159h78q20 63 41 82q27 23 63 23q33 0 60 -15l57 -32q27 -16 64 -33q31 -14 71 -15q47 0 88 22.5t72 61.5q25 33 49 95q18 47 29 120h-78q-16 -59 -41 -82q-27 -23 -63 -22q-33 0 -60 14 l-57 33q-27 16 -64 33q-31 14 -71 14q-47 0 -88 -22.5t-72 -61.5q-25 -33 -49 -94q-19 -47 -29 -121z" />
<glyph unicode="&#xf2;" horiz-adv-x="1064" d="M76 485q0 -102 30 -194q33 -96 89 -164q61 -74 143 -115q86 -43 194 -43q106 0 192.5 43t145.5 115q55 68 88 164q31 92 31 194.5t-31 194.5q-33 96 -88 164q-59 72 -145 114.5t-193 42.5q-109 0 -194 -43q-82 -41 -143 -114q-55 -68 -89 -164q-30 -93 -30 -195z M150 1403q0 -16 8 -45q6 -20 24 -33l357 -221h106l-307 377q-12 16 -33 24q-18 8 -45 8q-25 0 -43 -8t-34.5 -24.5t-24.5 -34.5t-8 -43zM381 485q0 129 8 203q10 92 27 139q18 49 47 76q29 25 69 25t68 -25q33 -29 49.5 -76t26.5 -139q8 -74 8 -203q0 -131 -8 -204 q-10 -90 -26.5 -137.5t-49.5 -75.5q-28 -25 -68 -25q-41 0 -69 25q-29 27 -47 75q-16 47 -27 138q-8 73 -8 204z" />
<glyph unicode="&#xf3;" horiz-adv-x="1064" d="M76 485q0 -102 30 -194q33 -96 89 -164q61 -74 143 -115q86 -43 194 -43q106 0 192.5 43t145.5 115q55 68 88 164q31 92 31 194.5t-31 194.5q-33 96 -88 164q-59 72 -145 114.5t-193 42.5q-109 0 -194 -43q-82 -41 -143 -114q-55 -68 -89 -164q-30 -93 -30 -195zM381 485 q0 129 8 203q10 92 27 139q18 49 47 76q29 25 69 25t68 -25q33 -29 49.5 -76t26.5 -139q8 -74 8 -203q0 -131 -8 -204q-10 -90 -26.5 -137.5t-49.5 -75.5q-28 -25 -68 -25q-41 0 -69 25q-29 27 -47 75q-16 47 -27 138q-8 73 -8 204zM434 1104h107l356 221q20 14 27 33 q6 23 6 45q0 25 -8.5 43t-24.5 34.5t-34.5 24.5t-43.5 8q-27 0 -45 -8q-20 -8 -33 -24z" />
<glyph unicode="&#xf4;" horiz-adv-x="1064" d="M76 485q0 -102 30 -194q33 -96 89 -164q61 -74 143 -115q86 -43 194 -43q106 0 192.5 43t145.5 115q55 68 88 164q31 92 31 194.5t-31 194.5q-33 96 -88 164q-59 72 -145 114.5t-193 42.5q-109 0 -194 -43q-82 -41 -143 -114q-55 -68 -89 -164q-30 -93 -30 -195z M203 1104h88l248 207l247 -207h88l-223 391h-225zM381 485q0 129 8 203q10 92 27 139q18 49 47 76q29 25 69 25t68 -25q33 -29 49.5 -76t26.5 -139q8 -74 8 -203q0 -131 -8 -204q-10 -90 -26.5 -137.5t-49.5 -75.5q-28 -25 -68 -25q-41 0 -69 25q-29 27 -47 75 q-16 47 -27 138q-8 73 -8 204z" />
<glyph unicode="&#xf5;" horiz-adv-x="1064" d="M76 485q0 -102 30 -194q33 -96 89 -164q61 -74 143 -115q86 -43 194 -43q106 0 192.5 43t145.5 115q55 68 88 164q31 92 31 194.5t-31 194.5q-33 96 -88 164q-59 72 -145 114.5t-193 42.5q-109 0 -194 -43q-82 -41 -143 -114q-55 -68 -89 -164q-30 -93 -30 -195z M195 1159h77q20 63 41 82q27 23 64 23q33 0 59 -15q2 -2 24.5 -13t35.5 -19q33 -20 61 -33q31 -14 72 -15q47 0 88 22.5t71 61.5q31 41 50 95q20 59 28 120h-78q-16 -59 -40 -82q-27 -23 -64 -22q-33 0 -59 14l-58 33q-27 16 -63 33q-31 14 -72 14q-47 0 -88 -22.5 t-72 -61.5q-29 -39 -51 -94q-20 -51 -26 -121zM381 485q0 129 8 203q10 92 27 139q18 49 47 76q29 25 69 25t68 -25q33 -29 49.5 -76t26.5 -139q8 -74 8 -203q0 -131 -8 -204q-10 -90 -26.5 -137.5t-49.5 -75.5q-28 -25 -68 -25q-41 0 -69 25q-29 27 -47 75q-16 47 -27 138 q-8 73 -8 204z" />
<glyph unicode="&#xf6;" horiz-adv-x="1064" d="M76 485q0 -102 30 -194q33 -96 89 -164q61 -74 143 -115q86 -43 194 -43q106 0 192.5 43t145.5 115q55 68 88 164q31 92 31 194.5t-31 194.5q-33 96 -88 164q-59 72 -145 114.5t-193 42.5q-109 0 -194 -43q-82 -41 -143 -114q-55 -68 -89 -164q-30 -93 -30 -195z M199 1309q0 -27 10 -54q8 -23 31 -45q18 -18 43 -30q20 -10 55 -10.5t55 10.5q25 12 43 30q16 16 31 45q10 20 10 54q0 35 -10 55q-12 25 -30.5 43t-43.5 31q-20 10 -55 10t-55 -10q-25 -12 -43 -31q-23 -23 -31 -43q-10 -26 -10 -55zM381 485q0 129 8 203q10 92 27 139 q18 49 47 76q29 25 69 25t68 -25q33 -29 49.5 -76t26.5 -139q8 -74 8 -203q0 -131 -8 -204q-10 -90 -26.5 -137.5t-49.5 -75.5q-28 -25 -68 -25q-41 0 -69 25q-29 27 -47 75q-16 47 -27 138q-8 73 -8 204zM592 1309q0 -27 10 -54q8 -23 31 -45q18 -18 43 -30 q20 -10 55 -10.5t55 10.5q25 12 43 30q12 12 29 45q12 25 12 54q0 31 -12 55q-14 29 -29 43q-18 18 -43 31q-20 10 -55 10t-55 -10q-25 -12 -43 -31q-23 -23 -31 -43q-10 -26 -10 -55z" />
<glyph unicode="&#xf7;" horiz-adv-x="2048" d="M410 551h1228v127h-1228v-127zM901 285q0 -23 10 -47q10 -27 27 -39q20 -16 39 -25q25 -10 47.5 -10t46.5 10q18 8 39 25q16 12 27 39q10 25 10 47q0 25 -10 49q-10 27 -27 39q-25 20 -39 26q-18 8 -47 8.5t-47 -8.5q-14 -6 -39 -26q-16 -12 -27 -39q-10 -24 -10 -49z M901 944q0 -25 10 -49q10 -27 27 -39q20 -16 39 -25q25 -10 47.5 -10t46.5 10q18 8 39 25q16 12 27 39q10 25 10 49q0 23 -10 47q-10 20 -26.5 39t-39.5 27q-25 10 -47.5 10t-46.5 -10q-23 -8 -39 -26.5t-27 -39.5q-10 -24 -10 -47z" />
<glyph unicode="&#xf8;" horiz-adv-x="1064" d="M70 27l67 -58l103 119q51 -49 133 -86q72 -33 168 -33q109 0 194 43q80 39 142 115q59 72 89.5 164t30.5 194q0 94 -28 187q-29 94 -82 162l98 112l-70 55l-90 -102q-53 47 -125 76q-68 27 -159 26q-109 0 -195 -43q-82 -41 -143 -114q-55 -68 -88 -164q-31 -92 -31 -195 q0 -90 24.5 -176t73.5 -153zM387 393q0 147 6 248q6 96 23 166q14 63 47 92t78 29q39 0 65 -15q25 -12 43 -39q16 -23 27 -59q12 -45 14 -74zM389 260l305 350q0 -133 -4 -276q-2 -100 -20 -174q-16 -66 -47 -90q-33 -27 -82 -27q-45 0 -70 16q-29 18 -45 47t-27 70 q-6 29 -10 84z" />
<glyph unicode="&#xf9;" horiz-adv-x="1183" d="M66 932q31 -2 57 -14q23 -10 31 -27q12 -25 14 -45q2 -18 2 -66v-473q0 -76 16 -141q16 -63 50 -107q35 -45 83 -67q47 -23 121 -23q51 0 88 14.5t76 39.5q31 18 64 49q31 29 53 53v-125h395v39q-14 2 -53 12q-18 6 -33 23q-10 14 -14 47q-4 41 -4 78v772h-398v-39 q39 -6 56 -14q20 -8 32 -27q10 -16 15 -45q4 -37 4 -66v-534l-14.5 -22.5t-16.5 -24.5q-25 -33 -37 -43q-29 -25 -45 -33q-25 -12 -53 -12q-49 0 -71.5 38.5t-22.5 96.5v725h-395v-39zM213 1403q0 -23 6 -45q6 -18 27 -33l356 -221h107l-308 377q-12 16 -32 24q-18 8 -45 8 q-25 0 -43.5 -8t-35 -24.5t-24.5 -34.5t-8 -43z" />
<glyph unicode="&#xfa;" horiz-adv-x="1183" d="M66 932q31 -2 57 -14q23 -10 31 -27q12 -25 14 -45q2 -18 2 -66v-473q0 -76 16 -141q16 -63 50 -107q35 -45 83 -67q47 -23 121 -23q51 0 88 14.5t76 39.5q31 18 64 49q31 29 53 53v-125h395v39q-14 2 -53 12q-18 6 -33 23q-10 14 -14 47q-4 41 -4 78v772h-398v-39 q39 -6 56 -14q20 -8 32 -27q10 -16 15 -45q4 -37 4 -66v-534l-14.5 -22.5t-16.5 -24.5q-25 -33 -37 -43q-29 -25 -45 -33q-25 -12 -53 -12q-49 0 -71.5 38.5t-22.5 96.5v725h-395v-39zM467 1104h106l357 221q20 14 26 33q6 23 7 45q0 25 -8.5 43t-25 34.5t-34.5 24.5t-43 8 t-43 -8q-23 -10 -35 -24z" />
<glyph unicode="&#xfb;" horiz-adv-x="1183" d="M66 932q31 -2 57 -14q23 -10 31 -27q12 -25 14 -45q2 -18 2 -66v-473q0 -76 16 -141q16 -63 50 -107q35 -45 83 -67q47 -23 121 -23q51 0 88 14.5t76 39.5q31 18 64 49q31 29 53 53v-125h395v39q-14 2 -53 12q-18 6 -33 23q-10 14 -14 47q-4 41 -4 78v772h-398v-39 q39 -6 56 -14q20 -8 32 -27q10 -16 15 -45q4 -37 4 -66v-534l-14.5 -22.5t-16.5 -24.5q-25 -33 -37 -43q-29 -25 -45 -33q-25 -12 -53 -12q-49 0 -71.5 38.5t-22.5 96.5v725h-395v-39zM262 1104h88l248 207l248 -207h88l-223 391h-226z" />
<glyph unicode="&#xfc;" horiz-adv-x="1183" d="M66 932q31 -2 57 -14q23 -10 31 -27q12 -25 14 -45q2 -18 2 -66v-473q0 -76 16 -141q16 -63 50 -107q35 -45 83 -67q47 -23 121 -23q51 0 88 14.5t76 39.5q31 18 64 49q31 29 53 53v-125h395v39q-14 2 -53 12q-18 6 -33 23q-10 14 -14 47q-4 41 -4 78v772h-398v-39 q39 -6 56 -14q20 -8 32 -27q10 -16 15 -45q4 -37 4 -66v-534l-14.5 -22.5t-16.5 -24.5q-25 -33 -37 -43q-29 -25 -45 -33q-25 -12 -53 -12q-49 0 -71.5 38.5t-22.5 96.5v725h-395v-39zM260 1309q0 -33 10 -54q14 -29 31 -45q18 -18 43 -30q20 -10 55 -11q33 0 54 11 q29 14 45 30.5t30 44.5q10 20 11 54q0 35 -11 55q-12 25 -30 43q-16 16 -45 31q-20 10 -54 10q-35 0 -55 -10q-25 -12 -43 -30.5t-31 -43.5q-10 -20 -10 -55zM653 1309q0 -33 11 -54q14 -29 30.5 -45t44.5 -30q20 -10 54 -11q35 0 55 11q25 12 43 30q16 16 31 45 q10 20 10 54q0 35 -10 55q-12 25 -31 43t-43 31q-20 10 -55 10q-33 0 -54 -10q-29 -14 -45 -31q-18 -18 -30 -43q-11 -20 -11 -55z" />
<glyph unicode="&#xfd;" horiz-adv-x="1064" d="M16 934q33 -10 56 -27q20 -16 43 -45q12 -16 32 -53l25 -53l346 -797l-51 -129q-22 -58 -43 -98q-23 -39 -41 -60q-23 -23 -49 -22q-20 0 -27 14q-6 15 -6 37q0 6 -1 22.5t-1 24.5q0 25 -10 49q-9 22 -31 37q-20 14 -65 14q-29 0 -54 -12q-29 -14 -43 -29 q-18 -18 -28 -45q-8 -23 -9 -53q0 -41 15 -69q16 -33 43 -54q33 -25 61 -35q37 -12 78 -12q63 0 104 27q47 31 78 69q37 47 60 101l49 119l344 888q23 55 29 72q18 39 32 59q23 29 41 44q18 12 54 16v37h-326v-37q88 -2 108 -51q20 -47 -16 -146l-154 -403l-194 450 q-14 31 -21 60q-6 28 0 49q4 16 29 31q18 10 62 10v37h-519v-37zM442 1102h107l356 221q20 14 27 33q6 20 6 44.5t-8 43t-24.5 35t-35 24.5t-43.5 8q-27 0 -45 -8q-20 -8 -32 -24z" />
<glyph unicode="&#xfe;" horiz-adv-x="1185" d="M41 -418v-39h553v39q-46 0 -74 6q-31 6 -45 24.5t-20 47.5q-6 31 -6 74v364q53 -63 116.5 -96t149.5 -33q92 0 163.5 43t120.5 115q45 66 72 164q25 92 25 194q0 111 -29 209q-27 90 -80 164q-49 68 -117 105q-72 39 -147 38q-86 0 -153.5 -38.5t-120.5 -118.5v596h-408 v-37q45 -8 61 -12q23 -6 35 -25q14 -20 17 -45q4 -41 4 -80v-1507q0 -31 -4 -68q-4 -31 -14.5 -47t-35 -26.5t-63.5 -10.5zM449 203v524q16 33 32 57q18 29 41 47q14 12 47 29q25 12 56 12q55 0 85.5 -36.5t49.5 -92.5q14 -47 22 -125q6 -68 6 -133q0 -109 -10 -196 q-8 -68 -30 -125q-18 -47 -45 -67.5t-58 -20.5q-35 0 -63 12q-37 16 -51.5 28.5t-43.5 41.5q-1 2 -38 45z" />
<glyph unicode="&#xff;" horiz-adv-x="1064" d="M16 934q33 -10 56 -27q20 -16 43 -45q12 -16 32 -53l25 -53l346 -797l-51 -129q-22 -58 -43 -98q-23 -39 -41 -60q-23 -23 -49 -22q-20 0 -27 14q-6 15 -6 37q0 6 -1 22.5t-1 24.5q0 25 -10 49q-9 22 -31 37q-20 14 -65 14q-29 0 -54 -12q-29 -14 -43 -29 q-18 -18 -28 -45q-8 -23 -9 -53q0 -41 15 -69q16 -33 43 -54q33 -25 61 -35q37 -12 78 -12q63 0 104 27q47 31 78 69q37 47 60 101l49 119l344 888q23 55 29 72q18 39 32 59q23 29 41 44q18 12 54 16v37h-326v-37q88 -2 108 -51q20 -47 -16 -146l-154 -403l-194 450 q-14 31 -21 60q-6 28 0 49q4 16 29 31q18 10 62 10v37h-519v-37zM248 1309q0 -27 10 -54q8 -23 31 -45q18 -18 43 -30q20 -10 55 -10.5t55 10.5q25 12 43 30q12 12 29 45q12 25 12 54q0 31 -12 55q-14 29 -29 43q-18 18 -43 31q-20 10 -55 10t-55 -10q-25 -12 -43 -31 q-23 -23 -31 -43q-10 -26 -10 -55zM641 1309q0 -27 10 -54q8 -23 31 -45q18 -18 43 -30q20 -10 55 -11q33 0 54 11q29 14 45 30.5t30 44.5q10 20 11 54q0 35 -11 55q-12 25 -30 43q-16 16 -45 31q-20 10 -54 10q-35 0 -55 -10q-25 -12 -43 -31q-23 -23 -31 -43 q-10 -26 -10 -55z" />
<glyph unicode="&#x152;" horiz-adv-x="2088" d="M76 705q0 -102 24 -195q27 -98 70 -174q51 -88 109 -146q68 -68 145 -112q84 -47 172 -72q100 -27 197 -26q45 0 131 4q57 2 114 16h916l61 446h-37q-37 -111 -82 -184.5t-104 -111.5q-61 -41 -143 -56q-88 -16 -197 -16q-43 0 -80 8q-25 6 -39 23q-10 12 -10 43v69v455 h25q78 0 118 -27q47 -31 70 -71q25 -46 37 -105q16 -74 22 -123h39v737h-39q-10 -82 -20 -131q-10 -55 -39 -104q-27 -47 -70 -70q-49 -27 -118 -26h-25v575h115q102 0 172 -14q74 -14 127 -53q49 -35 86 -105q35 -68 53 -166h39v416h-877q-55 14 -112 16q-86 4 -133 5 q-154 0 -287 -56q-132 -55 -227 -153q-92 -96 -150 -232q-53 -126 -53 -284zM451 704.5q0 69.5 6 143.5q6 68 22 145q14 63 41 135q25 61 66 111q43 49 92 76q53 29 121 28q33 0 69.5 -10t63.5 -30q25 -20 45 -50q18 -29 18 -65v-967q0 -37 -18 -65q-16 -27 -47 -50 q-25 -18 -66 -32q-31 -10 -73 -11q-68 0 -119 27q-49 27 -88 78q-43 57 -64 111q-27 72 -41 135q-16 76 -22 147q-6 74 -6 143.5z" />
<glyph unicode="&#x153;" horiz-adv-x="1574" d="M76 485q0 -102 30 -194q33 -96 89 -164q61 -74 143 -115q86 -43 194 -43q47 0 84 6q35 6 72 23q31 14 68 41q33 25 71 59q51 -59 117 -94t154 -35q94 0 157 31q70 33 113 76q57 57 80 96q27 47 51 94l-35 23q-25 -37 -39 -56q-25 -31 -49 -53q-27 -25 -59 -39 q-31 -14 -74 -14q-72 0 -123 39q-52 40 -86 98q-33 57 -49 127q-18 82 -18 131h532q0 82 -22 172q-22 86 -68 153.5t-117 110.5q-72 43 -168 43q-39 0 -73 -6q-37 -6 -68 -20q-39 -18 -70 -43q-37 -31 -71 -74q-27 29 -72 66q-33 27 -70 45q-25 12 -77 24q-35 8 -91 8 q-109 0 -194 -43q-82 -41 -143 -114q-55 -68 -89 -164q-30 -93 -30 -195zM381 485q0 129 8 203q10 92 27 139q18 49 47 76q29 25 69 25q37 0 68 -24.5t51.5 -76t30.5 -139.5q10 -92 10 -203q0 -113 -10 -204q-10 -86 -30.5 -137.5t-51.5 -76t-68 -24.5q-41 0 -69 25 q-29 27 -47 75q-16 47 -27 138q-8 73 -8 204zM963 590q0 8 1 30.5t1 34.5q0 37 6 74q8 55 14 76q8 33 27 65q16 29 41 48q23 16 59.5 16t54.5 -16q20 -18 37 -48q10 -20 23 -65q10 -39 12 -74q4 -53 4 -76v-65h-280z" />
<glyph unicode="&#x160;" horiz-adv-x="1183" d="M111 -31h36q25 41 46 60q27 23 61 22q37 0 68 -12l30.5 -13.5t36.5 -15.5q43 -18 88 -28q52 -12 129 -13q106 0 195 31q90 31 155 88q74 63 107 135q37 80 37 176q0 92 -33 158q-34 68 -86 123q-39 41 -123 94q-63 41 -139 80l-141 72q-74 37 -123 71.5t-86 81.5 q-33 41 -33 101q0 45 18 77q16 29 52 58q31 25 71 37q47 14 82 14q70 0 135.5 -26.5t122.5 -77.5q61 -55 98 -123q37 -70 54 -168h43l-11 469h-34q-6 -31 -21 -66q-12 -29 -41 -28q-31 0 -61 14l-76 33q-37 16 -94 32q-49 14 -121 15q-104 0 -178 -29q-80 -31 -139.5 -84 t-92 -125t-32.5 -162q0 -88 32.5 -159.5t83.5 -122.5q53 -53 121 -96q37 -23 137 -76l138 -72q78 -39 120 -72q55 -41 84 -86q33 -49 33 -108q0 -43 -22 -84q-20 -37 -56 -66q-31 -27 -80 -43q-45 -16 -90 -16q-72 0 -127 20q-61 23 -108 56q-43 29 -88 82q-40 46 -68 98 q-33 61 -47 102q-14 43 -22 103h-41v-531zM233 1931l224 -391h225l223 391h-88l-248 -207l-247 207h-89z" />
<glyph unicode="&#x161;" horiz-adv-x="827" d="M55 1493l224 -391h225l223 391h-88l-248 -207l-248 207h-88zM86 702q0 -74 33 -131q33 -55 82 -102q55 -51 106 -84l109 -74q39 -27 82 -69q33 -33 32 -74q0 -59 -32 -90q-31 -29 -80 -29q-41 0 -90 23q-35 16 -84 61q-37 35 -68 88q-29 51 -41 103h-37l17 -349h35 q12 25 20 35q12 14 35 15q18 0 41 -9q12 -4 25.5 -9l29.5 -11l66 -19q31 -8 69 -8q68 0 127 25q53 23 101 69q39 39 65 107q25 61 25 133q0 68 -33 121q-31 51 -86 102q-47 43 -109 86q-23 14 -52.5 35l-57.5 41q-57 43 -84 70q-35 35 -35 71q0 43 27 68q29 25 75 25 q55 0 97 -27q49 -31 77 -66q27 -31 56 -81q12 -23 39 -80h34l-16 331h-35l-12 -18t-12 -16l-19 -13q-6 -4 -24 -4q-16 0 -33 8q-12 6 -41 19q-25 10 -51.5 18t-71.5 8q-66 0 -119 -20q-59 -23 -96 -59q-43 -43 -63 -95q-23 -57 -23 -125z" />
<glyph unicode="&#x178;" horiz-adv-x="1536" d="M18 1370q23 0 60 -8q25 -6 53.5 -30.5t52.5 -63.5q35 -53 66 -111l354 -643v-293q0 -53 -12 -90q-10 -31 -41 -55q-25 -18 -72 -29q-39 -8 -108 -8v-39h790v39q-70 0 -108 8q-45 10 -70 29q-29 23 -39 55q-12 37 -12 90v348l303 514l86 140q35 51 68 88q31 33 59 45 q35 14 65 14v39h-430v-39q53 0 95 -10q37 -10 53 -35q12 -20 2 -68q-10 -45 -49 -108l-291 -490l-307 568q-23 43 -29 67q-6 29 4 45q12 18 45 25q31 6 88 6v39h-676v-39zM514 1698q0 -29 10 -56q8 -20 31 -42.5t43 -30.5q27 -10 55 -10q27 0 54 10q23 8 45 30q18 18 30 43 q10 20 10.5 55.5t-10.5 55.5q-12 25 -30 43q-16 16 -45 31q-20 10 -54 10q-35 0 -55 -10q-25 -12 -43 -31q-23 -23 -31 -43q-10 -26 -10 -55zM907 1698q0 -35 11 -56q12 -25 30 -43q23 -23 45 -30q27 -10 54 -10q29 0 55 10q20 8 43 30q18 18 31 43q10 20 10 55.5t-10 55.5 q-12 25 -31 43.5t-43 30.5q-20 10 -55 10q-33 0 -54 -10q-29 -14 -45 -31q-18 -18 -30 -43q-11 -20 -11 -55z" />
<glyph unicode="&#x192;" horiz-adv-x="1064" d="M0 -344q0 -28 12 -49q12 -20 35 -37q14 -10 51 -23q25 -8 58 -8q94 0 161 37q66 37 117 109q53 76 88 178q39 115 72 250q33 137 68 317l79 385h158l23 127h-160l2 12q3 12 6 31l6 43q2 14 2 41q0 8 -1 24.5t-1 22.5q0 12 -4 41q-2 14 -2 41q0 6 -1 21.5t-1 23.5 q0 28 6 55q6 25 19 48q14 27 30 36q18 12 41 13q16 0 23 -6q8 -8 8 -15q0 -12 -4 -18q-2 -6 -6 -11.5t-6 -11.5q-4 -8 -13 -28q-4 -10 -4 -35q0 -12 6 -29q2 -6 21 -24q12 -12 28.5 -18.5t34.5 -6.5q27 0 45.5 8t34.5 25q15 15 25 37q8 18 8 45q0 33 -12 57q-10 20 -37 43 q-18 16 -53 26.5t-66 10.5q-82 0 -131 -21q-51 -20 -84 -57q-37 -39 -53 -82q-29 -72 -35 -90q-20 -61 -33 -92q-18 -47 -45 -82t-74 -57q-43 -20 -118 -21l-25 -127h145q0 -6 -8 -39l-22 -100q-8 -35 -31 -144l-33 -163q-18 -86 -31 -166q-4 -20 -11 -69.5t-11 -74.5 q-8 -57 -8 -104v-51q0 -8 1 -18.5t1 -14.5q0 -6 2 -14.5t2 -12.5t1 -12t1 -12t1 -14.5t1 -16.5v-47q0 -16 -4 -49q-2 -18 -14 -43q-10 -18 -27 -33q-16 -12 -39 -12q-6 0 -18 8q-8 6 -9 12q0 10 7 27q8 20 8 33q0 37 -29 59q-27 20 -70 20q-25 0 -41 -8t-32 -24 q-10 -10 -23 -35q-8 -16 -8 -41z" />
<glyph unicode="&#x2c6;" horiz-adv-x="671" d="M0 1102h88l248 207l248 -207h88l-223 391h-226z" />
<glyph unicode="&#x2dc;" horiz-adv-x="671" d="M0 1159h78q20 63 41 82q27 23 63 23q33 0 60 -15l57 -32q27 -16 63 -33q31 -14 72 -15q47 0 88 22.5t72 61.5q25 33 49 95q18 47 29 120h-78q-16 -59 -41 -82q-27 -23 -64 -22q-33 0 -59 14l-57 33q-27 16 -64 33q-31 14 -71 14q-47 0 -88 -22.5t-72 -61.5 q-29 -39 -51 -94q-21 -51 -27 -121z" />
<glyph unicode="&#x300;" horiz-adv-x="0" d="M-739 1474.5q4 -32.5 22 -57.5l221 -323h90l-98 387q-12 49 -43 79.5t-88 30.5q-39 -4 -59 -18q-25 -18 -37 -43q-12 -23 -8 -55.5z" />
<glyph unicode="&#x301;" horiz-adv-x="0" d="M-754 1094h88l246 331q22 28 25 56q4 31 -8 53q-12 25 -35 39q-20 12 -56 16q-58 3 -92 -18q-31 -20 -47 -72z" />
<glyph unicode="&#x304;" horiz-adv-x="0" d="M-909 1169h671v185h-671v-185z" />
<glyph unicode="&#x306;" horiz-adv-x="0" d="M-903 1526h86q2 -53 22 -96q16 -37 52 -68q29 -27 71 -39q47 -14 90 -14q102 0 168 53t78 164h94q-6 -78 -28 -144q-27 -80 -66 -133q-47 -63 -104 -98q-61 -37 -142 -37q-74 0 -131 37q-55 35 -98 98q-39 57 -63 131q-23 66 -29 146z" />
<glyph unicode="&#x308;" horiz-adv-x="0" d="M-965 1262q0 -29 13 -58q12 -27 32 -47q18 -18 52 -33q29 -12 63 -12q39 0 65.5 12.5t49.5 34.5q22 22 31 49q10 31 10 56q0 41 -10 63q-14 33 -31 49.5t-49 30.5q-27 12 -64 12q-39 0 -69.5 -12t-51.5 -33q-22 -22 -30 -49q-11 -30 -11 -63zM-498 1262q0 -29 13 -58 q12 -27 32 -47q18 -18 52 -33q29 -12 63 -12q39 0 65.5 12.5t49.5 34.5q22 22 30 49q10 31 11 56q0 33 -11 63q-9 28 -30 49q-16 16 -49 31q-27 12 -64 12q-39 0 -69.5 -12t-51.5 -33q-22 -22 -30 -49q-11 -30 -11 -63z" />
<glyph unicode="&#x313;" horiz-adv-x="0" d="M-756 1450q0 -18 11 -43q8 -20 26 -35q12 -10 41 -22q18 -8 47 -9q27 0 41 9q20 12 25 16l16 16q8 8 23 9q10 0 16 -7q10 -8 12 -18q2 -2 4 -10t2 -10q2 -6 3 -17q0 -43 -19 -74q-16 -27 -47 -51q-28 -22 -61 -30q-37 -10 -66 -11l6 -71q59 2 117 26q55 23 90 58 q41 41 59 84q20 47 21 106q0 49 -12 92q-12 47 -37 76q-27 33 -66 51q-41 18 -96 19q-39 0 -68 -15q-33 -16 -49 -35q-23 -27 -31 -49q-8 -24 -8 -55z" />
<glyph unicode="&#x314;" horiz-adv-x="0" d="M-756 1366q0 -59 20.5 -106.5t57.5 -83.5q33 -33 92 -58q57 -25 119 -26l6 71q-29 0 -65 11q-34 9 -62 30q-31 25 -47 51q-18 31 -18 74q0 2 1 8t1 11q0 2 6 20q2 8 10 16q6 6 17 7q14 0 22 -8.5t18 -16.5q4 -4 25 -16q14 -8 41 -9q29 0 47 9q25 10 39 22q18 14 27 35 q10 25 10 43q0 25 -10 55q-8 27 -29 49q-14 18 -49 35q-29 14 -68 15q-53 0 -94 -19q-39 -18 -65.5 -51t-39 -76t-12.5 -92z" />
<glyph unicode="&#x342;" horiz-adv-x="0" d="M-907 1112h86q2 53 22 96q16 37 51 68q33 29 72 41q41 12 90 12q106 0 168 -53q66 -55 78 -164h94q-6 78 -28 143q-27 80 -66 134q-49 66 -102 98q-61 37 -144 37q-74 0 -131 -37q-51 -33 -96 -98q-39 -57 -63.5 -131t-30.5 -146z" />
<glyph unicode="&#x343;" horiz-adv-x="0" d="M-756 1450q0 -18 11 -43q8 -20 26 -35q12 -10 41 -22q18 -8 47 -9q27 0 41 9q20 12 25 16l16 16q8 8 23 9q10 0 16 -7q10 -8 12 -18q2 -2 4 -10t2 -10q2 -6 3 -17q0 -43 -19 -74q-16 -27 -47 -51q-28 -22 -61 -30q-37 -10 -66 -11l6 -71q59 2 117 26q55 23 90 58 q41 41 59 84q20 47 21 106q0 49 -12 92q-12 47 -37 76q-27 33 -66 51q-41 18 -96 19q-39 0 -68 -15q-33 -16 -49 -35q-23 -27 -31 -49q-8 -24 -8 -55z" />
<glyph unicode="&#x344;" horiz-adv-x="0" d="M-1042 1276q0 -31 12 -57.5t32.5 -47t49.5 -32.5q27 -12 63.5 -12.5t65.5 12.5q27 12 49 34.5t31 47.5q10 31 10 57q0 33 -10 63q-8 23 -31 50q-16 18 -47 32q-23 10 -66 11q-39 0 -69 -13q-27 -10 -49 -32t-31 -50q-10 -30 -10 -63zM-678 1108h86l178 365q14 29 15 59 q0 27 -12.5 45t-34.5 31q-20 12 -52 12q-53 0 -96 -33q-39 -31 -45 -82zM-418 1276q0 -31 12.5 -57.5t32.5 -47.5q18 -18 51 -32q27 -12 64 -12.5t65 12.5q23 10 48 35q23 23 30 47q10 31 11 57q0 33 -11 63q-9 28 -30 50q-20 20 -48 32q-23 10 -65 11q-39 0 -70 -13 q-27 -10 -49 -32t-31 -50q-10 -30 -10 -63z" />
<glyph unicode="&#x345;" horiz-adv-x="0" d="M-715 -102v-230q0 -51 37 -75.5t113 -24.5q57 0 84 18q31 20 39 41q10 25 10 41l-2 19h-49v-11q0 -16 -2 -24q-3 -12 -13 -25q-8 -10 -24 -10q-27 0 -35 14q-10 16 -10 37v230h-148z" />
<glyph unicode="&#x374;" horiz-adv-x="436" d="M90 1079h45l223 316q10 16 11 32q0 23 -4 33q-10 25 -17 31q-12 12 -28.5 18.5t-34.5 1.5q-12 -2 -29 -12q-15 -9 -25 -24q-12 -20 -16 -31z" />
<glyph unicode="&#x375;" horiz-adv-x="436" d="M82 -371q0 -25 4 -35q6 -16 18 -28q14 -12 29 -19q16 -6 33 -2q15 3 30.5 12.5t24.5 24.5q12 20 17 31l124 364h-47l-221 -315q-12 -15 -12 -33z" />
<glyph unicode="&#x37a;" horiz-adv-x="477" d="M104 -102v-230q0 -51 37 -75.5t113 -24.5q41 0 63 8q20 8 39 23q12 10 21 28q2 6 8 29v20v11h-49v-11q0 -16 -2 -24q-3 -12 -12 -25q-8 -10 -25 -10q-27 0 -35 14q-10 16 -10 37v230h-148z" />
<glyph unicode="&#x37e;" horiz-adv-x="708" d="M170 119q0 -31 12 -56q14 -29 29 -43q18 -18 37 -26q25 -10 37 -10q10 0 26 4q4 2 12.5 5t10.5 3l20 8q12 4 19 4q12 0 18 -14q8 -20 8 -27q0 -25 -12 -55q-8 -20 -37 -57q-23 -29 -53 -54q-33 -27 -72 -41l23 -53q115 47 176 135t61 201q0 39 -12 78q-12 41 -32.5 69.5 t-53.5 49.5q-35 20 -72 20q-72 0 -108 -39q-37 -41 -37 -102zM170 879q0 -31 12 -58q12 -29 31 -47q20 -20 47 -32.5t57.5 -12.5t57 12.5t47 33t33 47t12.5 57t-12 57.5q-14 31 -33 47q-25 20 -47.5 30.5t-57.5 10.5q-31 0 -57 -12q-29 -12 -47 -31q-16 -16 -31 -45 q-12 -24 -12 -57z" />
<glyph unicode="&#x384;" horiz-adv-x="436" d="M178 1108h86l176 365q14 29 15 59q0 29 -11 45q-12 18 -34 31q-20 12 -52 12q-53 0 -96 -33q-39 -31 -45 -82z" />
<glyph unicode="&#x385;" horiz-adv-x="847" d="M-41 1276q0 -31 12 -57q12 -29 30.5 -47.5t51.5 -32.5q29 -12 64 -13q39 0 65.5 12.5t49 35t30.5 47.5q10 31 10 57q0 33 -10 63q-8 23 -31 50q-16 18 -47 32q-23 10 -65 11q-39 0 -70 -13q-27 -10 -49 -32t-31 -50q-10 -30 -10 -63zM324 1108h86l178 365q14 29 14 59 q0 29 -10 45q-12 18 -35 31q-20 12 -53 12q-31 0 -53 -8q-25 -9 -43 -25q-20 -16 -30.5 -34.5t-15.5 -47.5zM584 1276q0 -31 12 -57.5t33 -47.5q18 -18 51 -32q29 -12 63 -13q39 0 66 13q29 12 47 35q25 29 31 47q10 31 10 57q0 33 -10 63q-8 23 -31 50q-16 18 -47 32 q-23 10 -66 11q-39 0 -69 -13q-27 -10 -49 -32t-31 -50q-10 -30 -10 -63z" />
<glyph unicode="&#x386;" horiz-adv-x="1525" d="M2 0h461v45q-49 0 -84 6q-29 6 -51 21q-14 10 -19 32q-2 14 8 43l9 21q16 41 24 59l37 86l43 105h461q2 -4 7 -16.5t7 -18.5q16 -35 21 -47l20 -55q6 -14 12.5 -27.5t10.5 -24.5q6 -12 9 -22t7 -21q10 -20 12 -26q12 -25 9 -54q-4 -25 -25 -36q-22 -12 -55 -19 q-33 -6 -84 -6v-45h663v45q-16 0 -53 4q-29 4 -51 14q-25 12 -45 33q-20 18 -35 54l-530 1251h-58l-530 -1241q-16 -35 -31 -54q-12 -16 -37 -34q-18 -12 -55 -21q-31 -6 -78 -6v-45zM473 524l191 459l186 -459h-377zM219 1108h86l176 365q14 29 15 59q0 29 -11 45 q-12 18 -34 31q-20 12 -52 12q-53 0 -96 -33q-39 -31 -45 -82z" />
<glyph unicode="&#x387;" horiz-adv-x="708" d="M170 879q0 -31 12 -58q12 -29 31 -47q20 -20 47 -32.5t57.5 -12.5t57 12.5t47 33t33 47t12.5 57t-12 57.5q-14 31 -33 47q-25 20 -47.5 30.5t-57.5 10.5q-31 0 -57 -12q-29 -12 -47 -31q-16 -16 -31 -45q-12 -24 -12 -57z" />
<glyph unicode="&#x388;" horiz-adv-x="1853" d="M461 1331q53 0 94 -10t59 -29q20 -20 27 -53q8 -41 8 -72v-997q0 -68 -45 -96.5t-137 -28.5v-45h1145l96 377h-51q-25 -66 -53 -111q-37 -57 -74 -94t-90 -63q-45 -23 -103 -23h-319q-31 0 -53 16q-20 14 -21 50v518h277q57 0 94 -25q35 -23 55 -61q23 -39 27 -70 q6 -37 6 -55h47v528h-47q0 -18 -2 -33q0 -4 -10 -43q-2 -12 -21 -47q-12 -27 -33 -43q-27 -23 -49 -33q-28 -12 -67 -12h-277v445q0 72 74 71h311q45 0 82 -18q35 -18 64 -49q25 -27 45 -72q12 -29 24 -86h51l-18 309h-1116v-45zM149 1108h86l176 365q14 29 15 59 q0 29 -11 45q-12 18 -34 31q-20 12 -52 12q-53 0 -96 -33q-39 -31 -45 -82z" />
<glyph unicode="&#x389;" horiz-adv-x="2091" d="M451 0h673v45q-34 0 -67 6q-29 4 -60 23q-27 14 -45 39q-16 23 -16 57v467h532v-467q0 -33 -18 -57q-18 -27 -43 -39q-31 -16 -61 -23q-34 -6 -68 -6v-45h676v45q-34 0 -68 6q-31 6 -61 23q-27 14 -45 39q-16 23 -17 57v1020q0 43 13 70q12 28 37 43q27 16 59 22 q37 6 82 6v45h-676v-45q45 0 82 -6q33 -6 59 -22q25 -15 37 -43q12 -27 12 -70v-430h-532v430q0 43 12 70q12 29 35 43q27 16 59.5 22t81.5 6v45h-673v-45q47 0 82 -6q33 -6 59 -22q23 -14 35 -43q12 -27 12 -70v-1020q0 -35 -16 -57q-18 -25 -45 -39q-31 -18 -60 -23 q-34 -6 -67 -6v-45zM149 1108h86l176 365q14 29 15 59q0 29 -11 45q-12 18 -34 31q-20 12 -52 12q-53 0 -96 -33q-39 -31 -45 -82z" />
<glyph unicode="&#x38a;" horiz-adv-x="1265" d="M451 0h673v45q-34 0 -67 6q-29 4 -60 23q-27 14 -45 39q-16 23 -16 57v1020q0 43 12 70q12 29 35 43q27 16 59.5 22t81.5 6v45h-673v-45q47 0 82 -6q33 -6 59 -22q23 -14 35 -43q12 -27 12 -70v-1020q0 -35 -16 -57q-18 -25 -45 -39q-31 -18 -60 -23q-34 -6 -67 -6v-45z M149 1108h86l176 365q14 29 15 59q0 29 -11 45q-12 18 -34 31q-20 12 -52 12q-53 0 -96 -33q-39 -31 -45 -82z" />
<glyph unicode="&#x38c;" horiz-adv-x="1912" d="M321 688q0 -147 50 -276q49 -127 145 -228q96 -98 229 -153q135 -55 303 -56q163 0 295 56q135 57 230 153q98 102 149 228q53 131 53 276.5t-53 276.5q-52 129 -147 227q-96 98 -230 154q-135 55 -296.5 55t-297.5 -55q-133 -55 -229 -154q-98 -102 -149 -227 q-52 -127 -52 -277zM665 688q0 84 9 152q9 77 30 147q25 84 50 131q31 59 71 105q45 49 94 71q51 25 119 25t123 -24.5t100 -69.5q43 -43 74 -105q35 -68 53 -131q25 -82 33 -147q10 -86 10 -154q0 -59 -10 -141q-9 -74 -31 -141q-23 -68 -53 -132q-35 -68 -71 -108 q-43 -47 -94.5 -73.5t-116.5 -26.5q-102 0 -175 51q-80 57 -122 137q-49 94 -70 197q-23 118 -23 237zM147 1108h86l176 365q14 29 15 59q0 29 -11 45q-12 18 -34 31q-20 12 -52 12q-53 0 -96 -33q-39 -31 -45 -82z" />
<glyph unicode="&#x38e;" horiz-adv-x="2086" d="M422 1331q74 0 123 -30.5t90 -90.5l440 -632v-418q0 -37 -16 -56q-20 -25 -45 -34q-29 -12 -60 -19q-34 -6 -67 -6v-45h674v45q-34 0 -68 6t-61 19q-25 10 -45 34q-16 18 -17 56v422l406 645q18 25 39 41q31 23 53 32q12 6 57 21q25 8 51 8v47h-489v-45q39 0 76 -10 q29 -8 51 -31q20 -20 20 -45q0 -29 -20 -61l-299 -479l-330 491q-23 33 -22 57q0 20 16 41q12 16 49 27q35 10 76 10v45h-682v-45zM149 1108h86l176 365q14 29 15 59q0 29 -11 45q-12 18 -34 31q-20 12 -52 12q-53 0 -96 -33q-39 -31 -45 -82z" />
<glyph unicode="&#x38f;" horiz-adv-x="1916" d="M353 829q0 -76 22 -149q20 -70 58 -127q31 -49 88 -102q47 -45 106 -76q57 -31 121 -49q66 -20 121 -23v-92h-297q-8 0 -41 4q-14 2 -43 18q-18 10 -35 37q-14 23 -14 62h-58v-332h607v352q-143 49 -220 172q-78 125 -77 303q0 98 24 191q25 90 70 160q46 71 117 110 q72 41 163 41q86 0 158 -41q66 -37 117 -110q51 -72 74 -160q25 -92 24 -191q0 -92 -20 -165q-23 -78 -58 -137.5t-94 -104.5q-61 -49 -125 -68v-352h606v332h-57q0 -39 -14 -62q-18 -29 -33 -37q-29 -16 -45 -18q-33 -4 -41 -4h-297v92q66 4 123 21q49 14 119 51 q59 31 106 76q57 53 88 102q37 57 58 127q23 74 22 149q0 131 -43 236q-43 106 -131 178q-92 76 -221 115q-131 39 -316 39q-182 0 -311 -39q-133 -41 -223 -115q-90 -76 -133 -178q-45 -109 -45 -236zM149 1108h86l176 365q14 29 15 59q0 29 -11 45q-12 18 -34 31 q-20 12 -52 12q-53 0 -96 -33q-39 -31 -45 -82z" />
<glyph unicode="&#x390;" horiz-adv-x="694" d="M137 266q0 -145 64 -217q66 -74 184 -74q53 0 98 17q43 16 74 57q31 43 49 115q16 63 17 182h-70q0 -84 -8 -131q-8 -43 -23 -80q-10 -29 -30 -41q-18 -12 -33 -12q-6 0 -27 8q-12 6 -26 29q-10 18 -21 59q-8 33 -8 98v728h-240v-738zM-209 1276q0 -31 12 -57 q12 -29 30.5 -47.5t51.5 -32.5q29 -12 64 -13q39 0 65.5 12.5t49 35t30.5 47.5q10 31 10 57q0 33 -10 63q-8 23 -31 50q-16 18 -47 32q-23 10 -65 11q-39 0 -70 -13q-27 -10 -49 -32t-31 -50q-10 -30 -10 -63zM156 1108h86l178 365q14 29 14 59q0 29 -10 45q-12 18 -35 31 q-20 12 -53 12q-31 0 -53 -8q-25 -9 -43 -25q-20 -16 -30.5 -34.5t-15.5 -47.5zM416 1276q0 -31 12 -57.5t33 -47.5q18 -18 51 -32q29 -12 63 -13q39 0 66 13q29 12 47 35q25 29 31 47q10 31 10 57q0 33 -10 63q-8 23 -31 50q-16 18 -47 32q-23 10 -66 11q-39 0 -69 -13 q-27 -10 -49 -32t-31 -50q-10 -30 -10 -63z" />
<glyph unicode="&#x391;" horiz-adv-x="1525" d="M2 0h461v45q-49 0 -84 6q-29 6 -51 21q-14 10 -19 32q-2 14 8 43l9 21q16 41 24 59l37 86l43 105h461q2 -4 7 -16.5t7 -18.5q16 -35 21 -47l20 -55q6 -14 12.5 -27.5t10.5 -24.5q6 -12 9 -22t7 -21q10 -20 12 -26q12 -25 9 -54q-4 -25 -25 -36q-22 -12 -55 -19 q-33 -6 -84 -6v-45h663v45q-16 0 -53 4q-29 4 -51 14q-25 12 -45 33q-20 18 -35 54l-530 1251h-58l-530 -1241q-16 -35 -31 -54q-12 -16 -37 -34q-18 -12 -55 -21q-31 -6 -78 -6v-45zM473 524l191 459l186 -459h-377z" />
<glyph unicode="&#x392;" horiz-adv-x="1439" d="M68 1331q49 0 85.5 -10t53 -28.5t26.5 -53.5q8 -27 9 -72v-997q0 -68 -43 -96q-45 -29 -123 -29v-45h745q113 0 207 25q98 25 166 69.5t109 112.5q41 70 40.5 156t-33 149t-81.5 106.5t-107 67.5q-59 25 -104 31q49 6 96 33q45 25 86 69q39 43 64 96q25 55 24 119 q0 72 -31 137q-29 59 -96 109q-68 47 -160 72q-96 25 -223 24h-710v-45zM537 127v530h168q63 0 116 -20q55 -23 94 -57q43 -41 64 -88q23 -55 22 -117q0 -72 -22 -129q-20 -53 -61 -94t-88.5 -61.5t-104.5 -20.5h-117q-29 0 -49 14q-22 16 -22 43zM537 760v450q0 43 24.5 68 t65.5 25h69q57 0 104.5 -20.5t84.5 -57.5q31 -31 55 -86q20 -47 21 -107q0 -63 -20.5 -110.5t-59.5 -85.5q-31 -31 -90 -56q-49 -20 -111 -20h-143z" />
<glyph unicode="&#x393;" horiz-adv-x="1189" d="M80 0h674v45q-34 0 -68 6q-31 6 -61 23q-27 14 -45 39q-16 23 -17 57v1042q0 25 6 41q6 12 21 25q8 6 28.5 10t34.5 4h178q59 0 102.5 -24.5t70.5 -63.5q25 -37 45 -92q23 -63 34 -111h43l-24 375h-1022v-45q47 0 82 -6q31 -6 57 -22q25 -15 37 -43q12 -27 12 -70v-1020 q0 -35 -16 -57q-18 -25 -45 -39q-31 -18 -60 -23q-34 -6 -67 -6v-45z" />
<glyph unicode="&#x394;" horiz-adv-x="1370" d="M14 0h1299l-621 1401h-47zM178 102l395 850l361 -850h-756z" />
<glyph unicode="&#x395;" horiz-adv-x="1390" d="M80 1331q53 0 94 -10t59 -29q20 -20 27 -53q8 -41 8 -72v-997q0 -68 -45 -96.5t-137 -28.5v-45h1145l96 377h-51q-25 -66 -53 -111q-37 -57 -74 -94t-90 -63q-45 -23 -103 -23h-319q-31 0 -53 16q-20 14 -21 50v518h277q57 0 94 -25q35 -23 55 -61q23 -39 27 -70 q6 -37 6 -55h47v528h-47q0 -18 -2 -33q0 -4 -10 -43q-2 -12 -21 -47q-12 -27 -33 -43q-27 -23 -49 -33q-28 -12 -67 -12h-277v445q0 72 74 71h311q45 0 82 -18q35 -18 64 -49q25 -27 45 -72q12 -29 24 -86h51l-18 309h-1116v-45z" />
<glyph unicode="&#x396;" horiz-adv-x="1394" d="M49 0h1239l47 401h-53q-25 -78 -53 -129q-37 -66 -76 -100q-47 -43 -92 -63q-51 -23 -109 -23h-487l862 1290h-1171l-19 -375h51q10 74 27 119q18 51 47 90q27 35 72 58q41 20 102 20h473z" />
<glyph unicode="&#x397;" horiz-adv-x="1636" d="M68 0h673v45q-34 0 -67 6q-29 4 -60 23q-27 14 -45 39q-16 23 -16 57v467h532v-467q0 -33 -18 -57q-18 -27 -43 -39q-31 -16 -61 -23q-34 -6 -68 -6v-45h676v45q-34 0 -68 6q-31 6 -61 23q-27 14 -45 39q-16 23 -17 57v1020q0 43 13 70q12 28 37 43q27 16 59 22 q37 6 82 6v45h-676v-45q45 0 82 -6q33 -6 59 -22q25 -15 37 -43q12 -27 12 -70v-430h-532v430q0 43 12 70q12 29 35 43q27 16 59.5 22t81.5 6v45h-673v-45q47 0 82 -6q33 -6 59 -22q23 -14 35 -43q12 -27 12 -70v-1020q0 -35 -16 -57q-18 -25 -45 -39q-31 -18 -60 -23 q-34 -6 -67 -6v-45z" />
<glyph unicode="&#x398;" horiz-adv-x="1576" d="M61 688q0 -147 50 -276q49 -127 145 -228q96 -98 229 -153q135 -55 303 -56q108 0 203 25q94 25 176 72q78 45 146 112q66 66 110 144q45 76 70 172q23 84 23 188q0 150 -52 277q-52 129 -147 227q-94 96 -230 154q-133 55 -296 55q-111 0 -205 -25q-88 -23 -176 -73 q-82 -47 -145.5 -111t-110.5 -145q-41 -72 -68 -170q-25 -93 -25 -189zM406 688q0 66 10 152q8 70 28 147q18 68 50 131q27 51 71 105q41 47 94.5 71.5t118.5 24.5q68 0 123 -24.5t100 -69.5q43 -43 74 -105q35 -68 53 -131q25 -82 33 -147q10 -86 10 -154q0 -59 -10 -141 q-9 -74 -31 -141q-25 -78 -51 -132q-33 -63 -73 -108q-43 -47 -94.5 -73.5t-116.5 -26.5q-104 0 -177 51q-76 53 -120 137q-49 94 -70 197q-22 118 -22 237zM545 457h49q0 35 8 57q10 25 21 39q10 12 32 20q18 6 35 7h203q14 0 33 -7q16 -4 30 -20q16 -16 24.5 -38.5 t8.5 -57.5h51v454h-51q0 -35 -8 -57.5t-25 -38.5q-14 -16 -30 -20q-18 -6 -33 -7h-203q-16 0 -35 7q-23 8 -32 20q-10 14 -21 39q-8 23 -8 57h-49v-454z" />
<glyph unicode="&#x399;" horiz-adv-x="808" d="M68 0h673v45q-34 0 -67 6q-29 4 -60 23q-27 14 -45 39q-16 23 -16 57v1020q0 43 12 70q12 29 35 43q27 16 59.5 22t81.5 6v45h-673v-45q47 0 82 -6q33 -6 59 -22q23 -14 35 -43q12 -27 12 -70v-1020q0 -35 -16 -57q-18 -25 -45 -39q-31 -18 -60 -23q-34 -6 -67 -6v-45z " />
<glyph unicode="&#x39a;" horiz-adv-x="1636" d="M68 0h618v45q-27 0 -57 10q-33 10 -54 27q-20 14 -36 45q-14 27 -15 61v308v75l49 -18l291 -293q41 -41 72 -78t41 -69.5t-10 -49.5q-22 -18 -86 -18v-45h725v45q-39 0 -72 8q-35 8 -78 35q-51 31 -90 66q-55 49 -115 110l-501 518l395 426q66 70 141 97q74 27 170 26v45 h-579v-45q68 0 98 -14q35 -16 43 -35q10 -25 2 -45t-29 -45l-467 -492v490q0 43 12.5 69.5t34.5 43.5q25 18 50 22q31 6 65 6v45h-604v-45q25 0 61 -8q27 -6 47 -23q23 -18 31 -43q10 -31 10 -67v-1002q0 -27 -14 -59q-10 -23 -37 -45q-25 -20 -51 -29q-35 -10 -61 -10v-45z " />
<glyph unicode="&#x39b;" horiz-adv-x="1527" d="M2 0h461v45q-52 0 -86 6q-31 6 -49 21q-14 12 -19 32q-2 14 8 43l345 840l335 -827q25 -61 -16 -88t-139 -27v-45h649v45q-35 0 -51 4q-27 6 -47 19q-29 16 -41 30q-18 23 -31 52l-535 1251h-53l-538 -1241q-8 -23 -27 -54q-10 -18 -33 -34q-18 -14 -53 -21 q-31 -6 -80 -6v-45z" />
<glyph unicode="&#x39c;" horiz-adv-x="1949" d="M84 0h526v45q-35 0 -75 10q-35 8 -68 29q-27 16 -47 43q-18 25 -19 55v815l506 -1013h43l490 1136v-936q0 -39 -13 -63q-10 -20 -36 -43q-16 -12 -54 -25q-27 -8 -67 -8v-45h635v45q-41 0 -68 8q-37 12 -53 25q-23 20 -35 43q-14 29 -14 63v1006q0 39 10 70q8 27 28.5 43 t47 22t59.5 6v45h-440l-422 -981l-494 981h-440v-45q51 0 90 -18.5t64 -44.5q29 -33 38 -60q12 -34 13 -61v-965q0 -33 -17 -55q-18 -23 -46.5 -43.5t-65.5 -28.5q-41 -10 -76 -10v-45z" />
<glyph unicode="&#x39d;" horiz-adv-x="1476" d="M35 0h526v45q-35 0 -76 10q-35 8 -67 29q-27 16 -47 43q-18 25 -19 55v854l809 -1065h96v1223q0 33 15 55q16 27 39 43q27 20 59 29q37 10 72 10v45h-484v-45q35 0 72 -10q33 -8 59.5 -28.5t41 -43t14.5 -55.5v-698l-670 880h-440v-45q55 0 90 -16q41 -18 65 -43 q27 -27 39.5 -57.5t12.5 -61.5v-971q0 -31 -19 -55q-20 -27 -47 -43q-35 -20 -65 -29q-41 -10 -76 -10v-45z" />
<glyph unicode="&#x39e;" horiz-adv-x="1312" d="M119 0h1075v387h-47q0 -90 -49 -133t-123 -43h-637q-80 0 -125 43q-47 43 -47 133h-47v-387zM119 987h47q0 90 49 133q51 45 123 45h637q39 0 69 -12q37 -14 56 -33q23 -23 35 -55.5t12 -77.5h47v389h-1075v-389zM330 449h49q0 39 10 57q14 25 29 37q23 18 37 22 q20 6 39 6h337q16 0 35 -6q23 -8 37 -22q12 -12 27 -37q12 -23 12 -57h49v489h-49q0 -33 -12 -57q-14 -29 -27 -41q-14 -16 -37 -23q-18 -6 -35 -6h-337q-18 0 -39 6q-14 4 -37 23q-14 12 -29 41q-10 20 -10 57h-49v-489z" />
<glyph unicode="&#x39f;" horiz-adv-x="1576" d="M59 688q0 -147 50 -276q49 -127 145 -228q96 -98 229 -153q135 -55 303 -56q163 0 295 56q135 57 230 153q98 102 149 228q53 131 53 276.5t-53 276.5q-52 129 -147 227q-96 98 -230 154q-135 55 -296.5 55t-297.5 -55q-133 -55 -229 -154q-98 -102 -149 -227 q-52 -127 -52 -277zM403 688q0 84 9 152q9 77 30 147q25 84 50 131q31 59 71 105q45 49 94 71q51 25 119 25t123 -24.5t100 -69.5q43 -43 74 -105q35 -68 53 -131q25 -82 33 -147q10 -86 10 -154q0 -59 -10 -141q-9 -74 -31 -141q-23 -68 -53 -132q-35 -68 -71 -108 q-43 -47 -94.5 -73.5t-116.5 -26.5q-102 0 -175 51q-80 57 -122 137q-49 94 -70 197q-23 118 -23 237z" />
<glyph unicode="&#x3a0;" horiz-adv-x="1611" d="M68 0h673v45q-45 0 -67 2q-35 4 -59.5 14.5t-45.5 34.5q-16 18 -16 64v1030q0 47 16 65q18 23 45 31q31 10 62 10q12 0 34.5 1t34.5 1h117q10 0 35 -1t35 -1q33 0 63 -10q27 -8 45 -31q16 -18 17 -65v-1030q0 -43 -17 -62q-20 -25 -45 -35q-31 -14 -61 -16q-23 -2 -66 -2 v-45h674v45q-45 0 -67 2q-31 2 -62 16q-20 10 -43 35q-18 22 -18 62v1030q0 43 12 70q12 28 37 43q27 16 59 22q37 6 82 6v45h-1474v-45q47 0 82 -6q33 -6 59 -22q23 -14 35 -43q12 -27 12 -70v-1030q0 -47 -16 -66q-18 -20 -45 -33q-25 -10 -60 -14q-23 -2 -67 -2v-45z" />
<glyph unicode="&#x3a1;" horiz-adv-x="1261" d="M39 0h657v45q-96 0 -139 43t-43 117v454q12 -8 21 -10q2 0 12 -3t16 -5t19.5 -3t21.5 -1q16 -2 62 -2q121 0 215 27q98 29 174 77q70 47 114 121q41 68 41 160q0 84 -41 154q-37 63 -106 110q-57 39 -156 68q-86 25 -180 24h-686v-45q51 0 88 -10t55 -29q20 -20 27 -53 q8 -41 8 -72v-962q0 -74 -43 -117t-137 -43v-45zM514 737v473q0 45 16 68q18 25 60 25h63q39 0 72 -17q39 -20 68 -53q31 -37 51 -90t20 -127q0 -66 -18 -121q-18 -57 -51 -92q-33 -37 -76 -58q-41 -20 -94 -20q-10 0 -31 1t-29 1q-26 0 -51 10z" />
<glyph unicode="&#x3a3;" horiz-adv-x="1302" d="M41 0h1147l37 401h-51q-16 -96 -60 -143q-45 -47 -110 -47h-619l502 537l-367 464q-25 33 -12.5 57.5t55.5 24.5h260q59 0 121 -22q53 -20 105 -64q55 -47 79 -90q31 -52 43 -110h48l-31 368h-1147l598 -739z" />
<glyph unicode="&#x3a4;" horiz-adv-x="1273" d="M35 1001h45q0 51 18.5 104.5t46.5 90.5q31 39 70 63.5t82 24.5h192v-1114q0 -33 -18 -57.5t-45 -38.5q-31 -18 -59 -23q-34 -6 -68 -6v-45h674v45q-34 0 -68 6q-31 6 -61 23q-27 14 -45 39q-16 23 -17 57v1114h195q43 0 82 -24.5t69 -63.5q25 -33 46 -90q18 -53 18 -105 h47v375h-1204v-375z" />
<glyph unicode="&#x3a5;" horiz-adv-x="1632" d="M41 1331q74 0 123 -30.5t90 -90.5l440 -632v-418q0 -37 -16 -56q-20 -25 -45 -34q-29 -12 -60 -19q-34 -6 -67 -6v-45h674v45q-34 0 -68 6t-61 19q-25 10 -45 34q-16 18 -17 56v422l406 645q18 25 39 41q31 23 53 32q12 6 57 21q25 8 51 8v47h-489v-45q39 0 76 -10 q29 -8 51 -31q20 -20 20 -45q0 -29 -20 -61l-299 -479l-330 491q-23 33 -22 57q0 20 16 41q12 16 49 27q35 10 76 10v45h-682v-45z" />
<glyph unicode="&#x3a6;" horiz-adv-x="1544" d="M45 717q0 -135 49 -223t129 -143.5t183 -80.5q115 -29 210 -30v-70q0 -33 -18 -57q-18 -27 -43 -39q-31 -16 -61 -23q-34 -6 -68 -6v-45h674v45q-31 0 -66 6q-31 6 -61 23q-27 14 -45 39q-16 23 -17 57v68q66 2 144 16q80 14 135 35q74 29 121 59q55 37 94 88 q43 57 63 123q23 74 23 158t-29 153q-25 59 -76 115q-41 43 -106 80q-53 29 -125 53q-55 18 -127 29q-65 9 -117 12v31q0 43 13 70q12 29 34 43q27 16 60 22q37 6 82 6v45h-674v-45q45 0 82 -6q33 -6 59 -22q25 -15 37 -43q12 -27 12 -70v-33q-52 -3 -116 -12 q-61 -8 -127 -31q-82 -27 -123 -51q-61 -35 -105 -82q-47 -49 -73 -113q-27 -61 -27 -151zM373 707q0 166 63 260q59 90 180 112v-764q-59 6 -102 33q-45 27 -75.5 76t-49.5 119q-16 64 -16 164zM911 311v768q59 -12 107 -37q49 -27 80 -71q31 -46 49 -111q16 -57 16 -153 q0 -102 -16 -162q-18 -68 -49 -117q-29 -45 -80 -76q-50 -29 -107 -41z" />
<glyph unicode="&#x3a7;" horiz-adv-x="1619" d="M43 0h512v45q-45 0 -82 6q-43 8 -59 17q-25 14 -27 28q-4 20 14 41l326 400l285 -381q20 -27 20 -47q0 -23 -10 -35q-10 -14 -39 -21q-33 -8 -59 -8v-45h655v45q-53 0 -96 21q-46 22 -92 79l-473 631l342 426q59 72 126.5 100.5t133.5 28.5v45h-510v-45q63 0 94 -8 q29 -8 43 -27q10 -14 4 -36.5t-27 -45.5l-278 -340l-258 355q-31 41 -0.5 71.5t123.5 30.5v45h-668v-45q47 0 88 -24q45 -27 88 -88l438 -580l-387 -477q-33 -39 -55 -58q-37 -29 -55 -36q-28 -12 -56 -19q-18 -4 -61 -4v-45z" />
<glyph unicode="&#x3a8;" horiz-adv-x="1796" d="M35 1325q35 0 63 -12q25 -10 43 -51q18 -39 27 -111q8 -66 8 -193q0 -98 6 -174q6 -82 27 -139q23 -68 59 -108q39 -45 102.5 -76t157.5 -49q92 -18 224 -25v-203q0 -68 -50 -104q-47 -35 -139 -35v-45h674v45q-90 0 -139 35q-51 37 -51 104v203q129 6 221 25 q90 18 155 49q63 31 105 78q39 45 61 108q23 66 29 139q6 77 6 172q0 127 8 191q10 80 25 111q18 39 45 53q25 12 61 12v43q-127 0 -219 -16q-86 -14 -133 -60q-45 -43 -63 -114q-16 -66 -17 -185q0 -141 -12 -237.5t-43 -151.5q-31 -53 -86 -82q-49 -25 -143 -35v689 q0 45 8 71q8 29 28 49q18 18 52 27q31 8 82 8v45h-633v-45q51 0 82 -8q35 -8 51 -27q16 -16 26 -49q8 -27 9 -71v-689q-96 10 -146 35q-55 29 -86 82q-33 57 -41 152q-10 106 -10 237q0 119 -14 189q-14 72 -62 114q-41 39 -133 55.5t-225 16.5v-43z" />
<glyph unicode="&#x3a9;" horiz-adv-x="1566" d="M72 829q0 -76 22 -149q20 -70 58 -127q31 -49 88 -102q47 -45 106 -76q57 -31 121 -49q66 -20 121 -23v-92h-297q-8 0 -41 4q-14 2 -43 18q-18 10 -35 37q-14 23 -14 62h-58v-332h607v352q-143 49 -220 172q-78 125 -77 303q0 98 24 191q25 90 70 160q46 71 117 110 q72 41 163 41q86 0 158 -41q66 -37 117 -110q51 -72 74 -160q25 -92 24 -191q0 -92 -20 -165q-23 -78 -58 -137.5t-94 -104.5q-61 -49 -125 -68v-352h606v332h-57q0 -39 -14 -62q-18 -29 -33 -37q-29 -16 -45 -18q-33 -4 -41 -4h-297v92q66 4 123 21q49 14 119 51 q59 31 106 76q57 53 88 102q37 57 58 127q23 74 22 149q0 131 -43 236q-43 106 -131 178q-92 76 -221 115q-131 39 -316 39q-182 0 -311 -39q-133 -41 -223 -115q-90 -76 -133 -178q-45 -109 -45 -236z" />
<glyph unicode="&#x3aa;" horiz-adv-x="835" d="M76 0h673v45q-34 0 -67 6q-29 4 -60 23q-27 14 -45 39q-16 23 -16 57v1020q0 43 12 70q12 29 35 43q27 16 59.5 22t81.5 6v45h-673v-45q47 0 82 -6q33 -6 59 -22q23 -14 35 -43q12 -27 12 -70v-1020q0 -35 -16 -57q-18 -25 -45 -39q-31 -18 -60 -23q-34 -6 -67 -6v-45z M20 1622q0 -29 12 -58q12 -27 33 -47q18 -18 51 -33q29 -12 64 -12q39 0 65.5 12.5t49.5 34.5q22 22 30 49q10 31 10 56q0 33 -10 63q-9 28 -30 49q-16 16 -50 31q-27 12 -63 12q-39 0 -69.5 -12t-51.5 -33q-22 -22 -31 -49q-10 -30 -10 -63zM487 1622q0 -29 12 -58 q12 -27 33 -47q18 -18 51 -33q29 -12 64 -12q39 0 65.5 12.5t48.5 34.5t31 49q10 31 10 56q0 33 -10 63q-8 23 -31 49q-14 16 -47 31q-29 12 -65 12q-39 0 -70 -12t-51 -33q-22 -22 -31 -49q-10 -30 -10 -63z" />
<glyph unicode="&#x3ab;" horiz-adv-x="1632" d="M41 1331q74 0 123 -30.5t90 -90.5l440 -632v-418q0 -37 -16 -56q-20 -25 -45 -34q-29 -12 -60 -19q-34 -6 -67 -6v-45h674v45q-34 0 -68 6t-61 19q-25 10 -45 34q-16 18 -17 56v422l406 645q18 25 39 41q31 23 53 32q12 6 57 21q25 8 51 8v47h-489v-45q39 0 76 -10 q29 -8 51 -31q20 -20 20 -45q0 -29 -20 -61l-299 -479l-330 491q-23 33 -22 57q0 20 16 41q12 16 49 27q35 10 76 10v45h-682v-45zM438 1622q0 -29 12 -58q12 -27 33 -47q18 -18 51 -33q29 -12 64 -12q39 0 65.5 12.5t49.5 34.5q22 22 30 49q10 31 10 56q0 33 -10 63 q-9 28 -30 49q-16 16 -50 31q-27 12 -63 12q-39 0 -69.5 -12t-51.5 -33q-22 -22 -31 -49q-10 -30 -10 -63zM905 1622q0 -29 12 -58q12 -27 33 -47q18 -18 51 -33q29 -12 64 -12q39 0 65.5 12.5t48.5 34.5t31 49q10 31 10 56q0 33 -10 63q-8 23 -31 49q-14 16 -47 31 q-29 12 -65 12q-39 0 -70 -12t-51 -33q-22 -22 -31 -49q-10 -30 -10 -63z" />
<glyph unicode="&#x3ac;" horiz-adv-x="1181" d="M43 512q0 -117 37 -215q37 -96 100 -170q66 -76 144 -113q80 -39 174 -39q68 0 116 15q53 16 97 43q39 25 75 65q31 33 58 84q14 -53 39 -104q16 -35 39 -62q18 -23 39 -28q25 -8 38 -8q20 0 41 12q31 16 43 37q18 28 31 73q14 53 14 115h-38q0 -33 -23 -59 q-23 -25 -53 -25q-12 0 -25 6q-10 6 -28 27q-8 10 -29 51q-14 27 -31 82q4 23 25 104l16 71l16 75q10 41 18.5 81l16.5 79l33 145q6 31 13.5 59.5t11.5 49.5l8 41h-242l-43 -226q-18 74 -53 121q-37 51 -76 76q-41 27 -86 39q-35 10 -84 10q-66 0 -145 -35 q-70 -31 -140 -100q-63 -63 -106 -160q-41 -90 -41 -217zM328 504q0 106 14 184q16 90 38.5 145.5t57.5 94.5q31 35 66 35q45 0 77.5 -25t61.5 -78t49 -125q20 -70 43 -170q-4 -16 -18.5 -92l-22.5 -115q-16 -78 -47 -168q-20 -63 -57 -114q-31 -43 -74 -43 q-37 0 -71.5 34.5t-59.5 96.5q-27 66 -41 147q-16 93 -16 193zM465 1108h86l176 365q14 29 15 59q0 29 -11 45q-12 18 -34 31q-20 12 -52 12q-53 0 -96 -33q-39 -31 -45 -82z" />
<glyph unicode="&#x3ad;" horiz-adv-x="851" d="M76 250q0 -63 26 -111q31 -53 74 -88q41 -33 109 -55q61 -20 137 -21q74 0 133 19q55 18 104 53q41 31 78 80q33 43 51 104l-49 15q-37 -88 -96 -131q-61 -45 -125 -45q-31 0 -57 12q-35 14 -51 35q-20 23 -37 63q-14 35 -15 90q0 78 9 119q8 43 24.5 71.5t32.5 37.5 q20 10 37 10q10 0 22 -4q10 -4 23 -10q16 -8 26 -11q20 -4 37 -4q22 0 37 6q12 6 21 17q6 10 10 20q2 6 2 19q0 10 -2 18t-10.5 20.5t-22.5 18.5t-35 6q-25 0 -39 -6q-20 -8 -28 -12l-11.5 -4t-11.5 -7q-8 -6 -22 -6q-23 0 -39 9q-23 10 -35 28.5t-23 52.5q-8 31 -8 86 q0 102 29 155.5t94 53.5q31 0 53 -16q16 -12 35 -37l29 -47q16 -33 24 -47q14 -25 31 -39t47 -14q35 0 60 20q23 18 22 57q0 37 -26 70q-28 34 -74 62q-43 27 -111 45q-57 16 -135 16q-82 0 -149 -23q-65 -22 -111 -61q-43 -37 -70 -90q-25 -49 -24.5 -104.5t14.5 -90.5 q18 -43 39 -63q27 -27 53 -41q18 -10 56 -23q-16 -8 -48 -30q-27 -20 -53 -58q-23 -31 -43 -82q-18 -47 -18 -108zM391 1108h86l176 365q14 29 15 59q0 29 -11 45q-12 18 -34 31q-20 12 -52 12q-53 0 -96 -33q-39 -31 -45 -82z" />
<glyph unicode="&#x3ae;" d="M37 735h63q0 98 23 148q23 47 49 47q9 0 18 -6q6 -4 15 -27q4 -14 8 -47q4 -41 4 -80v-770h240v506q0 139 14 217t41 131q23 45 59 66q34 18 68 18q20 0 37 -16q15 -15 24 -43q6 -20 11 -68q4 -53 4 -88v-1112h237v997q0 80 -14 156q-12 68 -33 110q-25 51 -51 76 q-37 33 -63 45q-39 18 -66 23q-34 6 -68 6q-41 0 -71 -8q-35 -10 -66 -31q-29 -20 -55 -59q-25 -37 -43 -95q-16 61 -25 84q-16 39 -39 62q-20 20 -59 35q-34 12 -86 12q-45 0 -78 -20q-35 -23 -55 -58q-25 -41 -33 -90q-10 -58 -10 -121zM602 1108h86l176 365q14 29 15 59 q0 29 -11 45q-12 18 -34 31q-20 12 -52 12q-53 0 -96 -33q-39 -31 -45 -82z" />
<glyph unicode="&#x3af;" horiz-adv-x="694" d="M137 266q0 -145 64 -217q66 -74 184 -74q53 0 98 17q43 16 74 57q31 43 49 115q16 63 17 182h-70q0 -84 -8 -131q-8 -43 -23 -80q-10 -29 -30 -41q-18 -12 -33 -12q-6 0 -27 8q-12 6 -26 29q-10 18 -21 59q-8 33 -8 98v728h-240v-738zM213 1108h86l176 365q14 29 15 59 q0 29 -11 45q-12 18 -34 31q-20 12 -52 12q-53 0 -96 -33q-39 -31 -45 -82z" />
<glyph unicode="&#x3b0;" horiz-adv-x="1120" d="M33 745h49q0 51 10 93q8 31 27 57q14 18 33 29q16 8 32 8q12 0 24.5 -6t23 -22.5t16.5 -45.5q6 -27 6 -76v-481q0 -76 20 -131q23 -59 62 -102q41 -45 102 -68q66 -25 150 -25q88 0 155 31q63 29 115 86q49 55 80 127q41 92 53 150q16 72 27 161q8 74 8 158 q0 109 -16 180q-16 68 -39 101q-27 35 -58 45q-35 10 -65 10q-66 0 -98.5 -39t-32.5 -106q0 -39 10 -80q6 -25 27 -70q10 -23 34 -63q12 -20 33 -65.5t27 -72.5q10 -45 10 -88q0 -68 -14 -149q-14 -78 -39 -129q-27 -55 -70 -88q-41 -33 -98 -33q-72 0 -107 72 q-37 74 -36 196v441q0 72 -17 114q-18 49 -49 86q-33 39 -72 56q-43 18 -92 18q-45 0 -88 -12q-41 -12 -73.5 -45t-51.5 -86q-18 -53 -18 -136zM125 1276q0 -31 12 -57q12 -29 30.5 -47.5t51.5 -32.5q29 -12 64 -13q39 0 65.5 12.5t49 35t30.5 47.5q10 31 10 57q0 33 -10 63 q-8 23 -31 50q-16 18 -47 32q-23 10 -65 11q-39 0 -70 -13q-27 -10 -49 -32t-31 -50q-10 -30 -10 -63zM490 1108h86l178 365q14 29 14 59q0 29 -10 45q-12 18 -35 31q-20 12 -53 12q-31 0 -53 -8q-25 -9 -43 -25q-20 -16 -30.5 -34.5t-15.5 -47.5zM750 1276q0 -31 12 -57.5 t33 -47.5q18 -18 51 -32q29 -12 63 -13q39 0 66 13q29 12 47 35q25 29 31 47q10 31 10 57q0 33 -10 63q-8 23 -31 50q-16 18 -47 32q-23 10 -66 11q-39 0 -69 -13q-27 -10 -49 -32t-31 -50q-10 -30 -10 -63z" />
<glyph unicode="&#x3b1;" horiz-adv-x="1181" d="M43 512q0 -117 37 -215q37 -96 100 -170q66 -76 144 -113q80 -39 174 -39q68 0 116 15q53 16 97 43q39 25 75 65q31 33 58 84q14 -53 39 -104q16 -35 39 -62q18 -23 39 -28q25 -8 38 -8q20 0 41 12q31 16 43 37q18 28 31 73q14 53 14 115h-38q0 -33 -23 -59 q-23 -25 -53 -25q-12 0 -25 6q-10 6 -28 27q-8 10 -29 51q-14 27 -31 82q4 23 25 104l16 71l16 75q10 41 18.5 81l16.5 79l33 145q6 31 13.5 59.5t11.5 49.5l8 41h-242l-43 -226q-18 74 -53 121q-37 51 -76 76q-41 27 -86 39q-35 10 -84 10q-66 0 -145 -35 q-70 -31 -140 -100q-63 -63 -106 -160q-41 -90 -41 -217zM328 504q0 106 14 184q16 90 38.5 145.5t57.5 94.5q31 35 66 35q45 0 77.5 -25t61.5 -78t49 -125q20 -70 43 -170q-4 -16 -18.5 -92l-22.5 -115q-16 -78 -47 -168q-20 -63 -57 -114q-31 -43 -74 -43 q-37 0 -71.5 34.5t-59.5 96.5q-27 66 -41 147q-16 93 -16 193z" />
<glyph unicode="&#x3b2;" horiz-adv-x="1024" d="M53 -389h238v1423q0 102 10 162q12 68 35 121q20 49 57 78q33 27 80 26q29 0 61.5 -16t53.5 -49q25 -37 35 -84q12 -51 12 -121q0 -76 -17 -135q-14 -51 -38.5 -86t-42.5 -45q-22 -12 -31 -13q-6 0 -19 5q-18 6 -22 8q-18 8 -23 10q-16 4 -26 4q-28 0 -49 -18 q-20 -18 -21 -45q0 -14 6 -27q2 -4 19 -21q6 -6 22 -14q12 -6 25 -6q16 0 28 6l25 12l25 13q12 6 20 6q16 0 43 -21q33 -25 57 -69q29 -49 50 -125q20 -74 20 -187q0 -102 -16.5 -177.5t-39 -114.5t-52.5 -60q-29 -18 -56 -18q-43 0 -67 10q-31 12 -56 31q-29 23 -47 45 q-8 10 -22.5 31.5l-18.5 27.5l-30 -33q10 -23 38 -63q22 -31 56 -55q25 -18 86 -37q45 -14 121 -15q71 0 141 31q68 29 125 90.5t90 136.5q33 78 33 181q0 90 -33 172q-31 76 -84 129t-117 84q-61 29 -133 39q131 55 196.5 145t65.5 203q0 53 -20 102q-23 51 -64 94 q-45 45 -108 68q-74 27 -160 27q-119 0 -203 -51.5t-143 -141.5t-86 -207q-29 -125 -29 -254v-1212z" />
<glyph unicode="&#x3b3;" horiz-adv-x="989" d="M23 825q0 -35 2 -49l4 -26h39q0 12 6 30q6 20 14 32.5t24.5 23t32.5 10.5q35 0 72 -41q39 -43 78 -125q35 -76 82 -219q39 -121 82 -318l-39 -98q-16 -41 -37 -108l-29 -103q-10 -41 -10 -86q0 -92 37 -137q37 -47 115 -47q82 0 114 49q35 51 35 135q0 20 -8 78 q-2 16 -9 50t-10 44l-22 105q-8 37 -21 106l123 238l93 178l67 129q23 43 41 90q23 59 25 68q6 27 6 53q0 25 -6 49q-6 23 -21 43q-16 23 -37 33q-25 12 -57 12q-35 0 -68 -14q-29 -12 -47 -37q-20 -27 -30 -55q-12 -33 -13 -72v-49q4 -29 4 -49q0 -14 -4 -64 q-2 -25 -16 -86q-8 -35 -39 -123q-20 -59 -66 -170q-45 213 -81 338q-39 135 -82 221t-92.5 123t-114.5 37q-29 0 -54 -18q-27 -18 -43 -45q-23 -35 -30 -66q-10 -41 -10 -70z" />
<glyph unicode="&#x3b4;" horiz-adv-x="1064" d="M45 436q0 -121 41 -203q43 -88 111 -145q61 -53 157 -84q90 -29 178 -29q84 0 162 33q76 33 142 94q61 59 102 150q39 86 39 201q0 84 -19 168q-16 78 -57 157q-39 76 -88 135q-45 53 -119 103l-149 96l-103 70q-45 31 -63 47q-23 18 -35 35q-10 14 -14 26q-4 16 -4 25 q0 45 26.5 71.5t77.5 26.5q47 0 90 -12t82 -35q37 -22 68 -55q33 -35 51 -74l47 27q-18 43 -57 88q-29 35 -78 65.5t-92 44.5q-45 14 -99 15q-57 0 -100 -15q-45 -14 -82 -43q-35 -27 -57 -67q-20 -39 -21 -92q0 -31 6 -56q8 -31 21 -51q10 -16 45 -51t72 -60 q80 -53 108 -69q63 -39 150 -86l-25 6q-12 4 -14 4h-15h-24q-94 0 -174 -27q-83 -28 -148 -86q-68 -61 -102 -143q-37 -86 -37 -205zM326 471q0 94 12 166q10 63 35 115q20 45 53 67q29 20 66 21q57 0 96 -43q35 -39 61 -107q23 -57 35 -139q12 -76 12 -143q0 -63 -6 -127 q-6 -66 -24 -121q-18 -53 -52 -90t-86 -37q-49 0 -86 30q-41 33 -63 87q-27 61 -39 137q-14 94 -14 184z" />
<glyph unicode="&#x3b5;" horiz-adv-x="851" d="M76 250q0 -63 26 -111q31 -53 74 -88q41 -33 109 -55q61 -20 137 -21q74 0 133 19q55 18 104 53q41 31 78 80q33 43 51 104l-49 15q-37 -88 -96 -131q-61 -45 -125 -45q-31 0 -57 12q-35 14 -51 35q-20 23 -37 63q-14 35 -15 90q0 78 9 119q8 43 24.5 71.5t32.5 37.5 q20 10 37 10q10 0 22 -4q10 -4 23 -10q16 -8 26 -11q20 -4 37 -4q22 0 37 6q12 6 21 17q6 10 10 20q2 6 2 19q0 10 -2 18t-10.5 20.5t-22.5 18.5t-35 6q-25 0 -39 -6q-20 -8 -28 -12l-11.5 -4t-11.5 -7q-8 -6 -22 -6q-23 0 -39 9q-23 10 -35 28.5t-23 52.5q-8 31 -8 86 q0 102 29 155.5t94 53.5q31 0 53 -16q16 -12 35 -37l29 -47q16 -33 24 -47q14 -25 31 -39t47 -14q35 0 60 20q23 18 22 57q0 37 -26 70q-28 34 -74 62q-43 27 -111 45q-57 16 -135 16q-82 0 -149 -23q-65 -22 -111 -61q-43 -37 -70 -90q-25 -49 -24.5 -104.5t14.5 -90.5 q18 -43 39 -63q27 -27 53 -41q18 -10 56 -23q-16 -8 -48 -30q-27 -20 -53 -58q-23 -31 -43 -82q-18 -47 -18 -108z" />
<glyph unicode="&#x3b6;" horiz-adv-x="978" d="M4 1300q0 -84 64 -141q66 -59 192 -90q-31 -29 -70 -92q-31 -51 -65 -146q-27 -70 -47 -186q-18 -101 -19 -215q0 -123 31 -205t78 -133q47 -49 102 -72q53 -20 101 -20h221q53 0 102 -6q39 -4 86 -25q43 -18 62 -41q23 -29 22 -65q0 -33 -14 -56q-18 -29 -41 -40 q-31 -16 -66 -23q-49 -8 -84 -8q-43 0 -65 10q-18 8 -51 25q-8 4 -27.5 11t-28.5 11q-29 12 -71 12q-14 0 -43 -8q-25 -6 -41.5 -20.5t-28.5 -35t-12 -52.5q0 -51 63 -88q65 -37 191 -37q113 0 186 30q78 33 119 76q45 49 63 103q18 55 19 110q0 53 -10 119q-8 51 -37 104 q-25 47 -68 78q-41 29 -106 39q-8 12 -25 15q-25 4 -39 4h-43h-37h-4q-4 0 -10 1t-12 1h-49q-10 0 -26.5 1t-23.5 1q-23 0 -26 4q-14 2 -47 2q-25 0 -50 6q-27 6 -47 18q-18 10 -38.5 41t-28.5 74q-10 51 -10 117q0 94 14 172q18 102 37 151q27 76 55 123q33 55 66 88 q10 -2 21 -4t17.5 -2t17.5 -2t17 -2q25 -4 41 -4h54q74 0 129 12q57 12 92 33q43 25 57 47q18 27 18 58q0 53 -47 88q-45 33 -143 32q-40 0 -86 -18q-80 -33 -92 -39q-43 -25 -80 -49.5t-55 -42.5q-23 4 -54 20q-29 14 -45 31q-18 18 -28.5 43t-10.5 47q0 31 11 51 q14 29 28 43q20 20 41 29q25 10 47 10q16 0 37 -4q6 -2 16.5 -4t14.5 -4l8 47q-2 0 -9 2t-13 4t-17.5 5.5t-15.5 5.5q-25 8 -39 10q-29 4 -45 4q-45 0 -92 -12q-46 -12 -80 -37q-37 -27 -57.5 -60t-20.5 -80z" />
<glyph unicode="&#x3b7;" d="M37 735h63q0 98 23 148q23 47 49 47q9 0 18 -6q6 -4 15 -27q4 -14 8 -47q4 -41 4 -80v-770h240v506q0 139 14 217t41 131q23 45 59 66q34 18 68 18q20 0 37 -16q15 -15 24 -43q6 -20 11 -68q4 -53 4 -88v-1112h237v997q0 80 -14 156q-12 68 -33 110q-25 51 -51 76 q-37 33 -63 45q-39 18 -66 23q-34 6 -68 6q-41 0 -71 -8q-35 -10 -66 -31q-29 -20 -55 -59q-25 -37 -43 -95q-16 61 -25 84q-16 39 -39 62q-20 20 -59 35q-34 12 -86 12q-45 0 -78 -20q-35 -23 -55 -58q-25 -41 -33 -90q-10 -58 -10 -121z" />
<glyph unicode="&#x3b8;" d="M45 721q0 -74 10 -172q8 -76 33 -172q20 -76 59 -156q37 -72 89 -127q57 -61 116 -88q68 -31 152 -31q83 0 147 31q68 33 119 86q57 59 90 127q37 76 62 156q25 83 36 172q10 74 11 176q0 78 -11 176q-8 80 -32 174q-20 80 -60 158q-35 72 -90 129q-51 53 -125 86 q-70 31 -164 31q-86 0 -149 -33q-66 -35 -115 -92q-53 -63 -84 -133q-29 -66 -53 -160q-20 -80 -31 -172q-10 -96 -10 -166zM319 686h375q0 -174 -12 -301q-12 -126 -37 -203q-27 -84 -55 -114q-33 -35 -76 -35q-27 0 -51 12q-23 10 -45 41q-23 29 -41 78q-20 53 -31 119 q-16 94 -20 172q-7 98 -7 231zM319 793q0 158 13 278q12 120 37 197q25 78 55 114q33 39 68 39q37 0 73.5 -30.5t63.5 -100.5q29 -74 47 -192.5t18 -304.5h-375z" />
<glyph unicode="&#x3b9;" horiz-adv-x="694" d="M137 266q0 -145 64 -217q66 -74 184 -74q53 0 98 17q43 16 74 57q31 43 49 115q16 63 17 182h-70q0 -84 -8 -131q-8 -43 -23 -80q-10 -29 -30 -41q-18 -12 -33 -12q-6 0 -27 8q-12 6 -26 29q-10 18 -21 59q-8 33 -8 98v728h-240v-738z" />
<glyph unicode="&#x3ba;" horiz-adv-x="1011" d="M94 0h240v430l6 6l258 -350q23 -35 49.5 -57.5t46.5 -34.5q18 -10 43 -14q29 -4 41 -5q29 0 58 15q27 12 57 51q25 31 45 90q18 55 18 135h-55q0 -31 -10 -55q-8 -18 -31 -37q-16 -14 -43 -20q-25 -6 -53 -7q-18 0 -39 7q-14 4 -43 20q-25 14 -41 31q-23 23 -33 37 l-207 293l256 288q6 6 18.5 22.5t20.5 22.5q4 2 11.5 9.5t11.5 9.5q10 6 20 6q31 0 43 -41q0 -9 6 -18q2 -4 9.5 -9.5t9.5 -7.5q8 -8 22.5 -14t32.5 -6q43 0 68 34q25 33 24.5 82.5t-35 80t-90.5 30.5q-57 0 -104 -20.5t-86 -65.5l-305 -338v404h-240v-1004z" />
<glyph unicode="&#x3bb;" horiz-adv-x="1064" d="M29 0h258l229 610l121 -413q20 -63 41 -101q23 -39 53 -69q25 -25 60 -39q31 -12 65 -13q68 0 109 72q43 74 43 219h-54q0 -25 -6 -45q-8 -29 -14 -39q-10 -16 -27 -26q-14 -8 -36.5 -8.5t-41.5 8.5q-25 10 -41 26q-20 20 -34 49q-16 35 -29 78l-279 969q-10 39 -30 78 q-14 29 -45 63q-25 29 -58 43q-31 14 -73 15q-31 0 -68 -17q-35 -16 -57 -47q-20 -27 -37 -82q-14 -45 -15 -112h56q0 41 28 73q29 31 78 31q43 0 78 -41t53 -102l52 -179z" />
<glyph unicode="&#x3bc;" horiz-adv-x="1169" d="M109 -186q0 -61 10 -117q8 -39 31 -78q18 -31 42.5 -43t53.5 -12q49 0 80 33q31 35 30 92q0 33 -10 63q-6 18 -27 55l-36 58q-25 41 -35 65q-18 45 -27 86q-10 55 -10 113q4 -6 16.5 -27.5l18.5 -31.5q18 -28 43 -50q23 -18 59 -32q34 -12 86 -13q53 0 96 19q45 18 80 51 q37 35 64 78q31 51 49 98q12 -70 31 -115q18 -47 47 -75q35 -35 61 -43q37 -12 82 -13q90 0 135 76q47 78 47 219h-59q0 -41 -6 -77q-6 -39 -18.5 -66t-28.5 -47q-14 -16 -33 -17q-16 0 -30.5 8.5t-22.5 28.5q-10 27 -17 58q-6 37 -6 92v754h-237v-492q0 -88 -15 -162 q-16 -82 -43 -145q-27 -61 -65 -105q-37 -41 -80 -41q-27 0 -47 19q-27 23 -39 47q-15 31 -25 68q-8 33 -8 77v734h-237v-1190z" />
<glyph unicode="&#x3bd;" horiz-adv-x="1042" d="M35 778q0 -2 1 -10t1 -14t1 -13.5t1 -9.5l2 -10h57q-2 0 -2 12v27q0 49 17 76q14 25 32.5 24.5t32.5 -20.5q10 -16 33 -70l293 -770h104l332 748l33 83q14 37 14 78q0 10 -4 39q-2 20 -14 37q-14 23 -31 29q-25 10 -53 10q-61 0 -98 -45t-37 -127q0 -29 4 -57 q2 -8 5 -22.5t3 -16.5q2 -8 3 -15.5t3 -15.5q4 -20 4 -35q0 -10 -4 -43q-4 -37 -8 -51q-8 -33 -15 -49q-2 -6 -7 -22.5t-9 -24.5l-88 -205l-201 534q-20 57 -47 97q-27 41 -51 59q-27 20 -57 31q-25 8 -56 8q-59 0 -94 -20q-37 -20 -59 -58q-25 -37 -33 -80q-8 -39 -8 -88z " />
<glyph unicode="&#x3be;" horiz-adv-x="1021" d="M0 1331q0 -45 20 -80q23 -39 54 -63q35 -29 78 -47q47 -20 92 -29q-63 -57 -90 -116.5t-27 -127.5q0 -70 23 -120q18 -45 71 -91q-41 -27 -78 -67q-34 -37 -55 -80q-25 -47 -33 -98q-10 -57 -10 -121q0 -61 18.5 -114.5t57.5 -92.5t106.5 -61.5t157.5 -22.5h188 q23 0 93 -4q47 -2 96 -21q39 -14 72 -43q31 -27 30 -75q0 -57 -51 -88t-158 -31q-35 0 -65 10q-18 6 -51 23q-43 20 -54 24q-35 10 -73 10q-25 0 -52 -10q-25 -10 -41 -28q-16 -20 -24 -39q-10 -25 -10 -45q0 -68 57 -93q59 -27 174 -26q96 0 156 14q66 16 112 41 q39 20 76 62q29 33 45 73q16 45 23 80q6 39 6 82q0 63 -18.5 120.5t-59.5 104.5q-39 45 -102 72q-68 29 -154 29h-178q-89 0 -141 12q-55 12 -82 30.5t-37 45t-10 51.5q0 29 12 63q14 39 28.5 63.5t47.5 53.5q27 23 57 39q12 -6 65 -27q41 -16 82 -26q35 -10 95 -21 q43 -8 94 -8q150 0 219 35q74 37 74 102q0 70 -64 107q-61 35 -186 35q-90 0 -166 -17q-80 -16 -170 -47q-47 27 -78 64q-27 33 -26 86q0 70 24 118q27 51 72 86q22 -6 55 -12q45 -8 72 -12l25.5 -5t27.5 -5t25 -2q53 -4 71 -4q131 0 207 34q74 33 74 103q0 31 -10 51 q-12 25 -35 41q-25 18 -64 29q-41 10 -92 10q-47 0 -102 -10q-53 -10 -92 -27q-66 -29 -88 -41l-84 -53q-35 6 -62 20q-27 16 -45 33q-16 16 -27 41q-8 18 -8 47q0 49 35 76q39 29 96 29q22 0 43 -7q4 -2 16.5 -5t18.5 -5l10 55q-6 2 -16 6.5t-27 8.5q-25 8 -75 8 q-68 0 -119 -12q-41 -10 -88 -37q-35 -20 -56 -51q-18 -27 -18 -60z" />
<glyph unicode="&#x3bf;" horiz-adv-x="1120" d="M55 505.5q0 -104.5 37 -200.5q37 -94 103 -170q65 -74 153 -117q90 -43 193 -43q101 0 190 43t154 117q72 82 104 166q37 95 37 197q0 109 -37 204q-39 100 -98 166q-66 72 -154 115q-84 41 -192 41t-197 -43q-90 -43 -153.5 -112.5t-102.5 -166.5q-37 -92 -37 -196.5z M340 563q0 80 8 144q9 71 31 129q23 61 53 92q35 35 86 35q39 0 68 -21q37 -25 57 -57q31 -47 45 -84q18 -49 31 -105q16 -72 20 -116q6 -61 6 -121q0 -72 -10 -158q-10 -80 -30.5 -137.5t-55.5 -93.5q-34 -37 -80 -37q-57 0 -100 49q-47 53 -72 123q-29 78 -43 170 q-14 88 -14 188z" />
<glyph unicode="&#x3c0;" horiz-adv-x="1241" d="M31 256q0 -145 43 -213t123 -68q68 0 112 29q43 29 66 78q23 51 28 117q6 68 7 145v502h249v-504q0 -100 11 -156q12 -72 39 -114q27 -45 77 -72q45 -25 121 -25q61 0 111 23q47 23 74 63q31 47 41 103q14 72 14 139h-60q0 -49 -10 -94q-8 -37 -26 -70q-12 -23 -35 -41 q-16 -14 -35 -14q-27 0 -41 12.5t-25 40.5q-12 35 -14 74q-4 57 -4 104v531h98q45 0 78 22.5t49 53.5q18 34 25 73q6 41 6 76h-49q-2 -10 -12 -22q-12 -16 -21 -23q-16 -12 -27 -16q-16 -6 -32 -6h-731q-68 0 -113 -25q-46 -25 -74 -61q-27 -35 -39 -82q-12 -45 -12 -88h49 q4 16 12.5 34.5t24.5 30.5q14 12 49 22.5t82 10.5h53v-295q0 -89 -6 -154q-6 -53 -16 -106q-10 -45 -25 -72q-16 -27 -28 -41q-18 -18 -31 -20q-20 -4 -31 -4q-12 0 -29 6q-20 8 -28 16q-10 10 -21 31q-8 16 -8 49h-59z" />
<glyph unicode="&#x3c1;" horiz-adv-x="1120" d="M88 -186q0 -66 10 -117q10 -47 27 -76q18 -29 45 -43q29 -14 59 -14q57 0 92 34.5t35 90.5q0 41 -10 67.5t-24 46.5l-33 45q-12 16 -31 62q-14 37 -25 96q-10 66 -10 146q61 -95 148 -136q88 -41 204.5 -41t204.5 43q89 43 154 117q63 72 96 166q33 92 33 197 q0 113 -33 204q-37 102 -96 168q-66 72 -154 115t-200 43q-111 0 -203 -43q-88 -41 -156 -115q-65 -71 -98 -165q-35 -98 -35 -199v-692zM365 569q0 63 10 146q8 61 33 129q20 55 59 94q35 35 86 35q63 0 109 -45q49 -49 75 -119q33 -86 43 -164q12 -88 13 -180 q0 -90 -9 -158q-8 -70 -32 -139q-20 -59 -57.5 -96t-90.5 -37q-41 0 -76 22q-34 22 -61 62q-27 39 -45 90q-23 68 -33 110q-12 57 -18 125q-6 64 -6 125z" />
<glyph unicode="&#x3c2;" horiz-adv-x="956" d="M70 504q0 -143 28 -242q27 -94 82 -151q53 -57 125 -78q84 -25 162 -25h3q3 0 8 -1t11 -1h39h41h23q27 0 72 -8q37 -6 59 -21q20 -12 39 -43q14 -23 14 -65q0 -35 -14 -57q-12 -20 -39 -39q-20 -14 -51 -25q-25 -8 -51 -8q-37 0 -60 10l-57 25q-28 12 -62 24 q-29 10 -77 11q-31 0 -58 -11q-23 -8 -43 -28q-18 -16 -26 -39q-8 -18 -9 -45q0 -47 50 -82q47 -33 155 -33q106 0 189 29q74 27 135 80q55 49 82 118q29 74 28 152q0 63 -18 119q-18 53 -55 94t-97 65q-53 23 -143 23q-102 0 -188 10q-80 10 -125 35q-47 27 -70 74 q-23 49 -22 123q0 86 20 135q20 51 65.5 79.5t110.5 41.5q55 10 160 10q41 0 57.5 -2t50.5 -2q74 0 119 30q49 33 74 78q27 49 35 101q10 61 10 106h-51q-14 -27 -17 -31q-10 -14 -24 -22q-18 -12 -39 -14q-29 -4 -55 -5q-6 0 -18.5 1t-20.5 1q-12 2 -24.5 2.5t-23 0.5 h-22.5t-22 2q-8 0 -20.5 1t-16.5 1q-55 0 -86 -4q-57 -8 -95 -23q-55 -23 -92 -51q-49 -39 -80 -88q-33 -55 -55 -140q-20 -79 -20 -198z" />
<glyph unicode="&#x3c3;" horiz-adv-x="1120" d="M53 506q0 -102 35 -201q33 -94 96.5 -170t145.5 -117q86 -43 188 -43q113 0 199 43q88 43 145 117q61 78 90 166q31 95 31 197q0 49 -14 116q-12 58 -37 111q-23 47 -60 94q-33 41 -75 68q27 -6 71 -13q41 -6 90 -6q39 0 62 15q27 16 41 43q20 37 24 63q6 37 7 78h-54 q-4 -31 -41 -53q-39 -23 -96 -23q-20 0 -43 2q-8 0 -32.5 3l-41.5 5l-86 7q-16 2 -42.5 5t-34.5 3q-14 2 -48 6q-16 2 -51 2q-106 0 -192 -43q-88 -43 -148 -113q-61 -70 -96 -166q-33 -90 -33 -196zM326 547q0 89 12 166q12 80 33 131q23 59 55 88q34 31 80 31q53 0 94 -41 q39 -39 68 -107q27 -61 39 -151q14 -100 14 -175q0 -86 -10 -178q-10 -90 -29 -143q-22 -61 -55.5 -98t-79.5 -37q-57 0 -96 45q-45 51 -70 119q-29 78 -41 165q-14 109 -14 185z" />
<glyph unicode="&#x3c4;" horiz-adv-x="927" d="M31 748h47q4 27 8 34q4 12 18 31q12 15 31 25q20 10 43 10h17h20h33q6 0 22.5 -1t26.5 -1v-578q0 -70 12 -125q12 -57 39 -92q29 -39 76 -57.5t119 -18.5q59 0 102 19q41 16 68 61q25 39 37 103q12 61 12 145h-49q0 -59 -8 -98q-12 -53 -23 -76q-18 -37 -31 -47 q-20 -16 -35 -16q-20 0 -34 8q-16 10 -25 32q-8 20 -14 70q-6 46 -6 123v539q37 -2 86 -2h49q47 0 82 22q29 18 51 60q16 31 26 73q8 35 9 78h-47q-4 -16 -9 -25q-6 -12 -16 -22t-26.5 -16.5t-43.5 -6.5h-51q-12 0 -39.5 2.5t-44.5 2.5q-14 0 -48 1t-52.5 1t-51 1t-46.5 1 q-16 0 -44 2t-40 2h-54q-49 0 -84 -21q-41 -23 -61 -55q-29 -43 -39 -84q-12 -49 -12 -104z" />
<glyph unicode="&#x3c5;" horiz-adv-x="1120" d="M33 745h49q0 51 10 93q8 31 27 57q14 18 33 29q16 8 32 8q12 0 24.5 -6t23 -22.5t16.5 -45.5q6 -27 6 -76v-481q0 -76 20 -131q23 -59 62 -102q41 -45 102 -68q66 -25 150 -25q88 0 155 31q63 29 115 86q49 55 80 127q41 92 53 150q16 72 27 161q8 74 8 158 q0 109 -16 180q-16 68 -39 101q-27 35 -58 45q-35 10 -65 10q-66 0 -98.5 -39t-32.5 -106q0 -39 10 -80q6 -25 27 -70q10 -23 34 -63q12 -20 33 -65.5t27 -72.5q10 -45 10 -88q0 -68 -14 -149q-14 -78 -39 -129q-27 -55 -70 -88q-41 -33 -98 -33q-72 0 -107 72 q-37 74 -36 196v441q0 72 -17 114q-18 49 -49 86q-33 39 -72 56q-43 18 -92 18q-45 0 -88 -12q-41 -12 -73.5 -45t-51.5 -86q-18 -53 -18 -136z" />
<glyph unicode="&#x3c6;" horiz-adv-x="1325" d="M59 559q0 -141 41 -235q43 -100 113 -166q70 -68 164 -105q92 -37 198 -49v-393h240v393q115 14 199 61.5t135 118.5q53 76 78 172q25 98 24 222q0 121 -28 210q-29 92 -72 140q-47 53 -102 73q-61 23 -115 23q-84 0 -148 -33q-70 -37 -112 -96q-51 -72 -74 -158 q-25 -92 -25 -215v-444q-57 10 -100 32.5t-82 77.5q-35 49 -57 142q-20 84 -21 233q0 102 11 162q12 74 32 119q22 49 50 74q31 27 63 26q39 0 61 -22q25 -25 48 -64l43 47q-12 29 -33 49q-29 29 -47.5 39.5t-59.5 22.5q-27 8 -65 8q-58 0 -123 -25q-57 -23 -115 -81 q-55 -59 -88 -144q-33 -86 -33 -215zM815 76v631q0 63 10.5 114t26.5 78t45 41t57 14q23 0 56 -16q31 -14 55 -59q25 -43 43 -119t18 -195q0 -100 -14 -166q-18 -82 -37 -123q-25 -52 -55 -86q-33 -37 -66 -57q-45 -29 -69.5 -37t-69.5 -20z" />
<glyph unicode="&#x3c7;" horiz-adv-x="1036" d="M2 -389h268l277 528l129 -327q33 -78 49 -113q25 -47 43 -70q25 -29 43 -35q23 -8 57 -8q41 0 66 27q27 29 41 72q20 55 24 98q6 55 7 111h-45q0 -20 -6.5 -45t-20.5 -46q-18 -25 -35 -34q-23 -12 -45 -13q-16 0 -35 13q-14 10 -33 34q-14 18 -30 54q-10 20 -27 65 l-125 326l400 756h-269l-243 -465l-91 237q-29 72 -53 119q-27 51 -49 76q-25 27 -55 41q-28 12 -62 12q-45 0 -76 -31q-27 -27 -47 -78q-18 -46 -24 -98q-6 -57 -4 -98h45q0 20 10 45q9 22 25 43q12 18 39 33q23 12 45 12q27 0 47 -12.5t39 -36.5q25 -33 34 -55 q15 -34 31 -74l90 -242z" />
<glyph unicode="&#x3c8;" horiz-adv-x="1382" d="M29 745h49q0 57 8 91q10 39 25 59q18 27 30 33q20 10 33 10q18 0 29 -18q12 -23 16 -46q6 -27 6 -63q0 -12 1 -35.5t1 -36.5q0 -68 -6 -141.5t-6 -163.5t29 -172q29 -80 82 -137q59 -61 133 -96q80 -37 180 -43l-12 -254q-2 -72 28 -117q33 -45 99 -45q63 0 98 45 q34 43 31 117v2q0 2 -1 5t-1 8v11q-2 25 -4 64q0 12 -1.5 37.5t-3.5 38.5v33.5t-2 29.5l-2 29q98 6 174 59q80 55 137.5 143.5t92.5 210.5q33 117 33 256q0 119 -15 185q-15 71 -37 110q-20 39 -51 56q-27 14 -57 14q-35 0 -64 -12q-27 -12 -43 -30.5t-26 -51.5 q-8 -25 -8 -62q0 -41 8 -67q8 -29 20 -56q16 -37 27 -53q6 -10 24 -55q10 -25 21 -68q8 -33 8 -86q0 -94 -18 -168q-18 -76 -52 -129q-35 -57 -77.5 -85.5t-102.5 -39.5l-55 1323q-4 43 -14 60q-14 20 -33 20t-35 -20q-12 -16 -16 -60l-60 -1323q-61 6 -100 35t-57 76 q-16 39 -23 107q-6 61 -6 133q0 58 6 123q4 43 4 122q0 78 -16 150q-14 61 -45 117q-25 45 -68 73q-39 27 -84 27q-41 0 -88 -10q-43 -9 -74 -37q-33 -29 -51 -86q-18 -56 -18 -146z" />
<glyph unicode="&#x3c9;" horiz-adv-x="1466" d="M51 483q0 -115 27 -202q29 -98 76 -162q51 -72 118 -107q72 -37 156 -37q78 0 123 15q49 15 80 43q29 27 51 67q18 37 39 88h10q20 -51 39 -88q23 -43 53 -67q35 -29 82 -43q45 -14 121 -15q84 0 156 37q68 35 118 107q47 63 76 162q27 88 27 202q0 126 -37 222 q-35 92 -102 161q-66 70 -144 107q-84 41 -168 55l-10 -41q58 -31 98 -86q39 -53 64 -119q23 -59 33 -137t10 -129q0 -132 -19 -221q-18 -86 -46.5 -141.5t-61.5 -75.5q-35 -23 -62 -23q-31 0 -57 17q-23 14 -43 41q-18 25 -35 57q-14 27 -24 63q-12 41 -15 60q-4 37 -4 43 q0 27 13 57l26 72q12 31 27 86q12 47 12 106q0 100 -39 150q-37 47 -94 47q-25 0 -49.5 -12.5t-42.5 -36.5q-20 -27 -29 -62q-10 -41 -10 -86q0 -63 12 -110q10 -43 29 -84l27 -70q12 -31 12 -57q0 -8 -4 -45q-2 -18 -15 -60q-9 -31 -24 -61q-23 -47 -33 -57 q-23 -25 -47 -41q-27 -16 -57 -17q-33 0 -68 23q-29 18 -59 76q-28 52 -43 141q-16 94 -17 221q0 70 8 129q10 74 29 129q20 63 61 118.5t103 94.5l-10 41q-80 -18 -158 -57q-82 -41 -145.5 -104.5t-104.5 -161.5q-39 -93 -39 -222z" />
<glyph unicode="&#x3ca;" horiz-adv-x="694" d="M137 266q0 -145 64 -217q66 -74 184 -74q53 0 98 17q43 16 74 57q31 43 49 115q16 63 17 182h-70q0 -84 -8 -131q-8 -43 -23 -80q-10 -29 -30 -41q-18 -12 -33 -12q-6 0 -27 8q-12 6 -26 29q-10 18 -21 59q-8 33 -8 98v728h-240v-738zM-139 1262q0 -29 12 -58 q12 -27 33 -47q18 -18 51 -33q29 -12 64 -12q39 0 65.5 12.5t49.5 34.5q22 22 30 49q10 31 10 56q0 33 -10 63q-9 28 -30 49q-16 16 -50 31q-27 12 -63 12q-39 0 -69.5 -12t-51.5 -33q-22 -22 -31 -49q-10 -30 -10 -63zM328 1262q0 -29 12 -58q12 -27 33 -47q18 -18 51 -33 q29 -12 64 -12q39 0 65.5 12.5t48.5 34.5t31 49q10 31 10 56q0 33 -10 63q-8 23 -31 49q-14 16 -47 31q-29 12 -65 12q-39 0 -70 -12t-51 -33q-22 -22 -31 -49q-10 -30 -10 -63z" />
<glyph unicode="&#x3cb;" horiz-adv-x="1120" d="M33 745h49q0 51 10 93q8 31 27 57q14 18 33 29q16 8 32 8q12 0 24.5 -6t23 -22.5t16.5 -45.5q6 -27 6 -76v-481q0 -76 20 -131q23 -59 62 -102q41 -45 102 -68q66 -25 150 -25q88 0 155 31q63 29 115 86q49 55 80 127q41 92 53 150q16 72 27 161q8 74 8 158 q0 109 -16 180q-16 68 -39 101q-27 35 -58 45q-35 10 -65 10q-66 0 -98.5 -39t-32.5 -106q0 -39 10 -80q6 -25 27 -70q10 -23 34 -63q12 -20 33 -65.5t27 -72.5q10 -45 10 -88q0 -68 -14 -149q-14 -78 -39 -129q-27 -55 -70 -88q-41 -33 -98 -33q-72 0 -107 72 q-37 74 -36 196v441q0 72 -17 114q-18 49 -49 86q-33 39 -72 56q-43 18 -92 18q-45 0 -88 -12q-41 -12 -73.5 -45t-51.5 -86q-18 -53 -18 -136zM201 1262q0 -29 12 -58q12 -27 33 -47q18 -18 51 -33q29 -12 64 -12q39 0 65.5 12.5t49.5 34.5q22 22 30 49q10 31 10 56 q0 33 -10 63q-9 28 -30 49q-16 16 -50 31q-27 12 -63 12q-39 0 -69.5 -12t-51.5 -33q-22 -22 -31 -49q-10 -30 -10 -63zM668 1262q0 -29 12 -58q12 -27 33 -47q18 -18 51 -33q29 -12 64 -12q39 0 65.5 12.5t48.5 34.5t31 49q10 31 10 56q0 33 -10 63q-8 23 -31 49 q-14 16 -47 31q-29 12 -65 12q-39 0 -70 -12t-51 -33q-22 -22 -31 -49q-10 -30 -10 -63z" />
<glyph unicode="&#x3cc;" horiz-adv-x="1120" d="M55 505.5q0 -104.5 37 -200.5q37 -94 103 -170q65 -74 153 -117q90 -43 193 -43q101 0 190 43t154 117q72 82 104 166q37 95 37 197q0 109 -37 204q-39 100 -98 166q-66 72 -154 115q-84 41 -192 41t-197 -43q-90 -43 -153.5 -112.5t-102.5 -166.5q-37 -92 -37 -196.5z M340 563q0 80 8 144q9 71 31 129q23 61 53 92q35 35 86 35q39 0 68 -21q37 -25 57 -57q31 -47 45 -84q18 -49 31 -105q16 -72 20 -116q6 -61 6 -121q0 -72 -10 -158q-10 -80 -30.5 -137.5t-55.5 -93.5q-34 -37 -80 -37q-57 0 -100 49q-47 53 -72 123q-29 78 -43 170 q-14 88 -14 188zM502 1108h86l176 365q14 29 15 59q0 29 -11 45q-12 18 -34 31q-20 12 -52 12q-53 0 -96 -33q-39 -31 -45 -82z" />
<glyph unicode="&#x3cd;" horiz-adv-x="1120" d="M33 745h49q0 51 10 93q8 31 27 57q14 18 33 29q16 8 32 8q12 0 24.5 -6t23 -22.5t16.5 -45.5q6 -27 6 -76v-481q0 -76 20 -131q23 -59 62 -102q41 -45 102 -68q66 -25 150 -25q88 0 155 31q63 29 115 86q49 55 80 127q41 92 53 150q16 72 27 161q8 74 8 158 q0 109 -16 180q-16 68 -39 101q-27 35 -58 45q-35 10 -65 10q-66 0 -98.5 -39t-32.5 -106q0 -39 10 -80q6 -25 27 -70q10 -23 34 -63q12 -20 33 -65.5t27 -72.5q10 -45 10 -88q0 -68 -14 -149q-14 -78 -39 -129q-27 -55 -70 -88q-41 -33 -98 -33q-72 0 -107 72 q-37 74 -36 196v441q0 72 -17 114q-18 49 -49 86q-33 39 -72 56q-43 18 -92 18q-45 0 -88 -12q-41 -12 -73.5 -45t-51.5 -86q-18 -53 -18 -136zM567 1108h86l176 365q14 29 15 59q0 29 -11 45q-12 18 -34 31q-20 12 -52 12q-53 0 -96 -33q-39 -31 -45 -82z" />
<glyph unicode="&#x3ce;" horiz-adv-x="1466" d="M51 483q0 -115 27 -202q29 -98 76 -162q51 -72 118 -107q72 -37 156 -37q78 0 123 15q49 15 80 43q29 27 51 67q18 37 39 88h10q20 -51 39 -88q23 -43 53 -67q35 -29 82 -43q45 -14 121 -15q84 0 156 37q68 35 118 107q47 63 76 162q27 88 27 202q0 126 -37 222 q-35 92 -102 161q-66 70 -144 107q-84 41 -168 55l-10 -41q58 -31 98 -86q39 -53 64 -119q23 -59 33 -137t10 -129q0 -132 -19 -221q-18 -86 -46.5 -141.5t-61.5 -75.5q-35 -23 -62 -23q-31 0 -57 17q-23 14 -43 41q-18 25 -35 57q-14 27 -24 63q-12 41 -15 60q-4 37 -4 43 q0 27 13 57l26 72q12 31 27 86q12 47 12 106q0 100 -39 150q-37 47 -94 47q-25 0 -49.5 -12.5t-42.5 -36.5q-20 -27 -29 -62q-10 -41 -10 -86q0 -63 12 -110q10 -43 29 -84l27 -70q12 -31 12 -57q0 -8 -4 -45q-2 -18 -15 -60q-9 -31 -24 -61q-23 -47 -33 -57 q-23 -25 -47 -41q-27 -16 -57 -17q-33 0 -68 23q-29 18 -59 76q-28 52 -43 141q-16 94 -17 221q0 70 8 129q10 74 29 129q20 63 61 118.5t103 94.5l-10 41q-80 -18 -158 -57q-82 -41 -145.5 -104.5t-104.5 -161.5q-39 -93 -39 -222zM682 1108h86l176 365q14 29 15 59 q0 29 -11 45q-12 18 -34 31q-20 12 -52 12q-53 0 -96 -33q-39 -31 -45 -82z" />
<glyph unicode="&#x3d0;" horiz-adv-x="1024" d="M43 743q0 -59 10 -155q8 -82 31 -170q23 -90 57 -166q39 -82 88 -141q51 -61 127 -99q74 -37 166 -37q113 0 195 35q88 39 141 96q57 63 84 142q29 82 29 166q0 98 -33 176q-37 86 -84 139q-49 55 -121 94q-61 33 -133 43q131 55 198.5 137t67.5 183q0 59 -24 112 q-27 57 -68 93q-49 43 -110 63q-68 23 -150 23q-119 0 -207 -58q-90 -59 -147 -155q-61 -104 -88 -234q-29 -140 -29 -287zM326 774q33 8 84 19q41 8 92 8q23 0 51 -21q27 -18 59 -67q29 -43 51.5 -123t22.5 -187q0 -178 -49 -270t-131 -92q-51 0 -84 39t-55 127 q-20 84 -31 227q-10 154 -10 340zM328 858q4 164 16 252q15 104 37 172q20 68 51 100q28 31 62 31q27 0 47 -14q18 -14 38.5 -47t28.5 -80q10 -55 10 -121q0 -63 -26 -117q-25 -47 -68 -82q-49 -39 -94 -57q-57 -25 -102 -37z" />
<glyph unicode="&#x3d1;" horiz-adv-x="1153" d="M39 745h45q0 59 4 80q2 14 14 49q6 18 17 25q12 8 16 8q23 0 29 -30q4 -20 4 -103q0 -12 -1 -32.5t-1 -28.5t-1 -28.5t-1 -31t-1 -34t-1 -35.5q0 -10 -1 -41t-1 -49q0 -96 28 -193q29 -94 82 -166q57 -76 133 -117q80 -43 185 -43q92 0 174 50q78 47 143 147 q61 96 99 236q35 133 34 319v25q23 14 43 41q23 31 33 57q12 35 19 72q6 41 6 82h-45q0 -61 -15 -99q-14 -39 -43 -57q-6 129 -24 223q-18 95 -49 166t-68 117q-35 45 -78 73q-37 27 -80 39q-33 10 -71 11q-47 0 -88 -27q-35 -23 -62 -70q-25 -43 -37 -102q-12 -57 -12 -127 t22 -147q20 -68 64 -132q41 -59 94 -98t121 -45v-10v-160q0 -80 -6 -156q-8 -96 -17 -141q-12 -68 -30 -115q-18 -49 -47 -77.5t-68 -28.5q-45 0 -72 20q-25 20 -49 58q-16 25 -30 80q-12 47 -19 94q-4 35 -8 96q-2 33 -2 92q0 23 1 57.5t1 47.5q0 14 1 37.5t1 31.5 q0 10 1 27.5t1 24.5v51q0 76 -16 131q-14 49 -41 82q-23 27 -60 41q-35 12 -73 12q-51 0 -88 -12.5t-62 -42.5q-23 -27 -35 -86q-12 -56 -12 -138zM584 1153q0 65 6 104q6 47 14 66q8 23 24.5 33t33.5 10q18 0 36 -29q16 -25 33 -94q14 -63 25 -172q9 -104 12 -258 q-37 6 -68 35q-37 33 -59 76q-25 47 -41 106q-16 62 -16 123z" />
<glyph unicode="&#x3d2;" horiz-adv-x="1652" d="M41 1331q39 0 82 -14q33 -10 63.5 -35t49.5 -45l34 -47l424 -612v-418q0 -37 -16 -56q-20 -25 -45 -34q-29 -12 -60 -19q-34 -6 -67 -6v-45h674v45q-34 0 -68 6t-61 19q-25 10 -45 34q-16 18 -17 56v422l244 522q22 49 43 86q25 43 43 63q25 27 47 39q25 12 51 13 q39 0 61.5 -16.5t22.5 -47.5q0 -27 -20 -41q-14 -8 -58 -22q-16 -6 -32 -19q-10 -8 -23 -29q-8 -12 -14 -32q-6 -18 -6 -31q0 -10 8 -30.5t20 -30.5q20 -16 35 -23q18 -8 49 -8q39 0 66 18q33 20 49 47t27 64q10 41 10 74q0 66 -17 110q-14 41 -45 68q-29 25 -69 35 q-45 10 -88 10q-88 0 -160 -60q-66 -53 -121 -167l-205 -429l-301 445q-20 27 -24 55q-4 25 10 45q12 18 45 31q29 10 86 10v45h-682v-45z" />
<glyph unicode="&#x3d3;" horiz-adv-x="2109" d="M422 1331q39 0 82 -14q33 -10 63.5 -35t49.5 -45l34 -47l424 -612v-418q0 -37 -16 -56q-20 -25 -45 -34q-29 -12 -60 -19q-34 -6 -67 -6v-45h674v45q-34 0 -68 6t-61 19q-25 10 -45 34q-16 18 -17 56v422l244 522q22 49 43 86q25 43 43 63q25 27 47 39q25 12 51 13 q39 0 61.5 -16.5t22.5 -47.5q0 -27 -20 -41q-14 -8 -58 -22q-16 -6 -32 -19q-10 -8 -23 -29q-8 -12 -14 -32q-6 -18 -6 -31q0 -10 8 -30.5t20 -30.5q20 -16 35 -23q18 -8 49 -8q39 0 66 18q33 20 49 47t27 64q10 41 10 74q0 66 -17 110q-14 41 -45 68q-29 25 -69 35 q-45 10 -88 10q-88 0 -160 -60q-66 -53 -121 -167l-205 -429l-301 445q-20 27 -24 55q-4 25 10 45q12 18 45 31q29 10 86 10v45h-682v-45zM149 1108h86l176 365q14 29 15 59q0 29 -11 45q-12 18 -34 31q-20 12 -52 12q-53 0 -96 -33q-39 -31 -45 -82z" />
<glyph unicode="&#x3d4;" horiz-adv-x="1652" d="M41 1331q39 0 82 -14q33 -10 63.5 -35t49.5 -45l34 -47l424 -612v-418q0 -37 -16 -56q-20 -25 -45 -34q-29 -12 -60 -19q-34 -6 -67 -6v-45h674v45q-34 0 -68 6t-61 19q-25 10 -45 34q-16 18 -17 56v422l244 522q22 49 43 86q25 43 43 63q25 27 47 39q25 12 51 13 q39 0 61.5 -16.5t22.5 -47.5q0 -27 -20 -41q-14 -8 -58 -22q-16 -6 -32 -19q-10 -8 -23 -29q-8 -12 -14 -32q-6 -18 -6 -31q0 -10 8 -30.5t20 -30.5q20 -16 35 -23q18 -8 49 -8q39 0 66 18q33 20 49 47t27 64q10 41 10 74q0 66 -17 110q-14 41 -45 68q-29 25 -69 35 q-45 10 -88 10q-88 0 -160 -60q-66 -53 -121 -167l-205 -429l-301 445q-20 27 -24 55q-4 25 10 45q12 18 45 31q29 10 86 10v45h-682v-45zM450 1622q0 -29 12 -58q12 -27 33 -47q18 -18 51 -33q29 -12 64 -12q39 0 65.5 12.5t49.5 34.5q22 22 30 49q10 31 10 56q0 33 -10 63 q-9 28 -30 49q-16 16 -50 31q-27 12 -63 12q-39 0 -69.5 -12t-51.5 -33q-22 -22 -31 -49q-10 -30 -10 -63zM917 1622q0 -29 12 -58q12 -27 33 -47q18 -18 51 -33q29 -12 64 -12q39 0 65.5 12.5t48.5 34.5t31 49q10 31 10 56q0 33 -10 63q-8 23 -31 49q-14 16 -47 31 q-29 12 -65 12q-39 0 -70 -12t-51 -33q-22 -22 -31 -49q-10 -30 -10 -63z" />
<glyph unicode="&#x3d5;" horiz-adv-x="1345" d="M57 512q0 -113 35 -207q35 -96 98 -162q66 -70 152 -110q84 -41 201 -53l-11 -244q-4 -86 27 -125q31 -41 98.5 -41t96.5 41q29 43 26 125l-8 244q104 8 203 51q88 39 155 108q68 72 101 162q35 98 35 211q0 121 -41 219q-39 94 -113 158q-70 61 -172 96q-94 33 -217 39 l-12 340q-4 47 -15 72q-12 29 -34.5 28.5t-38.5 -28.5q-14 -27 -15 -72l-12 -340q-113 -6 -215 -41q-100 -35 -170 -98q-74 -68 -113 -158q-41 -94 -41 -215zM317 512q0 90 23 170q18 68 61 131q37 55 88 90q47 33 103 45l-43 -893q-53 18 -96 56q-39 33 -72 92 q-33 57 -47 133q-17 82 -17 176zM727 948q51 -12 102 -47q47 -33 86 -90q43 -63 62 -131q23 -80 22 -168q0 -90 -16 -172t-45 -133q-33 -59 -74 -94t-94 -58z" />
<glyph unicode="&#x3d6;" horiz-adv-x="1527" d="M-51 745h53q2 4 5 14.5t5 14.5q4 16 22.5 32.5t45.5 27.5q31 10 80 10h63q-55 -51 -98 -150q-39 -86 -39 -211q0 -115 27 -202q29 -98 75 -162q53 -74 117 -107q72 -37 158 -37q78 0 123 15q49 15 80 43q35 31 51 67q20 45 37 88h12q20 -51 39 -88q23 -43 53 -67 q35 -29 82 -43q45 -14 121 -15q86 0 156 37q68 35 118 107q47 63 76 162q27 88 27 202q0 121 -37 219q-37 96 -101 164q-61 63 -147 103q-78 35 -172 35h-782q-55 0 -100.5 -18.5t-78.5 -51.5q-37 -37 -53 -82q-18 -50 -18 -107zM342 516q0 78 16 143q12 53 45 103 q27 41 68 63q39 20 88 21h402q104 0 161.5 -82t57.5 -248q0 -132 -19 -221q-18 -86 -47 -141.5t-61 -75.5q-35 -23 -62 -23q-33 0 -55 15q-33 20 -45 34q-20 25 -35 50q-6 10 -22 55q-12 33 -15 47q-4 29 -4 35q0 33 12 63l27 62q6 10 25 69q12 37 12 86q0 89 -37 136 t-94 47q-25 0 -49 -13q-23 -12 -43 -34q-18 -23 -29 -58q-10 -37 -10 -78q0 -51 12 -88q16 -49 27 -69q6 -12 15 -35t11 -27q12 -28 13 -61q0 -6 -5 -35q-2 -18 -14 -49q-14 -39 -22 -53q-18 -33 -35 -50q-18 -18 -45 -34q-23 -14 -58 -15q-33 0 -67 23q-29 18 -60 76 q-28 52 -43 141q-16 94 -16 221z" />
<glyph unicode="&#x3d7;" horiz-adv-x="1093" d="M23 700h45q0 20 6 47t18 52q10 23 35 39q23 16 55 16q35 0 58 -37q25 -43 32 -94q8 -57 13 -137q2 -51 2 -158q-66 -66 -101 -115q-43 -59 -59 -94q-20 -41 -27 -76q-8 -45 -8 -59q0 -47 33 -80q29 -29 100 -29q37 0 66 23q27 20 47 61q23 45 33 84q12 46 18 93 q23 31 60 67l65 68q2 2 64 59l57 49q-2 -25 -2 -76q0 -14 -1 -36.5t-1 -28.5q0 -100 12 -168t34.5 -113t53.5 -63.5t72 -18.5q6 0 14 1t12 1q8 0 25 5q-39 -63 -84 -98.5t-94 -35.5q-27 0 -41 15q-20 20 -31 33q-12 16 -37 32q-20 14 -59 15q-57 0 -86 -29q-31 -31 -31 -72 q0 -25 10 -51q8 -23 33 -43q23 -20 55 -29q37 -10 78 -10q70 0 129 27q61 29 109 71q49 46 86 105q41 63 63 125q29 74 39 133q12 68 13 129h-52q-4 -31 -8 -43q-8 -29 -18 -51.5t-33 -40.5q-18 -16 -49 -16.5t-51.5 22.5t-32.5 63.5t-19 88.5q-4 33 -4 98v51v37q0 4 1 14 t1 15q0 20 2 32q63 72 88 105q27 35 54 86q18 33 28 76q8 33 9 71q0 47 -25 82t-78 35q-37 0 -67.5 -18.5t-55.5 -55.5q-25 -35 -39 -90q-18 -63 -20 -125l-119 -104q-72 -61 -129 -119q2 12 2 39v47q0 117 -12 197q-12 78 -37 131q-23 49 -59 75q-31 23 -76 23 q-49 0 -84 -23q-37 -25 -57 -63q-25 -49 -33 -102q-10 -68 -10 -136z" />
<glyph unicode="&#x3da;" horiz-adv-x="1198" d="M59 690q0 -199 41 -321q43 -131 127 -211q80 -78 213 -119q129 -39 305 -49q59 -4 91 -8q45 -6 69 -21q33 -18 45 -41q14 -27 15 -74q0 -20 -7 -39q-8 -20 -20 -34q-16 -16 -35 -25q-25 -10 -49 -10q-37 0 -70 14q-29 12 -57 29q-37 20 -57 29q-35 14 -78 14 q-37 0 -55 -10q-25 -14 -37 -29q-16 -20 -23 -43q-6 -25 -6 -47q0 -29 16 -51q18 -25 45 -39q31 -14 72 -25q35 -8 90 -8q70 0 135 27q74 31 125 75q55 49 93 119q37 71 36 160q0 78 -34 131q-35 55 -88 84q-59 33 -119 47q-57 14 -129 21q-92 8 -201 38q-96 27 -172 82 q-80 57 -123 136q-47 84 -47 202q0 104 33 183q33 76 96 133q59 53 150 82q92 29 198 28h291q20 0 39 -6q10 -4 31 -24q12 -12 26 -46q12 -27 25 -71h43l-55 403h-429q-55 0 -116 -12q-66 -12 -125 -43q-61 -31 -119 -82q-63 -55 -102 -127q-41 -74 -70 -180 q-27 -101 -27 -242z" />
<glyph unicode="&#x3db;" horiz-adv-x="956" d="M70 504q0 -151 30 -246q31 -96 86 -152q57 -57 129 -77q78 -23 166 -23h111q27 0 72 -8q37 -6 59 -21q20 -12 39 -43q14 -23 14 -65q0 -35 -14 -57q-12 -20 -39 -39q-20 -14 -51 -25q-25 -8 -51 -8q-37 0 -60 10l-57 25q-28 12 -62 24q-29 10 -77 11q-31 0 -58 -11 q-23 -8 -43 -28q-18 -16 -26 -39q-8 -18 -9 -45q0 -47 50 -82q47 -33 155 -33q106 0 189 29q74 27 135 80q55 49 82 118q29 74 28 152q0 63 -18 119q-18 53 -55 94t-97 65q-53 23 -143 23q-102 0 -188 10q-80 10 -125 35q-47 27 -70 74q-23 49 -22 123q0 86 20 135 q20 51 65.5 79.5t110.5 41.5q55 10 160 10q8 8 31 8h53q39 0 59 -2q8 0 24.5 -1t22.5 -3l19 -2q12 0 33 -8q16 -6 28 -23q14 -18 27 -45q14 -33 24 -66h31l-47 386h-313q-25 0 -86 -5q-49 -4 -93 -20q-53 -20 -94 -51q-43 -33 -78 -88q-37 -61 -57 -138q-20 -79 -20 -198z " />
<glyph unicode="&#x3dc;" horiz-adv-x="1206" d="M68 0h673v45q-34 0 -67 6q-29 4 -60 23q-27 14 -45 39q-16 23 -16 57v514h188q55 0 90 -22q29 -18 52 -56q20 -33 22 -65q4 -45 4 -54h49v289h-405v443q0 43 22 59q20 14 62 14h207q59 0 100 -22q39 -20 68 -60q25 -33 45 -88q14 -39 33 -104h45l-23 358h-1044v-45 q47 0 84 -6q33 -6 59 -25q23 -16 35 -43q10 -23 10 -69v-1018q0 -35 -16 -57q-18 -25 -45 -39q-31 -18 -60 -23q-34 -6 -67 -6v-45z" />
<glyph unicode="&#x3dd;" horiz-adv-x="923" d="M98 -389h240v883h129q47 0 73.5 -14.5t41.5 -37.5q15 -25 18 -55q0 -10 3 -30.5t5 -32.5h49v254h-319v182q0 51 8 78q8 29 28.5 49t51.5 26.5t76 6.5h112q37 0 60 -9q27 -10 41 -30q18 -27 26 -54q8 -29 19 -77h57l-31 254h-342q-63 0 -118 -17q-66 -20 -111 -53 q-49 -37 -84 -96q-33 -57 -33 -142v-1085z" />
<glyph unicode="&#x3de;" horiz-adv-x="1021" d="M25 567h759l-227 -592h117l323 838h-757l225 588h-117z" />
<glyph unicode="&#x3df;" horiz-adv-x="1003" d="M61 629h709l-248 -654h88l332 836h-711l248 666h-88z" />
<glyph unicode="&#x3e0;" horiz-adv-x="1497" d="M137 391q-8 -14 4 -20q14 -8 43 -11q20 -2 84 -2l791 680q2 -4 8 -22.5t8 -22.5l-770 -833q-63 -68 -98 -90q-37 -25 -45 -25v-45h332v45q-35 0 -55.5 6t-26.5 18.5t0 28.5q4 10 26 37l668 729q18 -82 18 -174q0 -160 -30 -276q-33 -123 -80 -193q-53 -78 -117 -115 q-66 -37 -139 -36q-16 0 -23 -15q-8 -20 -8 -32.5t8 -32.5q6 -14 23 -15q120 0 221 31q98 31 178 82q82 53 139 123q55 66 97 149q39 76 57 166q20 96 20 168q0 84 -20 166t-61 164q-39 78 -103 147q-61 68 -139 119q-76 49 -180 82q-92 29 -217 29q-90 0 -160 -15 q-76 -16 -131 -38q-72 -31 -107 -52q-45 -27 -82 -57.5t-55 -50.5q-18 -23 -33 -39q-12 -16 -8 -31q2 -10 19 -20q20 -12 34.5 -14.5t42.5 -2.5q16 0 41 9q18 6 29 20q14 23 18 27q20 25 37 41q25 25 56 49q25 18 75 45q41 20 95 33q61 14 114 14q83 0 154 -49 q68 -47 121 -131l-840 -713q-27 -25 -33 -35z" />
<glyph unicode="&#x3e1;" d="M104 514l21 -102l563 544q6 -109 6 -223l-495 -479l26 -104l467 452q-4 -156 -18 -262q-16 -109 -37 -176q-20 -66 -55 -101q-31 -31 -68 -30q-10 0 -12 -8q-4 -12 -4 -20.5t4 -20.5q2 -8 12 -9q45 0 94 15q43 12 103 51q47 31 98 92q43 51 82 139q35 80 57 193 q23 117 23 252q0 154 -21 262q-23 121 -53 199q-29 74 -82 141q-41 51 -98 92q-49 35 -111 51q-55 14 -112 15q-74 0 -134 -27q-49 -23 -108 -74q-45 -39 -82 -100.5t-51 -110.5q-6 -14 8 -26q15 -12 37 -19q14 -4 41 0q18 2 24 23q20 66 41 108q20 45 58 88 q31 37 69.5 59.5t79.5 22.5q35 0 66 -18q35 -20 57 -57q23 -35 45 -109q20 -61 33 -166z" />
<glyph unicode="&#x3f0;" horiz-adv-x="1093" d="M23 700h45q0 20 6 47t18 52q10 23 35 39q23 16 55 16q35 0 58 -37q25 -43 32 -94q8 -57 13 -137q2 -51 2 -158q-66 -66 -101 -115q-43 -59 -59 -94q-20 -41 -27 -76q-8 -45 -8 -59q0 -47 33 -80q29 -29 100 -29q37 0 66 23q27 20 47 61q23 45 33 84q12 46 18 93 q23 31 60 67l65 68q2 2 64 59l57 49q-2 -25 -2 -76q0 -14 -1 -36.5t-1 -28.5q0 -100 12 -168t34.5 -113t53.5 -63.5t72 -18.5q55 0 96 23q37 20 64 65q25 41 32 103q10 68 11 133h-52q-4 -31 -8 -43q-8 -29 -18 -51.5t-33 -40.5q-18 -16 -49 -16.5t-51.5 22.5t-32.5 63.5 t-19 88.5q-4 33 -4 98v51v37q0 4 1 14t1 15q0 20 2 32q63 72 88 105q27 35 54 86q18 33 28 76q8 33 9 71q0 47 -25 82t-78 35q-37 0 -67.5 -18.5t-55.5 -55.5q-25 -35 -39 -90q-18 -63 -20 -125l-119 -104q-72 -61 -129 -119q2 12 2 39v47q0 117 -12 197q-12 78 -37 131 q-23 49 -59 75q-31 23 -76 23q-49 0 -84 -23q-37 -25 -57 -63q-25 -49 -33 -102q-10 -68 -10 -136z" />
<glyph unicode="&#x3f1;" horiz-adv-x="1120" d="M88 406q0 -72 4 -179q3 -80 12 -141q12 -78 23 -113q14 -43 36.5 -90t51.5 -80q41 -49 67.5 -75.5t63.5 -40.5q49 -18 92 -27q53 -10 115 -12q129 -6 137 -6q33 0 70 -4q18 -2 47 -17q20 -10 31 -27q12 -18 24 -43h45l2 11q4 16 4 43q0 41 -16 86t-47 76q-37 37 -90 57 q-57 23 -137 29q-92 6 -142 14q-51 8 -98 22q-35 10 -63.5 29t-45.5 37q-20 20 -38 51q-14 27 -29 66q-12 37 -19 75q-6 41 -6 78q25 -51 58 -94q37 -49 77 -80q47 -35 108.5 -55.5t149.5 -20.5q104 0 191 39q96 43 156 109q66 72 102 166q39 100 39 209q0 119 -37 217 q-35 94 -102 168q-63 70 -154 106q-94 39 -190 39q-102 0 -195 -41q-96 -43 -156 -108q-66 -72 -102 -166q-39 -100 -39 -207v-100zM365 569q0 63 10 146q8 61 33 129q20 55 59 94q35 35 86 35q63 0 109 -45q49 -49 75 -119q33 -86 43 -164q12 -88 13 -180q0 -90 -9 -158 q-8 -70 -32 -139q-20 -59 -57.5 -96t-90.5 -37q-41 0 -76 22q-34 22 -61 62q-27 39 -45 90q-23 68 -33 110q-12 57 -18 125q-6 64 -6 125z" />
<glyph unicode="&#x3f2;" horiz-adv-x="866" d="M45 506q0 -117 30.5 -215t94.5 -168q61 -68 166 -109q98 -39 242 -39q55 0 116 21q70 23 131 55l-30 68q-53 -27 -96.5 -41.5t-86.5 -14.5q-84 0 -139 37t-88 101q-31 59 -47 147q-14 80 -14 182q0 106 22 191q20 78 62 131q43 55 90 78q51 25 108 24q41 0 78 -10t55 -20 q29 -16 33 -21l10 -8l21 76l-15 8q-18 10 -40 18q-25 8 -66 19q-33 8 -80 8q-141 0 -244 -39q-104 -41 -174 -106q-70 -68 -104 -164q-35 -98 -35 -209z" />
<glyph unicode="&#x3f3;" horiz-adv-x="694" d="M-123 -256q0 -31 19 -63q20 -37 53 -60q39 -27 92 -41q59 -16 129 -16q68 0 129 22q57 20 102 66q43 43 66 112q23 72 22 164v1076h-352v-37q40 -6 62 -13q23 -6 34 -24q12 -16 15 -47q4 -41 4 -78v-1006q0 -45 -6 -73q-8 -35 -17 -45q-12 -16 -28.5 -22.5t-32.5 -6.5 q-35 0 -59.5 18.5t-24.5 69.5q0 29 -2 43q-3 22 -12 37q-12 18 -27 26q-20 10 -49 11q-33 0 -51.5 -8.5t-36.5 -26.5q-14 -14 -21 -35q-8 -29 -8 -43zM211 1331q0 -33 12 -63q10 -27 35 -51q23 -23 49 -35q29 -12 64 -12.5t63.5 12t50.5 35.5q25 25 35 51q12 31 12 63 q0 37 -12 63.5t-34.5 49t-51 35t-63.5 12.5t-64 -12q-27 -12 -49 -35t-34.5 -49.5t-12.5 -63.5z" />
<glyph unicode="&#x3f4;" horiz-adv-x="1576" d="M61 688q0 -147 50 -276q49 -127 145 -228q96 -98 229 -153q135 -55 303 -56q108 0 203 25q94 25 176 72q78 45 146 112q66 66 110 144q45 76 70 172q23 84 23 188q0 150 -52 277q-52 129 -147 227q-94 96 -230 154q-133 55 -296 55q-111 0 -205 -25q-88 -23 -176 -73 q-82 -47 -145.5 -111t-110.5 -145q-41 -72 -68 -170q-25 -93 -25 -189zM410 596h757q-9 -95 -37 -190q-27 -92 -73 -170q-46 -77 -111 -123q-66 -47 -151 -47q-92 0 -160 43q-74 47 -117 112q-43 68 -74 170q-28 99 -34 205zM410 772q6 94 32 203q27 102 70 176 q45 74 113 123q63 45 153 45q92 0 162 -45t119 -123q47 -74 76 -174q25 -86 34 -205h-759z" />
<glyph unicode="&#x3f5;" horiz-adv-x="894" d="M45 506q0 -117 30.5 -215t94.5 -168q61 -68 166 -109q98 -39 242 -39q55 0 116 21q70 23 131 55l-30 68q-53 -27 -104.5 -41.5t-94.5 -14.5q-68 0 -115 27q-49 27 -82 82q-39 63 -55 133q-20 82 -22 178h376v95h-374q2 66 22.5 137t50.5 121q37 55 80 86q47 33 115 32 q37 0 67 -6q20 -4 54 -16l41 -21q16 -8 28 -16l21 76q-14 6 -35 16q-14 6 -47 19q-6 2 -55 12q-31 6 -64 6q-141 0 -244 -39q-104 -41 -174 -106q-70 -68 -104 -164q-35 -98 -35 -209z" />
<glyph unicode="&#x1f00;" horiz-adv-x="1181" d="M43 512q0 -117 37 -215q37 -96 100 -170q66 -76 144 -113q80 -39 174 -39q68 0 116 15q53 16 97 43q39 25 75 65q31 33 58 84q14 -53 39 -104q16 -35 39 -62q18 -23 39 -28q25 -8 38 -8q20 0 41 12q31 16 43 37q18 28 31 73q14 53 14 115h-38q0 -33 -23 -59 q-23 -25 -53 -25q-12 0 -25 6q-10 6 -28 27q-8 10 -29 51q-14 27 -31 82q4 23 25 104l16 71l16 75q10 41 18.5 81l16.5 79l33 145q6 31 13.5 59.5t11.5 49.5l8 41h-242l-43 -226q-18 74 -53 121q-37 51 -76 76q-41 27 -86 39q-35 10 -84 10q-66 0 -145 -35 q-70 -31 -140 -100q-63 -63 -106 -160q-41 -90 -41 -217zM328 504q0 106 14 184q16 90 38.5 145.5t57.5 94.5q31 35 66 35q45 0 77.5 -25t61.5 -78t49 -125q20 -70 43 -170q-4 -16 -18.5 -92l-22.5 -115q-16 -78 -47 -168q-20 -63 -57 -114q-31 -43 -74 -43 q-37 0 -71.5 34.5t-59.5 96.5q-27 66 -41 147q-16 93 -16 193zM364 1450q0 -18 11 -43q8 -20 26 -35q12 -10 41 -22q18 -8 47 -9q27 0 41 9q20 12 25 16l16 16q8 8 23 9q10 0 16 -7q10 -8 12 -18q2 -2 4 -10t2 -10q2 -6 3 -17q0 -43 -19 -74q-16 -27 -47 -51 q-28 -22 -61 -30q-37 -10 -66 -11l6 -71q59 2 117 26q55 23 90 58q41 41 59 84q20 47 21 106q0 49 -12 92q-12 47 -37 76q-27 33 -66 51q-41 18 -96 19q-39 0 -68 -15q-33 -16 -49 -35q-23 -27 -31 -49q-8 -24 -8 -55z" />
<glyph unicode="&#x1f01;" horiz-adv-x="1181" d="M43 512q0 -117 37 -215q37 -96 100 -170q66 -76 144 -113q80 -39 174 -39q68 0 116 15q53 16 97 43q39 25 75 65q31 33 58 84q14 -53 39 -104q16 -35 39 -62q18 -23 39 -28q25 -8 38 -8q20 0 41 12q31 16 43 37q18 28 31 73q14 53 14 115h-38q0 -33 -23 -59 q-23 -25 -53 -25q-12 0 -25 6q-10 6 -28 27q-8 10 -29 51q-14 27 -31 82q4 23 25 104l16 71l16 75q10 41 18.5 81l16.5 79l33 145q6 31 13.5 59.5t11.5 49.5l8 41h-242l-43 -226q-18 74 -53 121q-37 51 -76 76q-41 27 -86 39q-35 10 -84 10q-66 0 -145 -35 q-70 -31 -140 -100q-63 -63 -106 -160q-41 -90 -41 -217zM328 504q0 106 14 184q16 90 38.5 145.5t57.5 94.5q31 35 66 35q45 0 77.5 -25t61.5 -78t49 -125q20 -70 43 -170q-4 -16 -18.5 -92l-22.5 -115q-16 -78 -47 -168q-20 -63 -57 -114q-31 -43 -74 -43 q-37 0 -71.5 34.5t-59.5 96.5q-27 66 -41 147q-16 93 -16 193zM309 1366q0 -59 20.5 -106.5t57.5 -83.5q33 -33 92 -58q57 -25 119 -26l6 71q-29 0 -65 11q-34 9 -62 30q-31 25 -47 51q-18 31 -18 74q0 2 1 8t1 11q0 2 6 20q2 8 10 16q6 6 17 7q14 0 22 -8.5t19 -16.5 q4 -4 24 -16q14 -8 41 -9q29 0 47 9q25 10 39 22q18 14 27 35q10 25 10 43q0 25 -10 55q-8 27 -29 49q-14 18 -49 35q-29 14 -68 15q-57 0 -96 -18.5t-65 -51.5q-25 -29 -37 -76q-13 -43 -13 -92z" />
<glyph unicode="&#x1f02;" horiz-adv-x="1181" d="M43 512q0 -117 37 -215q37 -96 100 -170q66 -76 144 -113q80 -39 174 -39q68 0 116 15q53 16 97 43q39 25 75 65q31 33 58 84q14 -53 39 -104q16 -35 39 -62q18 -23 39 -28q25 -8 38 -8q20 0 41 12q31 16 43 37q18 28 31 73q14 53 14 115h-38q0 -33 -23 -59 q-23 -25 -53 -25q-12 0 -25 6q-10 6 -28 27q-8 10 -29 51q-14 27 -31 82q4 23 25 104l16 71l16 75q10 41 18.5 81l16.5 79l33 145q6 31 13.5 59.5t11.5 49.5l8 41h-242l-43 -226q-18 74 -53 121q-37 51 -76 76q-41 27 -86 39q-35 10 -84 10q-66 0 -145 -35 q-70 -31 -140 -100q-63 -63 -106 -160q-41 -90 -41 -217zM328 504q0 106 14 184q16 90 38.5 145.5t57.5 94.5q31 35 66 35q45 0 77.5 -25t61.5 -78t49 -125q20 -70 43 -170q-4 -16 -18.5 -92l-22.5 -115q-16 -78 -47 -168q-20 -63 -57 -114q-31 -43 -74 -43 q-37 0 -71.5 34.5t-59.5 96.5q-27 66 -41 147q-16 93 -16 193zM116 1450q0 -16 11 -41q8 -18 26 -37q12 -12 37 -22q18 -8 47 -9q27 0 41 9q20 12 25 16l16 16q8 8 23 9q10 0 16 -7q10 -10 12 -16q0 -4 2.5 -10t4.5 -10q2 -6 2 -17q0 -43 -19 -74q-16 -27 -47 -51t-61 -32 q-37 -10 -66 -11l4 -71q61 2 119 26q55 23 90 58q37 37 57.5 84t20.5 106q0 49 -12 92q-14 49 -35 76q-25 31 -66 49q-39 18 -96 19q-40 0 -68 -13q-25 -10 -47 -37q-20 -23 -28 -49q-9 -24 -9 -53zM577 1474.5q4 -32.5 21 -59.5l219 -323h88l-92 389q-12 49 -43 80 q-31 33 -90 28q-35 -4 -60 -18q-20 -12 -35 -41q-12 -23 -8 -55.5z" />
<glyph unicode="&#x1f03;" horiz-adv-x="1181" d="M43 512q0 -117 37 -215q37 -96 100 -170q66 -76 144 -113q80 -39 174 -39q68 0 116 15q53 16 97 43q39 25 75 65q31 33 58 84q14 -53 39 -104q16 -35 39 -62q18 -23 39 -28q25 -8 38 -8q20 0 41 12q31 16 43 37q18 28 31 73q14 53 14 115h-38q0 -33 -23 -59 q-23 -25 -53 -25q-12 0 -25 6q-10 6 -28 27q-8 10 -29 51q-14 27 -31 82q4 23 25 104l16 71l16 75q10 41 18.5 81l16.5 79l33 145q6 31 13.5 59.5t11.5 49.5l8 41h-242l-43 -226q-18 74 -53 121q-37 51 -76 76q-41 27 -86 39q-35 10 -84 10q-66 0 -145 -35 q-70 -31 -140 -100q-63 -63 -106 -160q-41 -90 -41 -217zM328 504q0 106 14 184q16 90 38.5 145.5t57.5 94.5q31 35 66 35q45 0 77.5 -25t61.5 -78t49 -125q20 -70 43 -170q-4 -16 -18.5 -92l-22.5 -115q-16 -78 -47 -168q-20 -63 -57 -114q-31 -43 -74 -43 q-37 0 -71.5 34.5t-59.5 96.5q-27 66 -41 147q-16 93 -16 193zM63 1366q0 -59 20.5 -106.5t57.5 -83.5q35 -35 90 -58q57 -25 119 -26l6 71q-29 0 -65 11q-31 8 -61.5 32.5t-47.5 50.5q-18 31 -18 74q0 10 2 17q0 4 2 10t4 10q2 6 12 16q6 6 17 7q14 0 20 -9l16 -16 q4 -4 25 -16q14 -8 41 -9q29 0 47 9q25 10 39 22q16 14 27 37q10 25 10 41q0 23 -10 53q-10 29 -27 49q-20 25 -49 37q-28 12 -68 13q-53 0 -94 -18.5t-65 -49.5q-25 -29 -37 -76q-13 -43 -13 -92zM528 1475q4 -35 23 -60l219 -323h86l-92 389q-12 49 -43 80q-33 33 -88 28 q-35 -4 -59.5 -18.5t-37.5 -40.5q-12 -22 -8 -55z" />
<glyph unicode="&#x1f04;" horiz-adv-x="1181" d="M43 512q0 -117 37 -215q37 -96 100 -170q66 -76 144 -113q80 -39 174 -39q68 0 116 15q53 16 97 43q39 25 75 65q31 33 58 84q14 -53 39 -104q16 -35 39 -62q18 -23 39 -28q25 -8 38 -8q20 0 41 12q31 16 43 37q18 28 31 73q14 53 14 115h-38q0 -33 -23 -59 q-23 -25 -53 -25q-12 0 -25 6q-10 6 -28 27q-8 10 -29 51q-14 27 -31 82q4 23 25 104l16 71l16 75q10 41 18.5 81l16.5 79l33 145q6 31 13.5 59.5t11.5 49.5l8 41h-242l-43 -226q-18 74 -53 121q-37 51 -76 76q-41 27 -86 39q-35 10 -84 10q-66 0 -145 -35 q-70 -31 -140 -100q-63 -63 -106 -160q-41 -90 -41 -217zM328 504q0 106 14 184q16 90 38.5 145.5t57.5 94.5q31 35 66 35q45 0 77.5 -25t61.5 -78t49 -125q20 -70 43 -170q-4 -16 -18.5 -92l-22.5 -115q-16 -78 -47 -168q-20 -63 -57 -114q-31 -43 -74 -43 q-37 0 -71.5 34.5t-59.5 96.5q-27 66 -41 147q-16 93 -16 193zM144 1450q0 -16 10 -41q10 -23 27 -37q14 -12 39 -22q18 -8 47 -9q27 0 41 9q16 10 22 16l17 16q6 8 22 9q10 0 17 -7q10 -10 12 -16q0 -4 2 -10t4 -10q2 -6 2 -17q0 -43 -18 -74q-16 -27 -47 -51t-62 -32 q-37 -10 -66 -11l7 -71q59 2 116 26q59 25 93 58q37 37 57 84t20 106q0 49 -12 92q-12 47 -37 76q-25 31 -65 49q-39 18 -95 19q-40 0 -67 -13q-29 -12 -49 -37q-16 -20 -27 -49q-10 -30 -10 -53zM560 1092h88l237 331q22 28 25 56q4 31 -8 53q-12 25 -33 39t-55 18 q-115 6 -142 -94z" />
<glyph unicode="&#x1f05;" horiz-adv-x="1181" d="M43 512q0 -117 37 -215q37 -96 100 -170q66 -76 144 -113q80 -39 174 -39q68 0 116 15q53 16 97 43q39 25 75 65q31 33 58 84q14 -53 39 -104q16 -35 39 -62q18 -23 39 -28q25 -8 38 -8q20 0 41 12q31 16 43 37q18 28 31 73q14 53 14 115h-38q0 -33 -23 -59 q-23 -25 -53 -25q-12 0 -25 6q-10 6 -28 27q-8 10 -29 51q-14 27 -31 82q4 23 25 104l16 71l16 75q10 41 18.5 81l16.5 79l33 145q6 31 13.5 59.5t11.5 49.5l8 41h-242l-43 -226q-18 74 -53 121q-37 51 -76 76q-41 27 -86 39q-35 10 -84 10q-66 0 -145 -35 q-70 -31 -140 -100q-63 -63 -106 -160q-41 -90 -41 -217zM328 504q0 106 14 184q16 90 38.5 145.5t57.5 94.5q31 35 66 35q45 0 77.5 -25t61.5 -78t49 -125q20 -70 43 -170q-4 -16 -18.5 -92l-22.5 -115q-16 -78 -47 -168q-20 -63 -57 -114q-31 -43 -74 -43 q-37 0 -71.5 34.5t-59.5 96.5q-27 66 -41 147q-16 93 -16 193zM135 1366q0 -59 20.5 -106.5t57.5 -83.5q35 -35 90 -58q57 -25 119 -26l4 71q-29 0 -65 11q-31 8 -62 32q-27 20 -45 51t-18 74q0 10 2 17q2 4 4 10t2 10q2 6 12 16q6 6 16 7q14 0 21 -9l16 -16q4 -4 25 -16 q14 -8 41 -9q29 0 47 9q25 10 37 22q18 18 26 37q10 25 11 41q0 29 -8 53q-8 27 -29 49q-23 27 -47 37q-28 12 -68 13q-55 0 -96 -19q-39 -18 -64 -49q-27 -33 -38 -76q-11 -37 -11 -92zM531 1092h86l239 331q18 25 23 58q2 25 -8 53q-8 20 -33 39q-18 12 -54 16 q-117 6 -143 -94z" />
<glyph unicode="&#x1f06;" horiz-adv-x="1181" d="M43 512q0 -117 37 -215q37 -96 100 -170q66 -76 144 -113q80 -39 174 -39q68 0 116 15q53 16 97 43q39 25 75 65q31 33 58 84q14 -53 39 -104q16 -35 39 -62q18 -23 39 -28q25 -8 38 -8q20 0 41 12q31 16 43 37q18 28 31 73q14 53 14 115h-38q0 -33 -23 -59 q-23 -25 -53 -25q-12 0 -25 6q-10 6 -28 27q-8 10 -29 51q-14 27 -31 82q4 23 25 104l16 71l16 75q10 41 18.5 81l16.5 79l33 145q6 31 13.5 59.5t11.5 49.5l8 41h-242l-43 -226q-18 74 -53 121q-37 51 -76 76q-41 27 -86 39q-35 10 -84 10q-66 0 -145 -35 q-70 -31 -140 -100q-63 -63 -106 -160q-41 -90 -41 -217zM328 504q0 106 14 184q16 90 38.5 145.5t57.5 94.5q31 35 66 35q45 0 77.5 -25t61.5 -78t49 -125q20 -70 43 -170q-4 -16 -18.5 -92l-22.5 -115q-16 -78 -47 -168q-20 -63 -57 -114q-31 -43 -74 -43 q-37 0 -71.5 34.5t-59.5 96.5q-27 66 -41 147q-16 93 -16 193zM88 1423h91q0 57 26 115q23 47 68 86q47 41 98 57q55 18 114.5 18.5t114.5 -18.5q47 -16 97 -57q45 -39 67 -86q25 -51 25 -115h88q0 90 -29 176q-27 80 -82 141.5t-122.5 94.5t-157.5 33q-84 0 -160 -35 q-78 -35 -127 -94q-51 -59 -82 -142q-29 -74 -29 -174zM312 1415q0 -20 10 -41q10 -23 27 -35q14 -12 38 -22q18 -8 48 -8q20 0 41 8q10 4 22 16q4 4 9 7t10 8q8 8 20 8q10 0 16 -6q10 -10 13 -17q0 -2 2 -10t4 -10q2 -6 2 -17q0 -31 -19 -55q-18 -27 -45 -43 q-25 -16 -61.5 -26.5t-67.5 -10.5l6 -71q63 0 119 22q57 25 90 53q35 31 58 78q20 41 20 88q0 49 -12 92q-10 39 -39 74q-27 33 -63.5 51.5t-84 18.5t-78 -12.5t-50.5 -36.5q-16 -20 -27 -50q-8 -24 -8 -53z" />
<glyph unicode="&#x1f07;" horiz-adv-x="1181" d="M43 512q0 -117 37 -215q37 -96 100 -170q66 -76 144 -113q80 -39 174 -39q68 0 116 15q53 16 97 43q39 25 75 65q31 33 58 84q14 -53 39 -104q16 -35 39 -62q18 -23 39 -28q25 -8 38 -8q20 0 41 12q31 16 43 37q18 28 31 73q14 53 14 115h-38q0 -33 -23 -59 q-23 -25 -53 -25q-12 0 -25 6q-10 6 -28 27q-8 10 -29 51q-14 27 -31 82q4 23 25 104l16 71l16 75q10 41 18.5 81l16.5 79l33 145q6 31 13.5 59.5t11.5 49.5l8 41h-242l-43 -226q-18 74 -53 121q-37 51 -76 76q-41 27 -86 39q-35 10 -84 10q-66 0 -145 -35 q-70 -31 -140 -100q-63 -63 -106 -160q-41 -90 -41 -217zM328 504q0 106 14 184q16 90 38.5 145.5t57.5 94.5q31 35 66 35q45 0 77.5 -25t61.5 -78t49 -125q20 -70 43 -170q-4 -16 -18.5 -92l-22.5 -115q-16 -78 -47 -168q-20 -63 -57 -114q-31 -43 -74 -43 q-37 0 -71.5 34.5t-59.5 96.5q-27 66 -41 147q-16 93 -16 193zM88 1423h91q0 57 26 115q23 47 68 86q47 41 98 57q55 18 114.5 18.5t114.5 -18.5q47 -16 97 -57q45 -39 67 -86q25 -51 25 -115h88q0 90 -29 176q-27 80 -82 141.5t-122.5 94.5t-157.5 33q-84 0 -160 -35 q-78 -35 -127 -94q-51 -59 -82 -142q-29 -74 -29 -174zM283 1331q0 -47 21 -88q23 -47 57 -78q31 -29 92 -53q55 -23 119 -22l4 71q-29 0 -66 10q-39 10 -63.5 26.5t-44.5 43.5q-18 25 -19 55q0 10 2 17q0 2 2.5 10t4.5 10q2 6 12 17q6 6 16 6t23 -8q4 -4 8 -7.5t8 -7.5 q10 -10 25 -16q20 -8 41 -8q27 0 45 8q25 10 39 22q16 12 26 35q10 20 11 41q0 29 -9 53q-10 29 -26 50q-23 27 -49 36q-31 12 -80 13q-47 0 -84 -18.5t-64 -51.5q-29 -35 -39 -74q-12 -43 -12 -92z" />
<glyph unicode="&#x1f08;" horiz-adv-x="1525" d="M2 0h461v45q-49 0 -84 6q-29 6 -51 21q-14 10 -19 32q-2 14 8 43l9 21q16 41 24 59l37 86l43 105h461q2 -4 7 -16.5t7 -18.5q16 -35 21 -47l20 -55q6 -14 12.5 -27.5t10.5 -24.5q6 -12 9 -22t7 -21q10 -20 12 -26q12 -25 9 -54q-4 -25 -25 -36q-22 -12 -55 -19 q-33 -6 -84 -6v-45h663v45q-16 0 -53 4q-29 4 -51 14q-25 12 -45 33q-20 18 -35 54l-530 1251h-58l-530 -1241q-16 -35 -31 -54q-12 -16 -37 -34q-18 -12 -55 -21q-31 -6 -78 -6v-45zM473 524l191 459l186 -459h-377zM137 1450q0 -18 11 -43q8 -20 26 -35q12 -10 41 -22 q18 -8 47 -9q27 0 41 9q20 12 25 16l16 16q8 8 23 9q10 0 16 -7q10 -8 12 -18q2 -2 4 -10t2 -10q2 -6 3 -17q0 -43 -19 -74q-16 -27 -47 -51q-28 -22 -61 -30q-37 -10 -66 -11l6 -71q59 2 117 26q55 23 90 58q41 41 59 84q20 47 21 106q0 49 -12 92q-12 47 -37 76 q-27 33 -66 51q-41 18 -96 19q-39 0 -68 -15q-33 -16 -49 -35q-23 -27 -31 -49q-8 -24 -8 -55z" />
<glyph unicode="&#x1f09;" horiz-adv-x="1525" d="M2 0h461v45q-49 0 -84 6q-29 6 -51 21q-14 10 -19 32q-2 14 8 43l9 21q16 41 24 59l37 86l43 105h461q2 -4 7 -16.5t7 -18.5q16 -35 21 -47l20 -55q6 -14 12.5 -27.5t10.5 -24.5q6 -12 9 -22t7 -21q10 -20 12 -26q12 -25 9 -54q-4 -25 -25 -36q-22 -12 -55 -19 q-33 -6 -84 -6v-45h663v45q-16 0 -53 4q-29 4 -51 14q-25 12 -45 33q-20 18 -35 54l-530 1251h-58l-530 -1241q-16 -35 -31 -54q-12 -16 -37 -34q-18 -12 -55 -21q-31 -6 -78 -6v-45zM473 524l191 459l186 -459h-377zM165 1366q0 -59 20.5 -106.5t57.5 -83.5q33 -33 92 -58 q57 -25 119 -26l6 71q-29 0 -65 11q-34 9 -62 30q-31 25 -47 51q-18 31 -18 74q0 2 1 8t1 11q0 2 6 20q2 8 10 16q6 6 17 7q14 0 22 -8.5t19 -16.5q4 -4 24 -16q14 -8 41 -9q29 0 47 9q25 10 39 22q18 14 27 35q10 25 10 43q0 25 -10 55q-8 27 -29 49q-14 18 -49 35 q-29 14 -68 15q-57 0 -96 -18.5t-65 -51.5q-25 -29 -37 -76q-13 -43 -13 -92z" />
</font>
</defs>
</svg>
