<?xml version="1.0" standalone="no"?>
<!DOCTYPE svg PUBLIC "-//W3C//DTD SVG 1.1//EN" "http://www.w3.org/Graphics/SVG/1.1/DTD/svg11.dtd" >
<svg xmlns="http://www.w3.org/2000/svg">
<metadata>
This is a custom SVG webfont generated by Font Squirrel.
Copyright   : Copyright c SIL International httpwwwsilorg 19952009 All rights reserved
Designer    : Development by SILs NRSI team
Foundry URL : httpwwwsilorg
</metadata>
<defs>
<font id="webfontDXp2HlVY" horiz-adv-x="1050" >
<font-face units-per-em="2048" ascent="1638" descent="-410" />
<missing-glyph horiz-adv-x="647" />
<glyph unicode=" "  horiz-adv-x="647" />
<glyph unicode="&#x09;" horiz-adv-x="647" />
<glyph unicode="&#xa0;" horiz-adv-x="647" />
<glyph unicode="!" horiz-adv-x="937" d="M276 90.5q0 -24.5 9 -41.5q12 -25 22 -35t35 -22q20 -10 41 -10q25 0 43 8q22 9 37 24q16 16 24.5 32.5t8.5 43.5q0 25 -9 43q-9 22 -24 37q-12 12 -37 23q-18 8 -43 8t-41 -8q-20 -10 -35 -25q-12 -12 -22 -35q-9 -18 -9 -42.5zM279 1217l8 -91q6 -68 18 -178 q6 -47 9 -78.5t9.5 -76.5l14.5 -105l17.5 -150.5l21.5 -179.5h14l41 330l15.5 138.5t15.5 121.5q4 37 12 96.5t10 81.5q6 68 7 91q0 82 -29 122q-31 43 -80 43q-51 0 -78 -43q-26 -40 -26 -122z" />
<glyph unicode="&#x22;" horiz-adv-x="866" d="M139 1317q0 -39 4 -68q6 -39 19 -106l57 -307h43l57 305q12 57 21 121q8 61 8 67q0 51 -30.5 82t-75.5 31q-47 0 -74 -27q-29 -28 -29 -98zM518 1317q0 -25 6 -68q8 -55 19 -110l55 -303h51l58 303q14 76 18 125q4 61 4 67q0 45 -26.5 78t-78 33t-77.5 -29 q-29 -33 -29 -96z" />
<glyph unicode="#" horiz-adv-x="1064" d="M37 444h178l-96 -475h88l98 475h352l-94 -475h84l96 475h285v86h-266l74 357h192v82h-178l98 473h-86l-100 -473h-350l92 473h-84l-94 -473h-289v-82h268l-74 -357h-194v-86zM319 530l74 357h355l-74 -357h-355z" />
<glyph unicode="$" horiz-adv-x="1064" d="M113 53q41 -16 82 -30q12 -4 94 -25q49 -12 98 -18l94 -11v-131h66v131q84 6 153.5 33t130.5 78q58 49 93 117q35 70 34 153q0 41 -10 86t-28 76q-23 37 -52 70q-31 35 -77 71q-94 76 -107 84l-137 99v528q82 -10 133 -33q49 -23 90 -69q37 -43 55 -101q18 -59 25 -131 h41v311l-135 50q-20 8 -34.5 13l-20 7l-11.5 4q-25 6 -65 12q-6 2 -78 7v96h-66v-96q-59 -4 -116 -23q-66 -23 -121 -61q-57 -41 -94 -102.5t-37 -151.5q0 -77 24 -135q23 -53 72 -109q39 -43 117 -100q45 -33 155 -107v-606q-154 16 -231 88q-80 74 -92 221h-45v-295z M274 1161q0 59 22.5 98t55.5 60q35 23 68 31q53 14 61 14v-483l-63 43q-31 20 -68 61q-33 35 -53 78q-23 45 -23 98zM547 39v561l104 -78q43 -33 78 -69q33 -37 47 -70q16 -39 17 -84q0 -47 -12.5 -84t-35.5 -65q-25 -31 -47 -50q-27 -20 -53 -32q-37 -16 -53 -21 q-33 -8 -45 -8z" />
<glyph unicode="%" horiz-adv-x="1839" d="M162 909q0 -141 63.5 -217t190.5 -76q49 0 98 18.5t98.5 55.5t92.5 86q39 43 75 109q35 59 54 129q18 68 18 139q0 33 -8 59.5t-8 55.5q27 -10 76 -14.5t92 1.5q51 6 102 19q55 12 100 33l-745 -1338h102l823 1477h-102q-51 -68 -137 -107q-82 -37 -182 -41q-59 0 -80 7 q-25 8 -56 22q-23 10 -43 29q-20 16 -41 28q-23 12 -51 23q-25 8 -71 8q-57 0 -119 -22q-57 -20 -109 -58q-45 -31 -94 -88q-39 -45 -74 -106q-25 -45 -47 -115q-18 -59 -18 -117zM324 848q0 74 18 139q23 76 45 123q27 51 62 100q37 49 67 78q33 29 66 49q27 16 49 17 q18 0 28 -8q4 -2 13.5 -8.5l15.5 -10.5q10 -8 39 -24q18 -10 51 -21l13 -49q6 -25 6 -49q0 -49 -13 -109q-12 -61 -32.5 -112.5t-53.5 -104.5q-27 -43 -69 -86q-39 -39 -80 -59q-45 -23 -92 -23q-39 0 -64 12q-29 14 -41 31q-16 23 -22 51q-6 27 -6 64zM991 262 q0 -61 13 -112q14 -59 40 -95q29 -37 84 -63q47 -23 134 -23q72 0 143.5 39t134.5 115q66 78 102 176q39 102 39 229q0 39 -16 84q-14 41 -43 76q-27 33 -72 55q-41 20 -96 21q-63 0 -119 -21q-57 -20 -108 -57q-49 -35 -94 -86q-49 -55 -76 -104q-29 -51 -49 -117 q-17 -51 -17 -117zM1153 182q0 49 12 105q16 74 31 112q23 63 51 111q35 57 68 94q41 45 78 66q43 25 86 24q35 0 63.5 -16t46.5 -41q16 -20 27 -57q10 -35 10 -64q0 -53 -10 -96q-14 -57 -33 -105q-27 -66 -51 -104q-33 -53 -68 -90q-31 -33 -84 -62q-45 -25 -94 -24 q-37 0 -61 12q-29 14 -41 31q-18 25 -23 47q-8 37 -8 57z" />
<glyph unicode="&#x26;" horiz-adv-x="1746" d="M121 279q0 -57 24 -113q27 -61 70 -100q47 -45 117 -72q68 -27 162 -27q88 0 155 21q63 20 125 53q51 29 98 65l76 64l66 -66q35 -35 84 -67q39 -27 98 -49q53 -20 117 -21q80 0 139 31q57 31 94 74t60 94q18 41 28 88l-39 27q-6 -23 -16 -45.5t-35 -51.5 q-23 -27 -55 -41q-37 -16 -84 -16q-57 0 -100 20q-49 23 -86 52q-39 31 -70 63q-14 16 -28.5 30.5t-26.5 29.5q39 47 108 149q52 77 98 160q51 92 76 129q29 45 59.5 67.5t57.5 28.5q31 6 74 12v39h-439v-39q2 0 23 -4q12 -2 32.5 -18.5t30.5 -34.5q12 -20 13 -59 q0 -154 -183 -369q-147 197 -276 430q29 14 106 59q72 41 113 78q49 45 88 105q35 55 35 133q0 49 -18 94q-20 53 -54 82q-41 39 -88 57q-49 20 -121 21q-68 0 -129 -21q-72 -25 -116 -61q-49 -41 -84 -107q-33 -63 -33 -155q0 -53 8 -92q8 -35 23 -84q8 -27 28 -72 q14 -35 27 -62l-92 -51q-23 -12 -96 -63q-45 -31 -93 -78q-51 -51 -77 -90q-31 -43 -54 -107q-20 -54 -20 -120zM338 373q0 76 27 131q27 57 65 98q39 43 82 70q18 12 74 45l61 -115l55 -98q23 -43 74 -113l117 -162l-57 -45q-27 -20 -68 -45q-35 -20 -78 -32.5t-90 -12.5 q-66 0 -115 24.5t-81.5 63.5t-49.5 90q-16 54 -16 101zM645 1180q0 6 8 47q6 35 26.5 63.5t57.5 53t92 24.5q31 0 60 -12.5t51 -34.5q25 -25 37 -57q12 -35 12 -72q0 -66 -28 -119q-27 -51 -68 -88q-39 -35 -84 -61q-43 -25 -76 -41q-8 16 -14 32.5t-14 34.5q-23 55 -29 74 q-16 53 -23 80q-8 35 -8 76z" />
<glyph unicode="'" horiz-adv-x="382" d="M88 1317q0 -37 4 -66q6 -47 19 -108l55 -307h47l55 305q12 57 21 125q8 61 8 65q0 16 -6 37q-4 18 -21 37q-14 18 -34 27q-25 10 -50 10q-49 0 -73.5 -31t-24.5 -94z" />
<glyph unicode="(" horiz-adv-x="708" d="M106 512q0 -121 23 -213q27 -106 64 -190q43 -94 90 -162q55 -80 106 -135q45 -51 113 -107q43 -37 106 -72l27 35q-84 61 -146 129q-63 70 -110 174q-45 98 -70 238q-25 138 -24 326q0 123 12 221q10 76 37 174q20 74 53 139q27 53 72 109q35 43 84 92q27 27 92 80 l-21 32q-102 -59 -202 -153q-96 -90 -162 -197q-61 -100 -105 -239q-39 -125 -39 -281z" />
<glyph unicode=")" horiz-adv-x="708" d="M63 -328l21 -30q121 70 205 151q98 96 162 199q68 111 104 239q39 137 39 281q0 121 -23 213q-27 106 -63 190q-39 86 -92 162q-63 90 -107 135q-61 63 -112 105q-59 47 -105 72l-29 -33q55 -39 103 -84q46 -43 86 -98q39 -55 70 -121q29 -63 51 -150q20 -82 30 -186 q10 -113 11 -228q0 -123 -13 -221q-10 -90 -34 -174q-18 -66 -56 -139q-29 -57 -71 -111q-47 -57 -84 -92q-42 -39 -93 -80z" />
<glyph unicode="*" horiz-adv-x="1036" d="M160 805q-10 -27 8 -57.5t47 -36.5t57 12q14 8 35 31q12 14 45 47q25 27 66 59q40 34 98 68q0 -76 -8 -119q-9 -49 -19 -86q-6 -20 -20 -61q-8 -23 -8 -46q0 -35 18.5 -57t55 -22t55.5 22q16 18 16 57q0 23 -8 46q-16 41 -20 61q-9 37 -19 86q-8 43 -8 119q53 -31 98 -66 q23 -18 68 -57q20 -18 45 -47q14 -18 35 -31q27 -18 55 -14q25 2 47 37q18 31 8 57q-9 25 -37 43q-14 8 -47 16q-2 0 -26.5 5.5t-38.5 9.5q-47 12 -84 26q-59 23 -107 51q59 35 107 54q37 14 84 26l65 17q31 6 45 16q31 20 39 43q10 27 -8 57.5t-47 36.5t-57 -12 q-14 -8 -35 -31q-12 -14 -45 -47q-39 -39 -66 -61q-33 -27 -98 -66q0 76 8 119q8 41 19 84q6 27 20 63q8 23 8 46q0 39 -16 57q-18 23 -55 22.5t-56 -22.5q-18 -20 -18 -57q0 -23 8 -46q14 -37 20 -63l19 -84q8 -43 8 -119q-53 31 -98 66t-68 57q-33 33 -45 47 q-14 18 -35 31q-27 18 -55 14q-25 -2 -47 -37q-18 -31 -8 -57q9 -25 37 -43q14 -10 45 -16q2 0 26.5 -5.5t38.5 -9.5q33 -8 84 -28q59 -23 107 -52q-47 -29 -107 -51q-51 -20 -84 -28l-63 -15q-23 -4 -45 -16q-31 -20 -39 -43z" />
<glyph unicode="+" horiz-adv-x="1206" d="M78 446h446v-446h135v446h447v146h-447v444h-135v-444h-446v-146z" />
<glyph unicode="," horiz-adv-x="708" d="M184 90q0 -29 11 -47q14 -25 28 -35q18 -12 37 -18t37 -6q6 0 14 1t11 1q4 0 9 1t7 1h8t8 2q2 0 7.5 1t9.5 1q10 0 14 -6q4 -8 4 -19q0 -25 -12 -53q-14 -35 -33 -59q-20 -31 -51 -58q-33 -29 -70 -49l23 -41q41 20 76 47q31 25 71 72q33 39 56 90q20 47 20 104 q0 49 -14 84q-16 39 -37 59.5t-49.5 33t-51.5 12.5q-59 0 -96 -31t-37 -88z" />
<glyph unicode="-" horiz-adv-x="708" d="M94 399h500v129h-500v-129z" />
<glyph unicode="." horiz-adv-x="708" d="M184 113q0 -33 11 -54q12 -25 30.5 -43t42.5 -30q20 -10 51 -11q33 0 54 11q25 12 43 30.5t30 42.5q10 20 11 54q0 31 -11 51q-12 25 -30.5 43t-42.5 31q-20 10 -54 10q-31 0 -51 -10q-25 -12 -43 -31t-30 -43q-11 -20 -11 -51z" />
<glyph unicode="/" horiz-adv-x="647" d="M18 -35h103l450 1419h-104z" />
<glyph unicode="0" d="M31 668q0 -184 39 -310q41 -135 102 -213q65 -83 147 -122q80 -39 173 -39q86 0 172 41q84 41 147 125q70 92 107 215q39 129 38 317q0 180 -41 315q-39 125 -106 217q-59 80 -145 123q-82 41 -156 41q-94 0 -178 -39q-86 -41 -152 -122q-66 -84 -106 -222 q-41 -139 -41 -327zM223 686q0 131 13 229q14 115 30 168q25 78 47 117q29 47 58 74q31 29 63 37q37 10 66 10q53 0 100 -31q49 -33 82 -106q34 -77 55 -203q20 -121 21 -319q0 -187 -19 -308q-18 -117 -53 -190q-35 -72 -82 -98q-51 -29 -104 -29q-37 0 -66 10 q-35 12 -63 39q-27 23 -58 76q-25 41 -47 119q-16 57 -30 172q-13 101 -13 233z" />
<glyph unicode="1" d="M242 1157q63 29 110 39q45 10 64 2q23 -10 28 -33q6 -25 7 -55v-930q0 -37 -7 -65q-6 -25 -28 -45q-20 -18 -60 -27q-51 -12 -100 -14v-29h561v29q-55 2 -100 10q-39 6 -59.5 18.5t-26.5 32.5q-8 29 -8 51v1217q0 12 -5 16q-2 2 -12 -4l-364 -184v-29z" />
<glyph unicode="2" d="M76 0h798l107 274l-25 17q-23 -45 -43 -72q-18 -23 -43 -41q-12 -10 -49 -18q-25 -6 -57 -6h-490q66 74 113 120l133 134q45 45 131 143q68 78 117 149q51 74 82 156q31 80 31 156q0 70 -25 135t-70 116.5t-116.5 84t-159.5 32.5q-86 0 -160 -30q-78 -33 -129 -84 q-57 -57 -92 -129q-35 -74 -51 -166l43 -8q27 74 57 122q37 57 72 84q43 33 86 47.5t92 14.5q57 0 100 -17q47 -18 88 -55q40 -37 62 -92q23 -57 22 -135q0 -68 -18 -131q-16 -57 -57 -129q-39 -68 -90 -137q-47 -63 -123 -150l-154 -170l-182 -197v-18z" />
<glyph unicode="3" d="M100 102q0 -20 8.5 -38.5t32.5 -36.5q20 -14 68 -29q43 -12 117 -12q147 0 260 45q102 41 176 114q70 70 102.5 154t32.5 164q0 86 -27 145q-28 61 -67 105q-37 41 -86 69q-41 25 -82 45q35 23 61 45q34 28 62 62q31 37 47 76q18 43 18 92q0 61 -24 115q-25 51 -64 88 q-41 39 -98 59q-55 20 -125 20q-68 0 -129 -18q-57 -16 -115 -61q-53 -41 -96 -103q-39 -57 -70 -149l31 -11q57 113 133 166q72 51 166 52q47 0 88 -15q37 -14 74 -43q37 -31 53 -65q18 -39 19 -88q0 -63 -19 -113q-16 -45 -61 -86q-41 -39 -109 -74q-53 -29 -158 -69 l7 -25q10 2 24 2h21q180 0 276 -84t96 -242q0 -74 -22 -131q-20 -53 -62 -94q-37 -37 -86 -55.5t-100 -18.5q-45 0 -80 17q-43 20 -76 39q-12 8 -75 39q-37 18 -70 18q-29 0 -51 -18q-21 -19 -21 -52z" />
<glyph unicode="4" d="M35 340h573v-340h160v340h209v133h-209v899h-94l-639 -897v-135zM117 473l491 692v-692h-491z" />
<glyph unicode="5" d="M80 109q0 -20 10 -48q9 -25 37 -43q27 -18 78 -30q41 -10 127 -11q57 0 121 13q57 10 127 39q63 25 118 65q51 37 98.5 100.5t69.5 133.5q25 74 25 168q0 104 -29 176q-31 78 -80 133q-53 59 -110 94q-66 39 -129 64q-65 25 -129 36q-74 14 -115 17l82 178h416 q20 0 37 23l73 176l-18 12q-25 -31 -31 -35q-16 -14 -43 -14h-448l-222 -490q-6 -10 -2 -18q4 -6 17 -6q74 0 147 -13q61 -10 137 -38q68 -25 121 -62q57 -37 94 -84q41 -49 62 -106q23 -61 22 -127q0 -63 -16 -119q-18 -61 -37 -92q-27 -45 -55 -70q-31 -29 -60 -45 q-14 -8 -61 -25q-25 -8 -49 -8q-33 0 -68 21l-34.5 18t-40.5 25q-41 25 -78 45q-39 20 -76 20q-39 0 -63.5 -18t-24.5 -55z" />
<glyph unicode="6" d="M84 586q0 -98 18 -185q18 -82 54 -153q33 -66 80 -119q45 -51 96 -84q47 -31 108 -51q49 -16 111 -17q88 0 160 35q78 37 135 101q59 66 92 151.5t33 192.5q0 115 -35 196.5t-88 128.5q-57 51 -121 72q-68 23 -127 23q-45 0 -65 -3q-27 -2 -60 -12q-29 -8 -65 -28 q-76 -41 -82 -46q27 111 82 216q51 96 131 176q72 72 174 123q98 49 215 61l-6 37q-133 -4 -236 -35q-106 -33 -203 -90q-94 -57 -168 -133q-76 -80 -127 -166q-51 -88 -79 -189q-27 -93 -27 -202zM270 516q0 63 9 107q8 47 34 86q23 35 72 57q43 20 121 20q80 0 131 -36 q59 -41 88 -93q31 -53 47 -133q14 -70 14 -153q0 -74 -16 -140q-14 -55 -45 -104q-29 -43 -72 -66q-45 -23 -92 -22q-53 0 -92 20q-45 25 -74 54q-25 25 -55 82q-23 41 -39 98q-20 68 -25 110q-6 60 -6 113z" />
<glyph unicode="7" d="M57 1055l33 -19q16 31 45 72q18 27 47 51q23 20 56 33q25 10 69 10h465l-399 -1202h133l426 1321v35h-756z" />
<glyph unicode="8" d="M121 305q0 -57 26 -121q25 -58 74 -104q51 -49 125 -76q72 -27 168 -27q80 0 135 15q63 16 105 43q53 33 75 59q29 33 50 72q20 41 28 73.5t8 71.5q0 20 -4 62q-3 31 -12 61q-10 33 -31 66q-14 25 -57 73q-27 33 -86 84q-39 35 -127 101q74 41 125 78q59 41 88 75 q35 41 49 82q16 45 17 94q0 51 -23 107q-18 45 -66 92q-41 41 -110 68q-63 25 -149.5 24.5t-166.5 -26.5q-68 -23 -124 -70q-53 -43 -80 -100q-27 -55 -27 -119q0 -43 12 -88q14 -55 41 -94q37 -55 78 -97q47 -47 125 -102q-123 -72 -197 -168q-69 -90 -69 -209zM276 334 q0 41 9 76q10 49 26 82q18 41 51 79.5t78 69.5q119 -86 174 -133q72 -61 97 -96q31 -43 39 -76t8 -80q0 -40 -13 -80q-12 -43 -38 -72q-31 -35 -70 -51q-43 -18 -105 -18q-82 0 -129 33q-51 35 -77 79q-31 51 -39 97q-11 57 -11 90zM285 1120q0 43 14 78t43 63.5t66 43.5 q43 16 86 16q63 0 106 -18.5t74 -49.5q27 -27 43 -69q14 -37 14 -86t-8 -82q-10 -39 -31 -72q-20 -35 -57 -69.5t-94 -75.5q-76 49 -121 86q-43 35 -78 80q-31 41 -43 75q-14 43 -14 80z" />
<glyph unicode="9" d="M76 905q0 -119 33 -196q37 -86 84 -134q51 -51 118.5 -73.5t132.5 -22.5q68 0 148 29q70 25 158 90q-41 -127 -84 -215q-53 -104 -121 -176q-70 -74 -176 -131q-104 -57 -246 -84l14 -39q133 12 250 53q111 39 205 98q84 53 158 138q70 80 114 166q49 96 70 184 q23 100 22 196q0 150 -38 259q-41 115 -103 184q-65 74 -147 110q-82 37 -170 37q-86 0 -166 -35q-72 -31 -135 -98q-55 -59 -88 -149q-33 -93 -33 -191zM264 977q0 82 15 141q16 68 40 109q25 43 70 69q40 25 92 25q51 0 90 -20.5t70 -55.5q33 -37 53.5 -80t36.5 -100 q14 -47 21 -111q6 -57 6 -112v-56q0 -20 -4 -53q-2 -10 -5.5 -25.5t-3.5 -19.5q-4 -20 -10 -26q-14 -18 -39 -33q-33 -20 -51 -29q-37 -16 -57 -20q-31 -6 -58 -7q-78 0 -129 33q-53 35 -82 86q-31 55 -43 129t-12 156z" />
<glyph unicode=":" horiz-adv-x="708" d="M184 113q0 -33 11 -54q12 -25 30.5 -43t42.5 -30q20 -10 51 -11q33 0 54 11q25 12 43 30.5t30 42.5q10 20 11 54q0 31 -11 51q-12 25 -30.5 43t-42.5 31q-20 10 -54 10q-31 0 -51 -10q-25 -12 -43 -31t-30 -43q-11 -20 -11 -51zM184 889q0 -33 11 -53q12 -25 30 -43 q23 -23 43 -31q27 -10 51 -10q27 0 54 10q20 8 43 31q18 18 30 43q10 20 10.5 53t-10.5 53q-12 25 -30 43q-20 20 -43 29q-27 10 -54 10q-25 0 -51 -10q-23 -8 -43 -29q-18 -18 -30 -43q-11 -20 -11 -53z" />
<glyph unicode=";" horiz-adv-x="708" d="M184 90q0 -29 11 -47q14 -25 28 -35q18 -12 37 -18t37 -6q6 0 14 1t11 1q4 0 9 1t7 1h8t8 2q2 0 7.5 1t9.5 1q10 0 14 -6q4 -8 4 -19q0 -25 -12 -53q-14 -35 -33 -59q-20 -31 -51 -58q-33 -29 -70 -49l23 -41q41 20 76 47q31 25 71 72q33 39 56 90q20 47 20 104 q0 49 -14 84q-16 39 -37 59.5t-49.5 33t-51.5 12.5q-59 0 -96 -31t-37 -88zM184 889q0 -33 11 -53q12 -25 30 -43q23 -23 43 -31q27 -10 51 -10q27 0 54 10q20 8 43 31q18 18 30 43q10 20 10.5 53t-10.5 53q-12 25 -30 43q-20 20 -43 29q-27 10 -54 10q-25 0 -51 -10 q-23 -8 -43 -29q-18 -18 -30 -43q-11 -20 -11 -53z" />
<glyph unicode="&#x3c;" horiz-adv-x="1646" d="M209 551l1229 -471v127l-1098 407l1098 408v127l-1229 -471v-127z" />
<glyph unicode="=" horiz-adv-x="1175" d="M78 246h1028v135h-1028v-135zM78 655h1028v136h-1028v-136z" />
<glyph unicode="&#x3e;" horiz-adv-x="1646" d="M209 80l1229 471v127l-1229 471v-127l1098 -408l-1098 -407v-127z" />
<glyph unicode="?" horiz-adv-x="944" d="M96 1143q0 -53 15 -82q18 -37 32 -51q18 -18 37 -24.5t31 -6.5q14 0 29 6q16 6 26 16q12 12 20.5 29t8.5 39q0 16 -10 41q-10 23 -23 45q-20 39 -22 47q-10 27 -11 45q0 23 13 47q12 27 34 45q20 18 64 33q37 12 86 12q39 0 84 -16t78 -49q37 -37 57 -88q23 -57 23 -133 q0 -45 -9 -84q-10 -45 -24 -84q-20 -53 -33 -78l-33 -64q-41 -70 -59 -112q-25 -55 -43 -111q-16 -49 -27 -114q-10 -59 -12 -119h45q2 72 19 127q16 59 40 102q23 41 70 98l96 111q6 6 52 61q29 35 53 78q27 47 41 95q16 55 16 110q0 74 -29 137q-27 59 -81 105 q-51 41 -123 63q-74 23 -156 23q-90 0 -162 -25q-71 -25 -116 -67q-51 -47 -72 -95q-25 -55 -25 -112zM340 88q0 -25 10 -49q10 -23 27 -37q14 -12 39 -22q18 -8 43 -9q12 0 41 9q20 6 35 20q23 23 28 37q10 25 10 51q0 23 -10 47q-8 18 -26 37q-15 15 -37 25q-18 8 -41 8 q-27 0 -45 -8q-22 -9 -37 -25q-18 -18 -27 -37q-10 -24 -10 -47z" />
<glyph unicode="@" horiz-adv-x="1961" d="M100 463q0 -109 25 -219q23 -104 76 -213q49 -102 127 -192.5t176 -155.5q92 -61 227 -105q123 -39 277 -39q141 0 264 35q119 33 213 88q106 61 170 123q70 68 125 141q47 63 84 137q33 66 45 115h-60q-25 -53 -55.5 -108.5t-81.5 -122.5q-43 -57 -115 -125 q-63 -59 -151 -111q-74 -41 -193 -76q-108 -31 -239 -30q-141 0 -252 33q-123 37 -205 90q-96 63 -158 135q-74 88 -112 170q-45 96 -66 194q-23 106 -22 207q0 152 32 277q34 129 93 239q61 115 141 199q90 92 180 149q94 59 213 95q111 33 232 32q139 0 262 -43 q117 -41 213 -127t145 -200q53 -123 53 -269q0 -111 -20 -198q-18 -80 -57 -168q-34 -77 -80 -135q-47 -61 -95 -99q-45 -37 -96 -59q-47 -20 -90 -21q-25 0 -39 8.5t-24 22.5q-8 10 -12.5 26.5t-4.5 20.5q0 29 8 68q8 35 25 96q4 12 14.5 52l16.5 63q25 84 34 119l119 415 l-162 -24l-32 -115q-2 8 -15 43q-10 29 -30 49q-23 23 -54 37q-37 16 -82 17q-59 0 -124 -31q-68 -33 -129 -82q-53 -43 -121 -125q-51 -61 -101 -154q-47 -86 -69 -168q-27 -92 -27 -172q0 -55 16.5 -100t41 -75.5t59.5 -47.5q37 -16 69 -16q55 0 117 28q45 20 109 74 q63 51 100 94q27 29 49.5 56.5l34.5 42.5q-14 -74 -16 -117q-4 -57 8 -94q12 -39 47 -61.5t102 -22.5q123 0 226 57q109 59 182 156q78 98 121 233q45 139 45 287q0 172 -59.5 307t-159.5 223q-104 92 -237.5 137.5t-287.5 45.5q-109 0 -229 -29q-123 -29 -227 -86 q-121 -66 -205 -141q-100 -92 -168 -199q-70 -111 -113 -254q-41 -135 -41 -307zM680 305q0 51 16 109q27 90 47 139q39 88 70 143q40 71 86 129q41 51 98 93q51 37 103 36q49 0 82 -28q31 -29 43 -82q10 -51 -2.5 -133t-51.5 -176q-29 -72 -69 -136q-49 -78 -92 -123 q-49 -52 -105 -86q-53 -33 -106 -32q-14 0 -39 10q-23 8 -39 27q-16 16 -29 45q-12 26 -12 65z" />
<glyph unicode="A" horiz-adv-x="1529" d="M16 0h445v39q-72 6 -111 22q-37 16 -47 41q-10 29 -2 62t31 84l96 225h547l84 -203q16 -41 31 -84q12 -38 11 -59q0 -8 -1 -14q-6 -29 -37 -52q-33 -23 -105 -22v-39h555v39q-45 4 -75 12q-31 10 -58 33q-31 27 -53 68q-20 37 -55 118l-490 1172h-37l-495 -1161l-47 -103 q-18 -39 -51 -74q-29 -33 -58 -45q-39 -18 -78 -20v-39zM461 549l246 571l239 -571h-485z" />
<glyph unicode="B" horiz-adv-x="1382" d="M37 0h663q90 0 162 6q70 6 125 18.5t98 30.5q39 16 76 47q27 23 60 62q27 33 45 69q20 41 28.5 76t8.5 76q0 59 -19 115q-18 57 -57 98q-45 47 -101 76q-66 33 -143 47q66 23 113 51q47 31 79.5 72t47.5 90q16 53 16 98q0 39 -10 86q-10 45 -33 86q-25 43 -68 80 q-39 35 -108 64q-72 31 -158 45q-98 16 -217 16h-608v-37h51q41 0 72 -12q27 -10 49 -33q29 -35 29 -166v-911q0 -57 -6.5 -98t-16.5 -56q-39 -57 -127 -57h-51v-39zM438 102v578q20 4 74 8q31 2 111 2q108 0 190 -24q86 -25 137 -66q55 -43 84 -102q29 -61 29 -129 q0 -63 -25 -119q-23 -51 -73 -92q-49 -39 -121 -62q-74 -23 -166 -22q-41 0 -119 8q-68 6 -121 20zM438 776v543q47 14 88 16q61 4 101 4q100 0 174 -24q76 -25 123 -64q45 -37 71 -96q25 -55 25 -113q0 -70 -21 -118q-20 -51 -67 -88t-119 -56q-74 -18 -176 -18 q-78 0 -111 2q-47 2 -88 12z" />
<glyph unicode="C" horiz-adv-x="1419" d="M76 684q0 -143 47 -274q49 -135 133 -230q88 -98 217 -155q127 -57 289 -58q98 0 184 23q92 25 156 65q66 43 131 115q59 66 113 160l-31 22q-55 -82 -117 -145q-47 -51 -113 -90q-51 -33 -114 -45q-58 -12 -129 -13q-117 0 -217 41q-94 39 -166 119q-74 82 -109 195 q-37 117 -37 268q0 176 37 305t103 213q70 88 159 127q94 41 199 41q80 0 154 -22q72 -23 131 -72q63 -53 106 -125q51 -84 80 -186h33l-33 479h-37q-12 -47 -35 -74q-23 -25 -51 -25q-18 0 -45 15q-25 14 -74 34.5t-104 34.5q-57 14 -141 15q-111 0 -203 -27 q-94 -27 -176 -78q-76 -47 -144 -120q-61 -68 -106 -154q-47 -92 -68 -180q-22 -101 -22 -199z" />
<glyph unicode="D" horiz-adv-x="1536" d="M37 0h631q205 0 352 55.5t245.5 153.5t143.5 225q47 131 47 279q0 78 -16 159q-16 78 -43 146q-25 57 -70 125q-39 57 -88 100q-55 47 -111 76q-57 29 -137 51q-68 18 -170 29q-106 10 -211 10h-573v-37h53q39 0 69.5 -12t51.5 -33q27 -35 27 -166v-911q0 -57 -6.5 -98 t-16.5 -56q-18 -28 -49 -43q-29 -14 -76 -14h-53v-39zM438 102v1198q49 14 115 23q70 8 98 8q125 0 229.5 -43t180.5 -125q72 -78 117 -198q43 -117 43 -263q0 -147 -43 -264q-45 -121 -119 -200.5t-178.5 -122.5t-221.5 -43q-51 0 -100 8q-88 14 -121 22z" />
<glyph unicode="E" horiz-adv-x="1298" d="M45 0h1085l123 354h-43q-49 -86 -86 -141q-33 -49 -82 -84q-43 -31 -98 -43q-47 -10 -143 -10h-238q-51 0 -76 12q-27 12 -34 33q-8 18 -9 49v63v465h310q74 0 112 -12q43 -12 63.5 -36.5t31.5 -65.5q2 -10 16 -95h39v490h-39l-16 -92q-10 -39 -31 -64q-18 -20 -64 -35 q-39 -12 -112 -12h-310v557h390q66 0 104 -8q41 -8 69.5 -24.5t45 -39t24.5 -44.5q4 -14 15 -56q10 -45 14 -59h41l-17 307h-1085v-37h49q45 0 76 -12q35 -14 49 -31q27 -27 27 -164v-915q0 -55 -2 -76q-4 -39 -8 -51q-8 -27 -13 -31q-6 -8 -18 -20q-10 -8 -27 -15l-10 -5 t-11 -5t-10 -2q-20 -4 -30 -4q-6 0 -13.5 -1t-9.5 -1h-49v-39z" />
<glyph unicode="F" horiz-adv-x="1183" d="M35 0h604v39h-51q-29 0 -72 14q-33 10 -57 39q-14 14 -19 53q-4 49 -4 105v442h256q51 0 88 -12q35 -12 58 -37q22 -25 30 -61q8 -33 9 -88h38v477h-38q-10 -61 -21 -92q-12 -37 -33 -58q-25 -25 -53 -33q-27 -8 -78 -8h-256v553h312q77 0 129 -12q53 -12 86 -39 q37 -31 57 -72q23 -47 41 -108h37l-15 307h-1048v-37h51q33 0 65.5 -12t55.5 -35q16 -16 22 -51q6 -37 7 -113v-911q0 -126 -25 -160q-43 -51 -125 -51h-51v-39z" />
<glyph unicode="G" horiz-adv-x="1536" d="M74 684q0 -145 53 -281q51 -131 154 -229q98 -94 245 -151q145 -55 328 -56q141 0 256 29q123 31 240 98v430q0 57 6 94q8 43 16 58q28 55 111 55h24v37h-544v-37q68 -4 94 -10q33 -8 55.5 -30.5t28.5 -61.5q6 -40 6 -105v-407q-61 -39 -143 -60q-74 -18 -148 -18 q-121 0 -217 51q-100 53 -172 143q-76 94 -115 217t-39 279q0 131 35 252q35 119 102.5 205t166 135t225.5 49q82 0 149.5 -20.5t129 -65.5t106.5 -115q51 -78 82 -172h34l-34 445h-39q-4 -31 -8.5 -45.5t-14.5 -28.5q-6 -8 -14 -12t-14 -4q-23 0 -52 14q-12 6 -77 31 q-25 10 -115 30q-59 14 -154 15q-115 0 -225 -33q-102 -31 -186 -86q-78 -51 -146 -129q-57 -66 -104 -160q-41 -84 -64 -174q-22 -94 -22 -176z" />
<glyph unicode="H" horiz-adv-x="1536" d="M37 0h604v39h-51q-31 0 -74 14q-33 10 -53 35q-14 18 -21 53q-6 37 -6 109v430h658v-430q0 -65 -7 -105q-6 -37 -20 -55q-39 -51 -125 -51h-51v-39h604v39h-51q-37 0 -74 12q-33 10 -53 39q-6 8 -14 25q0 2 -7 32q-4 25 -4 46v57v911v68q0 20 4 45q2 18 9 29q6 12 18 24 q20 20 55 32.5t66 12.5h51v37h-604v-37h51q34 0 68 -12q33 -12 53 -33q12 -12 22 -51q8 -33 9 -115v-405h-658v405q0 49 2 68l6 47q2 14 11 31q6 12 14 20q23 25 53 35q35 10 68 10h51v37h-604v-37h51q8 0 33 -4q12 -2 37 -10q14 -6 30 -15q14 -8 21 -18q6 -8 14 -25 q4 -10 8 -30q4 -25 5 -45q0 -8 1 -28.5t1 -35.5v-911q0 -126 -25 -160q-43 -51 -125 -51h-51v-39z" />
<glyph unicode="I" horiz-adv-x="708" d="M53 0h604v39h-51q-10 0 -39 4l-37 12q-20 6 -32 17q-14 10 -19 16q-12 18 -18 57q-6 37 -6 105v911q0 49 8 103q6 39 18 57q43 51 125 51h51v37h-604v-37h51q37 0 72 -14q33 -14 55 -39q10 -10 13 -21q2 -8 6 -32.5t4 -42.5v-62v-911q0 -129 -25 -160q-25 -29 -51 -39 q-31 -12 -74 -12h-51v-39z" />
<glyph unicode="J" horiz-adv-x="827" d="M45 127q0 -33 12 -59q12 -29 41 -52q35 -27 66 -36q41 -12 90 -13q18 0 72 8q43 6 80 27q43 23 77 55q31 29 66 90q27 49 47 136q18 80 18 188v690q0 123 25 160q25 29 51 39q31 12 74 12h51v37h-602v-37h49q20 0 41 -6q33 -10 39 -12q12 -6 33 -19q12 -6 20 -20 q14 -25 17 -55q4 -49 4 -99v-962q0 -33 -8 -74q-6 -31 -19 -49q-12 -20 -24 -27q-14 -8 -27 -8q-23 0 -35 14q-18 25 -24 37q0 2 -8.5 19.5t-12.5 27.5q-8 23 -22 47q-10 16 -35 35q-20 14 -51 15q-20 0 -39 -7q-16 -6 -33 -18q-14 -12 -25 -35q-8 -18 -8 -49z" />
<glyph unicode="K" horiz-adv-x="1536" d="M37 0h600v39h-49q-37 0 -74 12q-33 10 -53 39l-12 25q-4 8 -8.5 32.5t-4.5 45.5v57v332l62 61l424 -422q29 -29 39 -41q15 -18 24 -30q10 -14 12 -23q4 -16 2 -23q-4 -29 -28.5 -47t-85.5 -18v-39h671v39q-61 8 -90 16q-41 12 -90 35q-96 47 -219 174l-520 518l215 215 l113 113l75 76l17.5 18t11.5 11.5t8 8.5t13 11l36 31l31 24l19.5 12.5l19.5 12.5q10 8 29.5 18t21.5 10q22 12 43 19q12 4 41 8q12 2 41 2v37h-520v-37h33q52 0 73 -18q20 -18 21 -41q0 -18 -6 -37q-6 -14 -21 -37q-27 -43 -125 -147q-70 -74 -247 -242l-97 -90 q-33 -31 -47 -41v442q0 55 2 74q2 10 5 29l3 18q2 16 11 31q4 8 14 18q20 20 53 31q35 10 64 10h49v37h-600v-37h49q12 0 37 -4q6 0 11 -2l12.5 -5t11.5 -5q25 -8 32 -15q16 -12 19 -14q14 -18 20 -55q6 -40 7 -111v-911q0 -127 -23 -160q-43 -51 -127 -51h-49v-39z" />
<glyph unicode="L" horiz-adv-x="1298" d="M39 0h1096l122 383l-36 6q-4 -10 -17.5 -40t-19.5 -42l-35 -61q-20 -31 -39 -49q-37 -37 -47 -45q-14 -14 -47 -31q-25 -12 -60 -19q-41 -8 -82 -10q-31 -2 -110 -2h-143q-57 0 -80 4q-31 6 -54 25q-25 20 -32 51q-10 37 -11 96v928q0 63 15 94q16 35 42.5 53.5 t65.5 24.5q25 4 84 4v39h-612v-39q59 0 84 -4q39 -6 65.5 -24.5t42.5 -53.5q14 -31 15 -94v-979q0 -63 -15 -94q-16 -35 -42.5 -53.5t-65.5 -24.5q-25 -4 -84 -4v-39z" />
<glyph unicode="M" horiz-adv-x="1892" d="M37 0h489v39h-49q-88 0 -121 43q-31 33 -30 164v940l544 -1186h35l545 1186v-940q0 -61 -6 -99q-6 -41 -17 -53q-25 -33 -51 -43q-31 -12 -78 -12h-49v-39h600v39h-49q-84 0 -121 43q-31 33 -30 164v919q0 59 6 97q8 43 16 57q41 53 129 53h49v37h-399l-504 -1102 l-512 1102h-397v-37q23 0 55 -4q37 -4 41 -6q18 -6 31 -12q8 -4 24 -17q28 -22 37 -61q8 -35 8 -107v-919q0 -61 -6 -99q-6 -41 -14 -53q-25 -33 -51 -43q-31 -12 -76 -12h-49v-39z" />
<glyph unicode="N" horiz-adv-x="1536" d="M12 1372q59 0 103 -18q37 -16 69 -45q23 -20 41 -49q8 -12 25 -35v-979q0 -121 -25 -152q-20 -33 -49 -43q-31 -12 -78 -12h-49v-39h492v39h-49q-83 0 -123 43q-29 35 -29 164v866l932 -1135h37v1188q0 59 6 97q8 43 16 57q23 29 49 39q39 14 78 14h49v37h-489v-37h47 q84 0 123 -45q29 -29 29 -162v-813l-861 1057h-344v-37z" />
<glyph unicode="O" horiz-adv-x="1536" d="M74 709q0 -162 53 -303q49 -127 147 -234q94 -100 218 -152q129 -53 270 -53q98 0 188 25q80 23 166 74q78 47 139 114q68 74 107 150q43 84 68 180q25 98 24 203q0 106 -24 200q-25 96 -68 177q-45 82 -107 147q-59 61 -137 111q-72 45 -160 69q-86 25 -178 25 q-100 0 -192 -25q-86 -23 -170 -71q-68 -39 -142 -113q-63 -61 -108 -146q-45 -80 -70 -178q-24 -94 -24 -200zM313 715q0 158 29 272q31 127 86 207q55 82 141 129q82 45 189 45q115 0 203 -47q86 -47 145 -133q57 -84 86 -215q27 -121 27 -287q0 -162 -35 -289 q-33 -121 -94 -200q-59 -78 -146 -119q-76 -37 -184 -37q-106 0 -192.5 51t-139.5 137q-59 96 -86 213q-29 128 -29 273z" />
<glyph unicode="P" horiz-adv-x="1183" d="M37 0h602v39h-53q-82 0 -119 47q-18 16 -25 57q-6 43 -6 107v391q14 -2 37 -4t29 -2q33 -4 45 -4h33h36q138 0 234 31q94 31 151 81q59 53 84 125q25 70 25 152q0 57 -12 100q-12 39 -35 80q-20 35 -51 66q-33 33 -64 55q-33 25 -84 45q-41 16 -98 27q-53 10 -107 12 q-74 4 -108 4h-514v-37h51q41 0 72 -12q27 -10 49 -33q27 -35 27 -166v-911q0 -63 -7 -100q-6 -41 -14 -54q-37 -57 -127 -57h-51v-39zM436 711v596q16 4 76 14q33 6 61 6q78 0 132 -27q55 -28 92 -73q41 -51 57 -105q18 -58 18 -123q0 -68 -22 -125q-23 -55 -57 -94 q-39 -41 -84 -61q-47 -20 -103 -21q-45 0 -74 2q-61 5 -96 11z" />
<glyph unicode="Q" horiz-adv-x="1536" d="M74 707q0 -117 26 -222q31 -119 86 -204q57 -90 158 -170q94 -76 236 -125q70 -76 166 -145.5t210 -125.5q114 -55 240 -92q117 -35 252 -41v35q-82 6 -152 31q-72 25 -131 69q-70 51 -118 113q-61 74 -109 156q111 33 213 104q94 68 164 162q68 92 104.5 209t36.5 244 q0 160 -53 296q-51 133 -146 234q-88 92 -217 151q-123 55 -264 56q-100 0 -190 -24.5t-168 -71.5q-77 -46 -142 -111q-59 -59 -108 -148q-45 -80 -70 -178q-24 -94 -24 -202zM313 707q0 160 31 282q31 127 88 207q57 82 141 125q82 43 189 43q111 0 196.5 -49t143.5 -137 q55 -86 88 -217q29 -117 29 -283q0 -150 -31 -268.5t-88 -200.5q-59 -86 -144 -127q-86 -43 -194 -43q-111 0 -193 49q-84 49 -141 137q-59 90 -86 211q-29 128 -29 271z" />
<glyph unicode="R" horiz-adv-x="1419" d="M37 0h604v39h-55q-82 0 -119 47q-31 31 -31 164v409q25 -4 33 -4h31h37q12 0 49 4l477 -659h377v39q-45 4 -105 20q-43 12 -86 39q-39 25 -82 72q-35 39 -88 111l-288 405q89 22 153 55q66 35 109 80q41 45 63 105q20 55 21 123q0 61 -19 112q-16 47 -53 94 q-29 35 -82 72q-47 31 -100 49q-43 14 -138 25q-74 8 -196 8h-512v-37h53q39 0 69.5 -12t51.5 -33q27 -35 27 -166v-911q0 -125 -21 -154q-33 -57 -127 -57h-53v-39zM436 725v588q109 18 164 18q70 -4 125 -24q57 -23 96 -62t60 -92q23 -57 22 -121q0 -68 -24 -123 q-25 -57 -76 -98q-53 -43 -127 -63q-80 -23 -180 -23h-60z" />
<glyph unicode="S" horiz-adv-x="1183" d="M135 1071q0 -72 17 -119q18 -55 61 -102t127 -107q92 -63 205 -127q104 -59 157 -92q68 -43 105 -75q41 -37 59 -78q18 -40 19 -92q0 -45 -19 -89q-16 -41 -57 -73q-37 -31 -88 -49q-52 -18 -117 -19q-72 0 -145.5 22.5t-126.5 69.5q-57 51 -96 125t-52 185h-37v-484h37 q6 43 23 64q14 16 40.5 16t59.5 -12q16 -6 37 -12.5l45 -14.5q51 -16 107 -28q57 -12 131 -13q98 0 180 31q78 29 139 84q57 51 92 125q33 68 33 153q0 84 -41 162q-39 76 -110 131q-49 37 -105 70l-166 94q-104 55 -172 98q-72 45 -108 80q-35 33 -54 72q-16 37 -16 76 t20 84q18 39 52 69q31 27 80 47q41 16 96 17q68 0 141 -27q68 -25 119 -76q52 -52 86 -129q37 -84 45 -174h39v488h-39q-12 -43 -27 -62q-14 -16 -41 -16q-23 0 -53 12l-69 27q-31 12 -91 27q-49 12 -112 12q-94 0 -170 -31q-82 -33 -129 -80q-57 -57 -82 -119 q-29 -69 -29 -141z" />
<glyph unicode="T" horiz-adv-x="1294" d="M51 1079h47q12 143 88 199q20 16 31 22q6 4 37 13q16 4 51 8q20 2 72 2h168v-1077q0 -61 -6 -99q-6 -41 -15 -53q-25 -33 -51 -43q-31 -12 -76 -12h-51v-39h598v39h-49q-84 0 -121 43q-16 20 -22 57q-6 41 -7 107v1077h199q72 0 115 -18q47 -20 78 -52q16 -16 22 -26 q12 -20 19 -35q8 -18 14 -47q8 -35 10 -66h45l-12 330h-1169z" />
<glyph unicode="U" horiz-adv-x="1536" d="M31 1372h32q39 0 70 -10q29 -10 47 -31q16 -20 27 -63q8 -39 8 -107v-553v-92q0 -68 4 -102q6 -57 19 -107q12 -53 36 -102q25 -51 66 -94q40 -43 98 -74q68 -35 140 -51q83 -18 190 -19q72 0 139 10q70 10 113 27q51 18 90 49q45 35 80 70q39 41 61 88q18 37 37 106 q14 53 21 123q4 43 4 140v573q0 119 22 147q18 33 54 54q31 18 73 18h54v37h-500v-37h53q78 0 121 -45q29 -35 29 -166v-571v-82q0 -61 -9 -113q-10 -61 -30 -119q-23 -59 -60 -94q-16 -16 -51 -40.5t-74 -41.5q-53 -23 -96 -32q-52 -12 -117 -13q-94 0 -151 23 q-66 27 -103 63q-43 43 -63 90q-25 53 -35 105q-8 37 -12 108q-2 37 -2 101v616q0 45 8 99q6 35 18 57q9 15 19 24q12 12 20 17q14 8 29 10q20 4 37 4h53v37h-569v-37z" />
<glyph unicode="V" horiz-adv-x="1536" d="M18 1372q55 -6 80 -14q31 -8 54 -29q6 -6 18 -14q10 -6 18 -21q18 -31 23 -39q20 -41 33 -71l526 -1217h39l491 1202q43 106 99 156q18 18 47 31q20 8 65 16v37h-434v-37q16 -2 64 -14q20 -4 39 -17q16 -10 22 -16t15 -18q10 -15 9 -37q0 -17 -5 -39q-12 -47 -43 -125 l-332 -819l-361 827q-37 88 -45 129q-3 15 -3 29q0 30 14 49q14 20 46.5 32.5t96.5 18.5v37h-576v-37z" />
<glyph unicode="W" horiz-adv-x="2009" d="M29 1372q90 0 127 -45q10 -6 16 -16q4 -6 14 -27q12 -23 23 -53l33 -92l417 -1172h39l320 901l319 -901h43l392 1139q18 57 40 111q25 57 27 61q18 33 33 47q20 20 37 29q25 12 39 14q29 4 45 4v37h-420v-37q47 0 84 -10q33 -8 55 -35q10 -14 14 -33q2 -12 -2 -45 q-2 -16 -14 -61q-2 -12 -27 -82l-268 -778l-272 768q-16 49 -33 110q-12 46 -12 74q0 43 28.5 67.5t83.5 24.5h37v37h-549v-37q47 0 70 -8q25 -10 45 -27q25 -20 45 -59q33 -61 43 -86q25 -61 35 -90l25 -72q8 -25 8 -29l-234 -673l-276 792q-23 61 -31 94q-10 41 -12 56 q-2 20 0 33q4 16 8 22q25 47 100 47h25v37h-520v-37z" />
<glyph unicode="X" horiz-adv-x="1536" d="M14 0h502v39q-31 0 -67 8q-23 4 -41 16q-14 8 -21 25q-6 15 -6 31t2 24q4 16 8 25q2 4 9.5 14.5t11.5 14.5l32 45l297 379l238 -363q8 -12 23.5 -37.5t21.5 -36.5q14 -25 20 -45q6 -18 3 -33q-4 -16 -15 -28q-15 -22 -43 -31q-25 -8 -82 -8v-39h604v39q-39 2 -81 14 q-33 8 -72 41q-37 31 -80 86q-41 51 -107 150l-303 452l283 357l82 100q43 51 72 72q39 29 77 43q43 16 99 18v37h-502v-37q29 0 61 -4q35 -4 39 -6q8 -2 25 -14l16 -17q13 -14 13 -34q0 -14 -7 -29q-16 -41 -59 -94l-250 -318l-217 324q-25 37 -37 61.5t-12 44.5q0 23 6 31 q12 18 25 26q35 27 114 29v37h-651v-37q49 -2 96 -16q51 -14 88 -41q43 -31 88 -82t101 -131l278 -408l-334 -422q-31 -39 -77 -86q-39 -39 -86 -73q-39 -29 -93 -54q-43 -20 -92 -20v-39z" />
<glyph unicode="Y" horiz-adv-x="1536" d="M18 1372q43 0 80 -18q45 -23 64 -39q29 -23 53 -60l59 -86l385 -589v-334q0 -61 -6 -99q-6 -41 -14 -53q-25 -33 -51 -43q-31 -12 -76 -12h-49v-39h598v39h-45q-88 0 -125 43q-31 31 -31 164v352l342 535q10 18 58 88q25 37 47 59q20 23 47 43q16 12 49 29q6 4 45 14 q23 6 33 6h26v37h-491v-37q23 0 51 -4q14 -2 35 -10q14 -6 24 -17q6 -6 15 -18q19 -26 19 -55q0 -15 -5 -29q-16 -49 -59 -115l-279 -434l-293 453q-35 59 -47 86q-16 37 -16 51q0 29 14 45q16 20 37 29q29 12 43 14q29 4 37 4h31v37h-605v-37z" />
<glyph unicode="Z" horiz-adv-x="1298" d="M29 0h1147l65 373l-33 6q-23 -76 -61 -148q-33 -61 -68 -88q-66 -57 -202 -57h-578l926 1323h-1043l-28 -352h39q8 49 18 88q9 37 18 61q10 29 21 41q16 20 26 29q35 27 78 39q47 12 127 12h449l-901 -1288v-39z" />
<glyph unicode="[" horiz-adv-x="708" d="M195 -317v-11h426v45h-211q-10 0 -23 7q-16 8 -20.5 12t-12.5 20q-6 12 -6 23v1468q0 10 6 23q8 16 12.5 20t20.5 13q12 6 23 6h211v47h-426v-1673z" />
<glyph unicode="\" horiz-adv-x="653" d="M18 1384l449 -1419h104l-450 1419h-103z" />
<glyph unicode="]" horiz-adv-x="708" d="M86 -283v-45h426v11v1673h-426v-47h211q10 0 22 -6q16 -8 20.5 -12.5t12.5 -20.5q6 -12 6 -23v-1468q0 -10 -6 -23q-8 -16 -12 -20t-21 -12q-12 -6 -22 -7h-211z" />
<glyph unicode="^" horiz-adv-x="839" d="M121 848l67 -8l224 438l241 -432l72 2l-285 653h-39z" />
<glyph unicode="_" horiz-adv-x="1024" d="M0 -164v-76h1024v76h-1024z" />
<glyph unicode="`" horiz-adv-x="798" d="M0 1370q0 -12 10 -27q12 -16 23 -24q20 -16 30 -23l29 -18l307 -195h86l-295 297q-25 25 -63 50q-33 20 -61.5 20t-47 -20.5t-18.5 -59.5z" />
<glyph unicode="a" horiz-adv-x="944" d="M76 225q0 -51 16 -100q14 -43 47 -76t72 -49q43 -18 92 -18q37 0 66 6q27 6 59 22q35 18 74 47l104 80q0 -49 8.5 -75.5t24.5 -47.5q16 -18 35 -24q29 -8 43 -8q109 0 227 155v60q-29 -29 -47 -45q-4 -4 -14.5 -12.5t-14.5 -12.5q-12 -10 -20 -12q-6 -2 -17 -2 q-22 0 -30 12q-8 10 -15 39l-4 57q-2 29 -2 109v325q0 74 -12 136q-12 63 -43 102q-33 41 -98 63q-68 23 -166 23q-61 0 -131 -16q-61 -14 -110.5 -45t-78 -76t-28.5 -101q0 -47 22.5 -73.5t65.5 -26.5q39 0 63 27q25 29 23 71l-2 62q4 49 41 84q35 33 102 33q43 0 78 -13 q34 -12 55 -43q25 -33 35 -76q10 -39 10 -116v-39q-147 -51 -196 -74q-90 -41 -142 -70q-66 -39 -96 -63q-33 -27 -59 -66q-18 -27 -29 -63q-8 -31 -8 -70zM252 274q0 31 10 68q8 33 47 67.5t107 73.5q71 40 190 86v-364q-65 -52 -117 -80q-47 -25 -84 -25h-8q-25 0 -57 15 q-23 10 -45 37q-18 20 -31 53q-12 30 -12 69z" />
<glyph unicode="b" horiz-adv-x="1064" d="M-8 1364l14 -37q53 16 74 16q25 0 41 -14q12 -12 16 -18q8 -10 10 -35q2 -8 3.5 -33.5t1.5 -38.5q2 -31 2 -127v-985q84 -57 178 -92q86 -31 168 -31q94 0 186 41q90 41 157.5 115t106.5 172q41 104 41 217q0 109 -30 195q-33 90 -78 147q-47 59 -117 92q-66 31 -139 31 q-160 0 -299 -191v691h-49zM328 152v571q41 39 71 59q27 18 56 33q27 14 47 16q14 2 41 3q53 0 102 -25q47 -23 86 -76q35 -47 57 -119q23 -74 23 -159q0 -98 -23 -179q-18 -66 -61 -126q-39 -55 -82 -78q-46 -25 -92 -25q-61 0 -117 27q-59 29 -108 78z" />
<glyph unicode="c" horiz-adv-x="944" d="M72 475q0 -111 32 -209q33 -96 86 -160q57 -66 129 -102q70 -35 158 -35q68 0 135.5 29t120.5 82q55 55 90 123q35 66 51 159l-28 15q-33 -80 -64 -121q-33 -45 -71 -74q-37 -29 -76 -37q-45 -10 -84 -10q-78 0 -133 35q-53 35 -96 96q-35 51 -60 137q-20 74 -20 162 q0 80 16 137q16 61 49 109q29 43 80 74q45 27 105 26q72 0 106 -34q33 -33 39 -91q2 -41 16.5 -67.5t28.5 -36.5q16 -10 37 -14q25 -4 33 -4q49 0 73 26q25 28 25 62q0 43 -23 77q-29 43 -69 76q-92 74 -232 74q-92 0 -176 -37q-80 -35 -143 -102q-61 -63 -98 -158 q-37 -92 -37 -207z" />
<glyph unicode="d" horiz-adv-x="1064" d="M70 436q0 -94 32 -186q31 -84 84 -148q51 -59 125 -98q68 -35 150 -35q88 0 149.5 35t128.5 102v-137h47l287 119l-12 37q-43 -16 -70 -19q-25 -2 -45 15q-12 10 -18 20q-8 14 -10 39q-4 37 -5 74v123v1102h-47l-286 -115l14 -37q35 12 70 16q27 2 43 -14q12 -12 16 -20 q6 -10 8 -35q6 -49 6 -72q0 -12 1 -54t1 -71v-176q-43 43 -94 61.5t-113 18.5q-63 0 -137 -25q-61 -20 -114 -61q-43 -33 -91 -94q-35 -45 -65 -115q-31 -68 -41 -123q-14 -76 -14 -127zM262 520q0 96 21 166q23 76 55.5 127t81.5 80q41 25 90 25h10q57 -4 92 -25 q47 -29 70 -59q28 -37 43 -80q14 -41 14 -82v-492q-47 -49 -90 -71q-45 -23 -94 -23q-51 0 -102 25q-49 23 -95 77q-43 51 -69 134q-27 79 -27 198z" />
<glyph unicode="e" horiz-adv-x="944" d="M78 465q0 -115 33 -205q35 -94 90 -156q63 -70 133 -100q80 -35 160 -35q84 0 149 33q72 35 119 86q47 49 80 123q31 68 43 137l-33 21q-23 -59 -55 -111q-25 -37 -64 -70q-29 -23 -74 -36q-33 -10 -86 -11q-70 0 -133 31q-57 27 -110 90q-47 57 -76 141q-29 86 -29 191 h660q0 94 -27 162q-29 74 -78 123t-114.5 75.5t-145.5 26.5q-96 0 -178 -35q-80 -35 -139.5 -102.5t-91.5 -161.5q-33 -92 -33 -217zM225 653q6 59 28.5 108.5t53.5 80.5q35 35 72 49q43 16 82 16q20 0 61 -10q29 -8 68 -39q33 -27 55.5 -78t22.5 -127h-443z" />
<glyph unicode="f" horiz-adv-x="708" d="M78 877h186v-625q0 -55 -2 -76q-3 -31 -6 -49q-2 -14 -14.5 -30.5t-20.5 -24.5q-18 -18 -47 -27q-23 -6 -47 -6h-43v-39h573v39h-86q-70 0 -102 45q-18 18 -25 59q-6 43 -6 109v625h246v75h-246v68q0 74 4 172q2 72 19 119q15 46 43 67q29 23 78 23q39 0 61 -15 q33 -20 47 -34q18 -18 35 -45q10 -16 35 -45q18 -20 35 -35q14 -12 47 -13q18 0 32 9l27 20q12 12 19 29q6 14 6 28q0 37 -25 68q-29 35 -61.5 57.5t-83.5 38.5q-43 14 -92 15q-4 0 -54 -4q-29 -2 -80 -21q-49 -16 -90 -45q-51 -35 -88 -82q-39 -51 -63 -127 q-25 -77 -25 -184v-64h-186v-75z" />
<glyph unicode="g" horiz-adv-x="1064" d="M63 -262q0 -37 35 -72q37 -35 95 -63q66 -31 133 -47.5t155 -16.5q113 0 211.5 31t170 84t110.5 119q41 70 41 139q0 55 -18.5 92t-51.5 64q-35 29 -67 38q-47 16 -76 21q-49 8 -70 8q-10 0 -26.5 1t-22.5 1q-117 3 -184 6q-72 4 -107 6.5t-53 10.5q-20 8 -27 14 q-16 16 -16 35q0 16 10 41q8 18 29 43q16 18 39 35q25 -8 73 -17q25 -4 72 -4q84 0 160 27q61 20 117 69q49 43 73 103q25 58 25 123q0 63 -14 106q-16 47 -43 84h122h13q4 0 11 1t13 1q14 0 21 6q4 4 8 21q2 10 2 20q0 39 -14 41q-20 4 -27 4q-4 0 -13 -1t-16 -1 q-4 0 -16 -1t-20 -1q-6 0 -24.5 -1t-29.5 -1q-55 0 -86 11l-75 24q-37 12 -80 24.5t-105 12.5q-86 0 -160 -29q-66 -25 -118 -76q-49 -45 -74 -108q-27 -66 -27 -129q0 -51 11 -86q10 -37 34 -82q18 -35 58 -70q33 -31 78 -51q-37 -31 -86 -80q-27 -27 -52 -59 q-14 -20 -22 -47q-6 -23 -6 -39q0 -35 24.5 -59.5t73.5 -55.5q-55 -55 -92 -98q-51 -59 -60 -72q-22 -31 -30 -55q-9 -22 -9 -45zM213 -182q0 27 6 47q4 14 21 43q12 22 30 43l41 49q84 -12 154 -14q150 -6 207 -9q45 -2 135 -12q52 -6 80 -18q29 -12 41 -31q10 -14 10 -43 q0 -37 -22.5 -76t-67.5 -65q-49 -31 -113 -47q-68 -18 -162 -19q-82 0 -147 12q-80 14 -113 31q-49 23 -73 47q-27 27 -27 62zM322 682q0 70 14 113q16 47 39 75q25 31 57 45q31 14 70 15q47 0 86 -24.5t65 -65.5q25 -37 41 -105q14 -57 15 -133q0 -68 -15 -110 q-16 -51 -37 -76q-20 -27 -57 -43q-31 -14 -70 -15q-47 0 -88 25q-39 25 -65 66q-25 37 -41 102q-14 55 -14 131z" />
<glyph unicode="h" horiz-adv-x="1064" d="M12 1364l17 -37q20 8 43 12q25 4 32 4q39 0 56 -34q14 -31 14 -109v-1005q0 -51 -4 -72q-6 -33 -20.5 -49.5t-45.5 -26.5q-25 -8 -75 -8v-39h471v39q-49 0 -80 6q-33 6 -47.5 24.5t-20.5 47.5q-4 20 -4 78v522q39 45 72 71q34 28 61 43q27 14 54 19q33 4 49 4 q63 0 94 -31q35 -35 45 -75q14 -53 14 -99v-98v-356q0 -37 -8 -78q-6 -33 -22.5 -49.5t-47 -22.5t-75.5 -6v-39h471v39q-39 0 -76 8q-28 6 -43 25q-18 20 -21 49q-4 41 -4 74v356q0 14 -1 47t-1 49q0 37 -8 98q-6 39 -22 89q-16 47 -43 75q-31 35 -70 52q-43 18 -102 18 q-23 0 -76 -8q-35 -6 -78 -29q-45 -25 -80 -59q-39 -39 -82 -101v697h-49z" />
<glyph unicode="i" horiz-adv-x="591" d="M66 864l14 -37q43 16 74 17q43 0 57 -35t14 -104v-510q0 -47 -6 -78q-6 -27 -22 -47q-15 -18 -43 -24.5t-74 -6.5v-39h465v39q-46 0 -74 6q-31 6 -43 23q-16 20 -22 49q-6 31 -7 78v784h-45zM207 1276q0 -47 31 -78q29 -29 75 -29q25 0 41 9q20 10 33 22q10 10 23 35 q8 16 8 40.5t-8 41.5q-10 20 -22.5 32.5t-33.5 22.5q-16 8 -41 8q-16 0 -41 -8q-23 -8 -35 -20.5t-22 -32.5q-8 -16 -8 -43z" />
<glyph unicode="j" horiz-adv-x="591" d="M-164 -356q0 -16 12.5 -35t32.5 -33q25 -18 58 -27q37 -10 84 -10q80 0 149 29q72 29 121 88q51 61 78 149q29 96 28 215v959h-45l-288 -115l12 -37q49 16 72 17q25 0 45 -15q8 -4 14 -22q8 -20 10 -41q4 -37 4 -74q0 -14 1 -51t1 -61v-678q0 -16 -1 -49t-1 -50 q0 -55 -8 -90q-10 -45 -29 -65q-23 -25 -57 -25q-20 0 -39 10q-25 14 -45 35q-33 33 -59.5 49.5t-63.5 16.5q-35 0 -61 -27q-25 -24 -25 -63zM203 1276q0 -47 30 -78q29 -29 76 -29q27 0 43 9q20 10 33 22q10 10 23 35q8 16 8 41q0 20 -10.5 40.5t-22.5 33.5q-14 14 -35 24 q-16 8 -39 8q-25 0 -41 -8t-32.5 -24.5t-24.5 -32.5t-8 -41z" />
<glyph unicode="k" horiz-adv-x="1064" d="M14 0h488v39q-12 0 -29.5 1t-23.5 1q-18 0 -35 4q-12 2 -23 10q-9 6 -18 19q-8 12 -11 18q-6 23 -8 27q-4 20 -4 39v57v311l291 -368q4 -6 12.5 -16.5t12.5 -16.5q9 -15 12 -25q4 -12 4 -20q0 -4 -4 -17q-6 -16 -19 -20q-10 -4 -45 -4v-39h463v39q-12 0 -31.5 1t-25.5 1 q-20 0 -33 6q-16 10 -29 16q-16 8 -24 15q-16 12 -25 20q-20 20 -32 35l-48 55l-67 84l-250 312l250 223q35 33 65 53q25 18 60 33q27 12 63 18q25 4 78 9v32h-414v-32q43 -4 58 -19q16 -16 16 -35q0 -10 -2 -16q-2 -8 -12 -21l-31 -30q-20 -20 -53 -47l-240 -203v930h-49 l-287 -115l21 -37q35 12 43 14q12 2 31 2q8 0 20 -4q6 -2 14 -10q6 -6 15 -18q8 -10 10 -35q2 -16 2 -72q0 -12 1 -55t1 -74v-866q0 -57 -6 -90q-6 -35 -21 -49q-18 -18 -48.5 -24.5t-82.5 -6.5v-39z" />
<glyph unicode="l" horiz-adv-x="591" d="M61 1364l19 -37q20 8 39 12q20 4 28 4q10 0 23 -4q10 -4 20 -10q4 -4 13 -16q8 -10 10 -35q4 -33 4 -72q0 -12 1 -55t1 -72v-864q0 -70 -8 -96q-10 -35 -21 -47q-6 -8 -18 -17q-10 -8 -22 -10q-16 -4 -29 -4q-6 0 -19.5 -1t-21.5 -1v-39h467v39q-37 0 -51 2q-8 2 -21.5 5 t-15.5 3q-10 2 -23 10q-10 6 -16 17q-8 12 -12 20q-4 10 -9 27q-4 20 -4 39q0 6 -1 24.5t-1 28.5v1264h-45z" />
<glyph unicode="m" horiz-adv-x="1656" d="M14 864l17 -37q43 16 71 16q9 0 17 -1q27 -6 41 -39q14 -37 14 -88v-135v-365q0 -55 -6 -90q-6 -37 -21 -53q-18 -20 -43 -27q-28 -6 -73 -6v-39h471v39q-55 0 -76 4q-29 6 -47.5 24.5t-24.5 53.5t-6 94v512q31 31 49 47q23 20 58 41q29 18 65 31q33 12 72 12 q37 0 67 -12q29 -10 52 -41q18 -25 32 -72q10 -37 11 -106v-412q0 -16 -1 -42t-1 -36q0 -35 -14.5 -55.5t-47.5 -32.5q-27 -10 -92 -10v-39h483v39q-59 0 -86 8q-31 10 -45 29q-15 22 -18 55q-4 45 -4 84v512q37 37 73 64q27 20 66 38q29 14 57 21q28 6 50 6 q39 0 69.5 -12.5t48.5 -38.5q20 -31 29 -70q10 -47 10 -108v-412q0 -37 -4 -82q-4 -35 -16 -53q-16 -23 -45 -31q-35 -10 -88 -10v-39h471v39q-43 0 -70 6q-29 6 -45 27q-16 18 -23 55q-6 33 -6 88v412q0 96 -18 164q-18 70 -49 108q-34 43 -80 61.5t-105 18.5q-45 0 -77 -8 q-35 -8 -76 -31q-43 -23 -84 -61q-51 -49 -96 -101q-12 51 -35 90q-20 37 -56 64q-27 23 -69 35q-39 12 -82 12q-39 0 -70 -8q-41 -12 -73 -29q-35 -18 -84 -61q-45 -39 -103 -103v201h-45z" />
<glyph unicode="n" horiz-adv-x="1064" d="M10 864l17 -37q41 16 70 17q27 0 42 -15q6 -4 15 -16q4 -6 8 -35q2 -23 6 -76q2 -33 2 -133v-354q0 -55 -6 -88q-6 -39 -21 -55q-18 -20 -43 -27q-28 -6 -73 -6v-39h473v39q-51 0 -82 6t-47.5 26.5t-22.5 53.5q-4 23 -4 90v502q61 68 125 102q59 33 121 33q82 0 117 -59 q33 -57 32 -189v-389q0 -45 -4 -90q-2 -33 -20 -53q-16 -20 -47 -26.5t-84 -6.5v-39h477v39q-41 0 -78 8q-29 6 -43 27q-16 25 -22 53q-4 23 -5 88v408q0 72 -14 147q-12 61 -41 110.5t-76 73.5q-45 25 -118 25q-152 0 -320 -199v199h-43z" />
<glyph unicode="o" horiz-adv-x="1064" d="M72 467q0 -102 32 -188q37 -94 93 -160q59 -68 143 -109q86 -41 182 -41q76 0 144 23q61 20 116 59q53 39 92 88q39 51 64 109q33 76 41 123q12 63 12 123q0 104 -33 190q-35 90 -94 154q-68 72 -145 104q-86 37 -187 37q-106 0 -192 -43q-84 -41 -145 -117 q-59 -72 -91 -164q-32 -98 -32 -188zM264 553q0 104 21 172q18 61 57 111q33 41 76 59t82 18q72 0 125 -39q51 -37 92 -106q37 -63 59 -158q20 -88 20.5 -196.5t-16.5 -171.5q-20 -76 -47 -115q-33 -45 -74 -64q-43 -18 -94 -18q-66 0 -123 41t-96 111q-41 72 -61 161 q-21 89 -21 195z" />
<glyph unicode="p" horiz-adv-x="1064" d="M-12 -418v-39h504v39q-63 4 -89 10q-35 10 -49 29q-18 25 -20 55q-4 45 -4 91v288q25 -23 65 -47q27 -16 60 -26q16 -6 53 -11q16 -2 49 -2q98 0 178 43q78 43 137 117q57 72 89 172q33 104 32 211q0 90 -26 184q-25 84 -72 148q-45 59 -113 98q-66 37 -145 37 q-43 0 -82 -12q-49 -14 -78 -37q-39 -29 -74 -70q-39 -45 -73 -106v223h-39l-297 -119l12 -35q42 17 65 17h7q31 -4 41 -13q14 -10 20 -20q8 -12 11 -27q4 -25 4 -43v-65v-901q0 -45 -4 -95q-2 -33 -21 -57q-14 -20 -49 -27q-41 -8 -92 -10zM330 336v356l59 64q20 23 53 51 q20 18 54 33q29 12 57 12q57 0 106 -25q45 -23 86 -79q39 -55 60 -136q23 -86 22 -198q0 -92 -20 -160q-23 -76 -55 -119q-35 -45 -88 -76q-47 -27 -111 -26q-39 0 -82 14q-33 10 -63 35q-33 27 -46 47q-16 31 -22 55q-4 16 -8 58q-2 24 -2 94z" />
<glyph unicode="q" horiz-adv-x="1064" d="M70 434q0 -113 30 -198q31 -84 82 -146q49 -59 115 -90q65 -31 129 -31q35 0 76 11q31 8 73 32q37 20 78 60q33 31 86 94v-412q0 -49 -8 -94q-6 -33 -24 -51q-16 -16 -48 -23q-20 -4 -75 -4v-39h485v39q-47 0 -77.5 6t-49.5 25q-16 16 -22 53q-6 35 -7 88v1225h-36 q-25 -18 -58 -35l-30.5 -15t-30.5 -16q-35 35 -88 52q-45 14 -109 14q-102 0 -194 -41q-94 -43 -156 -113q-72 -82 -105 -172q-36 -100 -36 -219zM246 510q0 96 22.5 174t61.5 125q41 51 90 74q51 25 108 24q49 0 93 -16q35 -14 65 -47q27 -31 39 -72q14 -51 14 -94v-449 q-16 -18 -47 -49q-18 -18 -45 -35q-23 -14 -51 -20q-37 -8 -61 -8q-58 0 -110.5 24.5t-92.5 73.5q-35 43 -62 123q-24 74 -24 172z" />
<glyph unicode="r" horiz-adv-x="727" d="M8 864l10 -37q39 17 63 17h7q33 -4 51 -15q6 -6 14.5 -22t10.5 -35q4 -33 4 -70q0 -12 1 -52t1 -66v-369q0 -63 -6 -96q-6 -35 -25 -53q-20 -20 -47 -23q-37 -4 -74 -4v-39h494v39q-49 0 -84 12q-31 12 -51 35q-18 22 -25 55q-8 45 -8 80v459q45 82 76 119q37 43 63 43 q20 0 33 -11l33 -26q14 -10 37 -25q20 -12 45 -12q20 0 37 8q20 10 30 21q14 14 20.5 32.5t6.5 34.5q0 23 -10 47q-8 16 -29 35q-18 15 -43 25q-23 8 -53 8q-125 0 -246 -213v213h-41z" />
<glyph unicode="s" horiz-adv-x="827" d="M104 725q0 -51 11 -82q12 -37 41 -72q31 -37 77 -69q53 -37 125 -74q80 -41 125 -72q43 -29 74 -59q25 -25 35 -59q8 -27 8 -64q0 -31 -12 -55q-12 -27 -33 -43q-25 -20 -49 -31q-31 -12 -70 -12q-52 0 -98 18q-43 16 -84 55q-40 37 -68 93q-27 55 -43 127h-34v-340h34 q4 8 8.5 15t8.5 15q10 16 20 17q27 -4 53 -13q12 -4 26.5 -10t33.5 -12q27 -10 69 -21q33 -8 74 -8q59 0 121 23q57 20 102 59q43 37 68 86q27 53 27 103q0 92 -55.5 161.5t-163.5 122.5l-154 72q-47 20 -82 45q-23 14 -47 49q-14 20 -23 49q-4 16 -4 56q0 55 45 90t140 35 q45 0 84 -13q37 -12 71 -43q33 -31 58 -82q31 -63 45 -127h34v324h-34q-12 -25 -23 -31q-9 -6 -24 -6q-10 0 -33 6q-14 4 -51 13q-18 4 -60 12q-31 6 -63 6q-74 0 -133 -18q-49 -16 -97 -56q-37 -31 -59 -80q-21 -43 -21 -100z" />
<glyph unicode="t" horiz-adv-x="591" d="M16 881h152v-660q0 -76 16 -129q16 -51 43 -78q25 -25 62 -35t67 -10q33 0 66 13q34 12 67 36q31 23 60 64q25 37 45 92h-41q-18 -45 -49 -65q-30 -21 -60 -21h-8q-12 0 -37 8q-16 6 -30 27q-16 25 -21 47q-6 31 -6 76v635h223v71h-223v314h-31q-8 -20 -22.5 -51 t-16.5 -33l-28 -56q-16 -29 -25 -39q-12 -16 -26 -32q-27 -33 -89 -86q-47 -41 -88 -56v-32z" />
<glyph unicode="u" horiz-adv-x="1064" d="M0 913q45 0 76 -6q33 -6 49 -20q18 -16 29 -45q8 -25 8 -76v-426q0 -37 8 -123q6 -63 31 -119q25 -53 75 -92q49 -37 132 -37q37 0 67 8q33 8 70 31q33 20 82 62q39 35 104 102v-203h47l289 119l-14 37q-20 -8 -45 -12q-29 -4 -39 -4q-16 0 -29 6q-10 4 -20 22 q-6 10 -11 45q-4 37 -4 70v700h-327v-39q49 -4 69 -8q35 -8 47 -18q20 -16 29 -43q8 -25 8 -70v-541q-43 -43 -74 -65q-49 -37 -63 -43q-27 -14 -55 -21q-25 -6 -45 -6q-51 0 -82 19q-35 20 -49.5 49t-20.5 70q-6 40 -6 79v637h-336v-39z" />
<glyph unicode="v" horiz-adv-x="1064" d="M16 913q14 -2 25.5 -5t19.5 -3q18 -4 27 -8q6 -4 15.5 -12t11.5 -8q8 -6 24 -23q8 -8 21 -33l22 -45l342 -807h43l338 819q18 43 31 64q14 23 33 41q20 12 32 14q20 4 46 6v39h-312v-39q35 0 47.5 -2t28.5 -6l16 -8l9 -8q14 -20 8 -43q-8 -29 -25 -70l-223 -547l-221 525 q-20 49 -21 86q0 35 21 55q8 10 24 14q20 4 37 4h31v39h-451v-39z" />
<glyph unicode="w" horiz-adv-x="1536" d="M12 913q25 -4 56 -16q25 -9 36 -25q12 -12 29 -38q12 -20 31 -64l307 -801h39l276 611l238 -611h43l317 824q43 109 136 120v39h-301v-39q35 0 53 -6q23 -6 28 -14q12 -12 15 -19q4 -12 4 -14q0 -27 -23 -90l-198 -524l-217 547q-8 10 -9 28v27q4 20 9 24q8 12 12 17 q12 10 41 16q20 4 65 8v39h-454v-39l53 -6q16 -2 33 -10q41 -25 65 -86l54 -141l-205 -447l-205 547q-18 49 -18 78t18 47q18 15 74 18v39h-402v-39z" />
<glyph unicode="x" horiz-adv-x="1064" d="M29 913q41 -4 59 -8q25 -6 47 -20q27 -16 53 -49q25 -29 66 -91l180 -262l-201 -266l-67 -88q-31 -37 -49 -53q-16 -14 -41 -27q-20 -10 -39 -10v-39h311v39q-40 0 -61 12q-23 12 -29 29q-6 12 -2 33q4 18 14 32l207 277l197 -291q4 -6 8 -25q2 -14 -4 -30.5t-29 -26.5 q-25 -10 -59 -10v-39h450v39q-25 2 -59 10q-29 6 -39 16.5l-19.5 20.5l-15.5 16q-4 4 -10 9.5t-10 10.5t-8.5 9t-12.5 16.5t-14 18.5t-17.5 24.5t-17.5 26.5l-237 340l129 176q20 29 65 84q25 31 53 55q16 14 54 29q25 8 57 12v39h-322v-39q27 0 48 -10q16 -8 22 -20 q6 -14 4 -27q-2 -10 -10 -27l-141 -204l-136 213q-6 10 -6 22q0 14 6 27q6 10 25 20q18 9 49 6v39h-448v-39z" />
<glyph unicode="y" horiz-adv-x="1064" d="M12 913q41 -4 68 -20q23 -14 47 -43q18 -23 33 -49q6 -14 12 -25.5l10 -19.5l342 -717l-67 -166q-16 -43 -37 -76q-18 -31 -36.5 -49t-37.5 -24q-25 -8 -33 -9q-4 0 -22 6q-25 8 -39 13l-45 12q-23 6 -39 6q-49 0 -80 -26q-27 -25 -27 -68q0 -23 11 -47q8 -20 28 -37 q16 -14 45 -25q27 -10 58 -10q43 0 90 19q45 18 88 55q45 39 80 88q35 51 63 119l387 950q16 39 35 74q12 23 33 43q18 18 33 20q12 2 41 6v39h-310v-39q31 0 41 -2q20 -4 27 -6q9 -3 12 -6l8 -8q4 -6 9 -23q4 -12 0 -28q-4 -20 -9 -31l-4 -12q-4 -12 -8 -19l-213 -526 l-231 479q-16 33 -27 64q-8 25 -8 49q0 33 28.5 51t65.5 18h23v39h-445v-39z" />
<glyph unicode="z" horiz-adv-x="944" d="M43 0h840l12 291h-37q-12 -86 -16 -103q-10 -39 -21 -55q-14 -20 -24 -29l-31 -16q-37 -18 -145 -18h-349l639 843v39h-798l-7 -264h41q2 35 11 74q2 16 18 51q6 14 25 33q14 14 28 20q23 8 52 11q45 4 81 4h314l-633 -842v-39z" />
<glyph unicode="{" horiz-adv-x="980" d="M139 475q59 -10 107 -26q57 -20 92 -48q41 -31 63 -71q25 -43 25 -97v-303q0 -70 20 -116q18 -41 58 -80q35 -35 80 -53q47 -18 94 -31q43 -10 98 -15q33 -2 92 -2v43q-49 6 -110 27q-49 16 -90 49t-64 76q-23 45 -22 98v275q0 68 -15 108q-15 43 -43 74q-31 33 -65 51 q-47 23 -80 33q-57 16 -88 22q-53 10 -90 21l90 18q31 6 88 23q33 10 80 33q39 18 65 49q27 29 43 76q14 41 15 106v275q0 53 22 98q23 43 64 75.5t90 49.5q61 20 110 26v43q-27 0 -92 -4q-49 -3 -98 -12q-43 -8 -94 -29q-45 -18 -80 -53q-39 -39 -58 -82q-20 -47 -20 -115 v-305q0 -53 -25 -96q-23 -41 -63 -72q-35 -27 -92 -47q-61 -23 -107 -26v-66z" />
<glyph unicode="|" horiz-adv-x="425" d="M168 -461h88v1940h-88v-1940z" />
<glyph unicode="}" horiz-adv-x="980" d="M139 -324v-43q59 0 92 2.5t99 14.5q51 10 96 31q49 23 82 53q37 35 57 80q20 47 21 116v303q0 53 24.5 96.5t61.5 72t90 47.5q47 16 106 26v66q-45 4 -106 26q-53 18 -90 47t-61.5 72t-24.5 96v305q0 68 -21 115q-20 49 -57 82q-39 37 -82 53q-49 20 -96 29q-49 9 -99 12 q-66 4 -92 4v-43q49 -6 111 -26q52 -18 92 -49q41 -33 64 -76q23 -45 22 -98v-275q0 -61 16 -106q16 -47 43 -76q27 -31 66 -49q49 -25 78 -33q57 -16 88 -23l90 -18q-37 -10 -90 -21q-31 -6 -88 -22q-29 -8 -78 -33q-35 -18 -66 -51q-28 -31 -43 -74q-16 -45 -16 -108v-275 q0 -53 -22 -98q-23 -43 -64 -76q-40 -31 -92 -49q-62 -21 -111 -27z" />
<glyph unicode="~" horiz-adv-x="1157" d="M41 461l57 -76q18 33 41 68q25 39 49 63q31 31 62 47q33 18 76 19q57 0 118 -25q113 -45 127 -51q86 -37 129 -53q66 -25 125 -25q49 0 97 21q45 18 79 51q39 37 66 73q37 53 51 82l-59 78q-12 -27 -37 -63q-10 -16 -53 -60q-25 -25 -62 -45q-31 -16 -71 -16 q-31 0 -68 12q-59 20 -80 29l-90 39q-27 12 -50.5 21l-41.5 16q-43 18 -90 30q-35 10 -80 11q-59 0 -100 -21q-45 -23 -80 -57q-37 -37 -64 -78q-18 -29 -51 -90z" />
<glyph unicode="&#xa1;" horiz-adv-x="708" d="M236 -303q0 -43 12 -74q14 -35 26 -47q16 -18 39 -27q18 -8 39 -8q52 0 86 37q35 39 35 109v12q0 2 -1 6t-1 8q0 10 -2 23q0 6 -4 31l-90 843h-41l-94 -843q-4 -29 -4 -39v-31zM240 895q0 -23 10 -47q6 -14 26 -35q12 -12 37 -22q18 -8 41 -9q18 0 41 6q14 4 37 23 q20 18 29 35q10 25 10 49q0 31 -12 53q-14 25 -29 37q-23 18 -37 23q-20 6 -38.5 6t-43.5 -10q-22 -9 -37 -24.5t-24 -37.5q-10 -24 -10 -47z" />
<glyph unicode="&#xa2;" horiz-adv-x="1064" d="M131 475q0 -80 14 -143q16 -76 41 -123q31 -63 64 -100q43 -49 82 -76l-156 -426h74l10 28q23 61 27 74l16 47.5t16 46.5l35 95q4 12 27 73l10 29q72 -31 146 -31q68 0 135 29q66 27 119 82q59 59 92 123q35 66 51 159l-29 15q-31 -74 -65.5 -121t-69.5 -74 q-37 -27 -78 -37q-45 -10 -82 -10q-45 0 -82 12q-39 12 -69 35l231 637q6 -16 6 -33q2 -41 17 -67q12 -23 28 -37q14 -10 35 -14q25 -4 35 -4q49 0 74 26q25 28 24 62q0 84 -92 153q-12 10 -37 27q-12 8 -41 20l154 426h-74l-147 -407q-20 6 -41 6q-8 0 -22.5 1t-22.5 1 q-94 0 -176 -37q-80 -35 -144 -102q-61 -63 -98 -158q-37 -92 -37 -207zM301 565q0 80 16 137q18 61 50 109q29 43 79 74q45 27 105 26q31 0 51 -6q25 -8 39 -16l-10 -29l-10.5 -30.5t-14.5 -43.5l-16 -43.5l-23 -60.5q-8 -25 -43 -119l-43 -121l-22 -60.5t-17 -43.5 q-8 -25 -16 -43.5t-12 -30.5l-11 -28q-53 63 -77 147q-25 86 -25 182z" />
<glyph unicode="&#xa3;" horiz-adv-x="1064" d="M63 109q0 -23 7 -48q6 -27 20 -43q15 -18 37 -30q20 -12 57 -13q41 0 72 19q33 20 55 45q16 18 41 55q16 23 27 49l96 -71q51 -37 80 -54q37 -20 74 -32q33 -10 88 -11q70 0 121 31q53 33 90 80q41 53 59 109q23 66 29 120l-39 11q-12 -41 -16 -52q-14 -33 -37 -55 q-25 -25 -64 -43q-41 -18 -102 -18q-66 0 -156 26q-176 57 -182 60q31 76 43 149q16 94 18 131q4 78 4 103q0 16 -1 35.5t-1 23.5h269v98h-269q0 2 -1 8.5t-2 16.5t-1 20.5t-3 38t-5 43.5l-6 95q-4 66 -4 84q0 88 14 139q16 59 39 90q25 33 59 49q31 14 76 14q31 0 58 -10 q23 -8 41 -26q12 -12 20 -39q8 -29 8 -45q0 -65 25 -93q25 -29 57 -28q8 0 29 8q10 4 26 20q12 12 19 27q6 15 6 31q0 41 -18 78q-18 35 -54 67q-35 31 -82 49q-49 18 -108 19q-70 0 -135 -27q-74 -31 -125 -82q-57 -57 -92 -139t-35 -201q0 -8 4 -78q2 -20 5 -65t5 -64 h-201v-98h201q4 -47 10 -129t9 -106q10 -109 0 -189q-20 4 -35 6t-54 2q-20 0 -51 -6q-27 -6 -55 -24q-27 -16 -45 -50q-19 -30 -19 -81zM123 117q0 39 24 63q27 27 74 27q31 0 55.5 -10.5t34.5 -18.5q-20 -70 -47 -102q-33 -39 -71 -39q-28 0 -50 18q-20 19 -20 62z" />
<glyph unicode="&#xa4;" horiz-adv-x="1275" d="M94 401l74 -73l211 211q57 -49 127 -74q61 -23 145 -23q72 0 140 25q76 27 124 72l211 -211l74 73l-211 211q46 55 68 123q23 72 22 142q0 74 -24 145q-25 70 -68 125l213 213l-74 74l-217 -217q-49 43 -121 69q-61 23 -137 23q-68 0 -141 -23q-72 -23 -127 -67l-215 215 l-74 -74l215 -215q-27 -31 -43 -60q-12 -23 -28 -67q-8 -23 -17 -72q-6 -37 -6 -72q0 -68 23 -139q22 -68 67 -123zM332 874.5q0 67.5 24 124.5q23 53 70 101q43 43 100 67q59 25 125 25q61 0 121 -25q53 -23 100 -69q41 -41 66 -100.5t25 -120.5q0 -65 -25 -123 q-25 -59 -66 -101q-47 -47 -100 -69q-59 -25 -121 -25q-66 0 -125 25q-57 25 -100 67q-49 49 -70 99q-24 57 -24 124.5z" />
<glyph unicode="&#xa5;" horiz-adv-x="1064" d="M2 1372q23 -2 53 -10q20 -4 41 -23q23 -16 39 -43q20 -33 37 -75l221 -516h-373v-76h408l14 -37v-150h-422v-75h422v-113v-53q0 -8 -1 -25.5t-1 -23.5q0 -2 -6 -39q-2 -16 -12 -27q-23 -25 -57 -35q-31 -8 -68 -8h-35v-43h537v43h-43q-20 0 -58 10q-33 8 -51 31 q-18 18 -22 68q-4 57 -4 102v113h423v75h-423v168l8 19h415v76h-385l226 505q16 37 45 84q20 31 43 52q31 27 92 26v37h-360v-37l53 -6q20 -2 41 -16q15 -9 18 -25q4 -23 2 -33q-4 -20 -8 -32q-2 -8 -6 -16.5t-6 -14.5l-221 -524l-222 540l-12 25q-4 6 -8 26q-2 8 2 25 q2 12 22 25q22 15 43 18q55 8 60 8v37h-461v-37z" />
<glyph unicode="&#xa6;" horiz-adv-x="643" d="M270 -406h105v820h-105v-820zM270 688h105v819h-105v-819z" />
<glyph unicode="&#xa7;" horiz-adv-x="1064" d="M162 524q0 -59 22 -116q20 -51 64 -109q35 -47 100 -104q45 -41 133 -107l72 -55q43 -35 68 -66q33 -41 53 -80q20 -41 20 -92q0 -33 -14 -61q-12 -25 -41 -53q-27 -27 -57.5 -41.5t-69.5 -14.5q-29 0 -43 4q-18 6 -41 17q-14 8 -29 24q-12 14 -12 35q0 16 2 27q0 6 2 10 t3 9t3 11q4 16 6 31q2 10 3 27q0 14 -2.5 24.5t-14.5 30.5q-9 15 -24 25q-16 10 -39 10q-10 0 -26.5 -6t-27.5 -17q-14 -14 -18 -28q-8 -25 -8 -41q0 -57 24.5 -100.5t61.5 -73.5q35 -29 82 -45q43 -14 90 -15q61 0 114.5 20.5t94.5 61.5q39 39 63.5 94.5t24.5 120.5 q0 49 -13 90q-10 35 -32 72q-20 33 -41 57q-29 33 -41 45q27 16 69 50q33 25 76 75q33 39 60 101q25 58 24 129q0 49 -16 98q-16 47 -41 86q-28 43 -62 80q-23 25 -71 70q-33 31 -78 61l-72 55q-49 37 -71 56q-35 29 -60 59q-27 33 -41 67.5t-14 81.5q0 34 12 68 q12 35 35 57q27 27 57.5 41.5t75.5 14.5q53 0 86 -29q29 -27 29 -70q0 -16 -2 -26q-2 -8 -4 -14.5t-2 -14.5q0 -4 -1 -12t-4 -12q-2 -8 -2 -20.5t7 -29.5q2 -6 16 -24q9 -12 25 -19q20 -8 34 -8q33 0 57.5 24.5t24.5 69.5q0 51 -22 97q-18 39 -60 71q-39 33 -84 47 q-43 14 -98 15q-45 0 -92 -17q-53 -18 -96 -53q-45 -35 -76 -92q-31 -55 -31 -131q0 -49 14 -90q16 -43 35 -74q31 -49 41 -61l39 -45q-43 -29 -69 -50q-31 -25 -74 -73q-37 -43 -62 -103q-24 -57 -24 -127zM266 600q0 55 23 105q20 43 59 81q33 33 78 58q16 -16 31 -29 l53.5 -40.5t64.5 -51.5l68 -57q34 -31 62 -62q29 -33 47 -59q41 -66 45 -123q2 -53 -21 -103q-23 -45 -59 -83q-35 -35 -78 -62q-23 25 -72 64l-92 69q-45 33 -92 78q-45 43 -76 94q-41 66 -41 121z" />
<glyph unicode="&#xa8;" horiz-adv-x="636" d="M0 1275.5q0 -22.5 8 -38.5q12 -25 23 -35q16 -16 32.5 -24.5t41 -8.5t40.5 9q25 12 35 22t23 35q8 16 8 40.5t-8 41.5q-10 20 -23 33q-14 14 -35 24q-16 8 -41 8q-18 0 -38.5 -10t-32.5 -22q-14 -14 -25 -35q-8 -17 -8 -39.5zM424 1275.5q0 -22.5 8 -38.5q12 -25 23 -35 q14 -14 34 -24q16 -8 41 -8.5t41 8.5q25 12 35 22t23 35q8 16 8 40.5t-8 41.5q-10 20 -23 33q-14 14 -35 24q-16 8 -41 8q-18 0 -38 -10q-25 -12 -35 -22q-14 -14 -25 -35q-8 -17 -8 -39.5z" />
<glyph unicode="&#xa9;" horiz-adv-x="1617" d="M72 705q0 -109 26 -201q31 -104 74 -178q45 -76 116.5 -148t149.5 -115q88 -49 176 -71q94 -25 195 -25q94 0 197 27q88 23 176 72q78 43 149 114q70 70 117 150q45 74 74 176q27 92 26 199q0 158 -57 290q-59 137 -156 234q-94 94 -235 155q-133 57 -291 58 q-86 0 -180 -23q-86 -20 -172 -65q-80 -41 -154 -109q-70 -63 -121 -145q-57 -90 -82 -180q-28 -102 -28 -215zM137 705q0 109 27 194q29 94 74 166q47 76 110.5 133t138.5 98q74 39 158 62q80 20 164 20q92 0 178 -24q96 -29 162 -66q78 -45 137.5 -104.5t104.5 -136.5 q43 -74 67.5 -160t24.5 -182q0 -98 -25 -187q-25 -90 -70 -161.5t-108 -135.5q-49 -49 -137 -100q-78 -45 -160 -66q-90 -23 -174 -22q-129 0 -258 51q-117 47 -213 139q-92 88 -148 213q-53 119 -53 269zM332 698q0 -104 39 -188q39 -82 104 -145q61 -57 154 -95 q88 -35 184 -34q129 0 229 53q98 53 170 157l-38 23q-119 -168 -324 -168q-72 0 -141 27q-59 23 -109 78q-47 53 -72 135q-25 80 -24 188q0 88 22 166q20 70 68 127q45 55 104 82q63 29 142 29q55 0 98 -13q45 -12 76 -33q23 -14 55 -47q16 -16 41 -53q16 -25 27 -51 q2 -4 9 -21.5t9 -25.5h39l-20 291h-41q-2 -6 -7 -15q-4 -12 -8 -16q-12 -10 -14 -12q-12 -4 -22.5 -4t-34.5 8l-48 16q-35 12 -63 17q-37 6 -86 6q-72 0 -131 -15q-74 -18 -123 -41q-53 -27 -104 -69q-53 -47 -84 -94.5t-56 -120.5q-20 -62 -20 -142z" />
<glyph unicode="&#xaa;" horiz-adv-x="677" d="M53 973q0 -31 13 -60q14 -31 32 -47q25 -20 52 -28q35 -10 67 -11q18 0 47 4q22 3 43 13q18 8 53 28l74 48q0 -27 6 -46q6 -20 19 -28q16 -12 24 -15q20 -4 31 -4q80 0 162 93v36q-6 -4 -17.5 -14t-15.5 -14l-20 -15q-8 -6 -15 -6q-2 0 -6 -1t-6 -1q-16 0 -23 6 q-8 8 -10 25q-4 12 -4 35v65v195q0 47 -8 80q-10 39 -33 61q-29 29 -69 39q-53 14 -119 14q-43 0 -94 -10q-43 -8 -80 -29q-39 -20 -56 -43q-20 -27 -20 -61q0 -27 16.5 -43t46.5 -16q25 0 45 16q18 16 17 43l-2 37q3 28 30 49q27 20 72 21q68 0 98 -33q31 -34 31 -117v-22 q-141 -43 -196 -66q-72 -31 -115 -59q-37 -25 -55 -60q-15 -26 -15 -59zM61 680h603v45h-603v-45zM180 1001q0 18 6 41q4 16 33 41q16 14 78 45q39 20 137 52v-219q-31 -20 -84 -48q-39 -18 -65 -16q-25 0 -41 8q-20 10 -32.5 22.5t-23.5 33.5q-8 15 -8 40z" />
<glyph unicode="&#xab;" horiz-adv-x="708" d="M113 500q0 -66 20 -119q22 -55 55.5 -98t79.5 -80q35 -29 94 -62l11 15q-57 35 -92 77q-29 35 -52 86q-14 35 -22 91q-6 45 -6 98q0 33 8 94q6 39 27 86q16 35 53 76q35 37 84 63l-8 15q-123 -63 -187 -148q-65 -88 -65 -194zM358 500q0 -66 21 -119q22 -55 55 -98 q37 -47 78 -80q31 -25 96 -62l13 15q-61 39 -94 77.5t-54 85.5q-14 35 -22 91q-4 31 -5 98q0 53 9 94q10 49 26 86q16 35 54 76q33 35 86 63l-11 15q-123 -63 -186 -148q-66 -88 -66 -194z" />
<glyph unicode="&#xac;" horiz-adv-x="1294" d="M94 737h983v-350h123v473h-1106v-123z" />
<glyph unicode="&#xad;" horiz-adv-x="708" d="M86 397h537v158h-537v-158z" />
<glyph unicode="&#xae;" horiz-adv-x="1617" d="M72 705q0 -109 26 -201q31 -104 74 -178q45 -76 116.5 -148t149.5 -115q88 -49 176 -71q94 -25 195 -25q94 0 197 27q88 23 176 72q78 43 149 114q70 70 117 150q45 74 74 176q27 92 26 199q0 158 -57 290q-59 137 -156 234q-94 94 -235 155q-133 57 -291 58 q-86 0 -180 -23q-86 -20 -172 -65q-80 -41 -154 -109q-70 -63 -121 -145q-57 -90 -82 -180q-28 -102 -28 -215zM137 705q0 109 27 194q29 94 74 166q47 76 110.5 133t138.5 98q74 39 158 62q80 20 164 20q92 0 178 -24q96 -29 162 -66q78 -45 137.5 -104.5t104.5 -136.5 q43 -74 67.5 -160t24.5 -182q0 -98 -25 -187q-25 -90 -70 -161.5t-108 -135.5q-49 -49 -137 -100q-78 -45 -160 -66q-90 -23 -174 -22q-129 0 -258 51q-117 47 -213 139q-92 88 -148 213q-53 119 -53 269zM389 260h381v35q-25 0 -57 4q-25 4 -35 10q-12 8 -21 21 q-10 14 -10 28v322h80l305 -420h193v35q-39 4 -56 14q-25 16 -34 29q-25 29 -37 47l-215 309q59 18 71 23q40 15 74 43q37 29 59 67q25 40 25 99q0 49 -20 90q-23 45 -60 74q-45 35 -98 51q-57 18 -131 18h-402v-39q47 0 66 -12q10 -8 16 -16q8 -12 11 -21q2 -4 2 -29v-63 v-543q0 -49 -2 -69q-4 -31 -15 -45q-14 -18 -41 -23q-33 -4 -49 -4v-35zM647 725v373q25 8 47 12q14 2 41 2q45 0 88 -16q33 -12 66 -45q29 -29 43 -64t14 -74q0 -45 -16 -77q-16 -31 -41 -54q-23 -20 -58 -32q-23 -8 -67.5 -16.5t-63.5 -8.5h-53z" />
<glyph unicode="&#xaf;" horiz-adv-x="667" d="M0 1169h668v115h-668v-115z" />
<glyph unicode="&#xb0;" horiz-adv-x="653" d="M102 1249q0 -53 17 -88q18 -41 49 -71q27 -27 72 -48q39 -18 88 -18t88 18q45 20 71.5 47t47.5 72q18 39 18 88t-18 88q-20 45 -48 72q-31 31 -71 49q-35 16 -88.5 16.5t-87.5 -16.5q-41 -18 -72 -49t-49 -72q-17 -35 -17 -88zM184 1249q0 35 11 56q14 29 30 45 q20 20 47 32q23 10 56 11q37 0 57 -11q25 -12 45 -32q16 -16 31 -45q10 -20 10 -55.5t-10 -55.5q-16 -33 -31 -47q-16 -16 -45 -31q-20 -10 -57 -10q-33 0 -56 10q-29 12 -47 31q-14 14 -30 47q-11 20 -11 55z" />
<glyph unicode="&#xb1;" horiz-adv-x="2048" d="M410 0h1228v127h-1228v-127zM410 733h551v-368h126v368h551v127h-551v369h-126v-369h-551v-127z" />
<glyph unicode="&#xb2;" horiz-adv-x="749" d="M25 535h598l71 161h-26q-23 -27 -33 -34q-18 -16 -37 -21q-27 -8 -55 -10q-23 -2 -92 -2h-267l80 69l152 136q41 37 69 65q16 16 70 84q33 41 55 94q23 51 23 99q0 51 -25 94q-23 41 -65 69q-43 31 -94 45q-49 14 -107 15q-86 0 -137 -27q-59 -31 -86 -63 q-29 -35 -45 -80q-8 -23 -19 -70h27q4 14 22 43q16 27 43 47q31 25 64 37q43 16 92 17q29 0 59 -9q41 -10 66 -28q33 -23 53 -58q23 -39 23 -90q0 -104 -107 -231q-47 -55 -147 -146q-86 -78 -225 -184v-22z" />
<glyph unicode="&#xb3;" horiz-adv-x="749" d="M55 594q0 -2 4 -19q2 -10 21 -22q12 -8 51 -18q31 -8 98 -9q98 0 168 21q72 20 125 61t80 94q29 57 29 119q0 53 -20.5 92t-49.5 64q-31 27 -61 41q-39 18 -58 24q137 98 138 191q0 20 -9 45q-10 29 -34 57q-25 27 -72 49q-43 20 -121 21q-74 0 -117 -21q-49 -23 -77 -49 q-35 -31 -52 -59q-25 -39 -28 -51l24 -11q78 104 195 105q25 0 55 -6q20 -4 53 -25q25 -15 43 -43q16 -25 17 -69q0 -39 -14.5 -68t-36.5 -51q-18 -18 -52 -37q-14 -8 -53 -23q-35 -12 -45 -14q-29 -4 -31 -4v-18h23q18 0 53 -7q45 -8 72 -16q37 -10 71 -37 q31 -23 53.5 -61.5t22.5 -94.5q0 -41 -16 -67q-20 -35 -45 -53q-25 -20 -62 -33q-34 -12 -67 -12q-37 0 -68 10q-18 6 -51 18q-10 4 -22.5 10.5t-24.5 10.5q-18 8 -49 8q-25 0 -43 -12q-17 -11 -17 -31z" />
<glyph unicode="&#xb4;" horiz-adv-x="727" d="M121 1083h86l307 195q35 20 59 47q27 27 27 57q0 10 -6 23q-8 16 -14 22l-17 17q-9 6 -18 6q-35 0 -68 -20q-34 -22 -61 -50z" />
<glyph unicode="&#xb5;" horiz-adv-x="1204" d="M129 -348q0 -16 8 -45q6 -18 19 -35q12 -14 28 -25q14 -8 35 -8t37 8q18 9 31 25q14 18 22 36.5t8 47.5q0 18 -8 72q-4 27 -16 88q-12 57 -17 96q-8 66 -8 98v49q20 -35 43 -51t45 -26q12 -4 43 -11q12 -2 31 -2q83 0 160 49q80 51 166 150q6 -57 22 -96q18 -43 37 -62 q23 -23 47 -30q31 -10 58 -11q39 0 75 13q33 10 64 45q27 29 45 75q16 39 22 113h-41q-14 -59 -16 -63q-8 -23 -18 -39q-8 -12 -23 -21q-12 -6 -29 -6q-10 0 -26 4q-14 4 -23 21q-8 14 -14 57q-6 37 -6 106v676h-174v-712q-121 -139 -244 -140q-49 0 -84 29q-33 27 -45 66 q-12 35 -14 77q-4 66 -4 127v553h-170v-751q0 -121 -5 -168q-6 -68 -12 -119q-6 -47 -16 -86l-8 -31.5t-9 -30.5l-12 -55q-4 -16 -4 -57z" />
<glyph unicode="&#xb6;" horiz-adv-x="1196" d="M29 1020q0 -82 20 -141q23 -63 57 -105q39 -45 82 -69q57 -31 105 -46q61 -16 115 -22q84 -8 120 -10v-1088h76v1813h193v-1813h77v1813h138v57h-514q-63 0 -113 -8q-63 -10 -109 -27q-55 -18 -96 -47q-49 -33 -80 -72q-35 -45 -53 -102q-18 -59 -18 -133z" />
<glyph unicode="&#xb7;" horiz-adv-x="638" d="M84 696q0 -49 18.5 -92t49.5 -74q33 -33 75.5 -51t91.5 -18t92.5 18.5t75.5 50.5q31 31 49.5 74t18.5 92t-18.5 92t-49.5 74q-33 33 -75.5 51.5t-92.5 18.5q-49 0 -92 -18.5t-75 -51.5q-31 -31 -49.5 -74t-18.5 -92z" />
<glyph unicode="&#xb8;" horiz-adv-x="499" d="M27 -426q27 -10 84 -23q47 -10 88 -10q51 0 100 13q43 10 88 34q35 18 62 56q25 33 24 75q0 41 -14 68q-14 25 -41 45q-25 18 -55.5 26.5t-67.5 8.5q-34 0 -62 -6l56 139h-76l-90 -211l16 -12q27 8 47 10q25 3 50 0q37 -4 57 -24.5t20 -57.5q0 -47 -32 -67 q-35 -23 -93 -23q-20 0 -30 2q-20 4 -33 6q-6 0 -18.5 4t-18.5 4q-8 2 -31 11z" />
<glyph unicode="&#xb9;" horiz-adv-x="749" d="M172 1298l10 -20q55 23 84 18.5t41 -24.5q12 -22 12 -55v-76v-457q0 -49 -2 -66q-2 -18 -16 -36q-10 -14 -39 -21q-16 -4 -74 -4v-22h383v22q-41 0 -73 4q-20 2 -37 19q-10 10 -15 38q-2 16 -2 66v715h-26z" />
<glyph unicode="&#xba;" horiz-adv-x="778" d="M59 1118q0 -59 25 -114q23 -51 66 -95q39 -39 104 -65q61 -25 131 -25q80 0 147 29q59 25 105 74q41 43 63 102q20 53 21 111q0 61 -25 112q-27 55 -67 94q-45 41 -103 62q-63 23 -135 22q-80 0 -139 -26q-63 -29 -105 -70q-45 -45 -65 -98q-23 -58 -23 -113zM72 680h639 v45h-639v-45zM199 1169q0 59 16 105q14 41 39 65q29 29 55 37q35 10 60 10q47 0 88 -22q37 -20 67 -64q27 -39 43 -96q14 -51 15 -119q0 -61 -13 -104q-12 -41 -32 -68q-20 -25 -54 -39q-25 -10 -67 -10q-47 0 -88 25q-45 29 -70 65q-28 43 -43 99q-16 59 -16 116z" />
<glyph unicode="&#xbb;" horiz-adv-x="708" d="M84 156l12 -15q66 37 97 62q46 37 79 80q31 37 54 98q20 53 20 119q0 106 -65 194q-63 84 -187 148l-10 -15q53 -29 86 -63q31 -33 53 -76q18 -35 29 -86q6 -31 6 -94q0 -68 -4 -98q-6 -47 -25 -91q-20 -47 -53 -86q-35 -42 -92 -77zM330 156l12 -15q59 33 94 62 q46 37 80 80t55 98q20 53 21 119q0 106 -66 194q-63 84 -186 148l-10 -15q49 -27 84 -63q35 -39 55 -76q14 -29 27 -86q8 -41 8 -94t-6 -98q-8 -55 -23 -91q-20 -47 -53 -86q-35 -42 -92 -77z" />
<glyph unicode="&#xbc;" horiz-adv-x="1636" d="M203 1317l8 -23q49 20 72 19q27 -4 34 -23q10 -25 11 -57v-78v-459q0 -49 -2 -65q-4 -27 -13 -39q-12 -14 -34 -19q-29 -4 -62 -4v-24h324v24q-35 0 -64 4q-18 2 -30.5 18.5t-12.5 39.5q0 6 -1 28.5t-1 36.5v721h-22zM293 -16h102l963 1452h-96zM856 219h363v-227h104 v227h113v88h-113v557h-70l-397 -567v-78zM918 307l301 424v-424h-301z" />
<glyph unicode="&#xbd;" horiz-adv-x="1636" d="M172 1317l8 -23q49 20 72 19q27 -4 35 -23q10 -25 10 -57v-78v-459q0 -49 -2 -65q-2 -25 -14 -39q-12 -16 -33 -19q-29 -4 -62 -4v-24h324v24q-35 0 -64 4q-20 2 -32 19q-10 14 -11 39q0 6 -1 28.5t-1 36.5v721h-22zM274 -16h103l895 1452h-101zM901 -8h504l61 164h-24 q-20 -29 -27 -35q-14 -14 -31 -21q-23 -8 -47 -10q-18 -2 -77 -2h-224q20 18 68 68l127 137q33 33 59 67q41 53 60 84q27 43 45 95q18 49 18 100q0 53 -20 94q-23 45 -56 72q-31 27 -80 43q-45 16 -88 16q-72 0 -116 -26q-41 -25 -72 -66q-25 -35 -39 -78q-10 -33 -14 -69 h20q6 18 19 43q10 20 37 47q22 22 55 37q37 16 78 16q25 0 49 -8q28 -9 55 -31q27 -20 45.5 -57t18.5 -90q0 -109 -91 -236q-43 -59 -124 -145q-68 -70 -189 -185v-24z" />
<glyph unicode="&#xbe;" horiz-adv-x="1636" d="M176 598q0 -10 2 -18q2 -10 19 -23q14 -10 45 -20q27 -8 82 -9q78 0 141 23q66 23 106 61q43 41 68 95q23 51 23 120q0 57 -16.5 92t-43.5 66q-25 29 -51 43q-18 10 -47 23q115 102 114 192q0 8 -8 45q-6 29 -28 58q-25 31 -62 51q-39 20 -100 20q-59 0 -98 -20 q-31 -16 -66 -51q-27 -27 -43 -60q-10 -18 -15 -31.5t-10 -19.5l23 -10q63 104 164 104q20 0 45 -6q16 -4 45 -25q18 -12 35 -43q14 -27 14 -69q0 -39 -12 -70q-12 -29 -31 -51q-14 -16 -43 -37q-14 -10 -43 -22.5t-41 -14.5q-4 0 -8 -1t-6 -2t-5 -1h-6v-20h25q23 0 64 -11 q31 -8 73 -32q37 -23 62 -64q27 -47 26 -110q0 -39 -14 -68t-39 -53q-18 -18 -51 -33q-28 -12 -55 -12q-31 0 -58 10l-43 18l-41 21q-16 8 -41 8q-18 0 -34.5 -12.5t-16.5 -30.5zM340 -16h102l963 1452h-96zM883 219h362v-227h105v227h112v88h-112v557h-70l-397 -567v-78z M944 307l301 424v-424h-301z" />
<glyph unicode="&#xbf;" horiz-adv-x="944" d="M80 -131q0 -74 29 -137q27 -59 81 -105q51 -41 123 -63q74 -23 156 -23q92 0 162 25q71 25 117 67q51 47 71 95q25 55 25 112q0 53 -15 82q-18 37 -32 51q-18 18 -37 24.5t-31 6.5t-28.5 -6t-26.5 -16q-12 -12 -20.5 -28.5t-8.5 -39.5q0 -16 10 -41q10 -23 23 -45 q18 -39 22 -47q10 -27 11 -45q0 -23 -13 -47q-12 -23 -36 -45q-23 -20 -62 -33q-37 -12 -86 -12q-39 0 -84 16q-39 14 -78 49q-37 33 -57 88q-23 57 -23 133q0 45 9 84q10 45 24 84q20 53 33 78l33 64q41 70 59 112q25 55 43 111q16 49 27 114q10 59 12 119h-45 q-2 -72 -18 -127q-14 -51 -43 -102q-28 -49 -68 -98l-96 -111q-6 -6 -52 -61q-29 -35 -53 -78q-27 -47 -41 -94q-16 -56 -16 -111zM367 895q0 -23 10 -47q8 -18 26 -37q15 -15 37 -25q18 -8 41 -8q27 0 45 8q22 9 37 25q18 18 27 37q10 25 10 47q0 25 -10 49q-10 23 -27 37 q-14 12 -39 23q-18 8 -43 8q-12 0 -41 -8q-16 -4 -34 -23q-23 -23 -29 -37q-10 -24 -10 -49z" />
<glyph unicode="&#xc0;" horiz-adv-x="1529" d="M16 0h445v39q-72 6 -111 22q-37 16 -47 41q-10 29 -2 62t31 84l96 225h547l84 -203q16 -41 31 -84q14 -49 10 -73q-6 -29 -37 -52q-33 -23 -105 -22v-39h555v39q-45 4 -75 12q-31 10 -58 33q-31 27 -53 68q-20 37 -55 118l-490 1172h-37l-495 -1161l-47 -103 q-18 -39 -51 -74q-29 -33 -58 -45q-39 -18 -78 -20v-39zM420 1821q0 -12 10 -27q12 -16 23 -25q20 -16 30 -22l29 -18l307 -195h86l-295 297q-25 25 -63 49q-33 20 -62 21q-31 0 -49 -21q-16 -18 -16 -59zM461 549l246 571l239 -571h-485z" />
<glyph unicode="&#xc1;" horiz-adv-x="1529" d="M16 0h445v39q-72 6 -111 22q-37 16 -47 41q-10 29 -2 62t31 84l96 225h547l84 -203q16 -41 31 -84q14 -49 10 -73q-6 -29 -37 -52q-33 -23 -105 -22v-39h555v39q-45 4 -75 12q-31 10 -58 33q-31 27 -53 68q-20 37 -55 118l-490 1172h-37l-495 -1161l-47 -103 q-18 -39 -51 -74q-29 -33 -58 -45q-39 -18 -78 -20v-39zM461 549l246 571l239 -571h-485zM602 1534h86l307 195q33 20 59.5 46.5t26.5 57.5q0 10 -6 22q-10 20 -12 23q-12 12 -19 16q-9 6 -18 7q-35 0 -68 -21q-34 -22 -61 -49z" />
<glyph unicode="&#xc2;" horiz-adv-x="1529" d="M16 0h445v39q-72 6 -111 22q-37 16 -47 41q-10 29 -2 62t31 84l96 225h547l84 -203q16 -41 31 -84q14 -49 10 -73q-6 -29 -37 -52q-33 -23 -105 -22v-39h555v39q-45 4 -75 12q-31 10 -58 33q-31 27 -53 68q-20 37 -55 118l-490 1172h-37l-495 -1161l-47 -103 q-18 -39 -51 -74q-29 -33 -58 -45q-39 -18 -78 -20v-39zM426 1534h74l260 221l260 -221h74l-267 356h-133zM461 549l246 571l239 -571h-485z" />
<glyph unicode="&#xc3;" horiz-adv-x="1529" d="M16 0h445v39q-72 6 -111 22q-37 16 -47 41q-10 29 -2 62t31 84l96 225h547l84 -203q16 -41 31 -84q14 -49 10 -73q-6 -29 -37 -52q-33 -23 -105 -22v-39h555v39q-45 4 -75 12q-31 10 -58 33q-31 27 -53 68q-20 37 -55 118l-490 1172h-37l-495 -1161l-47 -103 q-18 -39 -51 -74q-29 -33 -58 -45q-39 -18 -78 -20v-39zM393 1587h56q2 18 14 35q12 18 26 33q12 12 37 22q18 8 43 9q35 0 60 -7q27 -6 47 -18q29 -16 41 -25q6 -4 21.5 -12l19.5 -10q20 -12 51 -19q37 -8 68 -8q45 0 84 19q27 12 67 53q31 31 49 72q18 39 25 84h-55 q-12 -49 -56 -78q-41 -27 -92 -27q-45 0 -74 14q-41 20 -61 33q-33 20 -62 33q-31 14 -73 14q-45 0 -88 -16q-41 -16 -70 -47q-33 -37 -47 -68q-19 -40 -31 -86zM461 549l246 571l239 -571h-485z" />
<glyph unicode="&#xc4;" horiz-adv-x="1529" d="M16 0h445v39q-72 6 -111 22q-37 16 -47 41q-10 29 -2 62t31 84l96 225h547l84 -203q16 -41 31 -84q14 -49 10 -73q-6 -29 -37 -52q-33 -23 -105 -22v-39h555v39q-45 4 -75 12q-31 10 -58 33q-31 27 -53 68q-20 37 -55 118l-490 1172h-37l-495 -1161l-47 -103 q-18 -39 -51 -74q-29 -33 -58 -45q-39 -18 -78 -20v-39zM440 1665q0 -25 9 -41q10 -20 22 -33q10 -10 35 -22q20 -10 39 -10q25 0 41 8t32.5 24.5t24.5 32.5t8 41t-8 41q-10 20 -25 35q-12 12 -32 22q-16 8 -41 9q-23 0 -39.5 -8.5t-32.5 -24.5q-14 -14 -24 -35 q-9 -16 -9 -39zM461 549l246 571l239 -571h-485zM864 1665q0 -25 8 -41q10 -20 23 -33q10 -10 35 -22q20 -10 41 -10q25 0 41 8t32.5 24.5t24.5 32.5t8 41t-8 41q-10 20 -25 35q-12 12 -32 22q-16 8 -41 9q-23 0 -39 -9q-20 -10 -35 -24q-10 -10 -23 -35q-10 -21 -10 -39z " />
<glyph unicode="&#xc5;" horiz-adv-x="1529" d="M16 0h445v39q-72 6 -111 22q-37 16 -47 41q-10 29 -2 62t31 84l96 225h547l84 -203q16 -41 31 -84q14 -49 10 -73q-6 -29 -37 -52q-33 -23 -105 -22v-39h555v39q-45 4 -75 12q-31 10 -58 33q-31 27 -53 68q-20 37 -55 118l-490 1172h-37l-495 -1161l-47 -103 q-18 -39 -51 -74q-29 -33 -58 -45q-39 -18 -78 -20v-39zM461 549l246 571l239 -571h-485zM563 1733q0 -49 17 -82q18 -35 47 -62q31 -27 63 -41q35 -14 74 -14q41 0 72 14q35 16 63 41q27 23 45 62q16 33 16.5 82t-16.5 82q-20 43 -45 63q-23 20 -63 39q-31 14 -72 14 t-76 -14q-37 -14 -65 -41q-27 -23 -43 -64q-17 -38 -17 -79zM635 1733q0 25 10 51q10 25 29 41q25 20 41 26q23 8 49 9q29 0 47 -9q14 -6 39 -26q18 -16 29 -41q10 -27 10 -51.5t-10.5 -49t-24.5 -38.5q-18 -18 -41 -29q-25 -10 -49 -10q-29 0 -47.5 8t-40.5 26 q-18 16 -31 39q-10 21 -10 54z" />
<glyph unicode="&#xc6;" horiz-adv-x="1892" d="M-25 0h443v39q-102 10 -133 31q-23 12 -29 30.5t0 44.5q6 29 25 66l47 92l129 242h411v-295q0 -129 -24 -160q-43 -51 -129 -51h-51v-39h1058l111 356h-37q-39 -78 -74 -127q-39 -55 -84 -88q-46 -34 -110 -49q-70 -16 -152 -16h-188q-27 0 -51 4q-14 2 -31 10 q-12 6 -21 14q-6 6 -10 15q-8 10 -8 41v71v467h268q61 0 107 -10q41 -10 65 -31q20 -18 35 -63q6 -20 19 -102h36v487h-36q-6 -53 -19 -94q-10 -35 -39 -64q-25 -27 -65 -35q-45 -10 -103 -10h-268v557h346q74 0 125 -10t76 -33q27 -25 43 -71q15 -46 31 -117h34l-16 307 h-1155v-37q49 -2 90 -10q34 -6 55 -19q23 -12 27 -24q8 -20 8 -33q0 -20 -20 -76q-18 -49 -60 -125l-430 -800q-43 -80 -53 -95q-23 -37 -45 -65q-27 -35 -37 -43q-20 -18 -33 -25q-31 -18 -78 -18v-39zM496 623l372 710v-710h-372z" />
<glyph unicode="&#xc7;" horiz-adv-x="1419" d="M76 684q0 -133 35 -244q37 -117 104 -209q70 -96 168 -159q100 -66 225 -90l-82 -193l17 -12q27 8 47 10q25 3 49 0q37 -4 57.5 -24.5t20.5 -57.5q0 -47 -33 -67q-35 -23 -92 -23q-18 0 -31 2q-6 2 -17.5 4t-17.5 2t-17 4t-17 4q-8 2 -31 11l-31 -68q27 -10 84 -23 q47 -10 88 -10q51 0 100 13q43 10 89 34q39 20 63 56q23 31 23 75q0 41 -14.5 68t-39.5 45q-23 16 -57 27q-31 8 -68 8q-34 0 -61 -6l43 110q29 -4 41 -4h41q98 0 184 23q92 25 156 65q66 43 131 115q59 66 113 160l-31 22q-55 -82 -117 -145q-47 -51 -113 -90 q-51 -33 -114 -45q-58 -12 -129 -13q-117 0 -217 41q-94 39 -166 119q-74 82 -109 195q-37 117 -37 268q0 176 37 305t103 213q70 88 159 127q94 41 199 41q80 0 154 -22q72 -23 131 -72q63 -53 106 -125q51 -84 80 -186h33l-33 479h-37q-12 -47 -35 -74q-23 -25 -51 -25 q-18 0 -45 15q-25 14 -74 34.5t-104 34.5q-57 14 -141 15q-111 0 -203 -27q-94 -27 -176 -78q-76 -47 -144 -120q-61 -68 -106 -154q-47 -92 -68 -180q-22 -101 -22 -199z" />
<glyph unicode="&#xc8;" horiz-adv-x="1298" d="M45 0h1085l123 354h-43q-49 -86 -86 -141q-33 -49 -82 -84q-43 -31 -98 -43q-47 -10 -143 -10h-238q-51 0 -76 12q-27 12 -34 33q-8 18 -9 49v63v465h310q74 0 112 -12q43 -12 63.5 -36.5t31.5 -65.5q2 -10 16 -95h39v490h-39l-16 -92q-10 -39 -31 -64q-18 -20 -64 -35 q-39 -12 -112 -12h-310v557h390q66 0 104 -8q41 -8 69.5 -24.5t45 -39t24.5 -44.5q4 -14 15 -56q10 -45 14 -59h41l-17 307h-1085v-37h49q45 0 76 -12q35 -14 49 -31q27 -27 27 -164v-915q0 -55 -2 -76q-4 -39 -8 -51q-8 -27 -13 -31q-6 -8 -18 -20q-10 -8 -27 -15l-10 -5 t-11 -5t-10 -2q-20 -4 -30 -4q-6 0 -13.5 -1t-9.5 -1h-49v-39zM338 1821q0 -12 10 -27q12 -16 23 -25q20 -16 30 -22l29 -18l307 -195h86l-295 297q-25 25 -63 49q-33 20 -62 21q-31 0 -49 -21q-16 -18 -16 -59z" />
<glyph unicode="&#xc9;" horiz-adv-x="1298" d="M45 0h1085l123 354h-43q-49 -86 -86 -141q-33 -49 -82 -84q-43 -31 -98 -43q-47 -10 -143 -10h-238q-51 0 -76 12q-27 12 -34 33q-8 18 -9 49v63v465h310q74 0 112 -12q43 -12 63.5 -36.5t31.5 -65.5q2 -10 16 -95h39v490h-39l-16 -92q-10 -39 -31 -64q-18 -20 -64 -35 q-39 -12 -112 -12h-310v557h390q66 0 104 -8q41 -8 69.5 -24.5t45 -39t24.5 -44.5q4 -14 15 -56q10 -45 14 -59h41l-17 307h-1085v-37h49q45 0 76 -12q35 -14 49 -31q27 -27 27 -164v-915q0 -55 -2 -76q-4 -39 -8 -51q-8 -27 -13 -31q-6 -8 -18 -20q-10 -8 -27 -15l-10 -5 t-11 -5t-10 -2q-20 -4 -30 -4q-6 0 -13.5 -1t-9.5 -1h-49v-39zM500 1534h86l307 195q33 20 59.5 46.5t26.5 57.5q0 10 -6 22q-10 20 -12 23q-12 12 -19 16q-9 6 -18 7q-35 0 -68 -21q-34 -22 -61 -49z" />
<glyph unicode="&#xca;" horiz-adv-x="1298" d="M45 0h1085l123 354h-43q-49 -86 -86 -141q-33 -49 -82 -84q-43 -31 -98 -43q-47 -10 -143 -10h-238q-51 0 -76 12q-27 12 -34 33q-8 18 -9 49v63v465h310q74 0 112 -12q43 -12 63.5 -36.5t31.5 -65.5q2 -10 16 -95h39v490h-39l-16 -92q-10 -39 -31 -64q-18 -20 -64 -35 q-39 -12 -112 -12h-310v557h390q66 0 104 -8q41 -8 69.5 -24.5t45 -39t24.5 -44.5q4 -14 15 -56q10 -45 14 -59h41l-17 307h-1085v-37h49q45 0 76 -12q35 -14 49 -31q27 -27 27 -164v-915q0 -55 -2 -76q-4 -39 -8 -51q-8 -27 -13 -31q-6 -8 -18 -20q-10 -8 -27 -15l-10 -5 t-11 -5t-10 -2q-20 -4 -30 -4q-6 0 -13.5 -1t-9.5 -1h-49v-39zM270 1534h74l260 221l260 -221h74l-266 356h-133z" />
<glyph unicode="&#xcb;" horiz-adv-x="1298" d="M45 0h1085l123 354h-43q-49 -86 -86 -141q-33 -49 -82 -84q-43 -31 -98 -43q-47 -10 -143 -10h-238q-51 0 -76 12q-27 12 -34 33q-8 18 -9 49v63v465h310q74 0 112 -12q43 -12 63.5 -36.5t31.5 -65.5q2 -10 16 -95h39v490h-39l-16 -92q-10 -39 -31 -64q-18 -20 -64 -35 q-39 -12 -112 -12h-310v557h390q66 0 104 -8q41 -8 69.5 -24.5t45 -39t24.5 -44.5q4 -14 15 -56q10 -45 14 -59h41l-17 307h-1085v-37h49q45 0 76 -12q35 -14 49 -31q27 -27 27 -164v-915q0 -55 -2 -76q-4 -39 -8 -51q-8 -27 -13 -31q-6 -8 -18 -20q-10 -8 -27 -15l-10 -5 t-11 -5t-10 -2q-20 -4 -30 -4q-6 0 -13.5 -1t-9.5 -1h-49v-39zM297 1665q0 -25 8 -41q10 -20 23 -33q10 -10 34 -22q20 -10 39 -10q25 0 41 8q20 10 35 24q12 12 23 33q8 16 8 41t-8 41q-12 25 -22.5 35t-35.5 22q-16 8 -41 9q-23 0 -39 -8.5t-32 -24.5q-14 -14 -25 -35 q-8 -16 -8 -39zM721 1665q0 -25 8 -41q10 -20 23 -33q10 -10 34 -22q20 -10 41 -10q25 0 41 8q20 10 35 24q12 12 23 33q8 16 8 41t-8 41q-12 25 -22.5 35t-35.5 22q-16 8 -41 9q-23 0 -39 -9q-20 -10 -34.5 -24.5t-24.5 -34.5q-8 -16 -8 -39z" />
<glyph unicode="&#xcc;" horiz-adv-x="708" d="M-31 1821q0 -12 11 -27q12 -16 22 -25q20 -16 31 -22l28 -18l308 -195h86l-295 297q-25 25 -64 49q-33 20 -61 21q-31 0 -49 -21q-17 -18 -17 -59zM53 0h604v39h-51q-10 0 -39 4l-37 12q-20 6 -32 17q-14 10 -19 16q-12 18 -18 57q-6 37 -6 105v911q0 49 8 103 q6 39 18 57q43 51 125 51h51v37h-604v-37h51q37 0 72 -14q33 -14 55 -39q10 -10 13 -21q2 -8 6 -32.5t4 -42.5v-62v-911q0 -129 -25 -160q-25 -29 -51 -39q-31 -12 -74 -12h-51v-39z" />
<glyph unicode="&#xcd;" horiz-adv-x="708" d="M53 0h604v39h-51q-10 0 -39 4l-37 12q-20 6 -32 17q-14 10 -19 16q-12 18 -18 57q-6 37 -6 105v911q0 49 8 103q6 39 18 57q43 51 125 51h51v37h-604v-37h51q37 0 72 -14q33 -14 55 -39q10 -10 13 -21q2 -8 6 -32.5t4 -42.5v-62v-911q0 -129 -25 -160q-25 -29 -51 -39 q-31 -12 -74 -12h-51v-39zM254 1534h86l307 195q33 20 59.5 46.5t26.5 57.5q0 10 -6 22q-8 16 -14 23l-17 16q-9 6 -18 7q-35 0 -68 -21q-34 -22 -61 -49z" />
<glyph unicode="&#xce;" horiz-adv-x="708" d="M20 1534h74l260 221l260 -221h74l-266 356h-133zM53 0h604v39h-51q-10 0 -39 4l-37 12q-20 6 -32 17q-14 10 -19 16q-12 18 -18 57q-6 37 -6 105v911q0 49 8 103q6 39 18 57q43 51 125 51h51v37h-604v-37h51q37 0 72 -14q33 -14 55 -39q10 -10 13 -21q2 -8 6 -32.5 t4 -42.5v-62v-911q0 -129 -25 -160q-25 -29 -51 -39q-31 -12 -74 -12h-51v-39z" />
<glyph unicode="&#xcf;" horiz-adv-x="708" d="M37 1665q0 -25 8 -41q10 -20 23 -33q10 -10 34 -22q20 -10 39 -10q25 0 41 8q20 10 35 24q12 12 23 33q8 16 8 41t-8 41q-12 25 -22.5 35t-35.5 22q-16 8 -41 9q-23 0 -39 -8.5t-32 -24.5q-14 -14 -25 -35q-8 -16 -8 -39zM53 0h604v39h-51q-10 0 -39 4l-37 12 q-20 6 -32 17q-14 10 -19 16q-12 18 -18 57q-6 37 -6 105v911q0 49 8 103q6 39 18 57q43 51 125 51h51v37h-604v-37h51q37 0 72 -14q33 -14 55 -39q10 -10 13 -21q2 -8 6 -32.5t4 -42.5v-62v-911q0 -129 -25 -160q-25 -29 -51 -39q-31 -12 -74 -12h-51v-39zM461 1665 q0 -25 8 -41q10 -20 23 -33q10 -10 34 -22q20 -10 41 -10q25 0 41 8q20 10 35 24q12 12 23 33q8 16 8 41t-8 41q-12 25 -22.5 35t-35.5 22q-16 8 -41 9q-23 0 -39 -9q-20 -10 -34.5 -24.5t-24.5 -34.5q-8 -16 -8 -39z" />
<glyph unicode="&#xd0;" horiz-adv-x="1536" d="M37 0h631q209 0 358 55q147 53 243.5 153.5t139.5 227.5q45 135 45 279q0 115 -27 207q-29 98 -73 176q-39 68 -115 139q-61 59 -143 98q-160 74 -486 74h-573v-37h53q39 0 69.5 -12t51.5 -33q27 -35 27 -166v-338h-201v-118h201v-455q0 -121 -21 -154q-33 -57 -127 -57 h-53v-39zM438 104v601h412v118h-412v480q61 18 115 24q52 6 98 6q127 0 231.5 -43t180.5 -125q72 -78 117 -198q41 -111 41 -262q0 -147 -43 -265q-43 -115 -117 -198q-72 -82 -178 -125q-104 -43 -224 -43q-51 0 -100 8q-88 14 -121 22z" />
<glyph unicode="&#xd1;" horiz-adv-x="1536" d="M12 1372q59 0 103 -18q37 -16 69 -45q23 -20 41 -49q8 -12 25 -35v-979q0 -121 -25 -152q-20 -33 -49 -43q-31 -12 -78 -12h-49v-39h492v39h-49q-83 0 -123 43q-29 35 -29 164v866l932 -1135h37v1188q0 59 6 97q8 43 16 57q23 29 49 39q39 14 78 14h49v37h-489v-37h47 q84 0 123 -45q29 -29 29 -162v-813l-861 1057h-344v-37zM434 1559h55q4 20 15 36q8 12 26 31q12 12 37 23q18 8 43 8q27 0 60 -8q20 -6 47 -17q12 -4 41 -24q20 -14 41 -23q35 -14 51 -18q37 -8 68 -8q39 0 83 20q31 14 68 51q31 31 49 72q18 39 25 84h-56q-12 -49 -55 -78 q-41 -27 -92 -27q-45 0 -74 15q-41 20 -61 33q-10 6 -64 32q-29 14 -71 15q-53 0 -88 -17q-41 -18 -70 -47t-47 -67q-19 -40 -31 -86z" />
<glyph unicode="&#xd2;" horiz-adv-x="1536" d="M74 709q0 -162 53 -303q49 -127 147 -234q94 -100 218 -152q129 -53 270 -53q98 0 188 25q80 23 166 74q78 47 139 114q68 74 107 150q43 84 68 180q25 98 24 203q0 106 -24 200q-25 96 -68 177q-45 82 -107 147q-59 61 -137 111q-72 45 -160 69q-86 25 -178 25 q-100 0 -192 -25q-86 -23 -170 -71q-68 -39 -142 -113q-63 -61 -108 -146q-45 -80 -70 -178q-24 -94 -24 -200zM313 715q0 158 29 272q31 127 86 207q55 82 141 129q82 45 189 45q115 0 203 -47q86 -47 145 -133q57 -84 86 -215q27 -121 27 -287q0 -162 -35 -289 q-33 -121 -94 -200q-59 -78 -146 -119q-76 -37 -184 -37q-106 0 -192.5 51t-139.5 137q-59 96 -86 213q-29 128 -29 273zM434 1821q0 -12 10 -27q12 -16 23 -25q20 -16 31 -22l28 -18l308 -195h86l-295 297q-25 25 -64 49q-33 20 -61 21q-31 0 -49 -21q-17 -18 -17 -59z" />
<glyph unicode="&#xd3;" horiz-adv-x="1536" d="M74 709q0 -162 53 -303q49 -127 147 -234q94 -100 218 -152q129 -53 270 -53q98 0 188 25q80 23 166 74q78 47 139 114q68 74 107 150q43 84 68 180q25 98 24 203q0 106 -24 200q-25 96 -68 177q-45 82 -107 147q-59 61 -137 111q-72 45 -160 69q-86 25 -178 25 q-100 0 -192 -25q-86 -23 -170 -71q-68 -39 -142 -113q-63 -61 -108 -146q-45 -80 -70 -178q-24 -94 -24 -200zM313 715q0 158 29 272q31 127 86 207q55 82 141 129q82 45 189 45q115 0 203 -47q86 -47 145 -133q57 -84 86 -215q27 -121 27 -287q0 -162 -35 -289 q-33 -121 -94 -200q-59 -78 -146 -119q-76 -37 -184 -37q-106 0 -192.5 51t-139.5 137q-59 96 -86 213q-29 128 -29 273zM623 1534h86l307 195q33 20 59.5 46.5t26.5 57.5q0 10 -6 22q-10 20 -13 23q-12 12 -18 16q-9 6 -18 7q-35 0 -68 -21q-34 -22 -61 -49z" />
<glyph unicode="&#xd4;" horiz-adv-x="1536" d="M74 709q0 -162 53 -303q49 -127 147 -234q94 -100 218 -152q129 -53 270 -53q98 0 188 25q80 23 166 74q78 47 139 114q68 74 107 150q43 84 68 180q25 98 24 203q0 106 -24 200q-25 96 -68 177q-45 82 -107 147q-59 61 -137 111q-72 45 -160 69q-86 25 -178 25 q-100 0 -192 -25q-86 -23 -170 -71q-68 -39 -142 -113q-63 -61 -108 -146q-45 -80 -70 -178q-24 -94 -24 -200zM313 715q0 158 29 272q31 127 86 207q55 82 141 129q82 45 189 45q115 0 203 -47q86 -47 145 -133q57 -84 86 -215q27 -121 27 -287q0 -162 -35 -289 q-33 -121 -94 -200q-59 -78 -146 -119q-76 -37 -184 -37q-106 0 -192.5 51t-139.5 137q-59 96 -86 213q-29 128 -29 273zM438 1534h74l260 221l260 -221h74l-266 356h-133z" />
<glyph unicode="&#xd5;" horiz-adv-x="1536" d="M74 709q0 -162 53 -303q49 -127 147 -234q94 -100 218 -152q129 -53 270 -53q98 0 188 25q80 23 166 74q78 47 139 114q68 74 107 150q43 84 68 180q25 98 24 203q0 106 -24 200q-25 96 -68 177q-45 82 -107 147q-59 61 -137 111q-72 45 -160 69q-86 25 -178 25 q-100 0 -192 -25q-86 -23 -170 -71q-68 -39 -142 -113q-63 -61 -108 -146q-45 -80 -70 -178q-24 -94 -24 -200zM313 715q0 158 29 272q31 127 86 207q55 82 141 129q82 45 189 45q115 0 203 -47q86 -47 145 -133q57 -84 86 -215q27 -121 27 -287q0 -162 -35 -289 q-33 -121 -94 -200q-59 -78 -146 -119q-76 -37 -184 -37q-106 0 -192.5 51t-139.5 137q-59 96 -86 213q-29 128 -29 273zM414 1587h55q4 23 12 35q14 20 29 33q16 14 37 22q18 8 43 9q35 0 59 -7q27 -6 47 -18q29 -16 41 -25q6 -4 21.5 -12l19.5 -10q20 -12 51 -19 q37 -8 68 -8q45 0 84 19q31 14 70 53q27 27 47 72q18 39 24 84h-55q-8 -29 -20 -46q-18 -20 -35 -32q-23 -16 -43 -21q-25 -6 -49 -6q-43 0 -72 14q-53 27 -64 33q-20 12 -61 33q-29 14 -74 14q-47 0 -90 -16q-39 -14 -67 -47q-33 -37 -48 -68q-24 -51 -30 -86z" />
<glyph unicode="&#xd6;" horiz-adv-x="1536" d="M74 709q0 -162 53 -303q49 -127 147 -234q94 -100 218 -152q129 -53 270 -53q98 0 188 25q80 23 166 74q78 47 139 114q68 74 107 150q43 84 68 180q25 98 24 203q0 106 -24 200q-25 96 -68 177q-45 82 -107 147q-59 61 -137 111q-72 45 -160 69q-86 25 -178 25 q-100 0 -192 -25q-86 -23 -170 -71q-68 -39 -142 -113q-63 -61 -108 -146q-45 -80 -70 -178q-24 -94 -24 -200zM313 715q0 158 29 272q31 127 86 207q55 82 141 129q82 45 189 45q115 0 203 -47q86 -47 145 -133q57 -84 86 -215q27 -121 27 -287q0 -162 -35 -289 q-33 -121 -94 -200q-59 -78 -146 -119q-76 -37 -184 -37q-106 0 -192.5 51t-139.5 137q-59 96 -86 213q-29 128 -29 273zM444 1665q0 -25 9 -41q10 -20 22 -33q10 -10 35 -22q20 -10 39 -10q25 0 41 8t32.5 24.5t24.5 32.5t8 41t-8 41q-10 20 -24 35q-12 12 -33 22 q-16 8 -41 9q-23 0 -39 -8.5t-33 -24.5q-14 -14 -24 -35q-9 -16 -9 -39zM868 1665q0 -25 9 -41q10 -20 22 -33q10 -10 35 -22q20 -10 41 -10q25 0 41 8t32.5 24.5t24.5 32.5t8 41t-8 41q-10 20 -24 35q-12 12 -33 22q-16 8 -41 9q-23 0 -39 -9q-20 -10 -34.5 -24.5 t-24.5 -34.5q-9 -16 -9 -39z" />
<glyph unicode="&#xd7;" horiz-adv-x="2048" d="M471 141l80 -80l473 476l473 -476l80 80l-471 473l471 473l-80 80l-473 -475l-473 475l-80 -80l471 -473z" />
<glyph unicode="&#xd8;" horiz-adv-x="1536" d="M76 721q0 -340 209 -551l-138 -170l62 -49l133 166q47 -39 102 -68q45 -25 109 -45q59 -20 113 -29q49 -8 108 -8q90 0 176 25q70 20 160 74q74 45 139 112q63 66 111 152q45 80 70 180q27 106 26 205q0 80 -12 149q-14 76 -35 133q-23 57 -66 121q-47 70 -94 119 l142 172l-62 45l-137 -168q-186 156 -422 156q-147 0 -272 -56q-126 -55 -222 -153t-147 -229q-53 -136 -53 -283zM313 725q0 82 9 149q10 80 30 150q20 66 56 133q33 63 84 111q47 45 118 73q66 27 154 27q113 0 197 -45q80 -43 145 -143l-717 -879q-76 182 -76 424z M432 225l711 881q31 -86 41 -121q16 -61 22 -104q4 -31 8 -97q2 -31 3 -102q0 -178 -35 -295q-37 -121 -99 -199q-61 -76 -145 -110q-86 -35 -180 -35q-43 0 -90 10q-45 10 -84 31q-43 23 -78 55q-45 41 -74 86z" />
<glyph unicode="&#xd9;" horiz-adv-x="1536" d="M31 1372h32q39 0 70 -10q29 -10 47 -31q16 -20 27 -63q8 -39 8 -107v-553v-92q0 -68 4 -102q6 -57 19 -107q12 -53 36 -102q25 -51 66 -94q40 -43 98 -74q68 -35 140 -51q83 -18 190 -19q72 0 139 10q70 10 113 27q51 18 90 49q45 35 80 70q39 41 61 88q18 37 37 106 q14 53 21 123q4 43 4 140v573q0 119 22 147q18 33 54 54q31 18 73 18h54v37h-500v-37h53q78 0 121 -45q29 -35 29 -166v-571v-82q0 -61 -9 -113q-10 -61 -30 -119q-23 -59 -60 -94q-16 -16 -51 -40.5t-74 -41.5q-53 -23 -96 -32q-52 -12 -117 -13q-94 0 -151 23 q-66 27 -103 63q-43 43 -63 90q-25 53 -35 105q-8 37 -12 108q-2 37 -2 101v616q0 45 8 99q6 35 18 57q9 15 19 24q12 12 20 17q14 8 29 10q20 4 37 4h53v37h-569v-37zM420 1821q0 -12 10 -27q12 -16 23 -25q20 -16 30 -22l29 -18l307 -195h86l-295 297q-25 25 -63 49 q-33 20 -62 21q-31 0 -49 -21q-16 -18 -16 -59z" />
<glyph unicode="&#xda;" horiz-adv-x="1536" d="M31 1372h32q39 0 70 -10q29 -10 47 -31q16 -20 27 -63q8 -39 8 -107v-553v-92q0 -68 4 -102q6 -57 19 -107q12 -53 36 -102q25 -51 66 -94q40 -43 98 -74q68 -35 140 -51q83 -18 190 -19q72 0 139 10q70 10 113 27q51 18 90 49q45 35 80 70q39 41 61 88q18 37 37 106 q14 53 21 123q4 43 4 140v573q0 119 22 147q18 33 54 54q31 18 73 18h54v37h-500v-37h53q78 0 121 -45q29 -35 29 -166v-571v-82q0 -61 -9 -113q-10 -61 -30 -119q-23 -59 -60 -94q-16 -16 -51 -40.5t-74 -41.5q-53 -23 -96 -32q-52 -12 -117 -13q-94 0 -151 23 q-66 27 -103 63q-43 43 -63 90q-25 53 -35 105q-8 37 -12 108q-2 37 -2 101v616q0 45 8 99q6 35 18 57q9 15 19 24q12 12 20 17q14 8 29 10q20 4 37 4h53v37h-569v-37zM623 1534h86l307 195q33 20 59.5 46.5t26.5 57.5q0 10 -6 22q-10 20 -13 23q-12 12 -18 16q-9 6 -18 7 q-35 0 -68 -21q-34 -22 -61 -49z" />
<glyph unicode="&#xdb;" horiz-adv-x="1536" d="M31 1372h32q39 0 70 -10q29 -10 47 -31q16 -20 27 -63q8 -39 8 -107v-553v-92q0 -68 4 -102q6 -57 19 -107q12 -53 36 -102q25 -51 66 -94q40 -43 98 -74q68 -35 140 -51q83 -18 190 -19q72 0 139 10q70 10 113 27q51 18 90 49q45 35 80 70q39 41 61 88q18 37 37 106 q14 53 21 123q4 43 4 140v573q0 119 22 147q18 33 54 54q31 18 73 18h54v37h-500v-37h53q78 0 121 -45q29 -35 29 -166v-571v-82q0 -61 -9 -113q-10 -61 -30 -119q-23 -59 -60 -94q-16 -16 -51 -40.5t-74 -41.5q-53 -23 -96 -32q-52 -12 -117 -13q-94 0 -151 23 q-66 27 -103 63q-43 43 -63 90q-25 53 -35 105q-8 37 -12 108q-2 37 -2 101v616q0 45 8 99q6 35 18 57q9 15 19 24q12 12 20 17q14 8 29 10q20 4 37 4h53v37h-569v-37zM414 1534h73l261 221l260 -221h73l-266 356h-133z" />
<glyph unicode="&#xdc;" horiz-adv-x="1536" d="M31 1372h32q39 0 70 -10q29 -10 47 -31q16 -20 27 -63q8 -39 8 -107v-553v-92q0 -68 4 -102q6 -57 19 -107q12 -53 36 -102q25 -51 66 -94q40 -43 98 -74q68 -35 140 -51q83 -18 190 -19q72 0 139 10q70 10 113 27q51 18 90 49q45 35 80 70q39 41 61 88q18 37 37 106 q14 53 21 123q4 43 4 140v573q0 119 22 147q18 33 54 54q31 18 73 18h54v37h-500v-37h53q78 0 121 -45q29 -35 29 -166v-571v-82q0 -61 -9 -113q-10 -61 -30 -119q-23 -59 -60 -94q-16 -16 -51 -40.5t-74 -41.5q-53 -23 -96 -32q-52 -12 -117 -13q-94 0 -151 23 q-66 27 -103 63q-43 43 -63 90q-25 53 -35 105q-8 37 -12 108q-2 37 -2 101v616q0 45 8 99q6 35 18 57q9 15 19 24q12 12 20 17q14 8 29 10q20 4 37 4h53v37h-569v-37zM461 1665q0 -25 8 -41q10 -20 23 -33q10 -10 34 -22q20 -10 39 -10q25 0 41 8q20 10 35 24q12 12 23 33 q8 16 8 41t-8 41q-12 25 -22.5 35t-35.5 22q-16 8 -41 9q-23 0 -39 -8.5t-32 -24.5q-14 -14 -25 -35q-8 -16 -8 -39zM885 1665q0 -25 8 -41t25 -33q12 -12 32.5 -22t40.5 -10q25 0 41 8q20 10 35 24q12 12 23 33q8 16 8 41t-8 41q-12 25 -22.5 35t-35.5 22q-16 8 -41 9 q-23 0 -39 -9q-20 -10 -34 -24q-10 -10 -23 -35q-10 -21 -10 -39z" />
<glyph unicode="&#xdd;" horiz-adv-x="1536" d="M18 1372q43 0 80 -18q45 -23 64 -39q29 -23 53 -60l59 -86l385 -589v-334q0 -61 -6 -99q-6 -41 -14 -53q-25 -33 -51 -43q-31 -12 -76 -12h-49v-39h598v39h-45q-88 0 -125 43q-31 31 -31 164v352l342 535q10 18 58 88q25 37 47 59q20 23 47 43q16 12 49 29q6 4 45 14 q23 6 33 6h26v37h-491v-37q23 0 51 -4q14 -2 35 -10q14 -6 24 -17q6 -6 15 -18q29 -39 14 -84q-16 -49 -59 -115l-279 -434l-293 453q-35 59 -47 86q-16 37 -16 51q0 29 14 45q16 20 37 29q29 12 43 14q29 4 37 4h31v37h-605v-37zM623 1534h86l307 195q33 20 59.5 46.5 t26.5 57.5q0 10 -6 22q-10 20 -13 23q-12 12 -18 16q-9 6 -18 7q-35 0 -68 -21q-34 -22 -61 -49z" />
<glyph unicode="&#xde;" horiz-adv-x="1183" d="M39 0h600v39h-43q-86 0 -123 39q-37 43 -37 176v63h74q59 0 145 5q65 3 111 12q70 14 82 18q47 18 59 25q16 10 45 31q14 10 39 34q51 51 82 119t31 146q0 53 -12 96q-10 37 -37 82q-23 39 -53.5 69.5t-67.5 55.5q-34 22 -68 37q-41 18 -82 26q-46 9 -110 12 q-86 4 -160 5h-78v69v43q0 14 4 35q2 4 4 14.5t2 14.5q4 16 8.5 30.5t24.5 34.5q15 15 37 25q23 10 41 12q29 4 39 4h43v37h-600v-37h39q57 0 98 -22q37 -20 47 -54q12 -25 13 -143v-903q0 -127 -21 -154q-39 -57 -139 -57h-37v-39zM436 389v621h49q55 0 113 -4 q37 -2 68 -11q27 -6 41 -18q8 -6 38 -27q55 -41 86 -106.5t31 -138.5q0 -70 -20 -125q-23 -59 -66 -101q-43 -39 -117 -65q-70 -25 -176 -25h-47z" />
<glyph unicode="&#xdf;" horiz-adv-x="1064" d="M37 0h311v1077q0 109 14 168q16 68 39 103q25 37 60 49t76 12q47 0 81 -14q33 -14 64 -47q25 -27 41 -80q14 -45 14 -121q0 -74 -16 -133q-14 -53 -43 -88q-27 -31 -70 -47q-41 -14 -94 -15v-59q82 -6 137 -41q57 -35 94 -98q37 -61 55.5 -147.5t18.5 -192.5 q0 -141 -43 -211t-112 -70q-23 2 -43 14q-16 10 -17 35q0 6 2 12l4 21q0 4 2 10t2 10q2 6 2 17q-4 39 -24 59q-23 23 -62 23q-43 0 -63 -25q-23 -27 -21 -65q0 -35 17 -68q18 -35 41 -53q31 -25 63 -35q37 -12 80 -12q82 0 146 37q61 35 110 100q45 59 69.5 143t24.5 170 q0 168 -75 275q-74 104 -209 141q59 23 102 59q37 31 59.5 70t28.5 78q8 53 8 80q0 72 -26 137q-25 59 -74 106q-49 45 -115 70q-68 25 -151 25q-94 0 -160 -27q-74 -31 -117 -84q-45 -57 -69.5 -145t-24.5 -217v-773q0 -61 -6 -98q-6 -33 -23 -57q-16 -23 -40.5 -31 t-67.5 -8v-39z" />
<glyph unicode="&#xe0;" horiz-adv-x="944" d="M76 225q0 -51 16 -100q14 -43 47 -76t72 -49q43 -18 92 -18q37 0 66 6q27 6 59 22q35 18 74 47l104 80q0 -49 8.5 -75.5t24.5 -47.5q16 -18 35 -24q29 -8 43 -8q109 0 227 155v60q-29 -29 -47 -45q-4 -4 -14.5 -12.5t-14.5 -12.5q-12 -10 -20 -12q-6 -2 -17 -2 q-22 0 -30 12q-8 10 -15 39l-4 57q-2 29 -2 109v325q0 74 -12 136q-12 63 -43 102q-33 41 -98 63q-68 23 -166 23q-61 0 -131 -16q-61 -14 -110.5 -45t-78 -76t-28.5 -101q0 -47 22.5 -73.5t65.5 -26.5q39 0 63 27q25 29 23 71l-2 62q4 49 41 84q35 33 102 33q43 0 78 -13 q34 -12 55 -43q25 -33 35 -76q10 -39 10 -116v-39q-147 -51 -196 -74q-90 -41 -142 -70q-66 -39 -96 -63q-33 -27 -59 -66q-18 -27 -29 -63q-8 -31 -8 -70zM133 1370q0 -12 10 -27q12 -16 23 -24q20 -16 31 -23l28 -18l307 -195h86l-294 297q-25 25 -64 50q-33 20 -61 20 q-31 0 -49 -20q-17 -19 -17 -60zM252 274q0 31 10 68q8 33 47 67.5t107 73.5q71 40 190 86v-364q-65 -52 -117 -80t-92 -25q-25 0 -57 15q-23 10 -45 37q-18 20 -31 53q-12 30 -12 69z" />
<glyph unicode="&#xe1;" horiz-adv-x="944" d="M76 225q0 -51 16 -100q14 -43 47 -76t72 -49q43 -18 92 -18q37 0 66 6q27 6 59 22q35 18 74 47l104 80q0 -49 8.5 -75.5t24.5 -47.5q16 -18 35 -24q29 -8 43 -8q109 0 227 155v60q-29 -29 -47 -45q-4 -4 -14.5 -12.5t-14.5 -12.5q-12 -10 -20 -12q-6 -2 -17 -2 q-22 0 -30 12q-8 10 -15 39l-4 57q-2 29 -2 109v325q0 74 -12 136q-12 63 -43 102q-33 41 -98 63q-68 23 -166 23q-61 0 -131 -16q-61 -14 -110.5 -45t-78 -76t-28.5 -101q0 -47 22.5 -73.5t65.5 -26.5q39 0 63 27q25 29 23 71l-2 62q4 49 41 84q35 33 102 33q43 0 78 -13 q34 -12 55 -43q25 -33 35 -76q10 -39 10 -116v-39q-147 -51 -196 -74q-90 -41 -142 -70q-66 -39 -96 -63q-33 -27 -59 -66q-18 -27 -29 -63q-8 -31 -8 -70zM252 274q0 31 10 68q8 33 47 67.5t107 73.5q71 40 190 86v-364q-65 -52 -117 -80t-92 -25q-25 0 -57 15 q-23 10 -45 37q-18 20 -31 53q-12 30 -12 69zM295 1083h86l307 195q33 20 59.5 47t26.5 57q0 10 -6 23q-8 16 -14 22l-17 17q-9 6 -18 6q-35 0 -68 -20q-34 -22 -61 -50z" />
<glyph unicode="&#xe2;" horiz-adv-x="944" d="M76 225q0 -51 16 -100q14 -43 47 -76t72 -49q43 -18 92 -18q37 0 66 6q27 6 59 22q35 18 74 47l104 80q0 -49 8.5 -75.5t24.5 -47.5q16 -18 35 -24q29 -8 43 -8q109 0 227 155v60q-29 -29 -47 -45q-4 -4 -14.5 -12.5t-14.5 -12.5q-12 -10 -20 -12q-6 -2 -17 -2 q-22 0 -30 12q-8 10 -15 39l-4 57q-2 29 -2 109v325q0 74 -12 136q-12 63 -43 102q-33 41 -98 63q-68 23 -166 23q-61 0 -131 -16q-61 -14 -110.5 -45t-78 -76t-28.5 -101q0 -47 22.5 -73.5t65.5 -26.5q39 0 63 27q25 29 23 71l-2 62q4 49 41 84q35 33 102 33q43 0 78 -13 q34 -12 55 -43q25 -33 35 -76q10 -39 10 -116v-39q-147 -51 -196 -74q-90 -41 -142 -70q-66 -39 -96 -63q-33 -27 -59 -66q-18 -27 -29 -63q-8 -31 -8 -70zM137 1083h74l260 222l260 -222h74l-266 357h-133zM252 274q0 31 10 68q8 33 47 67.5t107 73.5q71 40 190 86v-364 q-65 -52 -117 -80t-92 -25q-25 0 -57 15q-23 10 -45 37q-18 20 -31 53q-12 30 -12 69z" />
<glyph unicode="&#xe3;" horiz-adv-x="944" d="M76 225q0 -51 16 -100q14 -43 47 -76t72 -49q43 -18 92 -18q37 0 66 6q27 6 59 22q35 18 74 47l104 80q0 -49 8.5 -75.5t24.5 -47.5q16 -18 35 -24q29 -8 43 -8q109 0 227 155v60q-29 -29 -47 -45q-4 -4 -14.5 -12.5t-14.5 -12.5q-12 -10 -20 -12q-6 -2 -17 -2 q-22 0 -30 12q-8 10 -15 39l-4 57q-2 29 -2 109v325q0 74 -12 136q-12 63 -43 102q-33 41 -98 63q-68 23 -166 23q-61 0 -131 -16q-61 -14 -110.5 -45t-78 -76t-28.5 -101q0 -47 22.5 -73.5t65.5 -26.5q39 0 63 27q25 29 23 71l-2 62q4 49 41 84q35 33 102 33q43 0 78 -13 q34 -12 55 -43q25 -33 35 -76q10 -39 10 -116v-39q-147 -51 -196 -74q-90 -41 -142 -70q-66 -39 -96 -63q-33 -27 -59 -66q-18 -27 -29 -63q-8 -31 -8 -70zM96 1169h56q2 18 14 35q12 18 27 33q12 12 36 23q18 8 43 8q27 0 60 -8q27 -6 47 -19l19.5 -10t21.5 -12 q12 -8 41 -25q20 -12 51 -18q28 -6 68 -7q43 0 84 19q31 14 67 51q29 29 49 74q18 39 25 84h-55q-12 -49 -56 -78q-41 -27 -92 -27q-45 0 -74 15q-41 20 -61 32q-33 20 -61 33q-31 14 -74 14q-45 0 -88 -16q-41 -16 -70 -47q-33 -37 -47 -68q-19 -40 -31 -86zM252 274 q0 31 10 68q8 33 47 67.5t107 73.5q71 40 190 86v-364q-65 -52 -117 -80t-92 -25q-25 0 -57 15q-23 10 -45 37q-18 20 -31 53q-12 30 -12 69z" />
<glyph unicode="&#xe4;" horiz-adv-x="944" d="M76 225q0 -51 16 -100q14 -43 47 -76t72 -49q43 -18 92 -18q37 0 66 6q27 6 59 22q35 18 74 47l104 80q0 -49 8.5 -75.5t24.5 -47.5q16 -18 35 -24q29 -8 43 -8q109 0 227 155v60q-29 -29 -47 -45q-4 -4 -14.5 -12.5t-14.5 -12.5q-12 -10 -20 -12q-6 -2 -17 -2 q-22 0 -30 12q-8 10 -15 39l-4 57q-2 29 -2 109v325q0 74 -12 136q-12 63 -43 102q-33 41 -98 63q-68 23 -166 23q-61 0 -131 -16q-61 -14 -110.5 -45t-78 -76t-28.5 -101q0 -47 22.5 -73.5t65.5 -26.5q39 0 63 27q25 29 23 71l-2 62q4 49 41 84q35 33 102 33q43 0 78 -13 q34 -12 55 -43q25 -33 35 -76q10 -39 10 -116v-39q-147 -51 -196 -74q-90 -41 -142 -70q-66 -39 -96 -63q-33 -27 -59 -66q-18 -27 -29 -63q-8 -31 -8 -70zM143 1275.5q0 -22.5 9 -38.5q12 -25 22 -35q14 -14 35 -24q16 -8 39 -9q25 0 41 9q20 10 33 22q14 14 24 35 q8 16 8 40.5t-8 41t-24.5 33t-33 24.5t-40.5 8q-18 0 -39 -10t-33 -22q-14 -14 -24 -35q-9 -17 -9 -39.5zM252 274q0 31 10 68q8 33 47 67.5t107 73.5q71 40 190 86v-364q-65 -52 -117 -80t-92 -25q-25 0 -57 15q-23 10 -45 37q-18 20 -31 53q-12 30 -12 69zM567 1275.5 q0 -22.5 8 -38.5q12 -25 23 -35q14 -14 35 -24q16 -8 40.5 -8.5t41.5 8.5q20 10 33 22q14 14 24 35q8 16 8 40.5t-8 41t-24.5 33t-33 24.5t-40.5 8q-18 0 -39 -10q-25 -12 -35 -22q-14 -14 -25 -35q-8 -17 -8 -39.5z" />
<glyph unicode="&#xe5;" horiz-adv-x="944" d="M76 225q0 -51 16 -100q14 -43 47 -76t72 -49q43 -18 92 -18q37 0 66 6q27 6 59 22q35 18 74 47l104 80q0 -49 8.5 -75.5t24.5 -47.5q16 -18 35 -24q29 -8 43 -8q109 0 227 155v60q-29 -29 -47 -45q-4 -4 -14.5 -12.5t-14.5 -12.5q-12 -10 -20 -12q-6 -2 -17 -2 q-22 0 -30 12q-8 10 -15 39l-4 57q-2 29 -2 109v325q0 74 -12 136q-12 63 -43 102q-33 41 -98 63q-68 23 -166 23q-61 0 -131 -16q-61 -14 -110.5 -45t-78 -76t-28.5 -101q0 -47 22.5 -73.5t65.5 -26.5q39 0 63 27q25 29 23 71l-2 62q4 49 41 84q35 33 102 33q43 0 78 -13 q34 -12 55 -43q25 -33 35 -76q10 -39 10 -116v-39q-147 -51 -196 -74q-90 -41 -142 -70q-66 -39 -96 -63q-33 -27 -59 -66q-18 -27 -29 -63q-8 -31 -8 -70zM252 274q0 31 10 68q8 33 47 67.5t107 73.5q71 40 190 86v-364q-65 -52 -117 -80t-92 -25q-25 0 -57 15 q-23 10 -45 37q-18 20 -31 53q-12 30 -12 69zM287 1282q0 -45 18 -82q18 -39 45 -61q31 -27 64 -41q35 -14 73 -15q37 0 72 15q33 14 64 41q27 23 45 61q16 33 16 82q0 51 -16 84q-18 39 -45 61.5t-64 38.5q-35 14 -72 15q-41 0 -75 -15q-33 -14 -64 -40.5t-45 -61.5 q-16 -39 -16 -82zM358 1282q0 25 11 51q8 20 28 41q18 18 41 26.5t49.5 8.5t44.5 -8q25 -10 41 -27q20 -20 29 -41q10 -27 10 -51.5t-10 -48.5q-8 -20 -27 -39q-20 -20 -38 -29q-25 -10 -49.5 -10t-47.5 8q-25 9 -43 25q-14 12 -28 41q-11 20 -11 53z" />
<glyph unicode="&#xe6;" horiz-adv-x="1419" d="M76 209q0 -51 18 -94q16 -37 51 -76q29 -33 74 -51q43 -18 90 -19q61 0 117 19q49 16 100 47q46 28 80 55l58 47q46 -58 86 -92q39 -33 75 -51q35 -16 74 -21q49 -4 72 -4q83 0 147 31q61 29 108.5 80t78.5 115q35 72 51 137l-33 24q-35 -88 -80 -133q-47 -47 -88 -67 q-43 -20 -78 -25q-45 -4 -49 -4q-25 0 -53 6q-33 6 -57 19q-28 12 -56 36q-27 23 -47 60q-31 49 -43 133q-10 70 -10 209h594q-4 96 -26.5 165.5t-67.5 121.5q-45 53 -105 75q-68 27 -139 27q-90 0 -160 -29q-66 -27 -119 -96q-12 29 -32 49q-31 31 -54 41q-35 16 -82 25 q-55 10 -112 10q-90 0 -158 -23q-66 -23 -108 -55q-39 -31 -64 -76q-20 -39 -20 -80q0 -20 6 -38.5t16 -30.5q10 -14 29 -23q16 -8 43 -8q23 4 35 8q16 6 24 23q10 23 17 49q2 10 6 86q2 45 41 78t106 33q41 0 64 -11q28 -12 49 -37q16 -20 30 -63q10 -33 11 -96v-94 q-72 -29 -236 -101q-90 -39 -157 -90q-61 -47 -89 -96q-28 -53 -28 -125zM252 268q0 59 31 103q35 47 77 78q47 33 107 57q63 27 119 47v-92q0 -23 4 -76q2 -27 10 -76q6 -39 14 -65q10 -33 21 -51l-76 -56q-35 -25 -55 -35q-29 -14 -45 -16q-29 -4 -41 -4q-33 0 -66 16 q-31 14 -51 39q-27 31 -37 60q-12 32 -12 71zM762 657q0 65 18 111q20 49 45 78q31 33 64 47q35 14 76 14q45 0 75 -14q39 -18 60 -43q27 -33 41 -78q12 -39 16 -115h-395z" />
<glyph unicode="&#xe7;" horiz-adv-x="944" d="M72 475q0 -111 26 -192q29 -92 74 -154q46 -65 111 -104q63 -39 137 -52l-78 -184l16 -12q27 8 48 10q25 3 49 0q37 -4 57 -24.5t20 -57.5q0 -47 -32 -67q-35 -23 -92 -23q-16 0 -29 2l-37 6q-6 0 -17.5 4t-17.5 4q-8 2 -31 11l-30 -68q27 -10 84 -23q47 -10 88 -10 q51 0 100 13q43 10 88 34q35 18 62 56q25 33 24 75q0 41 -14 68q-14 25 -41 45q-23 16 -57 27q-31 8 -66 8q-34 0 -61 -6l43 108q63 2 131 35q59 29 112 82q52 52 86 123q39 80 49 153l-28 15q-33 -80 -64 -121q-33 -45 -71 -74q-37 -29 -76 -37q-45 -10 -84 -10 q-78 0 -133 35q-53 35 -96 96q-35 51 -60 137q-20 74 -20 162q0 80 16 137q16 61 49 109q29 43 80 74q45 27 105 26q72 0 106 -34q33 -33 39 -91q2 -41 16.5 -67.5t28.5 -36.5q16 -10 37 -14q25 -4 33 -4q49 0 73 26q25 28 25 62q0 43 -23 77q-29 43 -69 76q-92 74 -232 74 q-92 0 -176 -37q-80 -35 -143 -102q-61 -63 -98 -158q-37 -92 -37 -207z" />
<glyph unicode="&#xe8;" horiz-adv-x="944" d="M78 465q0 -115 33 -205q35 -94 90 -156q63 -70 133 -100q80 -35 160 -35q84 0 149 33q72 35 119 86q47 49 80 123q31 68 43 137l-33 21q-23 -59 -55 -111q-25 -37 -64 -70q-29 -23 -74 -36q-33 -10 -86 -11q-70 0 -133 31q-57 27 -110 90q-47 57 -76 141q-29 86 -29 191 h660q0 94 -27 162q-29 74 -78 123t-114.5 75.5t-145.5 26.5q-96 0 -178 -35q-80 -35 -139.5 -102.5t-91.5 -161.5q-33 -92 -33 -217zM174 1370q0 -12 10 -27q12 -16 23 -24q20 -16 31 -23l28 -18l307 -195h86l-294 297q-25 25 -64 50q-33 20 -61.5 20t-47 -20.5t-18.5 -59.5 zM225 653q6 59 28.5 108.5t53.5 80.5q35 35 72 49q43 16 82 16q20 0 61 -10q29 -8 68 -39q33 -27 55.5 -78t22.5 -127h-443z" />
<glyph unicode="&#xe9;" horiz-adv-x="944" d="M78 465q0 -115 33 -205q35 -94 90 -156q63 -70 133 -100q80 -35 160 -35q84 0 149 33q72 35 119 86q47 49 80 123q31 68 43 137l-33 21q-23 -59 -55 -111q-25 -37 -64 -70q-29 -23 -74 -36q-33 -10 -86 -11q-70 0 -133 31q-57 27 -110 90q-47 57 -76 141q-29 86 -29 191 h660q0 94 -27 162q-29 74 -78 123t-114.5 75.5t-145.5 26.5q-96 0 -178 -35q-80 -35 -139.5 -102.5t-91.5 -161.5q-33 -92 -33 -217zM225 653q6 59 28.5 108.5t53.5 80.5q35 35 72 49q43 16 82 16q20 0 61 -10q29 -8 68 -39q33 -27 55.5 -78t22.5 -127h-443zM377 1083h86 l307 195q33 20 59.5 47t26.5 57q0 10 -6 23q-8 16 -14 22l-17 17q-9 6 -18 6q-35 0 -68 -20q-34 -22 -61 -50z" />
<glyph unicode="&#xea;" horiz-adv-x="944" d="M78 465q0 -115 33 -205q35 -94 90 -156q63 -70 133 -100q80 -35 160 -35q84 0 149 33q72 35 119 86q47 49 80 123q31 68 43 137l-33 21q-23 -59 -55 -111q-25 -37 -64 -70q-29 -23 -74 -36q-33 -10 -86 -11q-70 0 -133 31q-57 27 -110 90q-47 57 -76 141q-29 86 -29 191 h660q0 94 -27 162q-29 74 -78 123t-114.5 75.5t-145.5 26.5q-96 0 -178 -35q-80 -35 -139.5 -102.5t-91.5 -161.5q-33 -92 -33 -217zM147 1083h74l260 222l260 -222h74l-266 357h-133zM225 653q6 59 28.5 108.5t53.5 80.5q35 35 72 49q43 16 82 16q20 0 61 -10q29 -8 68 -39 q33 -27 55.5 -78t22.5 -127h-443z" />
<glyph unicode="&#xeb;" horiz-adv-x="944" d="M78 465q0 -115 33 -205q35 -94 90 -156q63 -70 133 -100q80 -35 160 -35q84 0 149 33q72 35 119 86q47 49 80 123q31 68 43 137l-33 21q-23 -59 -55 -111q-25 -37 -64 -70q-29 -23 -74 -36q-33 -10 -86 -11q-70 0 -133 31q-57 27 -110 90q-47 57 -76 141q-29 86 -29 191 h660q0 94 -27 162q-29 74 -78 123t-114.5 75.5t-145.5 26.5q-96 0 -178 -35q-80 -35 -139.5 -102.5t-91.5 -161.5q-33 -92 -33 -217zM174 1275.5q0 -22.5 8 -38.5q12 -25 23 -35q14 -14 35 -24q16 -8 39 -9q25 0 40 9q25 12 35.5 22t22.5 35q8 16 8 40.5t-8 41.5 q-10 20 -23 33q-14 14 -35 24q-16 8 -40 8q-18 0 -39 -10t-33 -22q-14 -14 -25 -35q-8 -17 -8 -39.5zM225 653q6 59 28.5 108.5t53.5 80.5q35 35 72 49q43 16 82 16q20 0 61 -10q29 -8 68 -39q33 -27 55.5 -78t22.5 -127h-443zM598 1275.5q0 -22.5 8 -38.5q12 -25 23 -35 q14 -14 35 -24q16 -8 40.5 -8.5t40.5 8.5q25 12 35.5 22t22.5 35q8 16 8 40.5t-8 41.5q-10 20 -23 33q-14 14 -35 24q-16 8 -40 8q-18 0 -39 -10q-25 -12 -35 -22q-14 -14 -25 -35q-8 -17 -8 -39.5z" />
<glyph unicode="&#xec;" horiz-adv-x="591" d="M-72 1370q0 -16 9 -27q9 -12 24 -24q20 -16 31 -23l28 -18l308 -195h86l-295 297q-25 25 -64 50q-33 20 -61 20q-31 0 -49 -20q-17 -19 -17 -60zM61 864l15 -37q49 16 71 17q29 0 46 -17q10 -10 16 -24q4 -12 8 -43q4 -37 4 -72v-106v-367q0 -41 -2 -55q-6 -37 -6 -41 q-4 -16 -8 -27q-4 -8 -12 -20q-18 -20 -39 -27q-25 -6 -78 -6v-39h465v39q-10 0 -25.5 1t-21.5 1q-14 0 -31 4q-12 2 -23 10q-14 8 -20 19q-10 12 -19 47q-6 31 -6 94v764h-45z" />
<glyph unicode="&#xed;" horiz-adv-x="591" d="M61 864l15 -37q49 16 71 17q29 0 46 -17q10 -10 16 -24q4 -12 8 -43q4 -37 4 -72v-106v-367q0 -41 -2 -55q-6 -37 -6 -41q-4 -16 -8 -27q-4 -8 -12 -20q-18 -20 -39 -27q-25 -6 -78 -6v-39h465v39q-10 0 -25.5 1t-21.5 1q-14 0 -31 4q-12 2 -23 10q-14 8 -20 19 q-10 12 -19 47q-6 31 -6 94v764h-45zM90 1083h86l307 195q33 20 59.5 47t26.5 57q0 10 -6 23q-10 20 -12 22q-12 12 -19 17q-9 6 -18 6q-35 0 -68 -20q-34 -22 -61 -50z" />
<glyph unicode="&#xee;" horiz-adv-x="591" d="M-35 1083h74l260 222l260 -222h74l-266 357h-134zM61 864l15 -37q49 16 71 17q29 0 46 -17q10 -10 16 -24q4 -12 8 -43q4 -37 4 -72v-106v-367q0 -41 -2 -55q-6 -37 -6 -41q-4 -16 -8 -27q-4 -8 -12 -20q-18 -20 -39 -27q-25 -6 -78 -6v-39h465v39q-10 0 -25.5 1t-21.5 1 q-14 0 -31 4q-12 2 -23 10q-14 8 -20 19q-10 12 -19 47q-6 31 -6 94v764h-45z" />
<glyph unicode="&#xef;" horiz-adv-x="591" d="M-31 1275.5q0 -22.5 8 -38.5q12 -25 23 -35q14 -14 35 -24q16 -8 39 -9q25 0 41 9q25 12 35 22t22 35q8 16 8 40.5t-8 41.5q-10 20 -22 33q-14 14 -35 24q-16 8 -41 8q-18 0 -39 -10t-33 -22q-14 -14 -25 -35q-8 -17 -8 -39.5zM61 864l15 -37q49 16 71 17q29 0 46 -17 q10 -10 16 -24q4 -12 8 -43q4 -37 4 -72v-106v-367q0 -41 -2 -55q-6 -37 -6 -41q-4 -16 -8 -27q-4 -8 -12 -20q-18 -20 -39 -27q-25 -6 -78 -6v-39h465v39q-10 0 -25.5 1t-21.5 1q-14 0 -31 4q-12 2 -23 10q-14 8 -20 19q-10 12 -19 47q-6 31 -6 94v764h-45zM393 1275.5 q0 -22.5 8 -38.5q12 -25 23 -35q14 -14 35 -24q16 -8 40.5 -8.5t41.5 8.5q25 12 35 22t22 35q8 16 8 40.5t-8 41.5q-10 20 -23 33q-14 14 -34 24q-16 8 -41 8q-18 0 -39 -10q-25 -12 -35 -22q-14 -14 -25 -35q-8 -17 -8 -39.5z" />
<glyph unicode="&#xf0;" horiz-adv-x="1064" d="M70 458.5q0 -102.5 34 -194.5q35 -90 97 -155q66 -70 141 -103q83 -37 178 -37q106 0 197 45q86 43 147.5 117t92 168t30.5 193q0 102 -26 200q-29 104 -78 203q-47 94 -125 195q-70 88 -170 180l239 135l-36 57l-259 -143q-82 59 -131 90q-63 39 -127 70l-26 -45 q47 -35 51 -37q31 -23 41 -31q8 -6 22.5 -20.5t22.5 -20.5l57 -55l-241 -137l28 -58l258 142q51 -59 107 -146q47 -74 90 -160q-35 25 -53 35q-8 4 -43 17q-25 8 -39 8h-41q-96 0 -176 -43q-84 -45 -139 -113q-53 -66 -91 -164q-32 -90 -32 -192.5zM262 539q0 111 21 178 q23 74 53 112q35 45 74 62q43 18 88 18q66 0 120 -37q53 -35 95 -104q39 -68 61 -164q20 -90 21 -213q0 -100 -17 -158q-18 -68 -47 -106q-33 -47 -72 -64q-43 -18 -90 -18q-70 0 -127 39q-61 43 -98 104q-39 68 -61 158q-21 84 -21 193z" />
<glyph unicode="&#xf1;" horiz-adv-x="1064" d="M10 864l17 -37q80 33 112 2q6 -4 15 -16q4 -6 8 -35q2 -23 6 -76q2 -33 2 -133v-354q0 -55 -6 -88q-6 -39 -21 -55q-18 -20 -43 -27q-28 -6 -73 -6v-39h473v39q-51 0 -82 6t-47.5 26.5t-22.5 53.5q-4 23 -4 90v502q61 68 125 102q59 33 121 33q82 0 117 -59 q33 -57 32 -189v-389q0 -45 -4 -90q-2 -33 -20 -53q-16 -20 -47 -26.5t-84 -6.5v-39h477v39q-41 0 -78 8q-29 6 -43 27q-16 25 -22 53q-4 23 -5 88v408q0 72 -14 147q-12 61 -41 110.5t-76 73.5q-45 25 -118 25q-152 0 -320 -199v199h-43zM188 1169h56q4 23 12 35 q14 20 29 33q16 14 37 23q18 8 43 8q27 0 59 -8q27 -6 47 -19l19.5 -10t21.5 -12q12 -8 41 -25q20 -12 51 -18q28 -6 68 -7q45 0 84 19q35 16 69 51q29 29 49 74q14 33 23 84h-55q-12 -49 -56 -78q-41 -27 -92 -27q-45 0 -73 15q-41 20 -62 32q-27 16 -63 33q-31 14 -72 14 q-45 0 -88 -16q-41 -16 -70 -47q-33 -37 -47 -68q-19 -40 -31 -86z" />
<glyph unicode="&#xf2;" horiz-adv-x="1064" d="M72 467q0 -102 32 -188q37 -94 93 -160q59 -68 143 -109q86 -41 182 -41q76 0 144 23q61 20 116 59q53 39 92 88q39 51 64 109q33 76 41 123q12 63 12 123q0 104 -33 190q-35 90 -94 154q-68 72 -145 104q-86 37 -187 37q-106 0 -192 -43q-84 -41 -145 -117 q-59 -72 -91 -164q-32 -98 -32 -188zM174 1370q0 -12 10 -27q12 -16 23 -24q20 -16 31 -23l28 -18l307 -195h86l-294 297q-25 25 -64 50q-33 20 -61.5 20t-47 -20.5t-18.5 -59.5zM264 553q0 104 21 172q18 61 57 111q33 41 76 59t82 18q72 0 125 -39q51 -37 92 -106 q37 -63 59 -158q20 -88 20.5 -196.5t-16.5 -171.5q-20 -76 -47 -115q-33 -45 -74 -64q-43 -18 -94 -18q-66 0 -123 41t-96 111q-41 72 -61 161q-21 89 -21 195z" />
<glyph unicode="&#xf3;" horiz-adv-x="1064" d="M72 467q0 -102 32 -188q37 -94 93 -160q59 -68 143 -109q86 -41 182 -41q76 0 144 23q61 20 116 59q53 39 92 88q39 51 64 109q33 76 41 123q12 63 12 123q0 104 -33 190q-35 90 -94 154q-68 72 -145 104q-86 37 -187 37q-106 0 -192 -43q-84 -41 -145 -117 q-59 -72 -91 -164q-32 -98 -32 -188zM264 553q0 104 21 172q18 61 57 111q33 41 76 59t82 18q72 0 125 -39q51 -37 92 -106q37 -63 59 -158q20 -88 20.5 -196.5t-16.5 -171.5q-20 -76 -47 -115q-33 -45 -74 -64q-43 -18 -94 -18q-66 0 -123 41t-96 111q-41 72 -61 161 q-21 89 -21 195zM397 1083h86l308 195q39 25 61 47q25 25 25 57q0 14 -5 23q-8 16 -14 22q-12 12 -18 17q-9 6 -19 6q-35 0 -67 -20q-34 -22 -62 -50z" />
<glyph unicode="&#xf4;" horiz-adv-x="1064" d="M72 467q0 -102 32 -188q37 -94 93 -160q59 -68 143 -109q86 -41 182 -41q76 0 144 23q61 20 116 59q53 39 92 88q39 51 64 109q33 76 41 123q12 63 12 123q0 104 -33 190q-35 90 -94 154q-68 72 -145 104q-86 37 -187 37q-106 0 -192 -43q-84 -41 -145 -117 q-59 -72 -91 -164q-32 -98 -32 -188zM199 1083h73l260 222l261 -222h73l-266 357h-133zM264 553q0 104 21 172q18 61 57 111q33 41 76 59t82 18q72 0 125 -39q51 -37 92 -106q37 -63 59 -158q20 -88 20.5 -196.5t-16.5 -171.5q-20 -76 -47 -115q-33 -45 -74 -64 q-43 -18 -94 -18q-66 0 -123 41t-96 111q-41 72 -61 161q-21 89 -21 195z" />
<glyph unicode="&#xf5;" horiz-adv-x="1064" d="M72 467q0 -102 32 -188q37 -94 93 -160q59 -68 143 -109q86 -41 182 -41q76 0 144 23q61 20 116 59q53 39 92 88q39 51 64 109q33 76 41 123q12 63 12 123q0 104 -33 190q-35 90 -94 154q-68 72 -145 104q-86 37 -187 37q-106 0 -192 -43q-84 -41 -145 -117 q-59 -72 -91 -164q-32 -98 -32 -188zM174 1169h55q2 18 15 35q12 18 26 33q12 12 37 23q18 8 43 8q53 0 84 -15q23 -10 64 -34.5t65 -34.5q35 -14 94 -15q43 0 84 19q35 16 70 51q25 25 47 74q18 39 25 84h-56q-12 -49 -55 -78q-41 -27 -92 -27q-45 0 -74 15q-41 20 -61 32 q-10 6 -64 33q-29 14 -71 14q-45 0 -88 -16q-39 -14 -68 -47q-37 -41 -49 -68q-19 -40 -31 -86zM264 553q0 104 21 172q18 61 57 111q33 41 76 59t82 18q72 0 125 -39q51 -37 92 -106q37 -63 59 -158q20 -88 20.5 -196.5t-16.5 -171.5q-20 -76 -47 -115q-33 -45 -74 -64 q-43 -18 -94 -18q-66 0 -123 41t-96 111q-41 72 -61 161q-21 89 -21 195z" />
<glyph unicode="&#xf6;" horiz-adv-x="1064" d="M72 467q0 -102 32 -188q37 -94 93 -160q59 -68 143 -109q86 -41 182 -41q76 0 144 23q61 20 116 59q53 39 92 88q39 51 64 109q33 76 41 123q12 63 12 123q0 104 -33 190q-35 90 -94 154q-68 72 -145 104q-86 37 -187 37q-106 0 -192 -43q-84 -41 -145 -117 q-59 -72 -91 -164q-32 -98 -32 -188zM203 1276q0 -23 8 -39q10 -20 25 -35q16 -16 32.5 -24.5t38.5 -8.5q25 0 41 9q25 12 35 22t23 35q8 16 8 40.5t-8 41.5q-10 20 -23 33q-14 14 -35 24q-16 8 -41 8q-18 0 -38.5 -10t-32.5 -22q-10 -10 -23 -35q-10 -21 -10 -39zM264 553 q0 104 21 172q18 61 57 111q33 41 76 59t82 18q72 0 125 -39q51 -37 92 -106q37 -63 59 -158q20 -88 20.5 -196.5t-16.5 -171.5q-20 -76 -47 -115q-33 -45 -74 -64q-43 -18 -94 -18q-66 0 -123 41t-96 111q-41 72 -61 161q-21 89 -21 195zM627 1276q0 -23 8 -39 q10 -20 24 -35q16 -16 33 -24.5t41.5 -8.5t40.5 9q25 12 35 22t22 35q8 16 8.5 40.5t-8.5 41.5q-10 20 -22 33q-14 14 -35 24q-16 8 -41 8q-18 0 -39 -10q-25 -12 -35 -22.5t-22 -34.5q-10 -21 -10 -39z" />
<glyph unicode="&#xf7;" horiz-adv-x="2048" d="M410 551h1228v127h-1228v-127zM901 285q0 -23 10 -47q10 -27 27 -39q20 -16 39 -25q25 -10 47.5 -10t46.5 10q18 8 39 25q16 12 27 39q10 25 10 47q0 25 -10 49q-10 27 -27 39q-25 20 -39 26q-18 8 -47 8.5t-47 -8.5q-14 -6 -39 -26q-16 -12 -27 -39q-10 -24 -10 -49z M901 944q0 -25 10 -49q10 -27 27 -39q20 -16 39 -25q25 -10 47.5 -10t46.5 10q18 8 39 25q16 12 27 39q10 25 10 49q0 23 -10 47q-10 20 -26.5 39t-39.5 27q-25 10 -47.5 10t-46.5 -10q-23 -8 -39 -26.5t-27 -39.5q-10 -24 -10 -47z" />
<glyph unicode="&#xf8;" horiz-adv-x="1064" d="M41 -25l49 -45l139 160q49 -43 76 -57q43 -25 72 -37q35 -14 71.5 -20.5t77.5 -6.5q76 0 143.5 22.5t118.5 61.5q55 43 93 90q39 51 63 109q29 68 39 121q12 61 12 119q0 92 -28 174q-29 86 -82 149l139 158l-47 45l-137 -154q-47 39 -74 56q-41 25 -74 34q-39 12 -71 19 q-37 6 -80 6q-111 0 -199 -47q-90 -47 -145 -119q-59 -76 -90 -164t-31 -176q0 -37 10 -88q14 -74 20 -90q16 -45 37 -84q23 -41 45 -70zM270 553q0 98 18.5 165.5t49.5 110.5q31 41 76 62q47 20 94 20q37 0 61 -8q31 -10 56 -26q31 -20 53 -50q29 -37 55 -79l-422 -467 q-20 68 -30 141q-11 76 -11 131zM340 213l422 467q20 -66 31 -135q10 -72 10 -127q0 -106 -19 -176q-18 -72 -49 -115q-33 -45 -73 -64q-43 -18 -93 -18q-41 0 -67.5 8t-57.5 29q-23 14 -51 51q-28 35 -53 80z" />
<glyph unicode="&#xf9;" horiz-adv-x="1064" d="M0 913q45 0 76 -6q33 -6 49 -20q18 -16 29 -45q8 -25 8 -76v-426q0 -37 8 -123q6 -63 31 -119q25 -53 75 -92q49 -37 132 -37q37 0 67 8q33 8 70 31q33 20 82 62q39 35 104 102v-203h47l289 119l-14 37q-20 -8 -45 -12q-29 -4 -39 -4q-16 0 -29 6q-10 4 -20 22 q-6 10 -11 45q-4 37 -4 70v700h-327v-39q49 -4 69 -8q35 -8 47 -18q20 -16 29 -43q8 -25 8 -70v-541q-43 -43 -74 -65q-49 -37 -63 -43q-27 -14 -55 -21q-25 -6 -45 -6q-51 0 -82 19q-35 20 -49.5 49t-20.5 70q-6 40 -6 79v637h-336v-39zM215 1370q0 -12 10 -27 q12 -16 23 -24q20 -16 31 -23l28 -18l307 -195h86l-294 297q-25 25 -64 50q-33 20 -61.5 20t-47 -20.5t-18.5 -59.5z" />
<glyph unicode="&#xfa;" horiz-adv-x="1064" d="M0 913q45 0 76 -6q33 -6 49 -20q18 -16 29 -45q8 -25 8 -76v-426q0 -37 8 -123q6 -63 31 -119q25 -53 75 -92q49 -37 132 -37q37 0 67 8q33 8 70 31q33 20 82 62q39 35 104 102v-203h47l289 119l-14 37q-20 -8 -45 -12q-29 -4 -39 -4q-16 0 -29 6q-10 4 -20 22 q-6 10 -11 45q-4 37 -4 70v700h-327v-39q49 -4 69 -8q35 -8 47 -18q20 -16 29 -43q8 -25 8 -70v-541q-43 -43 -74 -65q-49 -37 -63 -43q-27 -14 -55 -21q-25 -6 -45 -6q-51 0 -82 19q-35 20 -49.5 49t-20.5 70q-6 40 -6 79v637h-336v-39zM377 1083h86l307 195q33 20 59.5 47 t26.5 57q0 10 -6 23q-8 16 -14 22l-17 17q-9 6 -18 6q-35 0 -68 -20q-34 -22 -61 -50z" />
<glyph unicode="&#xfb;" horiz-adv-x="1064" d="M0 913q45 0 76 -6q33 -6 49 -20q18 -16 29 -45q8 -25 8 -76v-426q0 -37 8 -123q6 -63 31 -119q25 -53 75 -92q49 -37 132 -37q37 0 67 8q33 8 70 31q33 20 82 62q39 35 104 102v-203h47l289 119l-14 37q-20 -8 -45 -12q-29 -4 -39 -4q-16 0 -29 6q-10 4 -20 22 q-6 10 -11 45q-4 37 -4 70v700h-327v-39q49 -4 69 -8q35 -8 47 -18q20 -16 29 -43q8 -25 8 -70v-541q-43 -43 -74 -65q-49 -37 -63 -43q-27 -14 -55 -21q-25 -6 -45 -6q-51 0 -82 19q-35 20 -49.5 49t-20.5 70q-6 40 -6 79v637h-336v-39zM195 1083h73l260 222l260 -222h74 l-266 357h-133z" />
<glyph unicode="&#xfc;" horiz-adv-x="1064" d="M0 913q45 0 76 -6q33 -6 49 -20q18 -16 29 -45q8 -25 8 -76v-426q0 -37 8 -123q6 -63 31 -119q25 -53 75 -92q49 -37 132 -37q37 0 67 8q33 8 70 31q33 20 82 62q39 35 104 102v-203h47l289 119l-14 37q-20 -8 -45 -12q-29 -4 -39 -4q-16 0 -29 6q-10 4 -20 22 q-6 10 -11 45q-4 37 -4 70v700h-327v-39q49 -4 69 -8q35 -8 47 -18q20 -16 29 -43q8 -25 8 -70v-541q-43 -43 -74 -65q-49 -37 -63 -43q-27 -14 -55 -21q-25 -6 -45 -6q-51 0 -82 19q-35 20 -49.5 49t-20.5 70q-6 40 -6 79v637h-336v-39zM215 1275.5q0 -22.5 8 -38.5 q12 -25 23 -35q16 -16 32.5 -24.5t41 -8.5t40.5 9q25 12 35.5 22t22.5 35q8 16 8 40.5t-8 41.5q-10 20 -23 33q-14 14 -35 24q-16 8 -41 8q-18 0 -38.5 -10t-32.5 -22q-14 -14 -25 -35q-8 -17 -8 -39.5zM639 1275.5q0 -22.5 8 -38.5q12 -25 23 -35q14 -14 35 -24 q16 -8 40.5 -8.5t40.5 8.5q25 12 35 22t23 35q8 16 8 40.5t-8 41.5q-10 20 -23 33q-14 14 -35 24q-16 8 -41 8q-18 0 -38 -10q-25 -12 -35 -22q-14 -14 -25 -35q-8 -17 -8 -39.5z" />
<glyph unicode="&#xfd;" horiz-adv-x="1064" d="M12 913q41 -4 68 -20q23 -14 47 -43q18 -23 33 -49q6 -14 12 -25.5l10 -19.5l342 -717l-67 -166q-16 -43 -37 -76q-18 -31 -36.5 -49t-37.5 -24q-25 -8 -33 -9q-4 0 -22 6q-25 8 -39 13l-45 12q-23 6 -39 6q-49 0 -80 -26q-27 -25 -27 -68q0 -23 11 -47q8 -20 28 -37 q16 -14 45 -25q27 -10 58 -10q43 0 90 19q45 18 88 55q45 39 80 88q35 51 63 119l387 950q16 39 35 74q12 23 33 43q18 18 33 20q12 2 41 6v39h-310v-39q31 0 41 -2q20 -4 27 -6q9 -3 12 -6l8 -8q4 -6 9 -23q4 -12 0 -28q-4 -20 -9 -31l-4 -12q-4 -12 -8 -19l-213 -526 l-231 479q-16 33 -27 64q-8 25 -8 49q0 33 28.5 51t65.5 18h23v39h-445v-39zM397 1083h86l308 195q39 25 61 47q25 25 25 57q0 14 -5 23q-8 16 -14 22q-12 12 -18 17q-9 6 -19 6q-35 0 -67 -20q-34 -22 -62 -50z" />
<glyph unicode="&#xfe;" horiz-adv-x="1064" d="M-8 -416v-39h500v39q-63 4 -89 10q-33 8 -49 29q-18 20 -20 53q-4 45 -4 91v288q25 -23 61 -47q25 -16 55 -26q20 -6 52 -11q18 -2 59 -2q100 0 180 43q78 43 137 117q57 72 89 172q31 98 30 211q0 90 -26 184q-25 84 -72 148q-45 59 -113 98q-66 37 -145 37 q-43 0 -82 -12q-49 -14 -78 -37q-39 -29 -74 -70q-39 -45 -73 -106v725h-39l-293 -117l12 -35q27 10 41 12q25 4 31 4t24 -6q8 -2 17 -8q8 -4 18 -14q6 -8 11 -23q4 -20 4 -43q0 -8 1 -33.5t1 -41.5v-1403q0 -63 -6.5 -100.5t-22.5 -53.5q-18 -18 -49 -25q-27 -4 -88 -8z M330 336v356q53 55 82 80q39 31 57 41q27 14 43 16q12 2 41 2q55 0 104 -32q46 -31 80 -86q31 -51 51 -133q18 -77 18.5 -166t-18.5 -160q-18 -72 -50.5 -119t-80.5 -76q-45 -27 -104 -26q-39 0 -82 14q-33 10 -63 35q-33 27 -46 47q-16 31 -22 55q-4 16 -8 58q-2 24 -2 94z " />
<glyph unicode="&#xff;" horiz-adv-x="1064" d="M12 913q41 -4 68 -20q23 -14 47 -43q18 -23 33 -49q6 -14 12 -25.5l10 -19.5l342 -717l-67 -166q-16 -43 -37 -76q-18 -31 -36.5 -49t-37.5 -24q-25 -8 -33 -9q-4 0 -22 6q-25 8 -39 13l-45 12q-23 6 -39 6q-49 0 -80 -26q-27 -25 -27 -68q0 -23 11 -47q8 -20 28 -37 q16 -14 45 -25q27 -10 58 -10q43 0 90 19q45 18 88 55q45 39 80 88q35 51 63 119l387 950q16 39 35 74q12 23 33 43q18 18 33 20q12 2 41 6v39h-310v-39q31 0 41 -2q20 -4 27 -6q9 -3 12 -6l8 -8q4 -6 9 -23q4 -12 0 -28q-4 -20 -9 -31l-4 -12q-4 -12 -8 -19l-213 -526 l-231 479q-16 33 -27 64q-8 25 -8 49q0 33 28.5 51t65.5 18h23v39h-445v-39zM215 1225q0 -25 8 -41q10 -20 23 -33q16 -16 32.5 -24.5t41 -8.5t40.5 8q25 12 35.5 22.5t22.5 35.5q8 16 8 40.5t-8 41.5q-12 25 -22.5 35t-35.5 22q-16 8 -41 8q-23 0 -39 -8t-32 -25 q-14 -14 -25 -34q-8 -16 -8 -39zM639 1225q0 -25 8 -41q10 -20 23 -33q14 -14 35 -25q16 -8 40.5 -8t40.5 8q25 12 35 22.5t23 35.5q8 16 8 40.5t-8 41.5q-12 25 -22.5 35t-35.5 22q-16 8 -41 8q-23 0 -38 -8q-20 -10 -35 -24.5t-25 -34.5q-8 -16 -8 -39z" />
<glyph unicode="&#x152;" horiz-adv-x="1892" d="M78 702q0 -145 47 -280q43 -127 131 -229q80 -94 201 -151.5t258 -57.5q4 0 19.5 1t25.5 1q41 0 63 2l72 4q12 0 34.5 1t33.5 3q41 4 51 4h26h177h503l113 354h-41q-25 -59 -63 -114q-31 -45 -72 -86q-31 -27 -55 -41q-29 -16 -64 -23q-47 -8 -70 -10q-27 -2 -86 -2h-110 q-31 0 -64 4q-23 2 -37 20q-16 20 -18 48q-4 41 -4 83v465h188q59 0 105 -10q40 -9 61 -31q23 -23 35 -61.5t18 -106.5h41v490h-41q0 -53 -12 -90q-14 -41 -37 -62q-27 -27 -67 -39q-35 -10 -103 -10h-188v555h266q80 0 119 -8q45 -10 63.5 -20.5t28.5 -24.5q12 -16 19 -23 q18 -18 24 -57q4 -27 19 -98h32l-12 307h-491q-135 0 -277 6q-92 3 -141 6q-33 2 -62 2q-154 0 -280 -57q-119 -53 -207 -154q-84 -94 -127 -229q-45 -140 -45 -281zM317 694q0 154 27 273q28 123 80 209q53 88 131 133q82 47 186 47q147 0 187 -94q20 -41 20 -179v-729 q0 -147 -18 -196q-37 -100 -193 -101q-78 0 -139 25q-59 25 -109 70q-43 41 -79 106q-31 55 -54 131q-20 70 -30 150q-9 67 -9 155z" />
<glyph unicode="&#x153;" horiz-adv-x="1536" d="M70 461q0 -109 34.5 -203t90.5 -156q61 -68 137 -100q78 -33 170 -33q115 4 192.5 45t141.5 125q25 -45 45 -67q33 -37 61 -54q47 -27 80 -36q43 -12 92 -13q135 0 225 94q92 96 129 289l-34 17q-20 -61 -50 -107q-27 -43 -57 -69q-29 -27 -67 -39q-31 -10 -76 -11 q-66 0 -121 31q-53 29 -94 90q-35 51 -56 144q-20 90 -14 188h569q2 84 -20 160q-20 68 -68 121q-43 49 -108 77q-61 27 -144 27q-96 0 -167 -41q-70 -39 -125 -125q-55 78 -136 119q-86 45 -190 45q-94 0 -174 -37q-82 -37 -139 -104q-59 -68 -93 -162q-34 -98 -34 -215z M264 561q0 96 17 168q14 66 45 113q27 43 65 61q37 18 80 19q70 0 121 -39t84 -109q37 -78 51 -168q16 -104 16 -213q0 -92 -16 -164q-14 -66 -45 -108q-27 -39 -68 -57.5t-84 -18.5q-63 0 -110 39q-53 43 -84 109q-35 74 -53 165q-19 95 -19 203zM899 664q0 65 19 110 q18 49 43 78q23 27 57 45q29 14 61 14q49 0 88 -22q35 -20 58 -60q22 -37 30 -79q8 -39 9 -86h-365z" />
<glyph unicode="&#x160;" horiz-adv-x="1183" d="M135 1071q0 -72 17 -119q18 -55 61 -102t127 -107q92 -63 205 -127q104 -59 157 -92q68 -43 105 -75q41 -37 59 -78q18 -40 19 -92q0 -45 -19 -89q-16 -41 -57 -73q-37 -31 -88 -49q-52 -18 -117 -19q-72 0 -145.5 22.5t-126.5 69.5q-57 51 -96 125t-52 185h-37v-484h37 q6 43 23 64q14 16 40.5 16t59.5 -12q16 -6 37 -12.5l45 -14.5q51 -16 107 -28q57 -12 131 -13q98 0 180 31q78 29 139 84q57 51 92 125q33 68 33 153q0 84 -41 162q-39 76 -110 131q-49 37 -105 70l-166 94q-104 55 -172 98q-72 45 -108 80q-35 33 -54 72q-16 37 -16 76 t20 84q18 39 52 69q31 27 80 47q41 16 96 17q68 0 141 -27q68 -25 119 -76q52 -52 86 -129q37 -84 45 -174h39v488h-39q-12 -43 -27 -62q-14 -16 -41 -16q-23 0 -53 12l-69 27q-31 12 -91 27q-49 12 -112 12q-94 0 -170 -31q-82 -33 -129 -80q-57 -57 -82 -119 q-29 -69 -29 -141zM217 1890l268 -356h133l267 356h-74l-260 -219l-260 219h-74z" />
<glyph unicode="&#x161;" horiz-adv-x="827" d="M76 1440l268 -357h133l266 357h-73l-260 -219l-260 219h-74zM104 725q0 -51 11 -82q12 -37 41 -72q31 -37 77 -69q53 -37 125 -74q80 -41 125 -72q43 -29 74 -59q25 -25 35 -59q8 -27 8 -64q0 -31 -12 -55q-12 -27 -33 -43q-25 -20 -49 -31q-31 -12 -70 -12q-52 0 -98 18 q-43 16 -84 55q-40 37 -68 93q-27 55 -43 127h-34v-340h34q4 8 8.5 15t8.5 15q10 16 20 17q27 -4 53 -13q12 -4 26.5 -10t33.5 -12q27 -10 69 -21q33 -8 74 -8q59 0 121 23q57 20 102 59q43 37 68 86q27 53 27 103q0 92 -55.5 161.5t-163.5 122.5l-154 72q-47 20 -82 45 q-23 14 -47 49q-14 20 -23 49q-4 16 -4 56q0 55 45 90t140 35q45 0 84 -13q37 -12 71 -43q33 -31 58 -82q31 -63 45 -127h34v324h-34q-12 -25 -23 -31q-9 -6 -24 -6q-10 0 -33 6q-14 4 -51 13q-18 4 -60 12q-31 6 -63 6q-74 0 -133 -18q-49 -16 -97 -56q-37 -31 -59 -80 q-21 -43 -21 -100z" />
<glyph unicode="&#x178;" horiz-adv-x="1536" d="M18 1372q43 0 80 -18q45 -23 64 -39q29 -23 53 -60l59 -86l385 -589v-334q0 -61 -6 -99q-6 -41 -14 -53q-25 -33 -51 -43q-31 -12 -76 -12h-49v-39h598v39h-45q-88 0 -125 43q-31 31 -31 164v352l342 535q10 18 58 88q25 37 47 59q20 23 47 43q16 12 49 29q6 4 45 14 q23 6 33 6h26v37h-491v-37q23 0 51 -4q14 -2 35 -10q14 -6 24 -17q6 -6 15 -18q29 -39 14 -84q-16 -49 -59 -115l-279 -434l-293 453q-35 59 -47 86q-16 37 -16 51q0 29 14 45q16 20 37 29q29 12 43 14q29 4 37 4h31v37h-605v-37zM440 1675q0 -25 9 -41q10 -20 22 -32 q10 -10 35 -23q20 -10 39 -10q25 0 41 8q20 10 32 22q14 14 25 35q8 16 8 41t-8 41q-10 20 -25 35q-12 12 -32 23q-16 8 -41 8q-23 0 -39.5 -8.5t-32.5 -24.5q-14 -14 -24 -35q-9 -16 -9 -39zM864 1675q0 -25 8 -41q10 -20 23 -32q10 -10 35 -23q20 -10 41 -10q25 0 41 8 q20 10 32 22q14 14 25 35q8 16 8 41t-8 41q-10 20 -25 35q-12 12 -32 23q-16 8 -41 8q-23 0 -39 -8q-20 -10 -35 -25q-10 -10 -23 -35q-10 -21 -10 -39z" />
<glyph unicode="&#x192;" horiz-adv-x="1064" d="M2 -338q0 -47 35 -78q33 -31 90 -30q55 0 113 28q49 25 102 94q45 59 94 170q46 104 86 258l109 414q43 176 69 324h181l16 67h-182l16 100.5t14 100.5q12 86 31 151.5t45 98.5q29 35 70 35q15 0 24 -6q10 -6 11 -21q0 -6 -4 -14t-7 -15l-4 -8l-4 -8q-4 -12 -4 -20 q0 -23 19 -41q16 -16 47 -17q35 0 53 24.5t18 57.5q0 25 -12 45q-14 25 -29 37q-16 14 -45 25q-23 8 -57 8q-41 0 -80 -12q-35 -10 -76 -52q-33 -33 -71 -104q-31 -55 -72 -176q-33 -92 -35 -99q-14 -33 -37 -53q-25 -20 -59 -26q-45 -8 -102 -11l-15 -67h180l-92 -383 q-6 -31 -12 -56.5t-9 -40t-6 -24.5t-4 -15.5t-2.5 -9.5t-1.5 -8l-65 -313q-20 -102 -25 -119q-18 -80 -45 -145q-20 -49 -45 -78q-23 -25 -39 -31q-12 -4 -32 -4q-16 0 -23 6q-4 4 -4 14q0 4 4 13l8 12l3 5q3 5 5 9q4 12 5 21q0 20 -18.5 38.5t-49.5 18.5q-37 0 -57 -24 q-23 -27 -23 -66z" />
<glyph unicode="&#x2c6;" horiz-adv-x="667" d="M0 1083h74l260 222l260 -222h74l-267 357h-133z" />
<glyph unicode="&#x2dc;" horiz-adv-x="708" d="M0 1169h55q4 23 12.5 35.5t28.5 32.5q12 12 37 23q18 8 43 8q53 0 84 -15q23 -10 64 -34.5t65 -34.5q35 -14 94 -15q45 0 84 19q35 16 70 51q25 25 47 74q18 39 25 84h-56q-8 -29 -20 -45q-18 -20 -35 -33q-23 -16 -43 -21q-25 -6 -49 -6q-45 0 -74 15q-41 20 -61 32 q-10 6 -64 33q-29 14 -71 14q-45 0 -89 -16q-39 -14 -67 -47q-37 -41 -49 -68q-19 -40 -31 -86z" />
<glyph unicode="&#x300;" horiz-adv-x="0" d="M-709 1475q0 -18 11 -35l213 -334h49l-107 373q-8 25 -16 37q-14 20 -27 30q-20 16 -32 21q-14 4 -39 -2q-16 -6 -29 -21q-12 -16 -19 -33q-4 -11 -4 -36z" />
<glyph unicode="&#x301;" horiz-adv-x="0" d="M-723 1106h49l236 334q8 14 12 35q2 16 -4 36q-4 12 -19 31q-10 14 -30 21q-16 6 -35 2q-14 -2 -35 -15q-14 -8 -26 -24q-10 -12 -17 -33z" />
<glyph unicode="&#x304;" horiz-adv-x="0" d="M-907 1169h667v115h-667v-115z" />
<glyph unicode="&#x306;" horiz-adv-x="0" d="M-889 1479h55q6 -55 22.5 -92t51.5 -76q29 -31 76 -51.5t102 -20.5q63 0 107 21q49 23 79.5 53t51.5 78q20 45 22 88h64q-4 -63 -21 -123q-18 -68 -57 -117q-43 -57 -100 -88q-59 -33 -146 -33q-53 0 -98 17q-41 14 -76 43q-31 25 -57 65q-29 41 -41 76q-14 37 -25 82 q-6 25 -10 78z" />
<glyph unicode="&#x308;" horiz-adv-x="0" d="M-924 1266q0 -27 9 -45q9 -22 24 -37.5t37 -24.5q18 -8 45 -8t45 8q22 9 37 24.5t25 37.5q8 18 8 44.5t-8.5 45t-24.5 35.5q-15 15 -37 24q-25 10 -45 10t-45 -10q-22 -9 -37 -24q-16 -16 -24.5 -34.5t-8.5 -45.5zM-453 1266q0 -27 9 -45q9 -22 24.5 -37.5t36.5 -24.5 q18 -8 45 -8t45 8q22 9 37 24.5t25 37.5q8 18 8 44.5t-8.5 45t-24.5 35.5q-15 15 -37 24q-25 10 -45 10t-45 -10q-22 -9 -37 -24q-16 -16 -24.5 -34.5t-8.5 -45.5z" />
<glyph unicode="&#x313;" horiz-adv-x="0" d="M-719 1487q0 -23 8.5 -37t24.5 -26.5t33 -18.5q18 -6 39 -6q12 0 28 4q8 2 21 10q4 2 7 3t5 3t6 4q12 4 19 4q10 0 16 -6q8 -8 10 -16q6 -18 6 -21q0 -4 1 -9t1 -7q0 -59 -18 -102q-14 -33 -49 -68q-31 -31 -60 -41q-37 -14 -61 -16l4 -41q39 2 88 22q43 16 82 54 q39 35 59 86q23 55 23 120q0 29 -10 74q-8 37 -30.5 72t-51.5 55.5t-76 20.5q-35 0 -55 -11q-27 -12 -39 -28q-14 -16 -23 -37q-8 -18 -8 -41z" />
<glyph unicode="&#x314;" horiz-adv-x="0" d="M-719 1384q0 -66 23 -120q20 -51 59 -86q43 -41 82 -56q49 -20 90 -22l6 41q-27 2 -63 16q-33 12 -62 41q-31 31 -47 68q-20 47 -20 102q0 10 2 16q2 4 4 10.5t2 10.5q2 6 12 16q6 6 17 6q4 0 16 -4q4 -2 8 -5t10 -5q10 -8 23 -10q16 -4 29 -4q18 0 36 6q16 6 33 18.5 t25 26.5t8 37q0 12 -8 41q-6 20 -23 37q-18 18 -39 26q-27 10 -55 11q-47 0 -76 -21q-27 -18 -51 -53q-20 -31 -31 -72q-10 -45 -10 -72z" />
<glyph unicode="&#x342;" horiz-adv-x="0" d="M-854 1118h55q2 47 23 92q16 37 51 76q31 35 76 53q43 18 100 19q66 0 109 -21q49 -23 79.5 -53.5t51.5 -77.5q20 -45 22 -88h64q-2 53 -23 123q-18 68 -57 117q-45 59 -98 88q-59 33 -148 33q-51 0 -96 -16.5t-78 -43.5q-31 -25 -57 -65q-23 -35 -39 -76 q-14 -37 -25 -82q-6 -25 -10 -78z" />
<glyph unicode="&#x343;" horiz-adv-x="0" d="M-719 1487q0 -23 8.5 -37t24.5 -26.5t33 -18.5q18 -6 39 -6q12 0 28 4q8 2 21 10q4 2 7 3t5 3t6 4q12 4 19 4q10 0 16 -6q8 -8 10 -16q6 -18 6 -21q0 -4 1 -9t1 -7q0 -59 -18 -102q-14 -33 -49 -68q-31 -31 -60 -41q-37 -14 -61 -16l4 -41q39 2 88 22q43 16 82 54 q39 35 59 86q23 55 23 120q0 29 -10 74q-8 37 -30.5 72t-51.5 55.5t-76 20.5q-35 0 -55 -11q-27 -12 -39 -28q-14 -16 -23 -37q-8 -18 -8 -41z" />
<glyph unicode="&#x344;" horiz-adv-x="0" d="M-963 1266q0 -27 8.5 -45.5t26.5 -36.5q15 -15 37 -25q18 -8 45 -8t45 8q22 9 37 24.5t25 37.5q8 18 8 44.5t-8.5 45t-24.5 35.5q-15 15 -37 24q-25 10 -45 10t-45 -10q-22 -9 -37 -24q-20 -20 -26 -35q-9 -18 -9 -45zM-627 1165l45 -2l179 381q8 25 8 37t-8 37 q-4 12 -23 27q-16 12 -41 12q-20 0 -34.5 -6t-28.5 -21q-16 -16 -23 -26q-8 -14 -12 -35zM-412 1266q0 -27 9 -45q9 -22 24 -37.5t37 -24.5q18 -8 45 -8t45 8q22 9 37 24.5t25 37.5q8 18 8 44.5t-8.5 45t-24.5 35.5q-15 15 -37 24q-25 10 -45 10t-45 -10q-22 -9 -37 -24 q-16 -16 -24.5 -34.5t-8.5 -45.5z" />
<glyph unicode="&#x345;" horiz-adv-x="0" d="M-721 -102v-242q0 -20 6 -39q6 -16 24.5 -32.5t45.5 -24.5q25 -8 70 -8.5t69 8.5q28 9 43 24q20 20 25 31q8 20 10 31v24v11h-49v-13q0 -15 -6 -30q-8 -18 -22.5 -31t-47.5 -13q-39 0 -49 17q-12 18 -12 45v242h-107z" />
<glyph unicode="&#x374;" horiz-adv-x="436" d="M115 1118h37l182 258q8 10 8 27q0 18 -2 27q-4 14 -14.5 24t-24.5 16.5t-27 2.5q-16 -4 -26 -13q-12 -8 -21 -20t-12 -25z" />
<glyph unicode="&#x375;" horiz-adv-x="436" d="M104 -346q0 -18 2.5 -26.5t14.5 -24.5q6 -10 24 -17q14 -6 27 -2q16 4 25 10q12 8 20 21q6 8 14 25l103 299h-37l-182 -258q-11 -15 -11 -27z" />
<glyph unicode="&#x37a;" horiz-adv-x="477" d="M123 -102v-242q0 -20 6 -39q6 -16 24.5 -32.5t45.5 -24.5q25 -8 69 -9q63 0 94 19q29 18 44 45q10 20 10 43v23h-49v-13q0 -15 -7 -30q-8 -18 -22 -31t-47 -13q-39 0 -49 17q-12 18 -13 45v242h-106z" />
<glyph unicode="&#x37e;" horiz-adv-x="708" d="M184 90q0 -29 11 -47q14 -25 28 -35q18 -12 37 -18t37 -6q6 0 14 1t11 1q4 0 9 1t7 1h8t8 2q2 0 7.5 1t9.5 1q10 0 14 -6q4 -8 4 -19q0 -25 -12 -53q-14 -35 -33 -59q-20 -31 -51 -58q-33 -29 -70 -49l23 -41q41 20 76 47q31 25 71 72q33 39 56 90q20 47 20 104 q0 49 -14 84q-16 39 -37 59.5t-49.5 33t-51.5 12.5q-59 0 -96 -31t-37 -88zM184 889q0 -33 11 -53q12 -25 30 -43q23 -23 43 -31q27 -10 51 -10q27 0 54 10q20 8 43 31q18 18 30 43q10 20 10.5 53t-10.5 53q-12 25 -30 43q-20 20 -43 29q-27 10 -54 10q-25 0 -51 -10 q-23 -8 -43 -29q-18 -18 -30 -43q-11 -20 -11 -53z" />
<glyph unicode="&#x384;" horiz-adv-x="438" d="M203 1165l45 -2l178 381q8 25 8 37t-8 37q-4 12 -23 27q-14 12 -41 12q-37 0 -63.5 -26.5t-32.5 -61.5z" />
<glyph unicode="&#x385;" horiz-adv-x="847" d="M43 1266q0 -20 10 -45q9 -22 24.5 -37.5t37.5 -24.5q18 -8 44.5 -8t45 8t35.5 25q15 15 24 37q10 25 10 45t-10 45q-8 18 -24.5 34.5t-34.5 24.5q-25 10 -45.5 10t-44.5 -10q-22 -9 -37 -24q-16 -16 -25 -35q-10 -25 -10 -45zM379 1165l45 -2l178 381q8 16 8 35 q0 14 -8 39q-4 12 -22 27q-14 12 -41 12q-39 0 -66 -26.5t-33 -61.5zM594 1266q0 -27 8 -45q9 -22 24.5 -37.5t37.5 -24.5q18 -8 44.5 -8t45 8t34.5 25q15 15 25 37q10 25 10 45t-10 45q-8 18 -24.5 34.5t-34.5 24.5q-25 10 -45.5 10t-44.5 -10q-22 -9 -37 -24 q-16 -16 -24.5 -34.5t-8.5 -45.5z" />
<glyph unicode="&#x386;" horiz-adv-x="1519" d="M12 0h432v31q-41 0 -75.5 10t-51.5 25q-18 15 -24 36q-6 18 4 45l121 299h561l20.5 -49t14.5 -37l22 -53l15 -35q2 -6 6 -12t6 -14l14 -35q2 -8 5 -14.5l6.5 -14.5l9.5 -22q10 -25 8 -45q-4 -23 -21 -43q-12 -14 -47 -29q-31 -12 -80 -12v-31h529v31q-53 0 -98 26 q-47 29 -72 93l-531 1251h-51l-528 -1241l-27 -56q-12 -25 -35 -41q-20 -14 -53 -24q-27 -8 -80 -8v-31zM453 524l243 590l248 -590h-491zM242 1165l45 -2l178 381q8 25 8 37t-8 37q-4 12 -23 27q-14 12 -41 12q-37 0 -63.5 -26.5t-32.5 -61.5z" />
<glyph unicode="&#x387;" horiz-adv-x="708" d="M184 889q0 -33 11 -53q12 -25 30 -43q23 -23 43 -31q27 -10 51 -10q27 0 54 10q20 8 43 31q18 18 30 43q10 20 10.5 53t-10.5 53q-12 25 -30 43q-20 20 -43 29q-27 10 -54 10q-25 0 -51 -10q-23 -8 -43 -29q-18 -18 -30 -43q-11 -20 -11 -53z" />
<glyph unicode="&#x388;" horiz-adv-x="1808" d="M448 1346q53 0 99 -11q43 -10 61 -28q25 -25 33 -52q10 -35 10 -73v-1028q0 -66 -51 -94.5t-144 -28.5v-31h1115l110 332h-37q-23 -63 -53 -107q-33 -47 -74 -82q-45 -39 -90 -55q-49 -18 -100 -18h-398q-31 0 -51 16t-20 49v549h350q55 0 94 -22q35 -20 56 -56 q18 -31 24 -65q8 -45 8 -54h33v471h-33q0 -16 -6 -51q-4 -25 -26 -65q-16 -29 -56 -56q-37 -25 -94 -24h-350v475q0 33 16 53q16 18 55 19h373q53 0 92 -17q37 -16 63.5 -44.5t41.5 -67.5q16 -41 24 -82h37l-24 278h-1088v-30zM146 1165l45 -2l178 381q8 25 8 37t-8 37 q-4 12 -23 27q-14 12 -41 12q-37 0 -63.5 -26.5t-32.5 -61.5z" />
<glyph unicode="&#x389;" horiz-adv-x="2054" d="M448 0h615v31q-29 0 -70 10q-43 10 -66 25q-29 16 -49 45q-20 27 -20 59v489h639v-489q0 -35 -19 -59q-20 -27 -51 -45q-23 -14 -65 -25q-41 -10 -70 -10v-31h616v31q-29 0 -69 10q-43 10 -66 25q-29 16 -49 45q-20 27 -20 59v1020q0 43 14 72q15 31 43 49q27 16 63 26 q33 8 84 9v30h-616v-30q51 0 84 -9q41 -10 65.5 -26.5t40.5 -48.5q14 -29 15 -72v-453h-639v453q0 43 14 72q16 33 41 49t66 26q33 8 84 9v30h-615v-30q51 0 84 -9q37 -10 64 -26q25 -16 41 -49q14 -29 14 -72v-1020q0 -33 -21 -59q-23 -31 -47 -45q-23 -14 -65 -25 q-41 -10 -70 -10v-31zM146 1165l45 -2l178 381q8 25 8 37t-8 37q-4 12 -23 27q-14 12 -41 12q-37 0 -63.5 -26.5t-32.5 -61.5z" />
<glyph unicode="&#x38a;" horiz-adv-x="1212" d="M450 0h615v31q-29 0 -70 10q-43 10 -66 25q-29 16 -49 45q-20 27 -20 59v1020q0 43 14 72q16 33 41 49t66 26q33 8 84 9v30h-615v-30q51 0 84 -9q37 -10 64 -26q25 -16 41 -49q14 -29 14 -72v-1020q0 -33 -21 -59q-23 -31 -47 -45q-23 -14 -65 -25q-41 -10 -70 -10v-31z M148 1165l45 -2l178 381q8 25 8 37t-8 37q-4 12 -23 27q-14 12 -41 12q-37 0 -63.5 -26.5t-32.5 -61.5z" />
<glyph unicode="&#x38c;" horiz-adv-x="1871" d="M313 688q0 -88 26 -188q25 -88 72 -172q45 -78 111 -144q72 -72 143 -112q84 -49 170 -72q92 -25 191 -25q96 0 188 25q86 23 170 72q78 45 145 112q66 66 111 144q45 76 70 172q27 100 26.5 188t-26.5 189q-25 92 -70 170q-47 82 -110.5 145t-145.5 111q-92 53 -170 73 q-92 25 -188 25q-98 0 -191 -25q-78 -20 -170 -73q-78 -45 -143 -111q-63 -63 -111 -145q-49 -84 -72 -170q-26 -101 -26 -189zM536 688q0 82 14 154q16 82 43 149q29 74 68 133.5t94 108.5q51 45 119 74q61 27 141 26.5t146 -26.5q72 -29 123 -72q53 -45 98 -109 q37 -51 72 -133q29 -66 45 -149q14 -72 14 -156q0 -72 -14 -141q-14 -66 -45 -146q-29 -74 -70 -135q-43 -63 -94 -112q-49 -45 -119 -76q-68 -29 -139 -29q-119 0 -213 53q-88 49 -156 144q-57 80 -94 203q-33 110 -33 239zM146 1165l45 -2l178 381q8 25 8 37t-8 37 q-4 12 -23 27q-14 12 -41 12q-37 0 -63.5 -26.5t-32.5 -61.5z" />
<glyph unicode="&#x38e;" horiz-adv-x="1986" d="M393 1346q49 0 84 -15q41 -16 63 -35q37 -29 50 -43q16 -20 32 -43l453 -632v-418q0 -33 -18 -58q-20 -27 -50 -41q-35 -16 -65 -22q-49 -8 -70 -8v-31h615v31q-18 0 -68 8q-35 6 -68 22q-29 14 -49 41t-20 58v422l420 645q6 10 36 41q12 12 50 37q31 20 55 28 q31 10 53 10v33h-430v-30q39 0 70 -7q33 -6 49 -20q20 -16 22 -36.5t-16 -49.5l-346 -533l-381 523q-18 25 -14 47t26 39q27 18 62 26q45 10 92 11v30h-637v-30zM146 1165l45 -2l178 381q8 25 8 37t-8 37q-4 12 -23 27q-14 12 -41 12q-37 0 -63.5 -26.5t-32.5 -61.5z" />
<glyph unicode="&#x38f;" horiz-adv-x="1865" d="M332 829q0 -76 22 -149q20 -70 58 -127q31 -49 88 -102q47 -45 106.5 -76t118.5 -49q66 -20 123 -23v-123h-311q-16 0 -41 6q-16 4 -45 25q-16 12 -35 41q-14 23 -14 63h-41v-315h561v352q-80 23 -154 70q-68 43 -117 104q-51 63 -73 136q-27 84 -27 165q0 98 35 193 q35 96 94 164q66 76 152 116q89 43 196 43q108 0 197 -43q82 -39 149 -116q63 -72 97 -164q35 -94 34 -193q0 -82 -26 -165q-23 -72 -74 -136q-49 -61 -117 -104q-72 -45 -153 -70v-352h561v315h-41q0 -41 -14 -63q-18 -29 -35 -41q-29 -20 -45 -25q-25 -6 -41 -6h-312v123 q63 4 121 21q55 16 121 51q59 31 107 76q57 53 88 102q41 63 59 127q20 68 21 149q0 129 -48 236q-45 102 -137 178q-90 76 -219 115q-125 39 -293 39t-293 -39q-129 -39 -219 -115q-92 -76 -137 -178q-47 -107 -47 -236zM146 1165l45 -2l178 381q8 25 8 37t-8 37 q-4 12 -23 27q-14 12 -41 12q-37 0 -63.5 -26.5t-32.5 -61.5z" />
<glyph unicode="&#x390;" horiz-adv-x="694" d="M168 266q0 -66 16 -125q14 -53 47 -92t68 -55q40 -18 86 -19q43 0 86 16.5t72 57.5q31 43 49 115q18 70 18 182h-55q0 -88 -12 -143q-12 -51 -31 -84q-18 -31 -41 -41q-25 -10 -39 -10q-10 0 -35 8q-16 6 -32 28q-12 16 -23 64q-10 45 -10 108v728h-164v-738zM-131 1266 q0 -20 10 -45q9 -22 24.5 -37.5t37.5 -24.5q18 -8 44.5 -8t45 8t35.5 25q15 15 24 37q10 25 10 45t-10 45q-8 18 -24.5 34.5t-34.5 24.5q-25 10 -45.5 10t-44.5 -10q-22 -9 -37 -24q-16 -16 -25 -35q-10 -25 -10 -45zM205 1165l45 -2l178 381q8 16 8 35q0 14 -8 39 q-4 12 -22 27q-14 12 -41 12q-39 0 -66 -26.5t-33 -61.5zM420 1266q0 -27 8 -45q9 -22 24.5 -37.5t37.5 -24.5q18 -8 44.5 -8t45 8t34.5 25q15 15 25 37q10 25 10 45t-10 45q-8 18 -24.5 34.5t-34.5 24.5q-25 10 -45.5 10t-44.5 -10q-22 -9 -37 -24q-16 -16 -24.5 -34.5 t-8.5 -45.5z" />
<glyph unicode="&#x391;" horiz-adv-x="1519" d="M12 0h432v31q-41 0 -75.5 10t-51.5 25q-18 15 -24 36q-6 18 4 45l121 299h561l20.5 -49t14.5 -37l22 -53l15 -35q2 -6 6 -12t6 -14l14 -35q2 -8 5 -14.5l6.5 -14.5l9.5 -22q10 -25 8 -45q-4 -23 -21 -43q-12 -14 -47 -29q-31 -12 -80 -12v-31h529v31q-53 0 -98 26 q-47 29 -72 93l-531 1251h-51l-528 -1241l-27 -56q-12 -25 -35 -41q-20 -14 -53 -24q-27 -8 -80 -8v-31zM453 524l243 590l248 -590h-491z" />
<glyph unicode="&#x392;" horiz-adv-x="1462" d="M94 1346q53 0 99 -11q43 -10 61 -28q25 -25 33 -52q10 -35 10 -73v-1028q0 -66 -51 -94.5t-144 -28.5v-31h732q57 0 106 8t111 29q41 14 104 49q49 28 86 68q43 45 62 92q23 55 22 116q0 89 -31 154q-31 66 -84 109q-57 47 -112 65q-72 25 -127 27q49 6 106 33 q53 25 96.5 67.5t70 96t26.5 120.5q0 72 -37 137q-35 61 -100.5 108.5t-151.5 72t-190 24.5h-697v-30zM504 113v567h272q63 0 121 -25q66 -27 107 -63q43 -37 73 -98q27 -53 27 -119q0 -76 -26.5 -131.5t-71.5 -100.5q-43 -43 -99 -67q-51 -23 -108 -23h-240q-25 0 -41 17 q-14 14 -14 43zM504 737v490q0 43 24.5 67.5t65.5 24.5h190q61 0 107 -23q49 -25 88 -63q40 -40 61 -92q23 -55 23 -109q0 -61 -24.5 -114.5t-63.5 -92.5q-41 -41 -96 -65q-51 -23 -113 -23h-262z" />
<glyph unicode="&#x393;" horiz-adv-x="1193" d="M94 0h615v31q-29 0 -70 10q-43 10 -66 25q-29 16 -49 45q-20 27 -20 59v1042q0 47 26 74q23 23 64 23h252q61 0 102 -20.5t70 -59.5q25 -33 45 -88.5t35 -108.5h28l-41 344h-991v-30q51 0 84 -9q37 -10 64 -26q25 -16 41 -49q14 -29 14 -72v-1020q0 -33 -21 -59 q-23 -31 -47 -45q-23 -14 -65 -25q-41 -10 -70 -10v-31z" />
<glyph unicode="&#x394;" horiz-adv-x="1382" d="M18 0h1309l-645 1401h-18zM139 72l471 991l455 -991h-926z" />
<glyph unicode="&#x395;" horiz-adv-x="1398" d="M94 1346q53 0 99 -11q43 -10 61 -28q25 -25 33 -52q10 -35 10 -73v-1028q0 -66 -51 -94.5t-144 -28.5v-31h1115l110 332h-37q-23 -63 -53 -107q-33 -47 -74 -82q-45 -39 -90 -55q-49 -18 -100 -18h-398q-31 0 -51 16t-20 49v549h350q55 0 94 -22q35 -20 56 -56 q18 -31 24 -65q8 -45 8 -54h33v471h-33q0 -16 -6 -51q-4 -25 -26 -65q-16 -29 -56 -56q-37 -25 -94 -24h-350v475q0 33 16 53q16 18 55 19h373q53 0 92 -17q37 -16 63.5 -44.5t41.5 -67.5q16 -41 24 -82h37l-24 278h-1088v-30z" />
<glyph unicode="&#x396;" horiz-adv-x="1429" d="M84 0h1239l63 356h-38q-20 -68 -58 -125q-33 -49 -80 -88q-41 -33 -98 -53q-52 -18 -111 -18h-620l967 1304h-1141l-35 -344h37q9 65 31 117q23 55 51 86t76 51q43 18 104 19h580z" />
<glyph unicode="&#x397;" horiz-adv-x="1644" d="M94 0h615v31q-29 0 -70 10q-43 10 -66 25q-29 16 -49 45q-20 27 -20 59v489h639v-489q0 -35 -19 -59q-20 -27 -51 -45q-23 -14 -65 -25q-41 -10 -70 -10v-31h616v31q-29 0 -69 10q-43 10 -66 25q-29 16 -49 45q-20 27 -20 59v1020q0 43 14 72q15 31 43 49q27 16 63 26 q33 8 84 9v30h-616v-30q51 0 84 -9q41 -10 65.5 -26.5t40.5 -48.5q14 -29 15 -72v-453h-639v453q0 43 14 72q16 33 41 49t66 26q33 8 84 9v30h-615v-30q51 0 84 -9q37 -10 64 -26q25 -16 41 -49q14 -29 14 -72v-1020q0 -33 -21 -59q-23 -31 -47 -45q-23 -14 -65 -25 q-41 -10 -70 -10v-31z" />
<glyph unicode="&#x398;" horiz-adv-x="1581" d="M80 688q0 -88 26 -188q25 -88 72 -172q45 -78 111 -144q72 -72 143 -112q84 -49 170 -72q92 -25 191 -25q96 0 188 25q86 23 170 72q78 45 145 112q66 66 111 144q45 76 70 172q27 100 26.5 188t-26.5 189q-25 92 -70 170q-47 82 -110.5 145t-145.5 111q-92 53 -170 73 q-92 25 -188 25q-98 0 -191 -25q-78 -20 -170 -73q-78 -45 -143 -111q-63 -63 -111 -145q-49 -84 -72 -170q-26 -101 -26 -189zM303 688q0 82 14 154q16 82 43 149q29 74 68 133.5t94 108.5q51 45 119 74q61 27 141 26.5t146 -26.5q72 -29 123 -72q53 -45 98 -109 q37 -51 72 -133q29 -66 45 -149q14 -72 14 -156q0 -72 -14 -141q-14 -66 -45 -146q-29 -74 -70 -135q-43 -63 -94 -112q-49 -45 -119 -76q-68 -29 -139 -29q-119 0 -213 53q-88 49 -156 144q-57 80 -94 203q-33 110 -33 239zM502 485h35q0 31 10 58q8 20 26 39q12 12 37 20 t37 8h293q10 0 35 -8q20 -6 37 -20q18 -16 30 -39q10 -20 11 -58h34v398h-34q0 -37 -11 -58q-12 -23 -30 -39q-16 -14 -37 -20q-25 -8 -35 -8h-293q-12 0 -36.5 8t-37.5 20q-18 18 -26 39q-10 27 -10 58h-35v-398z" />
<glyph unicode="&#x399;" horiz-adv-x="800" d="M94 0h615v31q-29 0 -70 10q-43 10 -66 25q-29 16 -49 45q-20 27 -20 59v1020q0 43 14 72q16 33 41 49t66 26q33 8 84 9v30h-615v-30q51 0 84 -9q37 -10 64 -26q25 -16 41 -49q14 -29 14 -72v-1020q0 -33 -21 -59q-23 -31 -47 -45q-23 -14 -65 -25q-41 -10 -70 -10v-31z " />
<glyph unicode="&#x39a;" horiz-adv-x="1609" d="M86 0h561v31q-29 0 -59 12q-37 14 -58 33q-25 22 -43 49q-16 25 -16 63v299v72l66 66l395 -365l51 -53q37 -41 43 -51q16 -25 23 -50q6 -23 -2.5 -39t-36.5 -26q-31 -10 -78 -10v-31h637v31q-37 0 -74 12t-82 41q-43 27 -96 72q-37 31 -119 108l-520 490l450 448 q72 72 144 107q76 37 145 37v30h-520v-30q53 0 82 -15q33 -16 45 -37q10 -20 4 -51q-6 -27 -31 -51l-526 -522v520q0 43 14 72q16 33 39 49t56 26q27 8 67 9v30h-547v-30q37 0 64 -9q25 -6 51 -30q27 -23 37 -47q12 -27 12 -70v-1002q0 -33 -16 -61q-16 -31 -41 -51 q-20 -18 -57 -33q-31 -12 -64 -12v-31z" />
<glyph unicode="&#x39b;" horiz-adv-x="1529" d="M12 0h432v31q-90 0 -129 32q-41 35 -18 84l397 967l404 -954q10 -29 8 -47q-2 -20 -21 -41q-12 -14 -47 -29q-31 -12 -80 -12v-31h529v31q-51 0 -98.5 28.5t-71.5 90.5l-543 1251h-39l-528 -1241l-27 -56q-12 -25 -35 -41q-20 -14 -53 -24q-27 -8 -80 -8v-31z" />
<glyph unicode="&#x39c;" horiz-adv-x="1943" d="M113 0h465v31q-37 0 -74 10q-31 8 -62 29q-28 18 -43 43q-16 27 -16 55v938l537 -1122h14l549 1200v-1014q0 -41 -14.5 -63.5t-41.5 -43.5q-18 -12 -59 -24q-31 -8 -70 -8v-31h576v31q-39 0 -70 8q-41 12 -59 24q-23 16 -39 43t-16 64v1020q0 41 12 72q12 29 35 49 q18 16 51 26q25 8 61 9v30h-366l-496 -1085l-524 1085h-350v-30q53 0 88 -21q39 -23 57 -49q25 -35 33 -66q10 -37 10 -63v-979q0 -33 -14.5 -55.5t-41 -43t-59.5 -28.5q-37 -10 -73 -10v-31z" />
<glyph unicode="&#x39d;" horiz-adv-x="1484" d="M39 0h465v31q-37 0 -74 10q-31 8 -61 29q-28 18 -43 43q-16 27 -17 55v975l928 -1166h37v1231q0 63 47 101q46 37 123 37v30h-424v-30q35 0 70 -11q37 -10 55 -26q23 -18 35 -45q12 -25 12 -56v-819l-805 987h-348v-30q51 0 88 -13q41 -14 57 -30q25 -25 33 -48 q10 -31 10 -55v-1032q0 -33 -14 -55.5t-41 -42.5q-25 -18 -61.5 -28.5t-71.5 -10.5v-31z" />
<glyph unicode="&#x39e;" horiz-adv-x="1312" d="M137 0h1047v358h-33q0 -88 -41 -133t-117 -45h-665q-76 0 -117 45t-41 133h-33v-358zM137 1018h33q0 88 41 133t117 45h665q78 0 119 -45t41 -133h31v358h-1047v-358zM350 477h35q0 37 10.5 57.5t28.5 38.5q16 16 37 23q23 6 37 6h338q18 0 36 -6q12 -4 35 -23 q16 -12 29 -38q12 -25 12 -58h33v430h-33q0 -33 -12 -57q-12 -27 -29 -39q-23 -18 -35 -23q-18 -6 -36 -6h-338q-18 0 -39 6q-14 4 -37 23q-16 12 -29 39q-10 20 -10 57h-33v-430z" />
<glyph unicode="&#x39f;" horiz-adv-x="1581" d="M80 688q0 -88 26 -188q25 -88 72 -172q45 -78 111 -144q72 -72 143 -112q84 -49 170 -72q92 -25 191 -25q96 0 188 25q86 23 170 72q78 45 145 112q66 66 111 144q45 76 70 172q27 100 26.5 188t-26.5 189q-25 92 -70 170q-47 82 -110.5 145t-145.5 111q-92 53 -170 73 q-92 25 -188 25q-98 0 -191 -25q-78 -20 -170 -73q-78 -45 -143 -111q-63 -63 -111 -145q-49 -84 -72 -170q-26 -101 -26 -189zM303 688q0 82 14 154q16 82 43 149q29 74 68 133.5t94 108.5q51 45 119 74q61 27 141 26.5t146 -26.5q72 -29 123 -72q53 -45 98 -109 q37 -51 72 -133q29 -66 45 -149q14 -72 14 -156q0 -72 -14 -141q-14 -66 -45 -146q-29 -74 -70 -135q-43 -63 -94 -112q-49 -45 -119 -76q-68 -29 -139 -29q-119 0 -213 53q-88 49 -156 144q-57 80 -94 203q-33 110 -33 239z" />
<glyph unicode="&#x3a0;" horiz-adv-x="1617" d="M94 0h615v31q-33 0 -70 6q-43 8 -66 18q-33 16 -49 39q-20 27 -20 66v1030q0 45 16 67q18 25 45 37q31 14 64 17q45 4 69 4h222q25 0 69 -4q33 -2 64 -17q27 -12 45 -37q16 -23 16 -67v-1030q0 -37 -20.5 -63.5t-49.5 -41.5q-23 -10 -65 -18q-37 -6 -70 -6v-31h617v31 q-33 0 -70 6q-43 8 -65 18q-29 14 -49.5 41t-20.5 64v1030q0 43 14 72q16 33 41 49t66 26q33 8 84 9v30h-1432v-30q51 0 84 -9q37 -10 64 -26q25 -16 41 -49q14 -29 14 -72v-1030q0 -41 -21 -68q-18 -25 -47 -39q-31 -16 -65 -18q-49 -4 -70 -4v-31z" />
<glyph unicode="&#x3a1;" horiz-adv-x="1261" d="M39 0h598v31q-92 0 -145 43q-51 43 -52 116v476q16 -10 56 -21q41 -10 110 -10q117 0 215 27q96 27 174 77q74 49 115 121q39 70 39 160h2q0 70 -33 139q-29 61 -92 115q-53 45 -141 74q-86 29 -187 28h-657v-30q49 0 90 -10.5t59 -28.5q25 -25 33 -52q10 -35 10 -73 v-992q0 -72 -51 -116q-49 -43 -143 -43v-31zM440 729v498q0 43 24.5 67.5t65.5 24.5h123q51 0 105 -27q49 -25 86 -67q39 -45 59.5 -98.5t20.5 -110.5q0 -61 -23 -119q-20 -51 -67 -96q-43 -41 -113 -66q-68 -25 -158 -24q-20 0 -65 4q-31 2 -58 14z" />
<glyph unicode="&#x3a3;" horiz-adv-x="1329" d="M45 0h1116l39 373h-39q-16 -96 -57 -144q-43 -49 -111 -49h-639l557 557l-510 508q-12 12 -14 22.5t2 22.5q2 8 14.5 14.5t28.5 6.5h379q61 0 121 -25q55 -23 104 -69q55 -51 80 -97q31 -55 43 -112h35l-45 368h-1104l688 -686z" />
<glyph unicode="&#x3a4;" horiz-adv-x="1273" d="M49 1032h31q0 57 14 103q15 49 43 86q27 37 64 57q39 23 80 22h251v-1130q0 -37 -20 -59q-27 -31 -51 -45q-23 -14 -66 -25q-41 -10 -69 -10v-31h618v31q-29 0 -70 10q-43 10 -65 25q-31 18 -51 45q-18 25 -19 59v1130h252q41 0 80 -22q37 -20 64 -57q28 -37 43 -86 q14 -45 14 -103h33v344h-1176v-344z" />
<glyph unicode="&#x3a5;" horiz-adv-x="1574" d="M41 1346q49 0 84 -15q41 -16 63 -35q37 -29 50 -43q16 -20 32 -43l453 -632v-418q0 -33 -18 -58q-20 -27 -50 -41q-35 -16 -65 -22q-49 -8 -70 -8v-31h615v31q-18 0 -68 8q-35 6 -68 22q-29 14 -49 41t-20 58v422l420 645q6 10 36 41q12 12 50 37q31 20 55 28 q31 10 53 10v33h-430v-30q39 0 70 -7q33 -6 49 -20q20 -16 22 -36.5t-16 -49.5l-346 -533l-381 523q-18 25 -14 47t26 39q27 18 62 26q45 10 92 11v30h-637v-30z" />
<glyph unicode="&#x3a6;" horiz-adv-x="1574" d="M80 717q0 -90 24 -158q25 -70 68 -121t100 -88q51 -33 125 -59q59 -20 140 -35q82 -14 145 -16v-70q0 -37 -20 -59q-27 -31 -52 -45q-23 -12 -67 -25q-41 -10 -70 -10v-31h619v31q-29 0 -70 10q-43 10 -66 25q-29 16 -49 45q-18 25 -18 59v68q63 2 145 16q80 14 140 35 q78 29 126 59q61 39 103 88q43 52 67 123q25 72 25 158t-31 153q-29 63 -80 115q-43 43 -112 80q-53 29 -133 53q-55 18 -133 29q-65 9 -117 12v31q0 43 14 72q16 33 41 49q27 16 64 26q33 8 84 9v30h-619v-30q51 0 84 -9q41 -10 66 -26q28 -18 43 -49q16 -33 16 -72v-33 q-55 -4 -119 -12q-66 -10 -133 -31q-80 -25 -129 -51q-63 -35 -113 -82q-49 -49 -79 -113q-29 -59 -29 -151zM297 707q0 92 29 165q28 71 80 117q53 47 122 72q78 27 154 33v-795q-86 6 -156 31q-68 23 -120 73q-52 49 -80 123q-29 77 -29 181zM889 297v797q86 -6 155 -31 q72 -25 125 -72q51 -45 82 -117q29 -66 29 -167q0 -111 -29 -181q-33 -78 -82 -125q-51 -47 -125 -73q-71 -25 -155 -31z" />
<glyph unicode="&#x3a7;" horiz-adv-x="1587" d="M43 0h467v31q-33 0 -82 8q-35 6 -55.5 20.5t-24.5 35t17 42.5q8 8 20 25q10 12 22.5 28.5l30.5 38.5l74 90l80 101l72 90l29.5 35.5t23.5 29.5l20 27l334 -446q20 -25 14 -50q-6 -20 -26.5 -38.5t-52.5 -26.5q-37 -10 -68 -10v-31h612v31q-29 0 -53 8q-28 9 -55 24 q-31 16 -53 37q-27 23 -43 45l-467 629l358 445q59 72 123 100q59 27 131 27v30h-467v-30q102 0 133 -31t-10 -82l-318 -393l-297 399q-20 31 -18 49.5t27 32.5q22 12 55 18q35 6 70 7v30h-623v-30q71 0 129 -31q59 -31 109 -96l409 -549l-411 -508q-59 -72 -113 -101 q-58 -31 -123 -30v-31z" />
<glyph unicode="&#x3a8;" horiz-adv-x="1804" d="M39 1339q35 0 51 -2q27 -4 43 -14q18 -12 32.5 -32.5t24.5 -63.5q12 -51 15 -103q4 -82 4 -149q0 -53 4 -148q2 -63 23 -129q16 -53 57 -108q37 -49 102 -86q68 -39 164 -60q92 -20 240 -26v-248q0 -35 -19 -59q-20 -27 -51 -45q-23 -14 -65 -25q-41 -10 -70 -10v-31h618 v31q-29 0 -69 10q-45 12 -68 25q-20 12 -49 45q-20 23 -20 59v248q147 6 239 26q96 20 164 60q66 37 102 86q37 51 56 108q23 74 24 129q4 94 4 148q0 109 4 149q6 72 15 103q10 43 24.5 63.5t32.5 32.5q16 10 43 14q16 2 51 2v29q-20 0 -56 -1t-52 -1q-35 0 -88 -12 q-35 -8 -70 -33q-31 -20 -51 -64q-23 -43 -31 -106q-10 -72 -10 -158q0 -80 -8 -182q-6 -76 -24.5 -131t-49.5 -92q-29 -35 -74 -58q-43 -20 -106 -30q-61 -10 -139 -13v703q0 35 14 72q12 31 37 49q23 16 57 26q31 8 76 9v30h-576v-30q45 0 76 -9q35 -10 58 -26 q27 -20 38 -49q12 -31 13 -72v-703q-78 2 -140 13q-59 8 -106 30q-45 20 -76 57.5t-49 92.5q-14 41 -25 131q-8 68 -8 182q0 86 -10 158q-8 63 -31 106q-20 43 -51 64q-37 27 -67 33q-53 12 -91 12q-16 0 -51 1t-55 1v-29z" />
<glyph unicode="&#x3a9;" horiz-adv-x="1548" d="M80 829q0 -76 22 -149q20 -70 58 -127q31 -49 88 -102q47 -45 106.5 -76t118.5 -49q66 -20 123 -23v-123h-311q-16 0 -41 6q-16 4 -45 25q-16 12 -35 41q-14 23 -14 63h-41v-315h561v352q-80 23 -154 70q-68 43 -117 104q-51 63 -73 136q-27 84 -27 165q0 98 35 193 q35 96 94 164q66 76 152 116q89 43 196 43q108 0 197 -43q82 -39 149 -116q63 -72 97 -164q35 -94 34 -193q0 -82 -26 -165q-23 -72 -74 -136q-49 -61 -117 -104q-72 -45 -153 -70v-352h561v315h-41q0 -41 -14 -63q-18 -29 -35 -41q-29 -20 -45 -25q-25 -6 -41 -6h-312v123 q63 4 121 21q55 16 121 51q59 31 107 76q57 53 88 102q41 63 59 127q20 68 21 149q0 129 -48 236q-45 102 -137 178q-90 76 -219 115q-125 39 -293 39t-293 -39q-129 -39 -219 -115q-92 -76 -137 -178q-47 -107 -47 -236z" />
<glyph unicode="&#x3aa;" horiz-adv-x="888" d="M139 0h615v31q-29 0 -70 10q-43 10 -66 25q-29 16 -49 45q-20 27 -20 59v1020q0 43 14 72q16 33 41 49t66 26q33 8 84 9v30h-615v-30q51 0 84 -9q37 -10 64 -26q25 -16 41 -49q14 -29 14 -72v-1020q0 -33 -21 -59q-23 -31 -47 -45q-23 -14 -65 -25q-41 -10 -70 -10v-31z M96 1624q0 -27 8 -45q9 -22 24.5 -37.5t37.5 -24.5q18 -8 44.5 -8t45.5 8q22 9 36 25q12 12 22.5 36.5t10.5 45t-10 45.5q-10 20 -23 35q-15 15 -36 24q-25 10 -45.5 10t-44.5 -10q-22 -9 -37 -24q-16 -16 -24.5 -34.5t-8.5 -45.5zM567 1624q0 -27 8 -45q9 -22 24.5 -37.5 t37.5 -24.5q18 -8 44.5 -8t45 8t34.5 25q15 15 25 37q10 25 10 45t-10 45q-8 18 -24.5 34.5t-34.5 24.5q-25 10 -45.5 10t-44.5 -10q-22 -9 -37 -24q-16 -16 -24.5 -34.5t-8.5 -45.5z" />
<glyph unicode="&#x3ab;" horiz-adv-x="1574" d="M41 1346q49 0 84 -15q41 -16 63 -35q37 -29 50 -43q16 -20 32 -43l453 -632v-418q0 -33 -18 -58q-20 -27 -50 -41q-35 -16 -65 -22q-49 -8 -70 -8v-31h615v31q-18 0 -68 8q-35 6 -68 22q-29 14 -49 41t-20 58v422l420 645q6 10 36 41q12 12 50 37q31 20 55 28 q31 10 53 10v33h-430v-30q39 0 70 -7q33 -6 49 -20q20 -16 22 -36.5t-16 -49.5l-346 -533l-381 523q-18 25 -14 47t26 39q27 18 62 26q45 10 92 11v30h-637v-30zM477 1624q0 -27 8 -45q9 -22 24.5 -37.5t37.5 -24.5q18 -8 44.5 -8t45.5 8q22 9 36 25q12 12 22.5 36.5 t10.5 45t-10 45.5q-10 20 -23 35q-15 15 -36 24q-25 10 -45.5 10t-44.5 -10q-22 -9 -37 -24q-16 -16 -24.5 -34.5t-8.5 -45.5zM948 1624q0 -27 8 -45q9 -22 24.5 -37.5t37.5 -24.5q18 -8 44.5 -8t45 8t34.5 25q15 15 25 37q10 25 10 45t-10 45q-8 18 -24.5 34.5t-34.5 24.5 q-25 10 -45.5 10t-44.5 -10q-22 -9 -37 -24q-16 -16 -24.5 -34.5t-8.5 -45.5z" />
<glyph unicode="&#x3ac;" horiz-adv-x="1181" d="M59 512q0 -115 35 -215q35 -102 94 -170q66 -74 142 -113q78 -39 170 -39q47 0 96 19q47 18 92 53q37 29 80 86q39 53 63 113q27 -80 39 -111q27 -66 31 -74q23 -41 25 -43q12 -16 22 -22q9 -6 19 -6q4 0 10 -1t8 -1q10 0 35 10q20 8 43 35q20 23 37 69q16 45 16 115h-24 q0 -20 -5 -33q-6 -16 -18 -32q-12 -14 -25 -23q-16 -10 -36 -10q-22 0 -37 6q-20 8 -33 25q-12 18 -33 61q-16 35 -39 106l10.5 42l14.5 61l31 143l32 154q23 109 31 143l23 103l8 41h-152l-73 -375q-12 94 -43 168q-33 78 -74 125q-43 49 -94.5 75.5t-102.5 26.5 q-68 0 -143 -35q-70 -33 -135 -100q-59 -63 -101 -160q-39 -92 -39 -217zM240 504q0 104 20 186q22 86 55 148q35 63 78 98t96 35q58 0 105 -37q41 -33 78 -107q33 -66 55 -161q22 -92 37 -203q-12 -104 -33 -178q-23 -82 -51 -138q-31 -57 -74 -88q-45 -33 -102.5 -32.5 t-108.5 35t-84 98.5q-37 70 -53 151q-18 91 -18 193zM459 1165l45 -2l178 381q8 25 8 37t-8 37q-4 12 -23 27q-14 12 -41 12q-37 0 -63.5 -26.5t-32.5 -61.5z" />
<glyph unicode="&#x3ad;" horiz-adv-x="851" d="M90 250q0 -61 25 -111q27 -53 67 -88q35 -31 107 -55q59 -20 133 -20.5t133 18.5q55 18 104 53q41 31 78 80q33 43 51 104l-34 15q-16 -39 -47 -80q-23 -29 -62 -62q-33 -27 -76 -43q-37 -14 -82 -14q-39 0 -81 16q-39 14 -70 43q-29 25 -47 70q-18 43 -19 94 q0 76 15 119q14 45 39 76q20 25 47 39q25 12 45 12t30 -4l33 -12q6 -2 19.5 -5t17.5 -6q14 -4 45 -4q20 0 33 7q20 10 22 12q9 9 13 18q4 12 4 18.5t-4 18.5q0 2 -11 16q-4 6 -20 15q-12 6 -29 6q-33 0 -55 -6q-14 -4 -39 -12q-8 -2 -16 -4.5t-17 -6.5q-15 -6 -30 -6 q-25 0 -51.5 10.5t-47.5 30.5q-27 27 -37 57q-12 37 -12 86q0 45 10 93q8 41 31 71q20 29 55 45q37 16 86 17q39 0 62 -15q29 -18 41 -34q14 -18 26 -45l23 -46q8 -14 27 -32q14 -14 39 -15q4 0 20 4q8 2 21 11q14 8 18 18q8 16 8 29q0 29 -20 57q-25 35 -58 58 q-37 25 -96 45q-55 18 -127 18q-80 0 -147 -23q-63 -20 -107 -61q-41 -37 -63 -90q-23 -51 -23 -104.5t19 -90.5q23 -45 43 -63q29 -27 59 -41q20 -10 57 -23q-18 -9 -49 -30q-29 -20 -59 -58q-25 -31 -49 -82q-21 -42 -21 -108zM428 1165l45 -2l178 381q8 25 8 37t-8 37 q-4 12 -23 27q-14 12 -41 12q-37 0 -63.5 -26.5t-32.5 -61.5z" />
<glyph unicode="&#x3ae;" horiz-adv-x="1075" d="M45 735h43q0 53 8 88q9 40 25 68q16 29 31 41q16 14 32 14q12 0 25 -6q10 -6 20 -25q8 -14 15 -53q6 -34 6 -92v-770h164v430q0 145 20 258q18 100 51 157.5t74 78.5q45 23 86 22q35 0 61.5 -16.5t41.5 -42.5q14 -25 20 -62q8 -45 8 -73v-1141h164v997q0 133 -25 217 q-25 80 -65 125q-41 43 -92 60q-45 14 -99 14q-45 0 -88 -16q-45 -18 -75 -45q-33 -29 -56 -70q-27 -45 -34 -96q-14 80 -19 92q-12 43 -32.5 71.5t-53.5 47.5q-31 16 -86 16q-43 0 -72 -20q-37 -27 -55 -58q-18 -33 -33 -90q-10 -43 -10 -121zM641 1165l45 -2l178 381 q8 25 8 37t-8 37q-4 12 -23 27q-14 12 -41 12q-37 0 -63.5 -26.5t-32.5 -61.5z" />
<glyph unicode="&#x3af;" horiz-adv-x="694" d="M168 266q0 -66 16 -125q14 -53 47 -92t68 -55q40 -18 86 -19q43 0 86 16.5t72 57.5q31 43 49 115q18 70 18 182h-55q0 -88 -12 -143q-12 -51 -31 -84q-18 -31 -41 -41q-25 -10 -39 -10q-10 0 -35 8q-16 6 -32 28q-12 16 -23 64q-10 45 -10 108v728h-164v-738zM228 1165 l45 -2l178 381q8 25 8 37t-8 37q-4 12 -23 27q-14 12 -41 12q-37 0 -63.5 -26.5t-32.5 -61.5z" />
<glyph unicode="&#x3b0;" horiz-adv-x="1118" d="M35 745h28q0 76 15 113q16 41 37 60q27 23 39 24q6 0 12 1t10 2t6 1q12 0 31 -6q23 -8 33 -20q20 -25 26 -50q10 -37 11 -88v-481q0 -72 18 -131t55 -102t95 -68t135 -25q83 0 147.5 31t110.5 86q51 61 80 127q35 82 51 150q16 72 26 161q8 74 9 158q0 113 -13 180 q-12 66 -30 101q-20 37 -43 45q-27 10 -47 10q-47 0 -78 -24.5t-31 -90.5q0 -41 10 -82q8 -35 25 -69q20 -45 33 -68q25 -45 34 -69q16 -39 25 -76q10 -45 10 -88q0 -71 -18 -148q-18 -74 -56 -139q-35 -59 -90 -102q-53 -41 -120 -41q-45 0 -78 20q-29 18 -54 59 q-25 43 -32 89q-10 57 -11 114v441q0 82 -22 137q-23 51 -53 84q-27 25 -72 41q-37 12 -68 12q-2 0 -10 -1t-14 -1q-20 0 -39 -8q-27 -12 -47 -27q-23 -16 -41 -47q-23 -37 -33 -78q-12 -47 -12 -117zM207 1266q0 -20 10 -45q9 -22 24.5 -37.5t37.5 -24.5q18 -8 44.5 -8 t45 8t35.5 25q15 15 24 37q10 25 10 45t-10 45q-8 18 -24.5 34.5t-34.5 24.5q-25 10 -45.5 10t-44.5 -10q-22 -9 -37 -24q-16 -16 -25 -35q-10 -25 -10 -45zM543 1165l45 -2l178 381q8 16 8 35q0 14 -8 39q-4 12 -22 27q-14 12 -41 12q-39 0 -66 -26.5t-33 -61.5zM758 1266 q0 -27 8 -45q9 -22 24.5 -37.5t37.5 -24.5q18 -8 44.5 -8t45 8t34.5 25q15 15 25 37q10 25 10 45t-10 45q-8 18 -24.5 34.5t-34.5 24.5q-25 10 -45.5 10t-44.5 -10q-22 -9 -37 -24q-16 -16 -24.5 -34.5t-8.5 -45.5z" />
<glyph unicode="&#x3b1;" horiz-adv-x="1181" d="M59 512q0 -115 35 -215q35 -102 94 -170q66 -74 142 -113q78 -39 170 -39q47 0 96 19q47 18 92 53q37 29 80 86q39 53 63 113q27 -80 39 -111q27 -66 31 -74q23 -41 25 -43q12 -16 22 -22q9 -6 19 -6q4 0 10 -1t8 -1q10 0 35 10q20 8 43 35q20 23 37 69q16 45 16 115h-24 q0 -20 -5 -33q-6 -16 -18 -32q-12 -14 -25 -23q-16 -10 -36 -10q-22 0 -37 6q-20 8 -33 25q-12 18 -33 61q-16 35 -39 106l10.5 42l14.5 61l31 143l32 154q23 109 31 143l23 103l8 41h-152l-73 -375q-12 94 -43 168q-33 78 -74 125q-43 49 -94.5 75.5t-102.5 26.5 q-68 0 -143 -35q-70 -33 -135 -100q-59 -63 -101 -160q-39 -92 -39 -217zM240 504q0 104 20 186q22 86 55 148q35 63 78 98t96 35q58 0 105 -37q41 -33 78 -107q33 -66 55 -161q22 -92 37 -203q-12 -104 -33 -178q-23 -82 -51 -138q-31 -57 -74 -88q-45 -33 -102.5 -32.5 t-108.5 35t-84 98.5q-37 70 -53 151q-18 91 -18 193z" />
<glyph unicode="&#x3b2;" horiz-adv-x="1095" d="M104 -389h164v1423q0 84 17 162q14 70 47 125q29 47 78 78q47 29 100 28q35 0 78 -16q35 -12 76 -51q39 -35 59 -86q23 -55 22 -123q0 -82 -26 -141q-25 -55 -57.5 -88t-63.5 -45.5t-41 -12.5q-4 0 -20 4q-12 4 -27 11l-29 10q-20 4 -28 4q-29 0 -50 -14q-23 -16 -22 -43 q0 -12 6 -25q4 -8 19 -18q12 -9 24 -13q16 -4 25 -4q15 0 30 6l16.5 5.5t14.5 5.5l29 12q12 6 22 6q6 0 31 -10q27 -10 51 -31q33 -25 56 -53q33 -41 53 -78q23 -43 39 -104q14 -55 14 -132q0 -113 -20 -180q-23 -76 -52 -114q-31 -43 -73 -64q-39 -18 -84 -18 q-74 0 -125 32.5t-95 87.5l-30 -18q4 -6 39 -51q25 -31 55 -51q34 -22 80 -37q43 -14 112 -15q72 0 140 31q63 29 118.5 90.5t84.5 136.5q31 80 30 181q0 92 -35 172q-35 78 -88 129q-57 53 -123 84q-63 29 -135 39q68 29 117 63q45 33 88 82q37 43 55 96q18 51 19 107 q0 53 -20.5 102t-65.5 94q-43 43 -107 68q-70 27 -145 27q-115 0 -197 -52q-84 -53 -139 -141q-57 -92 -84 -206.5t-27 -254.5v-1212z" />
<glyph unicode="&#x3b3;" horiz-adv-x="991" d="M25 825q0 -35 2 -49l4 -26h24q0 8 8 32q4 12 21 37q8 12 33 29q18 12 41 12q27 0 67 -45q35 -37 84 -133q37 -72 90 -227q51 -152 88 -320q-16 -43 -32 -96q-15 -52 -25 -105q-6 -31 -14 -102q-6 -49 -6 -84q0 -27 4 -67q2 -29 12 -52q8 -18 27 -32q12 -10 41 -11 q27 0 41 12.5t24 35t12 51.5q4 41 4 63q0 49 -2 80q-4 61 -6 96q-2 31 -10 107q-4 37 -16 106l123 238l94 180l65 129q29 59 43 94q23 55 25 70q6 29 6 53q0 16 -4 45q-2 16 -14 41q-8 14 -27 27q-16 10 -39 10q-31 0 -51 -14q-18 -12 -31 -37q-12 -23 -14 -55 q-6 -68 -6 -72q0 -16 -4 -53q0 -6 -11 -64q-6 -35 -18 -82q-8 -29 -35 -106q-2 -8 -19.5 -60.5t-29.5 -83.5l-72 -184q-43 200 -86 350q-45 158 -86 254q-43 102 -90 156q-45 51 -102 51q-29 0 -54 -18q-23 -16 -41 -45q-20 -29 -28 -66q-10 -41 -10 -70z" />
<glyph unicode="&#x3b4;" horiz-adv-x="1067" d="M45 436q0 -121 41 -203q43 -88 111 -145q61 -53 157 -84q90 -29 178 -29q84 0 162 33q76 33 142 94q61 59 102 150q39 86 39 201q0 100 -25 186q-23 82 -69 158q-43 72 -103 127q-63 59 -125 96l-149 92q-92 61 -100 66q-33 23 -62 47q-16 14 -33 35q-8 10 -12 26 q-2 8 -2 29q0 23 8 41q10 23 27 37q20 16 41 24q27 10 57 10q49 0 92 -12q45 -12 82 -33q35 -18 72 -55q29 -29 51 -74l37 15q-16 37 -57 86q-31 37 -76 65.5t-90 43t-98.5 14.5t-96.5 -18.5t-72 -47.5q-29 -31 -45 -70q-16 -43 -16 -81q0 -41 4 -58q8 -31 21 -51 q14 -23 43 -51q6 -6 75 -58q51 -37 113 -73q68 -41 162 -92q-31 9 -62 12q-41 4 -63 4q-94 0 -174 -27q-82 -27 -147.5 -84t-102.5 -141q-37 -86 -37 -205zM219 471q0 98 24.5 168t63.5 115q41 47 88 67.5t97 20.5q55 0 96 -21q49 -25 78 -53q37 -37 59 -76q25 -43 43 -92 q16 -43 27 -98q8 -43 8 -94q0 -55 -16.5 -127t-49.5 -125q-34 -55 -86 -92t-123 -37t-129 30q-57 31 -98 90.5t-61.5 139.5t-20.5 184z" />
<glyph unicode="&#x3b5;" horiz-adv-x="851" d="M90 250q0 -61 25 -111q27 -53 67 -88q35 -31 107 -55q59 -20 133 -20.5t133 18.5q55 18 104 53q41 31 78 80q33 43 51 104l-34 15q-16 -39 -47 -80q-23 -29 -62 -62q-33 -27 -76 -43q-37 -14 -82 -14q-39 0 -81 16q-39 14 -70 43q-29 25 -47 70q-18 43 -19 94 q0 76 15 119q14 45 39 76q20 25 47 39q25 12 45 12t30 -4l33 -12q6 -2 19.5 -5t17.5 -6q14 -4 45 -4q20 0 33 7q20 10 22 12q9 9 13 18q4 12 4 18.5t-4 18.5q0 2 -11 16q-4 6 -20 15q-12 6 -29 6q-33 0 -55 -6q-14 -4 -39 -12q-8 -2 -16 -4.5t-17 -6.5q-15 -6 -30 -6 q-25 0 -51.5 10.5t-47.5 30.5q-27 27 -37 57q-12 37 -12 86q0 45 10 93q8 41 31 71q20 29 55 45q37 16 86 17q39 0 62 -15q29 -18 41 -34q14 -18 26 -45l23 -46q8 -14 27 -32q14 -14 39 -15q4 0 20 4q8 2 21 11q14 8 18 18q8 16 8 29q0 29 -20 57q-25 35 -58 58 q-37 25 -96 45q-55 18 -127 18q-80 0 -147 -23q-63 -20 -107 -61q-41 -37 -63 -90q-23 -51 -23 -104.5t19 -90.5q23 -45 43 -63q29 -27 59 -41q20 -10 57 -23q-18 -9 -49 -30q-29 -20 -59 -58q-25 -31 -49 -82q-21 -42 -21 -108z" />
<glyph unicode="&#x3b6;" horiz-adv-x="980" d="M23 1288q0 -37 28.5 -71.5t69.5 -61.5q43 -27 90 -45q39 -14 94 -23q-33 -29 -74 -96t-77 -151q-29 -66 -58 -191q-25 -104 -24 -219q0 -119 28 -205q27 -80 74 -133q43 -49 96 -72q49 -20 99 -20h221q53 0 102 -6t88 -22.5t61.5 -45t22.5 -69.5q0 -37 -22 -76 q-18 -31 -56 -62q-31 -27 -79 -43q-41 -14 -91 -14q-41 0 -63 8q-25 9 -43 19l-37 18q-16 8 -43 8q-41 0 -68 -16q-25 -14 -24 -41q0 -12 10 -27q10 -12 35 -22q31 -10 63 -17q41 -6 97 -6q94 0 170 29q70 27 121 74q47 43 71 100q25 55 25 109q0 68 -19 116q-18 47 -57 78 q-37 29 -106 45q-59 14 -158 15h-158q-35 0 -70 6q-41 8 -65 22q-33 18 -53 39q-25 25 -43 66q-20 43 -29 94q-10 61 -10 129q0 92 18.5 178t48.5 160q37 86 66 133q43 68 70 94q29 -4 38 -4q6 0 17.5 -1t17.5 -1h39h55q82 0 121 10q47 12 76 29q31 16 39 35q10 20 10 37 q0 31 -32.5 53t-106.5 22q-43 0 -84 -14q-51 -18 -82 -35q-53 -29 -76 -43q-34 -22 -55 -37q-41 6 -78 25q-35 18 -61 41q-31 27 -43 49q-16 29 -17 51q0 33 15 56q16 25 37 40q23 16 55 27q35 10 65 10h17q2 0 6 -1l4 -1q2 0 4 -1t4 -1l4 -1q4 -1 6 -1l9 33l-43 14 q-31 10 -74 11q-49 0 -90 -14.5t-72 -39t-49 -59.5q-18 -34 -18 -74z" />
<glyph unicode="&#x3b7;" horiz-adv-x="1075" d="M45 735h43q0 53 8 88q9 40 25 68q16 29 31 41q16 14 32 14q12 0 25 -6q10 -6 20 -25q8 -14 15 -53q6 -34 6 -92v-770h164v430q0 145 20 258q18 100 51 157.5t74 78.5q45 23 86 22q35 0 61.5 -16.5t41.5 -42.5q14 -25 20 -62q8 -45 8 -73v-1141h164v997q0 133 -25 217 q-25 80 -65 125q-41 43 -92 60q-45 14 -99 14q-45 0 -88 -16q-45 -18 -75 -45q-33 -29 -56 -70q-27 -45 -34 -96q-14 80 -19 92q-12 43 -32.5 71.5t-53.5 47.5q-31 16 -86 16q-43 0 -72 -20q-37 -27 -55 -58q-18 -33 -33 -90q-10 -43 -10 -121z" />
<glyph unicode="&#x3b8;" d="M61 721q0 -74 11 -172q9 -89 30 -172q20 -80 56 -156q33 -72 82 -127t116 -88q66 -31 150 -31q83 0 147 31q66 31 115 86q51 57 86 127q39 80 59 156q25 96 33 172q10 98 10 176t-10 176q-10 106 -28 174q-18 76 -58 158q-33 70 -88 129q-53 57 -121 86q-70 31 -162 31 q-84 0 -147 -33q-68 -35 -113 -92q-53 -68 -79 -133q-35 -88 -52 -160q-20 -88 -28 -172q-9 -76 -9 -166zM246 717h526q0 -178 -18 -307q-18 -133 -52 -215q-33 -84 -81 -127q-47 -41 -104.5 -41t-108.5 34q-45 31 -84 115q-35 78 -58 211q-20 125 -20 330zM246 778 q0 158 18 281q16 113 51 205q31 83 74 122q45 41 90 41q63 0 115 -32q52 -34 92 -111q43 -84 64 -199q23 -131 22 -307h-526z" />
<glyph unicode="&#x3b9;" horiz-adv-x="694" d="M168 266q0 -66 16 -125q14 -53 47 -92t68 -55q40 -18 86 -19q43 0 86 16.5t72 57.5q31 43 49 115q18 70 18 182h-55q0 -88 -12 -143q-12 -51 -31 -84q-18 -31 -41 -41q-25 -10 -39 -10q-10 0 -35 8q-16 6 -32 28q-12 16 -23 64q-10 45 -10 108v728h-164v-738z" />
<glyph unicode="&#x3ba;" horiz-adv-x="1011" d="M139 0h164v449l25 24l284 -387q25 -33 50 -57q23 -23 40 -35q16 -10 37 -14q25 -4 39 -5q29 0 55.5 14.5t53.5 51.5q23 31 39 90t16 135h-41q0 -31 -10 -57q-8 -20 -31 -43q-16 -16 -43 -27q-23 -8 -53 -8q-18 0 -39 6q-29 8 -43 15q-18 8 -41 26q-20 16 -33 35l-229 322 l272 313q2 2 6.5 6t7.5 8t7 6l11 10.5t11 8.5q12 10 23 14q12 6 22 6q14 0 29 -10q12 -9 18 -31q8 -20 17 -28q12 -12 35 -13q37 0 61 27q25 29 25 76q0 43 -27 69.5t-68 26.5q-55 0 -102 -25q-45 -25 -88 -75l-336 -387v467h-164v-1004z" />
<glyph unicode="&#x3bb;" d="M59 0h181l272 721l150 -524q18 -68 38 -107q23 -45 45 -67q25 -25 52 -37q23 -10 61 -11q29 0 53 19q23 16 45 55q20 35 32.5 90.5t12.5 126.5h-38q0 -25 -7 -49q-4 -20 -20 -43q-10 -16 -33 -31q-18 -12 -39 -12q-25 0 -43 8q-29 12 -43 25q-22 18 -37 43q-18 29 -26 63 l-281 987q-18 61 -37 107q-14 33 -43 66q-25 29 -49 36q-31 10 -63 11q-29 0 -62 -17q-31 -14 -53.5 -47t-38.5 -82q-14 -45 -14 -112h41q0 18 10 42.5t25 38.5q18 18 36 27q25 10 47.5 10t51.5 -14q23 -12 43 -35q16 -18 32 -49q10 -18 23 -59l53 -189z" />
<glyph unicode="&#x3bc;" horiz-adv-x="1169" d="M139 -186q0 -57 8 -119q6 -45 18.5 -69.5t29.5 -31.5q20 -8 30 -8q33 0 51 17q23 18 23 55q0 55 -16 98q-8 27 -18.5 55.5l-20.5 57.5q-12 35 -37 137q-16 68 -17 178q10 -37 27 -67q20 -41 47 -68q35 -35 72 -53q41 -20 100 -21q66 0 113 33q51 35 86 84q33 45 59 117 q25 65 37 129q2 -100 19 -172q14 -63 45 -113q27 -41 67 -59q39 -18 84 -19q41 0 76 25q33 25 55 66q25 45 33 94q10 57 10 110h-37q0 -41 -10 -86q-10 -41 -24 -71q-16 -33 -33 -49.5t-37.5 -16.5t-34.5 10q-18 12 -33 35q-12 20 -22 64q-10 45 -10 94v754h-164v-492 q0 -18 -8 -80q-8 -55 -20.5 -100t-37.5 -103q-18 -45 -51 -92q-29 -41 -65.5 -65.5t-77.5 -24.5q-33 0 -60 21q-33 25 -49 51q-16 25 -31 74q-12 41 -12 77v734h-164v-1190z" />
<glyph unicode="&#x3bd;" horiz-adv-x="1042" d="M39 778q0 -2 1 -10t1 -14t1 -13.5t1 -9.5v-10h47q-2 0 -2 12v27q0 33 8 65q6 27 17 43q8 12 22 21q12 6 21 6q23 0 39 -23q14 -20 24 -51l313 -821h60l350 786q23 51 29 76q8 31 8 72q0 20 -6 35q-6 16 -19 28q-18 18 -24 21q-16 6 -33 6q-39 0 -57 -16q-27 -23 -37 -43 q-12 -25 -18.5 -55.5t-6.5 -57.5q0 -20 2 -33q2 -6 2 -16t2 -17q0 -6 1 -17t3 -17q2 -10 2.5 -31t-4.5 -86q-2 -47 -22 -90l-141 -326l-228 598q-20 49 -33 74q-20 43 -38 67q-16 25 -52 48q-28 18 -61 18q-51 0 -84 -20.5t-53 -57.5q-16 -29 -27 -80q-8 -39 -8 -88z" />
<glyph unicode="&#x3be;" horiz-adv-x="1024" d="M12 1331q0 -35 27 -71q23 -31 65 -58q39 -25 91 -43q49 -18 98 -24q-41 -33 -57 -56q-27 -37 -43 -69q-20 -43 -29 -72q-10 -41 -10 -70q0 -59 26 -116q25 -53 90 -97q-47 -25 -77 -51q-37 -31 -66 -78q-31 -53 -45 -106q-16 -66 -16 -144q0 -70 28 -122t74 -86 q51 -37 100 -52q59 -16 115 -16h188q55 0 107 -6q49 -6 92 -23q41 -16 68 -45q25 -29 24 -76q0 -46 -24 -79q-27 -37 -58 -60q-35 -25 -75 -37q-43 -12 -80 -12q-43 0 -68 8q-37 12 -53 19q-25 10 -47 18q-18 8 -47 8q-35 0 -58 -14q-25 -16 -24 -41q0 -29 45 -51.5 t141 -22.5q121 0 201 31q74 29 129 84q45 45 67 111q20 59 21 120q0 115 -84 166q-88 53 -250 54h-178q-90 0 -145.5 18t-90.5 47q-33 27 -45 62q-12 33 -12 65q0 46 18 92q20 51 43 84q27 37 62 70q25 23 65 43q27 -8 62 -21q29 -10 76 -20q51 -12 86 -17q46 -6 92 -6 q68 0 98 2q45 2 82 13q41 10 59 26q20 18 20.5 45t-18.5 45q-16 16 -51 27q-31 10 -69 12q-53 4 -78 4q-80 0 -156 -12q-84 -14 -156 -33l-53 27q-23 14 -45 36.5t-34.5 53.5t-12.5 74q0 40 12 74q14 41 29 61q12 16 43 53q14 16 47 41q25 -4 51 -6l68 -6q45 -4 70 -4 q12 0 35.5 -1t33.5 -1q63 0 125 8q45 6 69.5 18.5t30.5 26.5q6 15 7 31q0 15 -7 30q-6 14 -26 25q-23 12 -45 16q-27 6 -74 7q-59 0 -100 -9q-55 -10 -88 -20q-12 -4 -78 -31q-41 -16 -70 -33q-109 16 -162 58q-55 43 -55 98t45 82t131 27q40 0 68 -7l8 33q-6 2 -19.5 6 t-17.5 4q-20 6 -69 7q-139 0 -201 -41q-66 -44 -66 -105z" />
<glyph unicode="&#x3bf;" horiz-adv-x="1120" d="M61 506q0 -111 35 -201q39 -98 101 -170q66 -76 151 -117q90 -43 193 -43q101 0 190 43q86 41 152 117q68 78 102 166q37 95 37 197q0 115 -35 204q-37 96 -100 166q-68 74 -150 115t-192 41q-106 0 -195 -43q-90 -43 -153 -113q-61 -66 -101 -166q-35 -87 -35 -196z M233 563q0 72 13 146q12 70 47 131q33 57 88 94t137 37t148 -47q59 -43 104 -119q41 -72 64 -166q23 -96 22 -180q0 -78 -16 -160q-14 -70 -52 -137q-33 -59 -90 -99q-55 -37 -129 -36q-57 0 -106 22q-51 25 -86 61.5t-64 92.5q-25 47 -45 110q-16 53 -26 123q-9 57 -9 127z " />
<glyph unicode="&#x3c0;" horiz-adv-x="1243" d="M39 256q0 -53 6 -102q6 -47 23 -91q14 -39 42.5 -63.5t71.5 -24.5q57 0 103 29q43 27 67 78q20 43 35 117q12 68 12 145v533h306v-641q0 -43 6 -89q4 -35 30 -84q20 -37 66 -63q43 -25 115 -25q47 0 86 21q43 23 67 61q33 49 45 103q16 66 17 143h-37q0 -65 -13 -110 q-12 -47 -30.5 -78t-41 -45.5t-46.5 -14.5q-31 0 -51 15q-16 12 -31 43q-10 25 -15 67q-4 53 -4 90v607h127q43 0 72 14t47 39q16 23 27 57q8 31 8 70h-41q-2 -10 -12.5 -20.5t-22.5 -16.5q-23 -10 -29 -12q-20 -4 -32 -4h-731q-63 0 -107 -25q-45 -25 -72 -61 q-29 -39 -41 -80q-12 -43 -12 -76h39q4 16 12 33q10 20 27 36q20 20 51 33t82 13h84v-326q0 -86 -10 -162q-10 -70 -25 -115q-18 -53 -33 -77q-16 -29 -40 -45q-20 -14 -39 -20.5t-35 -6.5q-35 0 -60 37q-27 39 -26 94h-37z" />
<glyph unicode="&#x3c1;" horiz-adv-x="1120" d="M94 -186q0 -57 4 -119q2 -43 17 -70q12 -25 28 -31q25 -8 47 -8q46 0 68 25q23 27 23 72q0 35 -7 63q-2 10 -9 29.5t-9 23.5l-9 26.5l-11 31.5q-14 35 -23 77q-14 76 -18 111q-6 66 -7 162q72 -123 168 -178q94 -53 217 -54q101 0 190.5 43t154.5 117q66 74 100 166 q37 95 37 197q0 109 -37 204q-39 100 -100 168q-68 74 -150 115q-86 43 -190 43q-102 0 -193 -43q-88 -43 -154 -115q-63 -70 -100 -165q-37 -94 -37 -199v-692zM266 569q0 76 15 146q16 80 47 133q35 61 88 96q55 37 135 37q57 0 100 -20q45 -23 84 -60q37 -37 66 -88 q35 -59 49 -108q20 -66 29 -119q10 -68 10 -121q0 -74 -17 -160q-14 -72 -51 -139q-35 -63 -90 -100t-129 -37q-57 0 -106.5 22.5t-85.5 63.5q-35 37 -64 92q-27 49 -45 112q-16 57 -27 123q-8 57 -8 127z" />
<glyph unicode="&#x3c2;" horiz-adv-x="956" d="M98 504q0 -104 15 -170q16 -72 39 -121q25 -51 59 -86q27 -27 76 -51q43 -20 90 -31q61 -12 96 -14q37 -4 59 -4q20 0 58 -4q33 -2 72 -13q31 -8 65 -30q23 -14 45 -50q18 -28 19 -67q0 -43 -21 -76q-25 -37 -51 -59q-25 -20 -66 -37q-35 -14 -65 -15q-35 0 -68 9 q-49 12 -71 18q-55 16 -64 18q-27 8 -47 9q-31 0 -49 -21q-16 -18 -17 -53q0 -16 4 -25q6 -12 22.5 -22t47.5 -16.5t86 -6.5q115 0 189 29q76 29 135 82q51 45 82 117q29 68 28 137q0 127 -78 192q-76 63 -235 64q-78 0 -152 12q-80 14 -129 43q-59 37 -92 92 q-33 57 -33 154q0 98 27 157.5t78 98.5q47 35 117 51q63 14 149 14h25q4 0 10 -1t8 -1h14q2 0 9.5 -1t13.5 -1q66 0 119 25q45 20 71 57q29 41 37 74q8 35 9 76h-35q-12 -16 -21 -25q-12 -12 -30 -18q-23 -8 -46 -10q-37 -4 -67 -5q-23 0 -72 4.5t-67 4.5q-55 0 -84 -4 q-55 -8 -90 -23q-47 -20 -84 -51q-43 -37 -72 -88q-31 -55 -49.5 -139t-18.5 -199z" />
<glyph unicode="&#x3c3;" horiz-adv-x="1120" d="M61 506q0 -111 35 -201q37 -96 99 -170q59 -72 147 -117q83 -43 178 -43q102 0 186.5 43t145.5 117t94 166t33 197q0 51 -14 118q-12 59 -39 113q-29 59 -66 100q-40 46 -92 74l14 -2q6 -2 19.5 -3t19.5 -1q8 -2 26.5 -3t26.5 -1q18 -2 58 -2q51 0 75.5 18.5t36.5 44.5 q14 33 15 58v55h-27l-16 -23q-10 -14 -25 -22q-25 -14 -37 -18q-20 -6 -51 -7q-20 0 -43 2q-39 2 -74 5l-86 6q-47 4 -77 6q-14 2 -48 6q-16 2 -51 2q-94 0 -180 -43q-82 -41 -147 -113q-57 -61 -99 -166q-37 -92 -37 -196zM233 569q0 82 17 146q18 68 53 129q31 53 86 92 q49 35 119 35q55 0 96 -21q43 -20 76 -57q39 -41 59.5 -84t38.5 -107q15 -55 25 -116q8 -55 8 -121q0 -86 -14 -160q-14 -76 -47 -141q-29 -59 -82 -98q-51 -39 -119 -39q-55 0 -105 22q-47 23 -82 64q-37 43 -59 92q-27 55 -41 114q-18 70 -22 123q-7 66 -7 127z" />
<glyph unicode="&#x3c4;" horiz-adv-x="929" d="M37 770h35q0 18 6 37q10 29 16 37q12 16 33 24q25 10 51 11q2 0 22.5 -1t37.5 -1h48t56 -3v-638q0 -43 6 -89q4 -35 31 -84q20 -37 65 -63q43 -25 113 -25q96 0 147.5 82t51.5 246h-37q0 -72 -10 -110q-14 -53 -29 -78q-18 -31 -38.5 -45.5t-43.5 -14.5q-35 0 -51 15 q-20 16 -29 43q-6 20 -10 67q-2 27 -2 90v600q78 -4 102 -4h64q39 0 71 17q29 14 50 41q16 20 26 61q10 37 10 70h-30q-10 -29 -29 -41q-20 -14 -72 -15h-51q-12 0 -39.5 2.5t-44.5 2.5q-14 0 -48 1t-52.5 1t-51 1t-46.5 1q-16 0 -44 2t-40 2h-54q-96 0 -143 -65.5 t-47 -176.5z" />
<glyph unicode="&#x3c5;" horiz-adv-x="1118" d="M35 745h28q0 76 15 113q16 41 37 60q27 23 39 24q6 0 12 1t10 2t6 1q12 0 31 -6q23 -8 33 -20q20 -25 26 -50q10 -37 11 -88v-481q0 -72 18 -131t55 -102t95 -68t135 -25q83 0 147.5 31t110.5 86q51 61 80 127q35 82 51 150q16 72 26 161q8 74 9 158q0 113 -13 180 q-12 66 -30 101q-20 37 -43 45q-27 10 -47 10q-47 0 -78 -24.5t-31 -90.5q0 -41 10 -82q8 -35 25 -69q20 -45 33 -68q25 -45 34 -69q16 -39 25 -76q10 -45 10 -88q0 -71 -18 -148q-18 -74 -56 -139q-35 -59 -90 -102q-53 -41 -120 -41q-45 0 -78 20q-29 18 -54 59 q-25 43 -32 89q-10 57 -11 114v441q0 82 -22 137q-23 51 -53 84q-27 25 -72 41q-37 12 -68 12q-2 0 -10 -1t-14 -1q-20 0 -39 -8q-27 -12 -47 -27q-23 -16 -41 -47q-23 -37 -33 -78q-12 -47 -12 -117z" />
<glyph unicode="&#x3c6;" horiz-adv-x="1327" d="M76 559q0 -139 45 -237q47 -104 120.5 -172t174.5 -109q104 -43 200 -51v-379h164v379q119 16 203 63q90 51 143 125q57 80 84 176q27 98 27 224q0 115 -23 200q-20 80 -63 140q-39 55 -96 79q-59 27 -119 27q-78 0 -141 -41q-53 -35 -99 -106q-37 -61 -59 -142 q-20 -76 -21 -153v-535q-184 23 -268 158q-84 137 -84 391q0 96 15 162q14 68 40 116q27 51 54 72q31 25 59 25q39 0 78 -20.5t84 -78.5l29 27q-20 33 -35 47q-23 23 -47 39q-33 23 -56 29q-35 10 -65 10q-57 0 -121 -29q-61 -28 -111 -86q-51 -61 -82 -145 q-30 -86 -30 -205zM780 45v662q0 74 14.5 118.5t41.5 81.5q23 33 57 49q29 14 63.5 14.5t75.5 -18t76 -65.5q37 -51 57 -125q23 -84 23 -197q0 -96 -18.5 -169.5t-49.5 -129.5q-29 -51 -71.5 -94t-85.5 -66q-51 -27 -93 -40q-39 -13 -90 -21z" />
<glyph unicode="&#x3c7;" horiz-adv-x="1036" d="M45 719h35q0 25 8 47q10 27 25 47q18 27 37 39q20 14 47 14q31 0 55 -12q18 -10 41 -35q20 -23 35 -53q14 -27 30 -72l111 -288l-418 -795h178l314 598l145 -377l45 -117q20 -51 37 -75q18 -29 41 -41q20 -12 59 -12.5t64 26.5q18 20 37 72q10 31 18 98q6 55 6 111h-32 q0 -20 -7 -48q-6 -25 -22 -49q-18 -27 -37 -39q-23 -16 -49 -16q-23 0 -41 12q-20 14 -33 31q-12 18 -26 49l-27 66l-143 374l383 730h-179l-280 -535q0 2 -8 23l-21 51q-6 14 -11 32.5t-13 36.5l-27 68l-21 53l-8 21q-33 84 -51 123q-27 55 -47 84q-23 31 -51.5 47 t-59.5 16q-46 0 -73 -31t-43 -78q-14 -41 -21 -98q-6 -47 -2 -98z" />
<glyph unicode="&#x3c8;" horiz-adv-x="1398" d="M31 745h28q0 70 15 107q16 41 32 57q23 23 39 25q25 4 27 4q33 0 49 -29q16 -31 23 -67q6 -40 6 -86v-82v-64q0 -14 -1 -27.5t-1 -27.5t-1 -28.5t-1 -28.5q0 -8 -1 -30t-1 -34q0 -84 22 -164q20 -74 74 -133q55 -61 133 -96q86 -39 205 -47l-8 -254q0 -35 2 -51 q4 -27 10 -41q8 -14 27 -27q16 -10 45 -10q25 0 45 10q18 8 26 27q6 14 11 41q2 16 2 51l-9 258q109 14 197 72q86 55 143 143q57 86 88 203q31 113 31 243q0 119 -14 185q-16 78 -35 110q-20 39 -47 56q-23 14 -49 14q-16 0 -31 -6t-25 -19q-10 -14 -16 -34q-6 -22 -6 -56 q0 -29 8 -69q6 -29 19 -58l24 -55q2 -2 12.5 -24.5t14.5 -34.5q12 -29 18 -70q8 -49 8 -86q0 -84 -22.5 -164t-65.5 -141q-43 -59 -108 -105q-59 -39 -146 -55l-43 1317q-4 33 -6 47q-4 16 -24.5 16t-24.5 -16q-2 -14 -6 -47l-43 -1317q-86 10 -137 43q-53 35 -82 84 q-27 47 -41 121q-12 68 -12 147q0 74 2 107t2 108q0 82 -13 150q-14 74 -34 117q-23 45 -58 73q-33 27 -80 27q-2 0 -12 -1t-16 -1q-20 0 -39 -8q-29 -12 -45 -27q-27 -23 -41 -47q-18 -31 -30.5 -78t-12.5 -117z" />
<glyph unicode="&#x3c9;" horiz-adv-x="1466" d="M66 483q0 -111 30 -202q33 -100 78 -162q49 -68 117 -107q66 -37 139 -37q58 0 105 19q45 18 81 49q43 35 64 72q27 47 43 90h10q16 -43 43 -90q20 -37 64 -72q37 -31 82 -49.5t106 -18.5q74 0 139 37q63 37 115 107q47 66 80 162q31 92 31 202q0 121 -35 219 q-31 90 -92 160q-57 68 -127 107q-76 43 -140 59l-10 -41q53 -23 98 -80q39 -49 68 -121q25 -63 39 -139q14 -82 14 -131q0 -133 -18 -225q-20 -100 -47 -152q-31 -59 -70 -85.5t-84 -26.5q-33 0 -65 16q-27 14 -54 43q-31 33 -45 61q-18 34 -30 68q-16 43 -21 68 q-6 31 -6 53q0 37 8 76q8 43 19 88l18 88q8 39 8 84q0 74 -26 114q-25 37 -68 37t-67.5 -36.5t-24.5 -114.5q0 -45 8 -84l19 -88l11 -46t9 -42q8 -39 8 -76q0 -14 -8 -55q-6 -33 -18 -66q-8 -23 -33 -68q-14 -29 -45 -61q-27 -29 -54 -43q-33 -16 -65 -16q-45 0 -84 26 q-43 31 -70 86q-29 61 -47 152q-16 82 -16 225q0 74 10 131q12 70 37 133q23 59 65 119q39 53 103 88l-10 41q-70 -25 -138 -63q-70 -39 -124 -105q-59 -70 -93 -158q-34 -94 -34 -219z" />
<glyph unicode="&#x3ca;" horiz-adv-x="694" d="M158 266q0 -66 16 -125q14 -53 47 -92t68 -55q40 -18 86 -19q43 0 86 16.5t72 57.5q31 43 49 115q18 70 18 182h-55q0 -88 -12 -143q-12 -51 -31 -84q-18 -31 -41 -41q-25 -10 -39 -10q-10 0 -35 8q-16 6 -32 28q-12 16 -23 64q-10 45 -10 108v728h-164v-738zM-117 1266 q0 -27 8 -45q9 -22 24.5 -37.5t37.5 -24.5q18 -8 44.5 -8t45.5 8q22 9 36 25q12 12 22.5 36.5t10.5 45t-10 45.5q-10 20 -23 35q-15 15 -36 24q-25 10 -45.5 10t-44.5 -10q-22 -9 -37 -24q-16 -16 -24.5 -34.5t-8.5 -45.5zM354 1266q0 -27 8 -45q9 -22 24.5 -37.5 t37.5 -24.5q18 -8 44.5 -8t45 8t34.5 25q15 15 25 37q10 25 10 45t-10 45q-8 18 -24.5 34.5t-34.5 24.5q-25 10 -45.5 10t-44.5 -10q-22 -9 -37 -24q-16 -16 -24.5 -34.5t-8.5 -45.5z" />
<glyph unicode="&#x3cb;" horiz-adv-x="1118" d="M23 745h28q0 76 15 113q16 41 37 60q27 23 39 24q6 0 12 1t10 2t6 1q12 0 31 -6q23 -8 33 -20q20 -25 26 -50q10 -37 11 -88v-481q0 -72 18 -131t55 -102t95 -68t135 -25q83 0 147.5 31t110.5 86q51 61 80 127q35 82 51 150q16 72 26 161q8 74 9 158q0 113 -13 180 q-12 66 -30 101q-20 37 -43 45q-27 10 -47 10q-47 0 -78 -24.5t-31 -90.5q0 -41 10 -82q8 -35 25 -69q20 -45 33 -68q25 -45 34 -69q16 -39 25 -76q10 -45 10 -88q0 -71 -18 -148q-18 -74 -56 -139q-35 -59 -90 -102q-53 -41 -120 -41q-45 0 -78 20q-29 18 -54 59 q-25 43 -32 89q-10 57 -11 114v441q0 82 -22 137q-23 51 -53 84q-27 25 -72 41q-37 12 -68 12q-2 0 -10 -1t-14 -1q-20 0 -39 -8q-27 -12 -47 -27q-23 -16 -41 -47q-23 -37 -33 -78q-12 -47 -12 -117zM225 1266q0 -27 8 -45q9 -22 24.5 -37.5t37.5 -24.5q18 -8 44.5 -8 t45.5 8q22 9 36 25q12 12 22.5 36.5t10.5 45t-10 45.5q-10 20 -23 35q-15 15 -36 24q-25 10 -45.5 10t-44.5 -10q-22 -9 -37 -24q-16 -16 -24.5 -34.5t-8.5 -45.5zM696 1266q0 -27 8 -45q9 -22 24.5 -37.5t37.5 -24.5q18 -8 44.5 -8t45 8t34.5 25q15 15 25 37q10 25 10 45 t-10 45q-8 18 -24.5 34.5t-34.5 24.5q-25 10 -45.5 10t-44.5 -10q-22 -9 -37 -24q-16 -16 -24.5 -34.5t-8.5 -45.5z" />
<glyph unicode="&#x3cc;" horiz-adv-x="1120" d="M61 506q0 -111 35 -201q39 -98 101 -170q66 -76 151 -117q90 -43 193 -43q101 0 190 43q86 41 152 117q68 78 102 166q37 95 37 197q0 115 -35 204q-37 96 -100 166q-68 74 -150 115t-192 41q-106 0 -195 -43q-90 -43 -153 -113q-61 -66 -101 -166q-35 -87 -35 -196z M233 563q0 72 13 146q12 70 47 131q33 57 88 94t137 37t148 -47q59 -43 104 -119q41 -72 64 -166q23 -96 22 -180q0 -78 -16 -160q-14 -70 -52 -137q-33 -59 -90 -99q-55 -37 -129 -36q-57 0 -106 22q-51 25 -86 61.5t-64 92.5q-25 47 -45 110q-16 53 -26 123q-9 57 -9 127z M522 1165l45 -2l178 381q8 25 8 37t-8 37q-4 12 -23 27q-14 12 -41 12q-37 0 -63.5 -26.5t-32.5 -61.5z" />
<glyph unicode="&#x3cd;" horiz-adv-x="1118" d="M35 745h28q0 76 15 113q16 41 37 60q27 23 39 24q6 0 12 1t10 2t6 1q12 0 31 -6q23 -8 33 -20q20 -25 26 -50q10 -37 11 -88v-481q0 -72 18 -131t55 -102t95 -68t135 -25q83 0 147.5 31t110.5 86q51 61 80 127q35 82 51 150q16 72 26 161q8 74 9 158q0 113 -13 180 q-12 66 -30 101q-20 37 -43 45q-27 10 -47 10q-47 0 -78 -24.5t-31 -90.5q0 -41 10 -82q8 -35 25 -69q20 -45 33 -68q25 -45 34 -69q16 -39 25 -76q10 -45 10 -88q0 -71 -18 -148q-18 -74 -56 -139q-35 -59 -90 -102q-53 -41 -120 -41q-45 0 -78 20q-29 18 -54 59 q-25 43 -32 89q-10 57 -11 114v441q0 82 -22 137q-23 51 -53 84q-27 25 -72 41q-37 12 -68 12q-2 0 -10 -1t-14 -1q-20 0 -39 -8q-27 -12 -47 -27q-23 -16 -41 -47q-23 -37 -33 -78q-12 -47 -12 -117zM600 1165l45 -2l178 381q8 25 8 37t-8 37q-4 12 -23 27q-14 12 -41 12 q-37 0 -63.5 -26.5t-32.5 -61.5z" />
<glyph unicode="&#x3ce;" horiz-adv-x="1466" d="M66 483q0 -111 30 -202q33 -100 78 -162q49 -68 117 -107q66 -37 139 -37q58 0 105 19q45 18 81 49q43 35 64 72q27 47 43 90h10q16 -43 43 -90q20 -37 64 -72q37 -31 82 -49.5t106 -18.5q74 0 139 37q63 37 115 107q47 66 80 162q31 92 31 202q0 121 -35 219 q-31 90 -92 160q-57 68 -127 107q-76 43 -140 59l-10 -41q53 -23 98 -80q39 -49 68 -121q25 -63 39 -139q14 -82 14 -131q0 -133 -18 -225q-20 -100 -47 -152q-31 -59 -70 -85.5t-84 -26.5q-33 0 -65 16q-27 14 -54 43q-31 33 -45 61q-18 34 -30 68q-16 43 -21 68 q-6 31 -6 53q0 37 8 76q8 43 19 88l18 88q8 39 8 84q0 74 -26 114q-25 37 -68 37t-67.5 -36.5t-24.5 -114.5q0 -45 8 -84l19 -88l11 -46t9 -42q8 -39 8 -76q0 -14 -8 -55q-6 -33 -18 -66q-8 -23 -33 -68q-14 -29 -45 -61q-27 -29 -54 -43q-33 -16 -65 -16q-45 0 -84 26 q-43 31 -70 86q-29 61 -47 152q-16 82 -16 225q0 74 10 131q12 70 37 133q23 59 65 119q39 53 103 88l-10 41q-70 -25 -138 -63q-70 -39 -124 -105q-59 -70 -93 -158q-34 -94 -34 -219zM707 1165l45 -2l178 381q8 25 8 37t-8 37q-4 12 -23 27q-14 12 -41 12 q-37 0 -63.5 -26.5t-32.5 -61.5z" />
<glyph unicode="&#x3d0;" horiz-adv-x="1034" d="M70 743q0 -59 10 -155t28.5 -170t57.5 -166q33 -76 88 -141q53 -63 121 -99q72 -37 160 -37q115 0 192 35q80 37 135 96q55 61 80 142q27 86 27 166q0 94 -35 176q-33 76 -90 137q-59 61 -123 94q-68 33 -137 43q78 33 118 58q51 31 89 69q37 40 55 86q18 45 18 109 q0 61 -26 112q-29 55 -72 93q-49 43 -109 63q-63 23 -131 23q-115 0 -198 -58q-82 -55 -142 -155q-61 -104 -88 -234q-28 -140 -28 -287zM264 760q10 2 24.5 7t33.5 9q12 4 35.5 9.5t33.5 7.5q25 6 78 14q27 4 76 4q12 0 37 -10q22 -9 49 -31q33 -25 55 -53q35 -43 51 -78 q22 -46 37 -104q14 -55 14 -132q0 -88 -18 -157q-20 -76 -49 -119q-33 -47 -86 -73.5t-117 -26.5q-43 0 -82 28q-37 27 -63 76q-20 39 -47 119q-25 74 -35 149q-12 84 -19 174q-8 124 -8 187zM264 821q0 123 19 234q18 109 49 192q29 78 76 131q43 49 98 49q29 0 67 -16 q31 -12 70 -51q37 -37 57 -86q23 -55 23 -123q0 -47 -25 -90q-20 -37 -67 -76q-43 -37 -90 -61q-41 -23 -103 -47q-35 -14 -96 -35q-37 -13 -78 -21z" />
<glyph unicode="&#x3d1;" horiz-adv-x="1153" d="M61 745h31q0 57 6 95q6 35 17 59q10 23 20 31t23 8q9 0 18 -12q10 -14 17 -35q8 -27 10 -51q4 -41 4 -66q0 -12 -1 -32.5t-1 -28.5t-1 -28.5t-1 -31t-1 -34t-1 -35.5q0 -10 -1 -41t-1 -49q0 -104 26 -193q27 -90 78 -166q47 -70 123 -117q70 -43 162 -43q84 0 155.5 51.5 t130.5 151.5q57 96 93 242q35 150 32 321v33q63 27 95 86q31 57 30 144h-39q0 -58 -24 -99q-27 -43 -64 -65q-6 137 -20 223q-14 94 -41 168q-27 76 -55 119q-35 53 -64 75q-33 27 -69.5 39.5t-67.5 12.5q-51 0 -88 -23q-40 -25 -68 -68q-29 -45 -43 -102t-14 -133 q0 -92 27 -164q29 -76 73.5 -127t110.5 -82q61 -29 135 -33v-12q0 -106 -2 -162q-4 -86 -12 -161q-9 -77 -25 -148q-16 -74 -39 -123q-25 -51 -57 -82q-35 -31 -78 -30q-45 0 -80 22q-33 20 -57 57q-25 35 -43 84q-16 39 -27 99q-12 63 -14 100q-4 66 -4 92q0 23 1 57.5 t1 47.5q0 14 1 37.5t1 31.5q0 10 1 27.5t1 24.5v51q0 76 -16 131q-16 53 -39 82q-20 27 -54 41q-27 12 -53 12q-31 0 -57.5 -6t-50.5 -37q-18 -23 -35 -84q-15 -52 -15 -152zM567 1153q0 119 27 172q29 55 82 55q29 0 53 -34q25 -34 43 -105q20 -78 29 -180q8 -111 12 -262 q-41 2 -86 28q-47 27 -80 66q-35 41 -57.5 108.5t-22.5 151.5z" />
<glyph unicode="&#x3d2;" horiz-adv-x="1654" d="M41 1346q49 0 84 -15q41 -16 63 -35q37 -29 50 -43q16 -20 32 -43l453 -632v-418q0 -33 -18 -58q-20 -27 -50 -41q-35 -16 -65 -22q-49 -8 -70 -8v-31h615v31q-18 0 -68 8q-35 6 -68 22q-29 14 -49 41t-20 58v422l272 536l49 88q25 40 49 68q23 25 56 43q29 16 61 16 q39 0 61.5 -22.5t22.5 -55.5q0 -29 -26 -47q-28 -18 -68 -30q-18 -6 -29 -17q-12 -12 -18 -24q-8 -16 -10 -26.5t-2 -29.5q0 -29 24.5 -53t73.5 -24q33 0 57 18q23 18 43 47q16 25 27 66q8 33 8 73q0 100 -45 146q-47 47 -143 47q-43 0 -88 -16.5t-80 -45.5q-51 -43 -72 -69 q-27 -35 -55 -88l-228 -455l-358 496q-18 25 -14 47t26 39q27 18 62 26q45 10 92 11v30h-637v-30z" />
<glyph unicode="&#x3d3;" horiz-adv-x="2064" d="M397 1346q49 0 84 -15q41 -16 63 -35q37 -29 50 -43q16 -20 32 -43l453 -632v-418q0 -33 -18 -58q-20 -27 -50 -41q-35 -16 -65 -22q-49 -8 -70 -8v-31h615v31q-18 0 -68 8q-35 6 -68 22q-29 14 -49 41t-20 58v422l272 536l49 88q25 40 49 68q23 25 56 43q29 16 61 16 q39 0 61.5 -22.5t22.5 -55.5q0 -29 -26 -47q-28 -18 -68 -30q-18 -6 -29 -17q-12 -12 -18 -24q-8 -16 -10 -26.5t-2 -29.5q0 -29 24.5 -53t73.5 -24q33 0 57 18q23 18 43 47q16 25 27 66q8 33 8 73q0 100 -45 146q-47 47 -143 47q-43 0 -88 -16.5t-80 -45.5q-51 -43 -72 -69 q-27 -35 -55 -88l-228 -455l-358 496q-18 25 -14 47t26 39q27 18 62 26q45 10 92 11v30h-637v-30zM146 1165l45 -2l178 381q8 25 8 37t-8 37q-4 12 -23 27q-14 12 -41 12q-37 0 -63.5 -26.5t-32.5 -61.5z" />
<glyph unicode="&#x3d4;" horiz-adv-x="1654" d="M41 1346q49 0 84 -15q41 -16 63 -35q37 -29 50 -43q16 -20 32 -43l453 -632v-418q0 -33 -18 -58q-20 -27 -50 -41q-35 -16 -65 -22q-49 -8 -70 -8v-31h615v31q-18 0 -68 8q-35 6 -68 22q-29 14 -49 41t-20 58v422l272 536l49 88q25 40 49 68q23 25 56 43q29 16 61 16 q39 0 61.5 -22.5t22.5 -55.5q0 -29 -26 -47q-28 -18 -68 -30q-18 -6 -29 -17q-12 -12 -18 -24q-8 -16 -10 -26.5t-2 -29.5q0 -29 24.5 -53t73.5 -24q33 0 57 18q23 18 43 47q16 25 27 66q8 33 8 73q0 100 -45 146q-47 47 -143 47q-43 0 -88 -16.5t-80 -45.5q-51 -43 -72 -69 q-27 -35 -55 -88l-228 -455l-358 496q-18 25 -14 47t26 39q27 18 62 26q45 10 92 11v30h-637v-30zM477 1624q0 -27 8 -45q9 -22 24.5 -37.5t37.5 -24.5q18 -8 44.5 -8t45.5 8q22 9 36 25q12 12 22.5 36.5t10.5 45t-10 45.5q-10 20 -23 35q-15 15 -36 24q-25 10 -45.5 10 t-44.5 -10q-22 -9 -37 -24q-16 -16 -24.5 -34.5t-8.5 -45.5zM948 1624q0 -27 8 -45q9 -22 24.5 -37.5t37.5 -24.5q18 -8 44.5 -8t45 8t34.5 25q15 15 25 37q10 25 10 45t-10 45q-8 18 -24.5 34.5t-34.5 24.5q-25 10 -45.5 10t-44.5 -10q-22 -9 -37 -24q-16 -16 -24.5 -34.5 t-8.5 -45.5z" />
<glyph unicode="&#x3d5;" horiz-adv-x="1345" d="M70 512q0 -119 38.5 -211t108.5 -161.5t162 -108.5q102 -43 205 -51l-9 -240v-51q2 -23 13 -41q8 -18 26 -27q20 -10 45 -10t46 10q14 8 24 26.5t12 41.5q2 16 2 51l-8 240q102 8 205 51q92 39 161.5 108.5t108.5 161.5t39 211q0 131 -41 221q-41 92 -116 158 q-70 61 -174 96q-90 31 -218 37l-10 340q-4 33 -6 47q-4 16 -25 16q-16 0 -22 -16q-6 -14 -6 -47l-13 -340q-119 -6 -212 -39q-109 -37 -175 -94q-78 -70 -118 -158q-43 -95 -43 -221zM246 512q0 94 26.5 180t71.5 139q51 61 117 95q68 33 155 43l-30 -936q-77 15 -142 55 q-63 39 -106 104.5t-68 143.5q-24 80 -24 176zM702 969q88 -10 156 -43q70 -35 117 -94.5t72 -139.5q27 -86 26 -180q0 -96 -24 -176q-27 -84 -66 -143q-43 -66 -106 -105q-65 -40 -142 -55z" />
<glyph unicode="&#x3d6;" horiz-adv-x="1466" d="M-68 762h37q2 4 5 15t8 18q8 16 28 36q23 23 49 33q31 12 82 13h119q-43 -23 -75.5 -60t-59.5 -88q-27 -53 -41 -111q-16 -66 -16 -135q0 -111 30 -202q33 -100 78 -162q51 -70 115 -107q66 -37 139 -37q58 0 105 19q45 18 81 49q43 35 64 72q27 47 43 90h10 q16 -43 43 -90q20 -37 64 -72q37 -31 82 -49.5t106 -18.5q74 0 139 37q63 37 115 107q47 66 80 162q29 86 29 202q0 113 -33 205q-34 95 -92 166q-59 72 -133 111q-76 39 -158 39h-813q-63 0 -107 -25q-45 -25 -71 -61q-27 -35 -39 -80q-13 -43 -13 -76zM250 516 q0 106 20 170q23 72 54 111q35 43 75 61q43 18 82 19h496q39 0 84 -17q39 -14 74 -57q33 -41 53 -111q20 -68 20 -176q0 -133 -18 -225q-20 -100 -47 -152q-31 -59 -70 -85.5t-84 -26.5q-33 0 -65 16q-27 14 -54 43q-31 33 -45 61q-18 34 -30 68q-16 43 -21 68q-6 31 -6 53 q0 37 8 70q8 37 19 73q12 49 18 76q8 35 8 78q0 76 -26 115q-25 37 -68 36q-43 0 -67.5 -36.5t-24.5 -114.5q0 -43 8 -78q6 -27 19 -76q2 -12 10 -36.5t10 -36.5q8 -33 8 -70q0 -14 -8 -55q-6 -33 -18 -66q-8 -23 -33 -68q-14 -29 -45 -61q-27 -29 -54 -43q-33 -16 -65 -16 q-45 0 -84 26q-43 31 -70 86q-29 61 -47 152q-16 82 -16 225z" />
<glyph unicode="&#x3d7;" horiz-adv-x="1095" d="M23 700h28q0 25 6 52q8 41 19 55q14 23 41 43q25 18 65 18q47 0 76 -41q27 -39 39 -104q14 -72 16 -148q2 -55 2 -161q-70 -70 -102 -115q-40 -55 -61 -98q-25 -51 -33 -78q-10 -37 -10 -55q0 -23 8 -37q12 -20 20 -29q14 -14 31 -20q18 -6 35 -7q37 0 63 27q25 25 45 72 q18 45 31 94q12 52 18 98q23 31 66 74q27 27 84 76q51 45 82 67q41 31 65 52q-4 -49 -4 -76v-66q0 -90 11 -176q8 -76 30.5 -131t53.5 -84q29 -27 69 -27q27 0 47 7q-45 -76 -98 -113q-55 -39 -111 -39q-23 0 -37 10l-24 25q-12 12 -31 24q-12 8 -55 13q-16 0 -26.5 -6.5 t-24.5 -20.5q-12 -12 -19 -27q-8 -20 -8 -26q0 -41 41 -66q43 -27 117 -26q63 0 123 26q53 25 102 70q47 43 84 102q33 53 59 121q25 66 37 127q12 65 13 123h-35q0 -4 -10 -47q-6 -25 -23 -55q-14 -27 -39 -47q-23 -18 -53 -19q-35 0 -60 29q-29 31 -43 73.5t-24 96.5 q-8 47 -8 104v51v37q0 8 1 15.5t1 13.5q0 20 2 33l90 104q33 43 57 86q27 47 33 76q10 41 10 72q0 14 -4 39q-4 20 -8 32q-2 6 -19 23q-8 8 -24 8q-35 0 -68 -23q-31 -20 -55 -65q-23 -41 -39 -100q-18 -68 -20 -129q-31 -23 -68 -54l-40.5 -31.5l-37.5 -29.5 q-23 -18 -43 -36.5l-37 -33.5l-75 -65q2 12 2 39v47q0 117 -13 205q-12 86 -34 151q-23 63 -54 92q-37 33 -75 33q-84 0 -127 -86t-43 -238z" />
<glyph unicode="&#x3da;" horiz-adv-x="1198" d="M76 690q0 -154 28 -272q27 -111 74 -189q43 -70 113 -120q61 -43 139 -70t156 -35q55 -6 162 -14q63 -4 92 -10q51 -10 73 -25q33 -20 50 -47q18 -31 18 -76q0 -20 -8 -45q-10 -29 -26.5 -51.5t-47.5 -40.5q-27 -16 -74 -17q-51 0 -77 9q-43 12 -52 16q-10 6 -18 10 l-16 8q-14 8 -37 8.5t-39.5 -6t-28.5 -18.5q-10 -10 -16 -27q-6 -14 -6 -28q0 -25 12 -37t35 -19q29 -8 57 -8h74q66 0 133 24.5t118.5 70t86 115t34.5 157.5q0 59 -20 100q-23 47 -66 72q-41 25 -118 41q-70 14 -181 14q-106 0 -204 31q-100 31 -174 96q-78 68 -119 160 q-45 100 -45 227q0 121 35 209q39 96 100 158q68 66 156 100q92 35 200 35h307q20 0 35 -8q8 -6 25 -29q12 -20 22 -51q20 -70 23 -76h26l-38 344h-428q-55 0 -117 -12q-51 -10 -121 -45q-63 -33 -117 -82q-57 -55 -98 -127q-45 -80 -68 -178q-24 -105 -24 -242z" />
<glyph unicode="&#x3db;" horiz-adv-x="956" d="M98 504q0 -117 17 -185q20 -82 47 -129q31 -53 71 -84q35 -27 89 -47q41 -14 102 -22q70 -8 106 -10l60 -4q33 -2 72 -13q31 -8 65 -30q23 -14 45 -50q18 -28 19 -67q0 -43 -21 -76q-25 -37 -51 -59q-25 -20 -66 -37q-35 -14 -65 -15q-35 0 -68 9q-49 12 -71 18 q-55 16 -64 18q-27 8 -47 9q-31 0 -49 -21q-16 -18 -17 -53q0 -16 4 -25q6 -12 22.5 -22t47.5 -16.5t86 -6.5q115 0 189 29q76 29 135 82q51 45 82 117q29 68 28 137q0 127 -78 182q-76 55 -235 55q-82 0 -152 15q-76 16 -129 51q-61 41 -92 96q-33 59 -33 157.5t27 160.5 q29 66 78 106q47 39 117 57q68 18 149 19h205q27 0 41 -8t27 -27q10 -14 20 -47q4 -12 16 -66h23l-37 302h-317q-27 0 -84 -5q-51 -4 -90 -20q-47 -20 -84 -51q-43 -37 -72 -88q-31 -55 -49 -138q-19 -83 -19 -198z" />
<glyph unicode="&#x3dc;" horiz-adv-x="1320" d="M94 0h615v31q-29 0 -70 10q-43 10 -66 25q-29 16 -49 45q-20 27 -20 59v514h250q55 0 94 -22q35 -20 55.5 -55.5t26.5 -65.5q6 -33 6 -54h35v275h-467v475q0 33 16 53q16 18 55 19h373q53 0 92 -17q37 -16 63.5 -44.5t41.5 -67.5q16 -41 24 -82h37l-24 278h-1088v-30 q53 0 99 -11q43 -10 61 -28q25 -25 33 -52q10 -35 10 -73v-1012q0 -33 -21 -59q-23 -31 -47 -45q-23 -14 -65 -25q-41 -10 -70 -10v-31z" />
<glyph unicode="&#x3dd;" horiz-adv-x="923" d="M139 -389h164v903h166q49 0 78 -14q31 -16 47 -37q16 -23 27 -55q6 -20 10 -64h28v234h-356v182q0 43 10 80q10 35 35 57q25 20 62 33q33 10 94 10h112q74 0 111 -39q37 -41 55 -131h29l-23 234h-342q-63 0 -112 -17q-59 -20 -98 -53q-41 -35 -70 -96q-27 -55 -27 -142 v-1085z" />
<glyph unicode="&#x3de;" horiz-adv-x="1021" d="M33 586h774l-236 -611h103l311 811h-772l238 615h-103z" />
<glyph unicode="&#x3df;" horiz-adv-x="1003" d="M74 649h723l-260 -674h75l320 826h-723l260 676h-76z" />
<glyph unicode="&#x3e0;" horiz-adv-x="1550" d="M203 391q-10 -14 0 -20q10 -8 41 -11q20 -2 82 -2l841 725l13 -18l10 -21l-817 -884q-66 -70 -99 -97q-39 -33 -45 -32v-31h332v31q-37 -2 -63 8q-20 8 -28.5 22.5t-2.5 34.5q6 16 25 39l743 811q25 -70 35 -125q12 -63 12 -131q0 -162 -37 -280.5t-98 -198.5 q-59 -78 -146 -119q-80 -39 -176 -39q-16 0 -22 -12q-8 -16 -8 -27q0 -14 6 -26.5t24 -12.5q109 0 205 31q94 31 170 82q77 52 135 123q55 66 97 149q39 76 57 166q20 96 20 168q0 84 -20.5 166t-61.5 164q-37 74 -100 147q-53 61 -137 119q-74 49 -170 82q-86 29 -203 29 q-90 0 -160 -15q-72 -14 -131 -36q-55 -20 -106 -52q-37 -23 -80 -57q-23 -18 -53 -53q-23 -27 -31 -39q-12 -20 0 -33q14 -14 33 -20q16 -6 38.5 -2t28.5 16q10 16 39 51q25 29 86 74q47 33 135 68q80 31 187 30q76 0 160 -45q82 -43 145 -123l-870 -739q-25 -23 -35 -35z " />
<glyph unicode="&#x3e1;" d="M90 500l16 -84l646 626q16 -111 18 -266l-555 -536l18 -82l537 518q-4 -176 -25 -299q-23 -133 -53 -201q-33 -76 -80 -112.5t-98 -36.5q-10 0 -12 -9q-4 -12 -4 -18q0 -4 4 -16q2 -8 12 -9q47 0 92 15q47 14 101 51q41 29 94 92q45 55 79.5 139t55.5 193 q20 104 20 251.5t-18 262.5q-18 117 -51 199q-31 76 -78 141q-37 51 -96 92q-51 35 -107 51q-51 14 -112 15q-74 0 -134 -27q-49 -23 -108 -74q-45 -39 -82 -100.5t-51 -110.5q-2 -12 4 -18q10 -10 16 -12t19 -2q8 0 12 10q18 57 51 108q29 45 78 90q47 43 90 64 q49 23 88 22q37 0 80 -16q45 -16 74 -49q37 -41 61 -92q27 -55 45 -142z" />
<glyph unicode="&#x3f0;" horiz-adv-x="1095" d="M23 700h28q0 25 6 52q8 41 19 55q14 23 41 43q25 18 65 18q47 0 76 -41q27 -39 39 -104q14 -72 16 -148q2 -55 2 -161q-70 -70 -102 -115q-40 -55 -61 -98q-25 -51 -33 -78q-10 -37 -10 -55q0 -23 8 -37q12 -20 20 -29q14 -14 31 -20q18 -6 35 -7q37 0 63 27q25 25 45 72 q18 45 31 94q12 52 18 98q23 31 66 74q27 27 84 76q51 45 82 67q41 31 65 52q-4 -49 -4 -76v-66q0 -90 11 -176q8 -76 30.5 -131t53.5 -84q29 -27 69 -27q47 0 86 23q37 23 60 65q25 49 32 103q10 68 11 133h-35q0 -4 -10 -47q-6 -25 -23 -55q-14 -27 -39 -47 q-23 -18 -53 -19q-35 0 -60 29q-29 31 -43 73.5t-24 96.5q-8 47 -8 104v51v37q0 8 1 15.5t1 13.5q0 20 2 33l90 104q33 43 57 86q27 47 33 76q10 41 10 72q0 14 -4 39q-4 20 -8 32q-2 6 -19 23q-8 8 -24 8q-35 0 -68 -23q-31 -20 -55 -65q-23 -41 -39 -100q-18 -68 -20 -129 q-31 -23 -68 -54l-40.5 -31.5l-37.5 -29.5q-23 -18 -43 -36.5l-37 -33.5l-75 -65q2 12 2 39v47q0 117 -13 205q-12 86 -34 151q-23 63 -54 92q-37 33 -75 33q-84 0 -127 -86t-43 -238z" />
<glyph unicode="&#x3f1;" horiz-adv-x="1120" d="M94 406q0 -98 6 -181q6 -86 31 -162q27 -80 70 -153q43 -72 125 -154q25 -25 71 -45q37 -16 90 -26q61 -12 97 -15q33 -2 90 -6q49 -4 59 -4q18 0 39 -8q12 -4 27 -23q10 -12 30 -47h31l2 10q4 12 4 43q0 86 -67 129q-72 45 -197 52q-80 2 -141 16q-49 10 -96 33 q-35 16 -66 43l-53 53q-18 18 -39 59q-18 37 -30.5 80t-18.5 92.5t-6 96.5q63 -162 170 -236q113 -78 251 -78q101 0 190.5 43t154.5 117q66 74 100 166q37 95 37 197q0 109 -37 204q-39 100 -100 168q-68 74 -150 115q-86 43 -190 43q-102 0 -193 -43q-88 -43 -154 -115 q-63 -70 -100 -165q-37 -94 -37 -199v-100zM266 569q0 76 15 146q16 80 47 133q35 61 88 96q55 37 135 37q57 0 100 -20q45 -23 84 -60q37 -37 66 -88q35 -59 49 -108q20 -66 29 -119q10 -68 10 -121q0 -74 -17 -160q-14 -72 -51 -139q-35 -63 -90 -100t-129 -37 q-57 0 -106.5 22.5t-85.5 63.5q-35 37 -64 92q-27 49 -45 112q-16 57 -27 123q-8 57 -8 127z" />
<glyph unicode="&#x3f2;" horiz-adv-x="866" d="M61 506q0 -121 27 -215t90 -168q57 -66 162 -109q96 -39 240 -39q57 0 116 15q76 18 131 47l-30 51q-16 -8 -54 -20q-27 -8 -57 -13q-6 0 -17.5 -2t-20.5 -3t-17 -1q-10 0 -25.5 -1t-21.5 -1q-96 0 -160 39q-68 41 -109 107q-39 63 -59 153q-20 96 -20 184q0 106 28 193 q27 82 74 137t108 84q59 27 132 27q35 0 84 -8q45 -8 65 -15l41 -16l16 -8l21 61l-14 6q-15 6 -43 13l-25 6q-25 6 -39 8q-37 6 -80 6q-143 0 -242 -39q-104 -41 -169 -106q-61 -61 -99 -164q-33 -92 -33 -209z" />
<glyph unicode="&#x3f3;" horiz-adv-x="591" d="M-164 -309q0 -16 12.5 -34.5t32.5 -33.5q25 -18 58 -26q37 -10 84 -11q80 0 149 29q66 27 117 88q47 55 76 150q29 92 28 215v958h-45l-278 -115l12 -37q49 16 72 17q25 0 45 -14q8 -6 14 -21q8 -18 10 -43q4 -37 4 -74q0 -14 1 -51t1 -61v-678q0 -16 -1 -49t-1 -50 q0 -45 -10 -90q-10 -41 -31 -65q-23 -25 -57 -25q-20 0 -39 11q-25 14 -45 34q-33 33 -59.5 49.5t-63.5 16.5q-35 0 -61 -27q-25 -24 -25 -63zM203 1323q0 -45 30.5 -75.5t75.5 -30.5q27 0 43.5 8t32.5 24q12 12 23 33q8 16 8 41q0 20 -10 41q-12 25 -22.5 35t-35.5 22 q-16 8 -39 9q-25 0 -41 -9q-20 -10 -32 -22q-14 -14 -25 -35q-8 -16 -8 -41z" />
<glyph unicode="&#x3f4;" horiz-adv-x="1581" d="M80 688q0 -88 26 -188q25 -88 72 -172q45 -78 111 -144q72 -72 143 -112q84 -49 170 -72q92 -25 191 -25q96 0 188 25q86 23 170 72q78 45 145 112q66 66 111 144q45 76 70 172q27 100 26.5 188t-26.5 189q-25 92 -70 170q-47 82 -110.5 145t-145.5 111q-92 53 -170 73 q-92 25 -188 25q-98 0 -191 -25q-78 -20 -170 -73q-78 -45 -143 -111q-63 -63 -111 -145q-49 -84 -72 -170q-26 -101 -26 -189zM305 627h973q-6 -57 -27 -135q-18 -66 -49 -132q-37 -78 -69 -122q-40 -55 -93 -99q-49 -39 -112 -65q-61 -25 -129 -25q-111 0 -201 47 t-151.5 127t-98.5 185q-33 92 -43 219zM305 741q10 119 43 215q39 113 96 191q63 86 146 135q84 51 192 51q74 0 138 -24q74 -29 116 -64q55 -45 97 -98q39 -51 73 -123q31 -66 49 -137q16 -63 23 -146h-973z" />
<glyph unicode="&#x3f5;" horiz-adv-x="866" d="M61 506q0 -121 27 -215t90 -168q57 -66 162 -109q96 -39 240 -39q57 0 116 15q76 18 131 47l-30 51q-16 -8 -54 -20q-27 -8 -57 -13q-6 0 -17.5 -2t-20.5 -3t-17 -1q-10 0 -25.5 -1t-21.5 -1q-78 0 -148 33q-66 31 -108 90q-45 61 -66 139q-25 92 -26 180h464v80h-464 q3 71 24.5 141.5t61.5 129.5q39 57 104.5 94t151.5 37q35 0 84 -8q45 -8 65 -15l41 -16l16 -8l21 61l-14 6q-15 6 -43 13l-25 6q-25 6 -39 8q-37 6 -80 6q-143 0 -242 -39q-104 -41 -169 -106q-61 -61 -99 -164q-33 -92 -33 -209z" />
<glyph unicode="&#x1f00;" horiz-adv-x="1181" d="M47 512q0 -115 35 -215q35 -102 94 -170q66 -74 142 -113q78 -39 170 -39q47 0 96 19q47 18 92 53q37 29 80 86q39 53 63 113q27 -80 39 -111q27 -66 31 -74q23 -41 25 -43q12 -16 22 -22q9 -6 19 -6q4 0 10 -1t8 -1q10 0 35 10q20 8 43 35q20 23 37 69q16 45 16 115h-24 q0 -20 -5 -33q-6 -16 -18 -32q-12 -14 -25 -23q-16 -10 -36 -10q-22 0 -37 6q-20 8 -33 25q-12 18 -33 61q-16 35 -39 106l10.5 42l14.5 61l31 143l32 154q23 109 31 143l23 103l8 41h-152l-73 -375q-12 94 -43 168q-33 78 -74 125q-43 49 -94.5 75.5t-102.5 26.5 q-68 0 -143 -35q-70 -33 -135 -100q-59 -63 -101 -160q-39 -92 -39 -217zM228 504q0 104 20 186q22 86 55 148q35 63 78 98t96 35q58 0 105 -37q41 -33 78 -107q33 -66 55 -161q22 -92 37 -203q-12 -104 -33 -178q-23 -82 -51 -138q-31 -57 -74 -88q-45 -33 -102.5 -32.5 t-108.5 35t-84 98.5q-37 70 -53 151q-18 91 -18 193zM391 1487q0 -23 8.5 -37t24.5 -26.5t33 -18.5q18 -6 39 -6q12 0 28 4q8 2 21 10q4 2 7 3t5 3t6 4q12 4 19 4q10 0 16 -6q8 -8 10 -16q6 -18 6 -21q0 -4 1 -9t1 -7q0 -59 -18 -102q-14 -33 -49 -68q-31 -31 -60 -41 q-37 -14 -61 -16l4 -41q39 2 88 22q43 16 82 54q39 35 59 86q23 55 23 120q0 29 -10 74q-8 37 -30.5 72t-51.5 55.5t-76 20.5q-35 0 -55 -11q-27 -12 -39 -28q-14 -16 -23 -37q-8 -18 -8 -41z" />
<glyph unicode="&#x1f01;" horiz-adv-x="1181" d="M47 512q0 -115 35 -215q35 -102 94 -170q66 -74 142 -113q78 -39 170 -39q47 0 96 19q47 18 92 53q37 29 80 86q39 53 63 113q27 -80 39 -111q27 -66 31 -74q23 -41 25 -43q12 -16 22 -22q9 -6 19 -6q4 0 10 -1t8 -1q10 0 35 10q20 8 43 35q20 23 37 69q16 45 16 115h-24 q0 -20 -5 -33q-6 -16 -18 -32q-12 -14 -25 -23q-16 -10 -36 -10q-22 0 -37 6q-20 8 -33 25q-12 18 -33 61q-16 35 -39 106l10.5 42l14.5 61l31 143l32 154q23 109 31 143l23 103l8 41h-152l-73 -375q-12 94 -43 168q-33 78 -74 125q-43 49 -94.5 75.5t-102.5 26.5 q-68 0 -143 -35q-70 -33 -135 -100q-59 -63 -101 -160q-39 -92 -39 -217zM228 504q0 104 20 186q22 86 55 148q35 63 78 98t96 35q58 0 105 -37q41 -33 78 -107q33 -66 55 -161q22 -92 37 -203q-12 -104 -33 -178q-23 -82 -51 -138q-31 -57 -74 -88q-45 -33 -102.5 -32.5 t-108.5 35t-84 98.5q-37 70 -53 151q-18 91 -18 193zM330 1384q0 -66 23 -120q20 -51 59 -86q43 -41 82 -56q49 -20 90 -22l6 41q-27 2 -63 16q-33 12 -62 41q-31 31 -47 68q-20 47 -20 102q0 10 2 16q2 4 4 10.5t2 10.5q2 6 12 16q6 6 17 6q4 0 16 -4q4 -2 8 -5t10 -5 q10 -8 23 -10q16 -4 29 -4q18 0 36 6q16 6 33 18.5t25 26.5t8 37q0 12 -8 41q-6 20 -23 37q-18 18 -39 26q-27 10 -55 11q-47 0 -76 -21q-27 -18 -51 -53q-20 -31 -31 -72q-10 -45 -10 -72z" />
<glyph unicode="&#x1f02;" horiz-adv-x="1181" d="M47 512q0 -115 35 -215q35 -102 94 -170q66 -74 142 -113q78 -39 170 -39q47 0 96 19q47 18 92 53q37 29 80 86q39 53 63 113q27 -80 39 -111q27 -66 31 -74q23 -41 25 -43q12 -16 22 -22q9 -6 19 -6q4 0 10 -1t8 -1q10 0 35 10q20 8 43 35q20 23 37 69q16 45 16 115h-24 q0 -20 -5 -33q-6 -16 -18 -32q-12 -14 -25 -23q-16 -10 -36 -10q-22 0 -37 6q-20 8 -33 25q-12 18 -33 61q-16 35 -39 106l10.5 42l14.5 61l31 143l32 154q23 109 31 143l23 103l8 41h-152l-73 -375q-12 94 -43 168q-33 78 -74 125q-43 49 -94.5 75.5t-102.5 26.5 q-68 0 -143 -35q-70 -33 -135 -100q-59 -63 -101 -160q-39 -92 -39 -217zM228 504q0 104 20 186q22 86 55 148q35 63 78 98t96 35q58 0 105 -37q41 -33 78 -107q33 -66 55 -161q22 -92 37 -203q-12 -104 -33 -178q-23 -82 -51 -138q-31 -57 -74 -88q-45 -33 -102.5 -32.5 t-108.5 35t-84 98.5q-37 70 -53 151q-18 91 -18 193zM181 1489q0 -23 8 -37q10 -16 22 -27q16 -12 33 -18q18 -6 37 -6q10 0 27 4q4 2 18 10q14 10 16 10q12 4 17 5q10 0 16 -6.5t10 -16.5q0 -2 2 -10t5 -11q2 -6 2 -16q0 -59 -19 -102q-14 -33 -49 -68q-29 -29 -61 -41 q-37 -14 -62 -16l4 -41q39 2 88 22q43 16 82 54q39 35 60 86q23 55 22 120q0 29 -10 70t-29 68q-20 31 -51 51q-29 20 -76 20q-27 0 -51.5 -10t-34.5 -22q-16 -20 -20 -33q-6 -19 -6 -39zM602 1473q4 -25 11 -35l196 -336h47l-90 375q-8 25 -16 37t-29 28q-16 12 -33 19 q-18 6 -36 0q-20 -6 -31 -21q-10 -12 -16 -31q-7 -16 -3 -36z" />
<glyph unicode="&#x1f03;" horiz-adv-x="1181" d="M47 512q0 -115 35 -215q35 -102 94 -170q66 -74 142 -113q78 -39 170 -39q47 0 96 19q47 18 92 53q37 29 80 86q39 53 63 113q27 -80 39 -111q27 -66 31 -74q23 -41 25 -43q12 -16 22 -22q9 -6 19 -6q4 0 10 -1t8 -1q10 0 35 10q20 8 43 35q20 23 37 69q16 45 16 115h-24 q0 -20 -5 -33q-6 -16 -18 -32q-12 -14 -25 -23q-16 -10 -36 -10q-22 0 -37 6q-20 8 -33 25q-12 18 -33 61q-16 35 -39 106l10.5 42l14.5 61l31 143l32 154q23 109 31 143l23 103l8 41h-152l-73 -375q-12 94 -43 168q-33 78 -74 125q-43 49 -94.5 75.5t-102.5 26.5 q-68 0 -143 -35q-70 -33 -135 -100q-59 -63 -101 -160q-39 -92 -39 -217zM228 504q0 104 20 186q22 86 55 148q35 63 78 98t96 35q58 0 105 -37q41 -33 78 -107q33 -66 55 -161q22 -92 37 -203q-12 -104 -33 -178q-23 -82 -51 -138q-31 -57 -74 -88q-45 -33 -102.5 -32.5 t-108.5 35t-84 98.5q-37 70 -53 151q-18 91 -18 193zM118 1384q0 -66 23 -120q20 -51 59 -86q39 -37 82 -54q49 -20 90 -22l4 41q-25 2 -61 16q-27 10 -62 41q-33 29 -49 68q-20 47 -20 102q0 10 2 16q2 2 4 10.5t4 10.5q2 6 12 16q6 6 17 7q8 0 16 -5q6 -4 14 -10 q12 -8 19 -10q12 -4 27 -4q18 0 36 6q20 6 32.5 18.5t21 26.5t8.5 37q0 20 -6 39q-6 16 -19 33q-10 12 -34.5 22t-51.5 10q-47 0 -76 -20q-31 -20 -51 -51q-22 -31 -30 -68q-11 -41 -11 -70zM540 1473q0 -18 10 -35l197 -336h47l-90 375q-8 25 -16 36q-10 16 -27 29 q-14 12 -35 19q-18 6 -37 0q-20 -6 -30 -21q-10 -12 -17 -31q-2 -5 -2 -36z" />
<glyph unicode="&#x1f04;" horiz-adv-x="1181" d="M47 512q0 -115 35 -215q35 -102 94 -170q66 -74 142 -113q78 -39 170 -39q47 0 96 19q47 18 92 53q37 29 80 86q39 53 63 113q27 -80 39 -111q27 -66 31 -74q23 -41 25 -43q12 -16 22 -22q9 -6 19 -6q4 0 10 -1t8 -1q10 0 35 10q20 8 43 35q20 23 37 69q16 45 16 115h-24 q0 -20 -5 -33q-6 -16 -18 -32q-12 -14 -25 -23q-16 -10 -36 -10q-22 0 -37 6q-20 8 -33 25q-12 18 -33 61q-16 35 -39 106l10.5 42l14.5 61l31 143l32 154q23 109 31 143l23 103l8 41h-152l-73 -375q-12 94 -43 168q-33 78 -74 125q-43 49 -94.5 75.5t-102.5 26.5 q-68 0 -143 -35q-70 -33 -135 -100q-59 -63 -101 -160q-39 -92 -39 -217zM228 504q0 104 20 186q22 86 55 148q35 63 78 98t96 35q58 0 105 -37q41 -33 78 -107q33 -66 55 -161q22 -92 37 -203q-12 -104 -33 -178q-23 -82 -51 -138q-31 -57 -74 -88q-45 -33 -102.5 -32.5 t-108.5 35t-84 98.5q-37 70 -53 151q-18 91 -18 193zM195 1489q0 -23 8 -37q6 -10 22 -27q12 -12 31 -18t37 -6q10 0 27 4q8 2 20 10q8 6 14 10q8 4 17 5q10 0 16 -7q10 -10 12 -16q0 -2 2.5 -10t4.5 -11q2 -6 2 -16q0 -59 -19 -102q-14 -33 -49 -68q-29 -29 -63 -41 q-37 -14 -62 -16l6 -41q39 2 88 22q43 16 82 54q39 35 60 86q23 55 22 120q0 29 -10 70t-29 68q-20 31 -51 51q-29 20 -76 20q-29 0 -53.5 -10t-34.5 -22q-12 -16 -18 -33q-6 -19 -6 -39zM567 1102h48l204 336q6 10 11 35q4 20 -2 36q-4 12 -19 31q-12 14 -29 21 q-18 6 -36 0q-20 -6 -35 -19q-16 -12 -27 -29q-14 -20 -16 -36z" />
<glyph unicode="&#x1f05;" horiz-adv-x="1181" d="M47 512q0 -115 35 -215q35 -102 94 -170q66 -74 142 -113q78 -39 170 -39q47 0 96 19q47 18 92 53q37 29 80 86q39 53 63 113q27 -80 39 -111q27 -66 31 -74q23 -41 25 -43q12 -16 22 -22q9 -6 19 -6q4 0 10 -1t8 -1q10 0 35 10q20 8 43 35q20 23 37 69q16 45 16 115h-24 q0 -20 -5 -33q-6 -16 -18 -32q-12 -14 -25 -23q-16 -10 -36 -10q-22 0 -37 6q-20 8 -33 25q-12 18 -33 61q-16 35 -39 106l10.5 42l14.5 61l31 143l32 154q23 109 31 143l23 103l8 41h-152l-73 -375q-12 94 -43 168q-33 78 -74 125q-43 49 -94.5 75.5t-102.5 26.5 q-68 0 -143 -35q-70 -33 -135 -100q-59 -63 -101 -160q-39 -92 -39 -217zM228 504q0 104 20 186q22 86 55 148q35 63 78 98t96 35q58 0 105 -37q41 -33 78 -107q33 -66 55 -161q22 -92 37 -203q-12 -104 -33 -178q-23 -82 -51 -138q-31 -57 -74 -88q-45 -33 -102.5 -32.5 t-108.5 35t-84 98.5q-37 70 -53 151q-18 91 -18 193zM153 1384q0 -66 23 -120q20 -51 59 -86q37 -35 82 -54q45 -20 88 -22l6 41q-25 2 -61 16q-31 10 -63 41q-29 27 -48 68q-20 47 -20 102q0 10 2 16q2 2 4 10.5t4 10.5q2 6 12 16q6 6 17 7q8 0 16 -5l15 -10q12 -8 18 -10 q12 -4 27 -4q18 0 36 6q20 6 33 18.5t21 26.5t8 37q0 20 -6 39q-6 16 -19 33q-10 12 -34.5 22t-51.5 10q-47 0 -75 -20q-35 -25 -54 -51q-22 -31 -30 -68q-9 -33 -9 -70zM547 1102h47l205 336q10 16 10 35q0 31 -2 36q-6 18 -17 31q-10 14 -30 21q-18 6 -37 0 q-20 -6 -35 -19q-20 -16 -29 -29q-14 -20 -16 -36z" />
<glyph unicode="&#x1f06;" horiz-adv-x="1181" d="M47 512q0 -115 35 -215q35 -102 94 -170q66 -74 142 -113q78 -39 170 -39q47 0 96 19q47 18 92 53q37 29 80 86q39 53 63 113q27 -80 39 -111q27 -66 31 -74q23 -41 25 -43q12 -16 22 -22q9 -6 19 -6q4 0 10 -1t8 -1q10 0 35 10q20 8 43 35q20 23 37 69q16 45 16 115h-24 q0 -20 -5 -33q-6 -16 -18 -32q-12 -14 -25 -23q-16 -10 -36 -10q-22 0 -37 6q-20 8 -33 25q-12 18 -33 61q-16 35 -39 106l10.5 42l14.5 61l31 143l32 154q23 109 31 143l23 103l8 41h-152l-73 -375q-12 94 -43 168q-33 78 -74 125q-43 49 -94.5 75.5t-102.5 26.5 q-68 0 -143 -35q-70 -33 -135 -100q-59 -63 -101 -160q-39 -92 -39 -217zM228 504q0 104 20 186q22 86 55 148q35 63 78 98t96 35q58 0 105 -37q41 -33 78 -107q33 -66 55 -161q22 -92 37 -203q-12 -104 -33 -178q-23 -82 -51 -138q-31 -57 -74 -88q-45 -33 -102.5 -32.5 t-108.5 35t-84 98.5q-37 70 -53 151q-18 91 -18 193zM133 1397h55q0 53 23 104q23 49 59 84q39 35 86 53q49 18 102.5 18.5t102.5 -18t90 -53.5q39 -33 63 -82q23 -45 23 -106h66q0 66 -25 131q-25 63 -72 114q-49 53 -110 82q-63 31 -137 31t-136 -31q-55 -27 -102 -82 q-45 -51 -66 -114q-22 -68 -22 -131zM344 1430q0 -23 8 -37q10 -16 22 -27q16 -12 33 -18q18 -6 37 -7q14 0 27 5q6 2 18 10q8 6 16.5 10t16.5 4q10 0 16 -6q10 -10 13 -16q2 -4 4 -10.5t2 -10.5q2 -6 2 -16q0 -61 -21 -94q-25 -39 -49 -56q-28 -18 -61 -24q-49 -8 -62 -11 l4 -45q41 6 88.5 18.5t81.5 39.5q39 29 60 73q23 49 22 113q0 31 -10 72t-29 67q-25 35 -51 52q-31 18 -76 18q-35 0 -53 -8q-23 -10 -35 -25q-12 -16 -18 -33q-6 -18 -6 -38z" />
</font>
</defs>
</svg>
